<?xml version="1.0" encoding="utf-8"?>
<!-- Generator: Adobe Illustrator 21.1.0, SVG Export Plug-In . SVG Version: 6.00 Build 0)  -->
<svg version="1.1" id="Слой_1" xmlns="http://www.w3.org/2000/svg" xmlns:xlink="http://www.w3.org/1999/xlink" x="0px" y="0px"
	 viewBox="0 0 1754 1754" style="enable-background:new 0 0 1754 1754;" xml:space="preserve">
<style type="text/css">
	.st0{fill:#207BBB;}
</style>
<g id="Слой_x0020_1">
	<path class="st0" d="M877,0c484.354,0,877,392.646,877,877s-392.646,877-877,877S0,1361.354,0,877S392.646,0,877,0z M877,83.326
		c438.335,0,793.674,355.34,793.674,793.674S1315.335,1670.674,877,1670.674S83.326,1315.335,83.326,877S438.665,83.326,877,83.326z
		"/>
	<path class="st0" d="M515.969,659.318h0.001v0.077l0.004,0.306h-0.004v120.017v194.564v120.325v0.074h-0.001
		c0,41.729,33.83,75.559,75.559,75.559c41.73,0,75.559-33.83,75.559-75.559V974.283V779.717V659.701h-0.005l0.005-0.383
		c0-41.729-33.829-75.559-75.559-75.559C549.798,583.759,515.969,617.589,515.969,659.318z M1162.368,526.171h66.577
		L950.337,1227.83H883.76L1162.368,526.171z M808.098,795.157V640.401c0-58.276,47.242-105.519,105.519-105.519
		c58.276,0,105.518,47.243,105.518,105.519v154.756c0,58.276-47.242,105.518-105.518,105.518
		C855.34,900.675,808.098,853.433,808.098,795.157z M952.558,640.401c0-21.507-17.434-38.941-38.941-38.941
		c-21.508,0-38.942,17.434-38.942,38.941v56.658v41.44v56.658c0,21.507,17.434,38.941,38.942,38.941
		c21.507,0,38.941-17.434,38.941-38.941v-56.658v-41.44V640.401z M1093.571,1113.599V958.843
		c0-58.276,47.242-105.518,105.518-105.518c58.277,0,105.519,47.242,105.519,105.518v154.756
		c0,58.276-47.242,105.519-105.519,105.519C1140.812,1219.118,1093.571,1171.875,1093.571,1113.599z M1238.03,958.843
		c0-21.507-17.434-38.941-38.942-38.941c-21.507,0-38.941,17.434-38.941,38.941v56.658v41.44v56.658
		c0,21.507,17.434,38.941,38.941,38.941c21.508,0,38.942-17.434,38.942-38.941v-56.658v-41.44V958.843z M449.393,1094.682V659.318
		c0-78.498,63.636-142.135,142.135-142.135c78.499,0,142.136,63.636,142.136,142.135h0.001v435.364h-0.001
		c0,78.498-63.636,142.135-142.136,142.135C513.029,1236.816,449.393,1173.18,449.393,1094.682z"/>
</g>
</svg>
