<?xml version="1.0" encoding="UTF-8"?>
<!DOCTYPE svg PUBLIC "-//W3C//DTD SVG 1.0//EN" "http://www.w3.org/TR/2001/REC-SVG-20010904/DTD/svg10.dtd">
<!-- Creator: CorelDRAW X7 -->
<svg xmlns="http://www.w3.org/2000/svg" xml:space="preserve" width="43px" height="45px" version="1.0" style="shape-rendering:geometricPrecision; text-rendering:geometricPrecision; image-rendering:optimizeQuality; fill-rule:evenodd; clip-rule:evenodd"
viewBox="0 0 458472 479429"
 xmlns:xlink="http://www.w3.org/1999/xlink">
 <defs>
  <style type="text/css">
   <![CDATA[
    .fil0 {fill:black}
   ]]>
  </style>
 </defs>
 <g id="Слой_x0020_1">
  <metadata id="CorelCorpID_0Corel-Layer"/>
  <g id="_1123549152">
   <path class="fil0" d="M308606 369511c11296,0 21540,4602 28944,12006 7404,7404 12006,17648 12006,28944 0,11296 -4602,21540 -12006,28943 -7429,7392 -17673,11994 -28944,11994 -11270,0 -21514,-4602 -28918,-11994 -7417,-7429 -12019,-17673 -12019,-28943 0,-11271 4602,-21515 11994,-28919 7403,-7429 17647,-12031 28943,-12031zm16317 24633c-4159,-4158 -9952,-6757 -16317,-6757 -6364,0 -12158,2599 -16316,6757 -4146,4146 -6745,9940 -6745,16317 0,6377 2586,12158 6719,16316 4184,4159 9965,6745 16342,6745 6377,0 12171,-2599 16329,-6732 4146,-4171 6745,-9965 6745,-16329 0,-6365 -2599,-12158 -6757,-16317z"/>
   <path class="fil0" d="M68968 369511c11296,0 21540,4602 28944,12006 7404,7404 12006,17648 12006,28944 0,11296 -4602,21540 -12006,28943 -7430,7392 -17673,11994 -28944,11994 -11271,0 -21514,-4602 -28918,-11994 -7417,-7429 -12019,-17673 -12019,-28943 0,-11271 4602,-21515 11993,-28919 7404,-7429 17648,-12031 28944,-12031zm16316 24633c-4158,-4158 -9952,-6757 -16316,-6757 -6364,0 -12158,2599 -16317,6757 -4145,4146 -6744,9940 -6744,16317 0,6377 2586,12158 6719,16316 4184,4159 9965,6745 16342,6745 6377,0 12171,-2599 16329,-6732 4146,-4171 6745,-9965 6745,-16329 0,-6365 -2599,-12158 -6758,-16317z"/>
   <path class="fil0" d="M68968 341480c19042,0 36297,7734 48772,20209 12475,12475 20209,29730 20209,48772 0,19004 -7747,36271 -20222,48746 -12462,12488 -29717,20222 -48759,20222 -19004,0 -36259,-7734 -48734,-20209 -12500,-12500 -20234,-29755 -20234,-48759 0,-19042 7734,-36297 20209,-48772 12487,-12463 29755,-20209 48759,-20209zm36145 32836c-9242,-9242 -22022,-14960 -36145,-14960 -14136,0 -26928,5718 -36132,14935 -9242,9267 -14960,22047 -14960,36170 0,14136 5718,26928 14934,36132 9230,9242 22022,14960 36158,14960 14123,0 26903,-5718 36145,-14960 9242,-9204 14960,-21996 14960,-36132 0,-14123 -5718,-26903 -14960,-36145z"/>
   <path class="fil0" d="M308606 341480c19043,0 36297,7734 48772,20209 12475,12475 20209,29730 20209,48772 0,19004 -7746,36271 -20221,48746 -12463,12488 -29717,20222 -48760,20222 -19042,0 -36297,-7734 -48772,-20209 -12462,-12488 -20208,-29755 -20208,-48759 0,-19042 7733,-36297 20208,-48772 12475,-12475 29730,-20209 48772,-20209zm36145 32836c-9242,-9242 -22022,-14960 -36145,-14960 -14123,0 -26902,5718 -36145,14960 -9242,9242 -14959,22022 -14959,36145 0,14136 5717,26928 14934,36132 9268,9242 22047,14960 36170,14960 14123,0 26903,-5718 36145,-14960 9242,-9204 14960,-21996 14960,-36132 0,-14123 -5718,-26903 -14960,-36145z"/>
   <path class="fil0" d="M135033 0l97239 0c4932,0 8938,4006 8938,8938 0,1344 -291,2612 -824,3753l-47884 133511 177656 0c4931,0 8938,4006 8938,8938l0 16519c0,37109 -15201,70883 -39657,95351l-190 190c-24456,24354 -58141,39492 -95186,39492l-109030 0c-37121,0 -70883,-15201 -95351,-39657l-190 -190c-24355,-24456 -39492,-58141 -39492,-95186l0 -36626c0,-37147 15201,-70921 39657,-95376 24468,-24469 58229,-39657 95376,-39657zm84574 17876l-84574 0c-32228,0 -61514,13172 -82749,34408 -21210,21210 -34408,50521 -34408,82749l0 36626c0,32228 13198,61539 34395,82762 21223,21197 50534,34395 82762,34395l109030 0c32227,0 61539,-13198 82761,-34395 21198,-21223 34396,-50547 34396,-82762l0 -7581 -181384 0c-1001,-38 -2015,-203 -3004,-558 -4628,-1648 -7024,-6757 -5376,-11385l48151 -134259z"/>
   <path class="fil0" d="M8938 163647c-4691,0 -8507,-3816 -8507,-8507 0,-4691 3816,-8507 8507,-8507l357213 0 37730 -46186c1673,-2054 4120,-3119 6580,-3131l39504 -26c4691,0 8507,3817 8507,8507 0,4691 -3816,8507 -8507,8507l-35498 0 -37362 45730c-1534,2180 -4082,3613 -6947,3613l-361220 0z"/>
   <path class="fil0" d="M368167 202872l-159919 0c-10282,0 -19626,-4209 -26383,-10966 -6757,-6757 -10966,-16126 -10966,-26396l0 -156572 17875 0 0 156572c0,5363 2206,10257 5718,13769 3512,3511 8406,5717 13756,5717l159919 0 0 17876z"/>
   <polygon class="fil0" points="129835,289475 269393,361055 261305,376902 121746,305323 "/>
   <polygon class="fil0" points="257349,305323 117791,376902 109702,361055 249261,289475 "/>
   <polygon class="fil0" points="124269,378107 253115,378107 253115,395983 124269,395983 "/>
  </g>
 </g>
</svg>
