<?xml version="1.0" encoding="utf-8"?>
<!-- Generator: Adobe Illustrator 21.1.0, SVG Export Plug-In . SVG Version: 6.00 Build 0)  -->
<svg version="1.1" id="Слой_1" xmlns="http://www.w3.org/2000/svg" xmlns:xlink="http://www.w3.org/1999/xlink" x="0px" y="0px"
	 viewBox="0 0 38 38" style="enable-background:new 0 0 38 38;" xml:space="preserve">
<style type="text/css">
	.st0{fill:#207BBB;}
	.st1{fill:#FEFEFE;}
</style>
<g id="Слой_x0020_1">
	<circle class="st0" cx="19" cy="19" r="19"/>
	<g id="_806042016">
		<path class="st1" d="M18.339,21.431c-0.094,0-0.189-0.024-0.267-0.079c-0.212-0.149-0.267-0.441-0.118-0.653l6.451-9.496
			c0.102-0.157,0.299-0.236,0.488-0.189c0.181,0.039,0.33,0.189,0.362,0.378c0.157,0.881,0.134,1.849-0.055,2.793
			c-0.205,0.96-0.574,1.857-1.086,2.581l-2.777,4.005c-0.071,0.102-0.181,0.173-0.307,0.197c-0.118,0.016-0.244-0.008-0.346-0.079
			c-0.637-0.448-1.518-0.291-1.959,0.346C18.63,21.36,18.489,21.431,18.339,21.431L18.339,21.431z M19.881,19.692
			c0.315,0,0.629,0.063,0.928,0.197l2.533-3.658c0.645-0.92,1.031-2.156,1.07-3.375l-4.65,6.845
			C19.802,19.7,19.842,19.692,19.881,19.692z"/>
		<path class="st1" d="M16.183,26.616c-0.48,0-0.944-0.149-1.337-0.425c-1.062-0.74-1.322-2.203-0.574-3.265
			c0.354-0.511,0.897-0.858,1.511-0.968c0.614-0.102,1.235,0.031,1.754,0.393c0.511,0.354,0.85,0.897,0.96,1.511
			c0.11,0.614-0.031,1.243-0.386,1.754c-0.362,0.511-0.897,0.85-1.518,0.96C16.459,26.6,16.317,26.616,16.183,26.616L16.183,26.616z
			 M15.035,23.461c-0.441,0.637-0.291,1.518,0.346,1.959c0.307,0.22,0.684,0.299,1.054,0.236c0.37-0.063,0.692-0.275,0.905-0.582
			c0.22-0.307,0.299-0.677,0.236-1.046c-0.071-0.37-0.275-0.692-0.582-0.913c-0.307-0.212-0.677-0.299-1.046-0.228
			C15.578,22.949,15.255,23.154,15.035,23.461z"/>
		<path class="st1" d="M17.261,23.201c-0.079,0-0.165-0.024-0.244-0.071c-0.22-0.134-0.291-0.417-0.157-0.637l1.078-1.77
			c0.134-0.228,0.425-0.299,0.645-0.157c0.22,0.134,0.291,0.417,0.157,0.637l-1.078,1.77C17.576,23.123,17.419,23.201,17.261,23.201
			z"/>
		<path class="st1" d="M19.661,21.431c-0.149,0-0.291-0.071-0.386-0.197c-0.441-0.637-1.322-0.795-1.959-0.346
			c-0.102,0.071-0.228,0.094-0.346,0.079c-0.126-0.024-0.236-0.094-0.307-0.197l-2.777-3.981c-1.015-1.448-1.463-3.572-1.141-5.397
			c0.039-0.189,0.181-0.338,0.362-0.378c0.189-0.047,0.386,0.031,0.488,0.189l6.451,9.496c0.149,0.212,0.094,0.504-0.118,0.653
			C19.85,21.407,19.755,21.431,19.661,21.431L19.661,21.431z M13.587,12.855c0.039,1.227,0.417,2.47,1.07,3.391l2.533,3.643
			c0.338-0.149,0.692-0.205,1.046-0.189L13.587,12.855z"/>
		<path class="st1" d="M21.817,26.616c-0.134,0-0.275-0.016-0.409-0.039c-0.614-0.11-1.157-0.448-1.511-0.96
			c-0.362-0.511-0.504-1.141-0.393-1.754c0.11-0.614,0.456-1.157,0.968-1.511c1.054-0.74,2.518-0.488,3.265,0.574
			c0.74,1.062,0.48,2.525-0.574,3.265C22.761,26.466,22.296,26.616,21.817,26.616z M21.809,22.863c-0.275,0-0.559,0.087-0.802,0.252
			c-0.637,0.448-0.787,1.33-0.346,1.959c0.22,0.307,0.543,0.519,0.913,0.582c0.37,0.063,0.74-0.016,1.046-0.236
			c0.637-0.441,0.795-1.322,0.346-1.959C22.69,23.075,22.257,22.863,21.809,22.863L21.809,22.863z M20.739,22.737L20.739,22.737z"/>
		<path class="st1" d="M20.739,23.201c-0.157,0-0.315-0.079-0.401-0.228l-1.078-1.77c-0.134-0.22-0.063-0.504,0.157-0.637
			c0.22-0.142,0.511-0.071,0.645,0.157l1.078,1.77c0.134,0.22,0.063,0.504-0.157,0.637C20.904,23.178,20.817,23.201,20.739,23.201z"
			/>
		<path class="st1" d="M23.429,27.001c-0.149,0-0.291-0.063-0.378-0.189l-0.543-0.732c-0.149-0.205-0.11-0.496,0.102-0.653
			c0.205-0.149,0.504-0.11,0.653,0.102l0.535,0.724c0.157,0.205,0.118,0.504-0.094,0.653C23.618,26.97,23.524,27.001,23.429,27.001z
			"/>
		<path class="st1" d="M14.311,27.001c-0.094,0-0.197-0.031-0.275-0.094c-0.212-0.149-0.252-0.448-0.102-0.653l0.543-0.724
			c0.149-0.212,0.448-0.252,0.653-0.102c0.205,0.157,0.252,0.448,0.094,0.653l-0.535,0.732
			C14.594,26.938,14.453,27.001,14.311,27.001z"/>
	</g>
</g>
</svg>
