<?xml version="1.0" encoding="utf-8"?>
<!-- Generator: Adobe Illustrator 21.1.0, SVG Export Plug-In . SVG Version: 6.00 Build 0)  -->
<svg version="1.1" id="Слой_1" xmlns="http://www.w3.org/2000/svg" xmlns:xlink="http://www.w3.org/1999/xlink" x="0px" y="0px"
	 viewBox="0 0 14 18" style="enable-background:new 0 0 14 18;" xml:space="preserve">
<g id="Слой_x0020_1">
	<g id="_687007200">
		<path d="M6.274,11.674c-0.105,0-0.211-0.021-0.295-0.084c-0.232-0.168-0.295-0.484-0.147-0.716l7.116-10.442
			c0.105-0.168,0.316-0.253,0.526-0.211c0.211,0.042,0.358,0.189,0.4,0.4c0.168,0.989,0.147,2.042-0.063,3.074
			c-0.211,1.074-0.632,2.063-1.179,2.863l-3.074,4.4c-0.063,0.105-0.189,0.189-0.337,0.211c-0.126,0.021-0.274-0.021-0.379-0.084
			c-0.695-0.505-1.663-0.316-2.147,0.379C6.589,11.611,6.421,11.674,6.274,11.674L6.274,11.674z M7.958,9.758
			c0.358,0,0.695,0.084,1.032,0.232l2.779-4.042c0.716-1.011,1.137-2.358,1.179-3.705L7.832,9.779
			C7.874,9.779,7.916,9.758,7.958,9.758z"/>
		<path d="M3.895,17.379c-0.526,0-1.032-0.168-1.474-0.463c-1.158-0.821-1.453-2.421-0.632-3.6c0.4-0.568,0.989-0.926,1.663-1.053
			c0.674-0.126,1.368,0.021,1.937,0.421c0.547,0.4,0.926,0.989,1.053,1.663c0.126,0.674-0.042,1.368-0.421,1.937
			c-0.4,0.568-0.989,0.926-1.663,1.053C4.189,17.358,4.042,17.379,3.895,17.379L3.895,17.379z M2.632,13.905
			c-0.484,0.716-0.316,1.663,0.379,2.168c0.337,0.232,0.758,0.316,1.158,0.253s0.758-0.295,1.011-0.632
			c0.232-0.337,0.316-0.758,0.253-1.158c-0.084-0.421-0.295-0.758-0.653-1.011c-0.337-0.232-0.737-0.316-1.137-0.253
			C3.221,13.358,2.863,13.568,2.632,13.905z"/>
		<path d="M5.074,13.632c-0.084,0-0.168-0.021-0.253-0.084c-0.253-0.147-0.316-0.463-0.168-0.695l1.179-1.958
			c0.147-0.253,0.463-0.316,0.695-0.168c0.253,0.147,0.337,0.463,0.189,0.695l-1.2,1.958C5.432,13.547,5.263,13.632,5.074,13.632z"
			/>
		<path d="M7.726,11.674c-0.168,0-0.316-0.063-0.421-0.211c-0.484-0.695-1.453-0.884-2.168-0.379
			c-0.105,0.063-0.253,0.105-0.379,0.084c-0.126-0.021-0.253-0.105-0.337-0.211l-3.053-4.4c-1.116-1.579-1.6-3.916-1.263-5.937
			c0.042-0.211,0.211-0.358,0.4-0.4c0.211-0.042,0.421,0.042,0.547,0.211l7.095,10.442c0.168,0.232,0.105,0.547-0.126,0.716
			C7.916,11.653,7.832,11.674,7.726,11.674L7.726,11.674z M1.032,2.242c0.042,1.347,0.463,2.716,1.179,3.726l2.8,4.021
			c0.358-0.168,0.758-0.232,1.137-0.211L1.032,2.242z"/>
		<path d="M10.105,17.379c-0.168,0-0.316-0.021-0.463-0.042c-0.674-0.126-1.263-0.484-1.663-1.053
			c-0.4-0.568-0.547-1.263-0.421-1.937c0.105-0.674,0.484-1.263,1.053-1.663c1.158-0.821,2.779-0.526,3.6,0.632
			c0.8,1.179,0.526,2.779-0.632,3.6C11.137,17.211,10.611,17.379,10.105,17.379z M10.084,13.253c-0.295,0-0.611,0.084-0.884,0.274
			c-0.695,0.505-0.863,1.453-0.379,2.168c0.232,0.337,0.589,0.568,1.011,0.632c0.4,0.063,0.8-0.021,1.137-0.253
			c0.716-0.505,0.884-1.453,0.4-2.168C11.053,13.484,10.568,13.253,10.084,13.253L10.084,13.253z M8.905,13.105L8.905,13.105z"/>
		<path d="M8.905,13.632c-0.168,0-0.337-0.084-0.442-0.253l-1.179-1.958c-0.147-0.232-0.063-0.547,0.168-0.695
			c0.253-0.147,0.568-0.084,0.716,0.168l1.179,1.958c0.147,0.232,0.063,0.547-0.168,0.695C9.095,13.611,8.989,13.632,8.905,13.632z"
			/>
		<path d="M11.874,17.8c-0.168,0-0.316-0.063-0.421-0.211l-0.589-0.8c-0.168-0.232-0.126-0.547,0.105-0.716
			c0.232-0.168,0.547-0.126,0.716,0.105l0.589,0.8c0.168,0.232,0.126,0.547-0.105,0.737C12.084,17.779,11.979,17.8,11.874,17.8z"/>
		<path d="M1.832,17.8c-0.105,0-0.211-0.021-0.295-0.084c-0.232-0.189-0.274-0.505-0.105-0.737l0.589-0.8
			c0.168-0.232,0.484-0.274,0.716-0.105c0.232,0.168,0.274,0.484,0.105,0.716l-0.589,0.8C2.147,17.737,2,17.8,1.832,17.8z"/>
	</g>
</g>
</svg>
