<?xml version="1.0" encoding="UTF-8"?>
<!DOCTYPE svg PUBLIC "-//W3C//DTD SVG 1.0//EN" "http://www.w3.org/TR/2001/REC-SVG-20010904/DTD/svg10.dtd">
<!-- Creator: CorelDRAW X7 -->
<svg xmlns="http://www.w3.org/2000/svg" xml:space="preserve" width="53px" height="32px" version="1.0" style="shape-rendering:geometricPrecision; text-rendering:geometricPrecision; image-rendering:optimizeQuality; fill-rule:evenodd; clip-rule:evenodd"
viewBox="0 0 437969 265280"
 xmlns:xlink="http://www.w3.org/1999/xlink">
 <defs>
  <style type="text/css">
   <![CDATA[
    .fil0 {fill:black}
   ]]>
  </style>
 </defs>
 <g id="Слой_x0020_1">
  <metadata id="CorelCorpID_0Corel-Layer"/>
  <g id="_1339795440">
   <path class="fil0" d="M75027 115226c20669,0 39450,8408 53025,21983 13594,13594 22002,32366 22002,53044 0,20669 -8408,39450 -21983,53025 -13594,13595 -32375,22002 -53044,22002 -20679,0 -39450,-8407 -53025,-21982 -13594,-13595 -22002,-32376 -22002,-53045 0,-20678 8408,-39450 21983,-53025 13594,-13594 32365,-22002 53044,-22002zm43362 31665c-11074,-11083 -26420,-17944 -43362,-17944 -16952,0 -32288,6861 -43352,17935 -11094,11083 -17954,26420 -17954,43371 0,16942 6860,32288 17934,43352 11084,11094 26420,17954 43372,17954 16942,0 32288,-6860 43352,-17934 11094,-11084 17954,-26430 17954,-43372 0,-16951 -6860,-32288 -17944,-43362z"/>
   <path class="fil0" d="M362942 115226c20669,0 39450,8408 53025,21983 13594,13594 22002,32366 22002,53044 0,20669 -8408,39450 -21983,53025 -13594,13595 -32375,22002 -53044,22002 -20679,0 -39450,-8407 -53025,-21982 -13594,-13595 -22002,-32376 -22002,-53045 0,-20678 8408,-39450 21982,-53025 13595,-13594 32366,-22002 53045,-22002zm43362 31665c-11074,-11083 -26420,-17944 -43362,-17944 -16952,0 -32288,6861 -43352,17935 -11094,11083 -17954,26420 -17954,43371 0,16942 6860,32288 17934,43352 11084,11094 26420,17954 43372,17954 16942,0 32288,-6860 43352,-17934 11094,-11084 17954,-26430 17954,-43372 0,-16951 -6860,-32288 -17944,-43362z"/>
   <path class="fil0" d="M183656 162948c7522,0 14372,3065 19306,7999 4934,4933 7999,11765 7999,19306 0,7522 -3065,14373 -7999,19307 -4934,4934 -11784,7999 -19306,7999 -7542,0 -14373,-3065 -19307,-7999 -4934,-4934 -7999,-11785 -7999,-19307 0,-7541 3065,-14373 7999,-19306 4934,-4934 11765,-7999 19307,-7999zm9614 17691c-2443,-2443 -5858,-3970 -9614,-3970 -3757,0 -7172,1527 -9615,3970 -2442,2442 -3970,5858 -3970,9614 0,3756 1528,7172 3970,9615 2443,2442 5858,3970 9615,3970 3756,0 7171,-1528 9614,-3970 2442,-2443 3970,-5859 3970,-9615 0,-3756 -1528,-7172 -3970,-9614z"/>
   <path class="fil0" d="M163434 183393c3786,0 6861,3075 6861,6860 0,3786 -3075,6861 -6861,6861l-88407 0c-2082,0 -3951,-925 -5206,-2394l-47663 -48023c-2657,-2676 -2657,-7016 19,-9673 2676,-2657 7016,-2657 9673,19l46009 46350 85575 0z"/>
   <path class="fil0" d="M190516 190253c0,3786 -3075,6861 -6860,6861 -3786,0 -6861,-3075 -6861,-6861l0 -32706c0,-730 -107,-1187 -272,-1372l-13313 -20c-3785,0 -6860,-3075 -6860,-6860 0,-3785 3075,-6860 6860,-6860l13235 0c3844,0 7648,1615 10373,4729 2238,2569 3698,6092 3698,10383l0 32706z"/>
   <path class="fil0" d="M149626 19384c3785,0 6860,3075 6860,6861 0,3785 -3075,6860 -6860,6860l-42331 0 -1800 -243c-3007,-740 -5731,-1936 -8281,-3523l-545 -379c-2326,-1518 -4447,-3338 -6403,-5401 -2598,-2734 -2501,-7074 233,-9673 2735,-2598 7075,-2501 9673,234 1265,1323 2550,2462 3854,3328l428 253c1158,720 2404,1304 3727,1683l41445 0z"/>
   <polygon class="fil0" points="128616,23462 192988,167025 180493,172591 116122,29028 "/>
   <polygon class="fil0" points="69237,186604 139797,74385 151377,81683 80817,193902 "/>
   <path class="fil0" d="M168524 136031c-3786,0 -6861,-3075 -6861,-6860 0,-3785 3075,-6860 6861,-6860l42340 0c5634,0 11064,-2959 16718,-6034l77547 -42106c3309,-1801 7474,-574 9274,2734 1800,3309 574,7474 -2734,9274l-77548 42106c-7269,3951 -14246,7746 -23257,7746l-42340 0z"/>
   <path class="fil0" d="M369102 187256c1654,3396 233,7503 -3163,9157 -3396,1654 -7503,234 -9157,-3163l-75922 -156028c-1655,-3397 -234,-7503 3162,-9157 964,-468 1986,-691 2998,-691 1897,-10 3620,-769 4826,-1985l127 -127c1148,-1197 1868,-2880 1868,-4720 0,-1887 -759,-3620 -1975,-4826l-127 -127c-1197,-1148 -2880,-1868 -4719,-1868l-29048 0c-3785,0 -6860,-3075 -6860,-6861 0,-3785 3075,-6860 6860,-6860l29048 0c5566,0 10665,2248 14372,5897l127 127c3746,3736 6043,8865 6043,14518 0,5567 -2248,10666 -5897,14373l-127 127c-1420,1421 -3016,2617 -4768,3571l72332 148643z"/>
   <path class="fil0" d="M204023 197114c-3786,0 -6861,-3075 -6861,-6861 0,-3785 3075,-6860 6861,-6860l24055 0 86296 -87726c2647,-2686 6987,-2725 9673,-78 2685,2647 2724,6987 77,9673l-87988 89438c-1256,1480 -3124,2414 -5216,2414l-26897 0z"/>
   <path class="fil0" d="M363613 180590c-768,759 -1683,1285 -2637,1606 -340,963 -885,1868 -1654,2627l-67593 66736 132519 0 0 -130825 -60635 59856zm-11249 -7123c341,-963 876,-1868 1654,-2627l65228 -64362c2316,-2190 5352,-3221 8165,-3221 1265,0 2549,224 3756,633l700 282c1120,457 2180,1138 3046,1956l633 681c1498,1683 2423,3824 2423,6393l0 145218c0,3785 -3075,6860 -6861,6860l-141967 0c-2686,0 -4973,-623 -6822,-1635l-506 -311c-2393,-1479 -3931,-3581 -4729,-5985 -769,-2306 -798,-4748 -253,-7055l204 -691c672,-2306 1966,-4563 3679,-6393l69013 -68137c769,-759 1683,-1285 2637,-1606z"/>
   <path class="fil0" d="M176795 212460c0,-3786 3075,-6861 6861,-6861 3785,0 6860,3075 6860,6861l0 10500c0,739 117,1197 272,1372l13313 19c3785,0 6860,3075 6860,6861 0,3785 -3075,6860 -6860,6860l-13235 0c-3853,0 -7648,-1615 -10373,-4729 -2238,-2569 -3698,-6092 -3698,-10383l0 -10500z"/>
  </g>
 </g>
</svg>
