<?xml version="1.0" encoding="UTF-8"?>
<!DOCTYPE svg PUBLIC "-//W3C//DTD SVG 1.0//EN" "http://www.w3.org/TR/2001/REC-SVG-20010904/DTD/svg10.dtd">
<!-- Creator: CorelDRAW X7 -->
<svg xmlns="http://www.w3.org/2000/svg" xml:space="preserve" width="28px" height="16px" version="1.0" style="shape-rendering:geometricPrecision; text-rendering:geometricPrecision; image-rendering:optimizeQuality; fill-rule:evenodd; clip-rule:evenodd"
viewBox="0 0 38135 21962"
 xmlns:xlink="http://www.w3.org/1999/xlink">
 <defs>
  <style type="text/css">
   <![CDATA[
    .fil0 {fill:black}
   ]]>
  </style>
 </defs>
 <g id="Слой_x0020_1">
  <metadata id="CorelCorpID_0Corel-Layer"/>
  <g id="_998550704">
   <path class="fil0" d="M8928 19427l-8050 0c-241,0 -462,-100 -620,-258 -158,-158 -258,-384 -258,-619l0 -14531c0,-1105 453,-2112 1181,-2840 726,-726 1733,-1179 2838,-1179l30097 0c1104,0 2110,453 2838,1179 728,730 1181,1736 1181,2840l0 14531c0,234 -103,461 -260,617 -156,157 -377,260 -618,260l-3325 0 0 -1210 2993 0 0 -14198c0,-773 -318,-1476 -823,-1985 -510,-506 -1213,-824 -1986,-824l-30097 0c-771,0 -1476,318 -1983,824 -510,510 -826,1214 -826,1985l0 14198 7718 0 0 1210zm19613 0l-14221 0 0 -1210 14221 0 0 1210z"/>
   <path class="fil0" d="M11625 15349c912,0 1741,371 2338,968 597,597 968,1426 968,2337 0,912 -371,1741 -968,2338 -597,597 -1426,970 -2338,970 -911,0 -1740,-373 -2337,-970 -597,-597 -970,-1426 -970,-2338 0,-911 373,-1740 970,-2337 597,-597 1426,-968 2337,-968zm1483 1823c-378,-378 -905,-613 -1483,-613 -577,0 -1105,235 -1482,613 -378,377 -615,905 -615,1482 0,578 237,1106 615,1483 377,378 905,615 1482,615 578,0 1105,-237 1483,-615 377,-377 613,-905 613,-1483 0,-577 -236,-1105 -613,-1482z"/>
   <path class="fil0" d="M31238 15349c912,0 1741,371 2338,968 597,597 968,1426 968,2337 0,912 -371,1741 -968,2338 -597,597 -1426,970 -2338,970 -911,0 -1741,-373 -2338,-970 -596,-597 -969,-1426 -969,-2338 0,-911 373,-1740 969,-2337 597,-597 1427,-968 2338,-968zm1483 1823c-378,-378 -905,-613 -1483,-613 -577,0 -1105,235 -1482,613 -378,377 -615,905 -615,1482 0,578 237,1106 615,1483 377,378 905,615 1482,615 578,0 1105,-237 1483,-615 377,-377 613,-905 613,-1483 0,-577 -236,-1105 -613,-1482z"/>
   <path class="fil0" d="M20550 18656l0 -14389c0,-240 98,-456 253,-613 170,-168 392,-264 625,-264l5693 0c240,0 457,98 613,253 166,168 265,384 265,624l0 14389 -1210 0 0 -14057 -5029 0 0 14057 -1210 0z"/>
   <path class="fil0" d="M25922 12046c-334,0 -605,-271 -605,-605 0,-333 271,-605 605,-605l1472 0c334,0 605,272 605,605 0,334 -271,605 -605,605l-1472 0z"/>
   <path class="fil0" d="M14599 3390l3964 0c240,0 456,98 613,253 166,168 264,384 264,624l0 3964c0,232 -97,455 -253,613 -168,166 -384,265 -624,265l-3964 0c-233,0 -455,-97 -613,-254 -168,-169 -265,-392 -265,-624l0 -3964c0,-240 98,-456 253,-613 170,-168 392,-264 625,-264zm3631 1209l-3299 0 0 3300 3299 0 0 -3300z"/>
   <path class="fil0" d="M605 3390l3157 0c237,0 465,100 620,258 158,158 258,379 258,619l0 3964c0,240 -100,461 -258,620 -158,158 -379,258 -620,258l-3157 0 0 -1210 2825 0 0 -3300 -2825 0 0 -1209z"/>
   <path class="fil0" d="M7198 3390l3964 0c241,0 457,98 613,253 167,168 265,384 265,624l0 3964c0,232 -97,455 -253,613 -168,166 -384,265 -625,265l-3964 0c-232,0 -454,-97 -613,-254 -167,-169 -264,-392 -264,-624l0 -3964c0,-240 98,-456 253,-613 170,-168 392,-264 624,-264zm3632 1209l-3299 0 0 3300 3299 0 0 -3300z"/>
   <path class="fil0" d="M37530 11587l-7115 0c-242,0 -461,-102 -616,-257 -155,-155 -256,-374 -256,-616l0 -6452c0,-240 101,-463 256,-618 158,-158 376,-254 616,-254l7115 0 0 1209 -6777 0 0 5778 6777 0 0 1210z"/>
  </g>
 </g>
</svg>
