<?xml version="1.0" encoding="UTF-8"?>
<!DOCTYPE svg PUBLIC "-//W3C//DTD SVG 1.0//EN" "http://www.w3.org/TR/2001/REC-SVG-20010904/DTD/svg10.dtd">
<!-- Creator: CorelDRAW X7 -->
<svg xmlns="http://www.w3.org/2000/svg" xml:space="preserve" width="38px" height="38px" version="1.0" style="shape-rendering:geometricPrecision; text-rendering:geometricPrecision; image-rendering:optimizeQuality; fill-rule:evenodd; clip-rule:evenodd"
viewBox="0 0 184205 184205"
 xmlns:xlink="http://www.w3.org/1999/xlink">
 <defs>
  <style type="text/css">
   <![CDATA[
    .fil0 {fill:#207BBB}
    .fil1 {fill:white}
   ]]>
  </style>
 </defs>
 <g id="Слой_x0020_1">
  <metadata id="CorelCorpID_0Corel-Layer"/>
  <g id="_997142032">
   <circle class="fil0" cx="92103" cy="92103" r="92100"/>
   <g>
    <g id="_1391983296">
     <g id="_806267184">
      <g>
       <path class="fil1" d="M55260 97599l92 0c-1620,-2164 -3149,-5038 -3057,-8554 86,-4769 2880,-9360 8370,-13775 -630,-2066 -807,-4047 -361,-6034 1529,-7918 10083,-11073 18012,-12779 -366,-990 -458,-1987 -458,-2971 0,-3871 2164,-7203 5319,-8920 -3155,-6390 -7386,-7111 -9006,-7111 -2158,0 -3509,452 -4322,904 -630,270 -1352,270 -1890,-183 -990,-721 -904,-2341 269,-2971 1260,-630 3149,-1260 5943,-1260 3332,0 6481,1535 9092,4506 899,985 2158,2611 3240,4947 544,-86 991,-86 1529,-86 3784,0 7111,2072 8914,5221 630,-721 1351,-1620 1798,-2702 183,-361 636,-721 1082,-899 458,-86 905,-86 1351,183 5227,2880 9098,6842 11439,11617 1981,4134 2336,7918 2336,10076 92,92 275,92 361,178 4592,1987 7202,5674 7655,10718 91,1981 -92,3870 -361,5129 3601,1266 6120,3785 7025,7025 716,2520 361,5313 -905,7741l1443 0c544,0 991,269 1346,630 366,446 446,985 366,1528l-8731 38268c-544,2519 -2794,4231 -5313,4231l-50234 0c-2611,0 -4775,-1712 -5319,-4231l-8731 -38268c-86,-543 0,-1082 361,-1528 275,-361 813,-630 1357,-630l-12 -6 0 6zm32772 -50778c-3693,0 -6664,2972 -6664,6670 0,3687 2971,6659 6664,6659 3687,0 6664,-2972 6664,-6659 0,-3698 -2977,-6670 -6664,-6670zm29800 91920c899,0 1706,-630 1890,-1529l8198 -36103 -5674 0 -6303 36825c0,274 -92,538 -178,807l2067 0 0 0zm-6303 0c274,0 813,-447 996,-1437l6212 -36190 -5766 0 -4139 36728c-86,269 -86,636 -183,899l2880 0 0 0 0 0zm-6567 0c91,-178 269,-630 355,-1351l4139 -36281 -5760 0 -2066 36556c0,446 0,807 -92,1082l3424 0 0 -6zm-10535 0l3601 0c0,-269 92,-716 92,-1260l2067 -36367 -5582 0c0,0 0,0 0,0 0,0 0,0 -92,0l-86 0 0 37627zm-7202 -1260c86,544 86,991 172,1260l3515 0 0 -37632 -5760 0 2067 36372 6 0zm-6756 1260l3418 0c-86,-269 -86,-630 -86,-1082l-2158 -36545 -5668 0 4133 36281c0,722 275,1168 361,1346l0 0 0 0zm-6567 0l2874 0c-86,-269 -172,-630 -172,-899l-4145 -36733 -5759 0 6206 36195c91,990 630,1437 996,1437l0 0 0 0zm-8199 -1529c189,899 997,1529 1890,1529l2078 0c-92,-269 -183,-533 -275,-807l-6206 -36820 -3784 0c0,0 0,0 0,0 0,0 0,0 0,0l-1981 0 8278 36098 0 0zm-5582 -39613l26835 0c-3871,-2073 -9006,-4952 -13867,-8370 -716,-544 -990,-1626 -361,-2434 539,-813 1621,-990 2428,-452 8376,5943 17920,10357 19804,11256l29531 0c1712,-1889 2433,-4500 1803,-6842 -721,-2610 -3057,-4414 -6664,-5130 -3326,-629 -12155,-2524 -21968,-5318 -899,-264 -1437,-1254 -1174,-2153 275,-996 1174,-1534 2164,-1265 8732,2524 16655,4322 20526,5129 544,-2965 904,-9183 -5222,-11788 -2341,-990 -7202,-1889 -12241,-2788l-1711 -361c-991,-177 -1621,-1082 -1437,-2072 177,-899 1168,-1529 2066,-1346l1707 269c3246,630 6486,1168 9005,1798 -177,-4048 -1981,-11250 -10351,-16655 -630,905 -1357,1712 -1895,2256 -361,361 -716,716 -985,990 86,355 86,722 86,1174 0,5577 -4592,10168 -10174,10168 -3332,0 -6206,-1528 -8101,-4053 -3418,813 -6298,1620 -8645,2610 -447,722 -355,1174 -264,1529 441,1357 3149,5141 18986,10449 910,360 1356,1345 1082,2250 -264,721 -985,1173 -1707,1173 -183,0 -360,0 -538,-91 -5673,-1895 -10265,-3779 -13683,-5674 -4237,-2336 -6756,-4677 -7477,-7019 -92,-178 -92,-361 -178,-544 -2072,1534 -3332,3424 -3779,5582 -635,3246 802,6762 4317,10540 630,630 544,1804 -86,2434 -366,355 -813,446 -1265,446 -446,0 -893,-183 -1259,-544 -1260,-1345 -2336,-2788 -3235,-4139 -4145,3510 -6304,7025 -6395,10443 -86,3870 2433,6847 4322,8548l0 0 0 -6z"/>
      </g>
     </g>
    </g>
   </g>
  </g>
 </g>
</svg>
