<?xml version="1.0" encoding="utf-8"?>
<!-- Generator: Adobe Illustrator 21.1.0, SVG Export Plug-In . SVG Version: 6.00 Build 0)  -->
<svg version="1.1" id="Слой_1" xmlns="http://www.w3.org/2000/svg" xmlns:xlink="http://www.w3.org/1999/xlink" x="0px" y="0px"
	 viewBox="0 0 38 38" style="enable-background:new 0 0 38 38;" xml:space="preserve">
<style type="text/css">
	.st0{fill:#207BBB;}
	.st1{fill:#FEFEFE;}
</style>
<g id="Слой_x0020_1">
	<circle class="st0" cx="19" cy="19" r="19"/>
	<g id="_806015680">
		<g>
			<g>
				<path class="st1" d="M27.026,10.99l-6.106-3.305c-0.58-0.317-1.378-0.07-1.687,0.503l-3.576,6.64h-4.342
					c-0.557,0-0.991,0.433-0.991,0.991v1.734v9.001c0,0.557,0.433,0.991,0.991,0.991h13.877c0.557,0,0.991-0.433,0.991-0.991v-2.508
					h0.41c0.217,0,0.387-0.17,0.387-0.387v-2.871c0-0.217-0.17-0.387-0.387-0.387h-0.41v-2.825c0-0.457-0.341-0.867-0.774-0.96
					l2.121-3.939C27.846,12.073,27.629,11.33,27.026,10.99z M22.684,9.519l-3.815,7.066h-1.084l4.079-7.499L22.684,9.519z
					 M19.929,8.552c0.124-0.217,0.41-0.31,0.627-0.193l0.604,0.341l-4.249,7.886h-1.323L19.929,8.552z M11.075,15.796
					c0-0.077,0.093-0.193,0.217-0.193h3.932l-0.534,0.96h-3.398c-0.077,0-0.147,0-0.217,0.023V15.796z M25.385,26.554
					c0,0.124-0.101,0.217-0.217,0.217H11.292c-0.124,0-0.217-0.093-0.217-0.217v-8.978c0-0.116,0.093-0.217,0.217-0.217h3.645h1.54
					h2.825h5.425h0.418c0.116,0,0.217,0.101,0.217,0.217v2.825h-1.478l0,0c-0.65,0-1.153,0.534-1.153,1.161v1.323
					c0,0.658,0.526,1.161,1.153,1.161h1.501V26.554z M26.159,21.175h0.023v2.097h-0.023h-2.275c-0.217,0-0.387-0.17-0.387-0.387
					v-1.323c0-0.217,0.17-0.387,0.387-0.387H26.159z M26.832,12.29l-2.314,4.295h-4.783l3.622-6.679l3.281,1.78
					C26.879,11.787,26.948,12.073,26.832,12.29z"/>
			</g>
		</g>
		<g>
			<g>
				<path class="st1" d="M25.362,11.934l-0.193-0.101c-0.488-0.263-1.138-0.07-1.401,0.41l-0.24,0.464
					c-0.124,0.24-0.17,0.526-0.077,0.789c0.077,0.271,0.271,0.488,0.511,0.604l0.193,0.101c0.139,0.07,0.31,0.116,0.48,0.116
					c0.387,0,0.727-0.217,0.921-0.526l0.24-0.457C26.035,12.824,25.842,12.197,25.362,11.934z M25.091,12.971l-0.24,0.457
					c-0.07,0.124-0.24,0.17-0.364,0.093l-0.193-0.116c-0.046-0.023-0.093-0.101-0.116-0.147c-0.023-0.07-0.023-0.147,0.023-0.193
					l0.24-0.457c0.046-0.07,0.147-0.147,0.24-0.147c0.046,0,0.077,0,0.124,0.023l0.193,0.101
					C25.091,12.677,25.145,12.824,25.091,12.971z"/>
			</g>
		</g>
	</g>
</g>
</svg>
