<?xml version="1.0" encoding="utf-8"?>
<!-- Generator: Adobe Illustrator 21.1.0, SVG Export Plug-In . SVG Version: 6.00 Build 0)  -->
<svg version="1.1" id="Слой_1" xmlns="http://www.w3.org/2000/svg" xmlns:xlink="http://www.w3.org/1999/xlink" x="0px" y="0px"
	 viewBox="0 0 19 22" style="enable-background:new 0 0 19 22;" xml:space="preserve">
<g id="Слой_x0020_1">
	<g id="_806389392">
		<g>
			<g>
				<path d="M18.289,3.819L11.61,0.201c-0.634-0.34-1.515-0.077-1.855,0.557L5.844,8.024H1.082C0.479,8.024,0,8.503,0,9.106v1.902
					v9.863c0,0.603,0.479,1.082,1.082,1.082h15.197c0.618,0,1.098-0.479,1.098-1.082v-2.752h0.448c0.232,0,0.417-0.186,0.417-0.417
					v-3.154c0-0.232-0.186-0.417-0.417-0.417h-0.448v-3.092c0-0.51-0.371-0.959-0.85-1.051l2.319-4.313
					C19.201,5.009,18.954,4.19,18.289,3.819z M13.543,2.211l-4.19,7.745h-1.19l4.468-8.225L13.543,2.211z M10.528,1.144
					c0.124-0.232,0.448-0.34,0.68-0.201l0.665,0.371L7.22,9.956H5.766L10.528,1.144z M0.819,9.075c0-0.077,0.108-0.201,0.232-0.201
					h4.313L4.793,9.926H1.051c-0.077,0-0.155,0-0.232,0.031V9.075z M16.496,20.871c0,0.139-0.108,0.247-0.232,0.247H1.051
					c-0.124,0-0.232-0.108-0.232-0.247v-9.832c0-0.139,0.108-0.232,0.232-0.232h4.004H6.74h3.092h5.952h0.448
					c0.139,0,0.232,0.093,0.232,0.232v3.092h-1.608l0,0c-0.711,0-1.268,0.587-1.268,1.268v1.453c0,0.711,0.587,1.268,1.268,1.268
					h1.639V20.871z M17.346,14.981h0.031v2.303h-0.031h-2.489c-0.232,0-0.417-0.186-0.417-0.433v-1.453
					c0-0.232,0.186-0.417,0.417-0.417H17.346z M18.088,5.241l-2.535,4.715h-5.241l3.973-7.328l3.587,1.963
					C18.134,4.7,18.212,5.009,18.088,5.241z"/>
			</g>
		</g>
		<g>
			<g>
				<path d="M16.465,4.855l-0.201-0.108c-0.526-0.294-1.252-0.077-1.531,0.448l-0.278,0.51c-0.124,0.263-0.17,0.572-0.077,0.866
					c0.077,0.294,0.294,0.526,0.557,0.665l0.216,0.108c0.155,0.077,0.34,0.124,0.526,0.124c0.417,0,0.788-0.232,1.005-0.587
					l0.263-0.495C17.207,5.829,17.006,5.148,16.465,4.855z M16.186,5.983l-0.278,0.51c-0.077,0.124-0.263,0.186-0.386,0.108
					l-0.216-0.139c-0.046-0.031-0.108-0.108-0.124-0.155c-0.031-0.077-0.031-0.155,0.015-0.216l0.263-0.495
					c0.062-0.077,0.17-0.17,0.278-0.17c0.046,0,0.077,0,0.124,0.031l0.216,0.108C16.186,5.674,16.233,5.829,16.186,5.983z"/>
			</g>
		</g>
	</g>
</g>
</svg>
