<?xml version="1.0" encoding="UTF-8"?>
<!DOCTYPE svg PUBLIC "-//W3C//DTD SVG 1.0//EN" "http://www.w3.org/TR/2001/REC-SVG-20010904/DTD/svg10.dtd">
<!-- Creator: CorelDRAW X7 -->
<svg xmlns="http://www.w3.org/2000/svg" xml:space="preserve" width="49px" height="42px" version="1.0" style="shape-rendering:geometricPrecision; text-rendering:geometricPrecision; image-rendering:optimizeQuality; fill-rule:evenodd; clip-rule:evenodd"
viewBox="0 0 306388 262609"
 xmlns:xlink="http://www.w3.org/1999/xlink">
 <defs>
  <style type="text/css">
   <![CDATA[
    .fil0 {fill:black}
   ]]>
  </style>
 </defs>
 <g id="Слой_x0020_1">
  <metadata id="CorelCorpID_0Corel-Layer"/>
  <g id="_647013296">
   <path class="fil0" d="M6329 162536l20833 0c1735,0 3338,723 4468,1853 1152,1152 1861,2740 1861,4476l0 87416c0,1661 -672,3234 -1795,4386l-147 148c-1152,1122 -2725,1794 -4387,1794l-20833 0c-1736,0 -3323,-709 -4475,-1861 -1130,-1129 -1854,-2732 -1854,-4467l0 -87416c0,-1721 702,-3264 1787,-4394l399 -377c1130,-960 2555,-1558 4143,-1558zm16749 10413l-12665 0 0 79248 12665 0 0 -79248z"/>
   <path class="fil0" d="M49575 195835l105310 0 0 33483 -110516 0 0 -33483 5206 0zm94897 10412l-89690 0 0 12658 89690 0 0 -12658z"/>
   <path class="fil0" d="M26948 177572c7636,0 14607,3131 19651,8182 5044,5029 8183,11993 8183,19651l0 14342c0,7658 -3139,14622 -8175,19659 -5037,5036 -12001,8175 -19659,8175l0 -10413c4785,0 9150,-1964 12303,-5118 3153,-3153 5118,-7517 5118,-12303l0 -14342c0,-4785 -1965,-9149 -5118,-12303 -3139,-3161 -7503,-5118 -12303,-5118l0 -10412z"/>
   <path class="fil0" d="M144472 168783c0,-2872 2334,-5206 5207,-5206 2872,0 5206,2334 5206,5206l0 65549c0,4594 -1891,8796 -4918,11824 -3028,3028 -7230,4918 -11824,4918 -4608,0 -8803,-1890 -11831,-4918 -3027,-3028 -4918,-7215 -4918,-11824l0 -10220c0,-2873 2334,-5207 5207,-5207 2872,0 5206,2334 5206,5207l0 10220c0,1736 724,3331 1861,4468 1137,1138 2732,1861 4475,1861 1736,0 3331,-723 4468,-1861 1137,-1137 1861,-2732 1861,-4468l0 -65549zm-12665 32324c0,2873 -2334,5207 -5206,5207 -2873,0 -5207,-2334 -5207,-5207l0 -39243c0,-2873 2334,-5207 5207,-5207 2872,0 5206,2334 5206,5207l0 39243z"/>
   <path class="fil0" d="M236747 118130c997,-2696 3988,-4077 6684,-3080 2695,997 4076,3996 3079,6691l-15191 41120c-590,1595 -1802,2806 -3197,3478l-488 207c-1373,502 -2887,568 -4320,81l-150099 -55476c-1618,-568 -2821,-1780 -3494,-3161 -716,-1477 -841,-3183 -295,-4778l7378 -19976c989,-2681 3980,-4054 6661,-3065 2681,990 4054,3981 3065,6661l-5908 16004 142338 52603 13787 -37309z"/>
   <path class="fil0" d="M303153 94048l-57448 29709c-1432,1086 -3028,2083 -5849,1064l-49619 -18337 -15967 15213c-1477,1403 -3574,1772 -5368,1115 -31387,-11594 -93457,-30433 -119991,-44398 -1248,-665 -2223,-1736 -2792,-2977 -657,-1447 -797,-3153 -192,-4785l24563 -66509 443 -931c657,-1159 1654,-2045 2762,-2577 1447,-709 3219,-849 4866,-258l223573 82608c532,192 1019,458 1440,797 938,680 1706,1618 2149,2504l569 1750c162,901 132,1957 -303,3043l-621 1122c-502,739 -1218,1396 -2215,1847zm-61775 20257l48142 -24903 -210685 -77852 -21749 58866 112369 41525 15073 -14363c1344,-1285 2814,-1839 4446,-1921l266 -7c1012,-15 1979,170 2939,495l49199 18160z"/>
   <path class="fil0" d="M266826 106277c2954,4320 4897,9409 5569,14733 642,5088 140,10413 -1729,15479l-59 170c-3190,8456 -9482,14858 -17088,18359 -7666,3537 -16676,4143 -25191,1004l-531 -243 2370 -4779 1736 -4741c5841,2157 12022,1743 17266,-672 5243,-2400 9578,-6831 11727,-12658 1293,-3522 1640,-7156 1204,-10619 -458,-3663 -1809,-7178 -3855,-10169l8581 -5864z"/>
   <rect class="fil0" transform="matrix(0.874732 0.323226 -0.323226 0.874732 107570 64918.8)" width="11166" height="11166"/>
   <rect class="fil0" transform="matrix(0.874732 0.323226 -0.323226 0.874732 128379 72608.1)" width="11166" height="11166"/>
   <rect class="fil0" transform="matrix(0.874732 0.323226 -0.323226 0.874732 149701 80486.8)" width="11166" height="11166"/>
   <path class="fil0" d="M164227 139266c990,-2681 3980,-4055 6661,-3065 2681,990 4055,3980 3065,6661l-6218 16816c-1920,5243 -5827,9224 -10546,11395 -4704,2164 -10265,2533 -15501,605l-13758 -5058c-5244,-1943 -9209,-5849 -11380,-10561 -2172,-4704 -2541,-10265 -613,-15508l6203 -16845c997,-2696 3995,-4077 6691,-3080 2695,997 4069,3995 3079,6691l-6218 16823c-960,2518 -760,5258 303,7569 1056,2290 2991,4202 5524,5133l13751 5081c2525,960 5243,768 7569,-303 2290,-1049 4202,-2991 5140,-5531l6248 -16823z"/>
  </g>
 </g>
</svg>
