<?xml version="1.0" encoding="UTF-8"?>
<!DOCTYPE svg PUBLIC "-//W3C//DTD SVG 1.0//EN" "http://www.w3.org/TR/2001/REC-SVG-20010904/DTD/svg10.dtd">
<!-- Creator: CorelDRAW X7 -->
<svg xmlns="http://www.w3.org/2000/svg" xml:space="preserve" width="43px" height="47px" version="1.0" style="shape-rendering:geometricPrecision; text-rendering:geometricPrecision; image-rendering:optimizeQuality; fill-rule:evenodd; clip-rule:evenodd"
viewBox="0 0 235224 258458"
 xmlns:xlink="http://www.w3.org/1999/xlink">
 <defs>
  <style type="text/css">
   <![CDATA[
    .fil0 {fill:black}
   ]]>
  </style>
 </defs>
 <g id="Слой_x0020_1">
  <metadata id="CorelCorpID_0Corel-Layer"/>
  <g id="_1339800240">
   <path class="fil0" d="M59615 0l115994 0c1641,0 3119,671 4187,1739 1068,1068 1739,2552 1739,4180l0 206123c0,1628 -671,3113 -1739,4181 -1113,1068 -2585,1732 -4187,1732l-115994 0c-1621,0 -3080,-664 -4135,-1693 -1120,-1107 -1791,-2592 -1791,-4220l0 -206123c0,-1628 671,-3112 1739,-4180 1068,-1068 2546,-1739 4187,-1739zm112738 9182l-109482 0 0 199591 109482 0 0 -199591z"/>
   <polygon class="fil0" points="58280,44163 176944,44163 176944,53344 58280,53344 "/>
   <polygon class="fil0" points="58280,164617 176944,164617 176944,173799 58280,173799 "/>
   <path class="fil0" d="M25363 217955c-2533,0 -4590,-2058 -4590,-4591 0,-2533 2057,-4591 4590,-4591l184498 0c2533,0 4591,2058 4591,4591 0,2533 -2058,4591 -4591,4591l-184498 0z"/>
   <path class="fil0" d="M4591 238441c-2533,0 -4591,-2058 -4591,-4591 0,-2533 2058,-4591 4591,-4591l226042 0c2534,0 4591,2058 4591,4591 0,2533 -2057,4591 -4591,4591l-226042 0z"/>
   <path class="fil0" d="M225580 233850l0 18689c0,1608 -690,3106 -1758,4161 -1061,1074 -2566,1758 -4161,1758l-204091 0c-1583,0 -3100,-664 -4181,-1745 -1055,-1094 -1739,-2546 -1739,-4174l0 -18689 9182 0 0 15427 197567 0 0 -15427 9181 0z"/>
   <polygon class="fil0" points="38940,213364 38940,233850 29759,233850 29759,213364 "/>
   <polygon class="fil0" points="205472,213364 205472,233850 196290,233850 196290,213364 "/>
   <path class="fil0" d="M156328 123163c-2533,0 -4591,-2057 -4591,-4590 0,-2533 2058,-4591 4591,-4591l20616 0c2533,0 4591,2058 4591,4591 0,2533 -2058,4590 -4591,4590l-20616 0z"/>
  </g>
 </g>
</svg>
