<?xml version="1.0" encoding="utf-8"?>
<!-- Generator: Adobe Illustrator 21.1.0, SVG Export Plug-In . SVG Version: 6.00 Build 0)  -->
<svg version="1.1" id="Capa_1" xmlns="http://www.w3.org/2000/svg" xmlns:xlink="http://www.w3.org/1999/xlink" x="0px" y="0px"
	 viewBox="0 0 384.002 512" style="enable-background:new 0 0 384.002 512;" xml:space="preserve">
<g>
	<g>
		<path d="M312,96H24c-4.424,0-8,3.576-8,8v400c0,4.424,3.576,8,8,8s8-3.576,8-8V112h272v392c0,4.424,3.576,8,8,8s8-3.576,8-8V104
			C320,99.576,316.424,96,312,96z"/>
	</g>
</g>
<g>
	<g>
		<path d="M288,120H48c-4.424,0-8,3.576-8,8v376c0,4.424,3.576,8,8,8s8-3.576,8-8V136h224v368c0,4.424,3.576,8,8,8s8-3.576,8-8V128
			C296,123.576,292.424,120,288,120z"/>
	</g>
</g>
<g>
	<g>
		<path d="M365.656,258.344c-3.128-3.128-8.184-3.128-11.312,0l-16,16c-3.128,3.128-3.128,8.184,0,11.312
			c1.56,1.56,3.608,2.344,5.656,2.344s4.096-0.784,5.656-2.344l16-16C368.784,266.528,368.784,261.472,365.656,258.344z"/>
	</g>
</g>
<g>
	<g>
		<path d="M381.656,274.344l-16-16c-3.128-3.128-8.184-3.128-11.312,0c-3.128,3.128-3.128,8.184,0,11.312l16,16
			c1.56,1.56,3.608,2.344,5.656,2.344s4.096-0.784,5.656-2.344C384.784,282.528,384.784,277.472,381.656,274.344z"/>
	</g>
</g>
<g>
	<g>
		<path d="M381.656,322.344c-3.128-3.128-8.184-3.128-11.312,0l-16,16c-3.128,3.128-3.128,8.184,0,11.312
			c1.56,1.56,3.608,2.344,5.656,2.344s4.096-0.784,5.656-2.344l16-16C384.784,330.528,384.784,325.472,381.656,322.344z"/>
	</g>
</g>
<g>
	<g>
		<path d="M365.656,338.344l-16-16c-3.128-3.128-8.184-3.128-11.312,0c-3.128,3.128-3.128,8.184,0,11.312l16,16
			c1.56,1.56,3.608,2.344,5.656,2.344s4.096-0.784,5.656-2.344C368.784,346.528,368.784,341.472,365.656,338.344z"/>
	</g>
</g>
<g>
	<g>
		<path d="M168,120c-4.424,0-8,3.576-8,8v376c0,4.424,3.576,8,8,8s8-3.576,8-8V128C176,123.576,172.424,120,168,120z"/>
	</g>
</g>
<g>
	<g>
		<path d="M328,496H8c-4.424,0-8,3.576-8,8s3.576,8,8,8h320c4.424,0,8-3.576,8-8S332.424,496,328,496z"/>
	</g>
</g>
<g>
	<g>
		<path d="M168,0c-39.704,0-72,32.296-72,72c0,4.424,3.576,8,8,8s8-3.576,8-8c0-30.872,25.128-56,56-56s56,25.128,56,56
			c0,4.424,3.576,8,8,8s8-3.576,8-8C240,32.296,207.704,0,168,0z"/>
	</g>
</g>
<g>
	<g>
		<path d="M232,64H104c-4.424,0-8,3.576-8,8s3.576,8,8,8h128c4.424,0,8-3.576,8-8S236.424,64,232,64z"/>
	</g>
</g>
<g>
	<g>
		<path d="M168,32c-4.424,0-8,3.576-8,8v32c0,4.424,3.576,8,8,8s8-3.576,8-8V40C176,35.576,172.424,32,168,32z"/>
	</g>
</g>
</svg>
