<?xml version="1.0" encoding="utf-8"?>
<!-- Generator: Adobe Illustrator 21.1.0, SVG Export Plug-In . SVG Version: 6.00 Build 0)  -->
<svg version="1.1" id="Слой_1" xmlns="http://www.w3.org/2000/svg" xmlns:xlink="http://www.w3.org/1999/xlink" x="0px" y="0px"
	 viewBox="0 0 318.987 423.271" style="enable-background:new 0 0 318.987 423.271;" xml:space="preserve">
<g>
	<path d="M236.653,51.786c0,4.756-1.37,6.708-3.639,9.942c-1.219,1.736-2.599,3.703-3.768,6.191
		c-1.761,3.749-0.148,8.216,3.601,9.977c1.031,0.484,2.115,0.713,3.184,0.713c2.817,0,5.517-1.595,6.794-4.314
		c0.615-1.312,1.474-2.535,2.468-3.951c2.685-3.825,6.36-9.064,6.36-18.558s-3.677-14.733-6.361-18.558
		c-2.269-3.234-3.639-5.186-3.639-9.941c0-4.754,1.37-6.705,3.639-9.938c0.385-0.549,0.77-1.097,1.146-1.657
		c2.314-3.435,1.406-8.096-2.029-10.411s-8.096-1.406-10.41,2.029c-0.324,0.48-0.654,0.95-0.984,1.421
		c-2.685,3.825-6.361,9.063-6.361,18.556c0,9.494,3.677,14.733,6.36,18.558C235.283,45.078,236.653,47.03,236.653,51.786
		L236.653,51.786z"/>
	<path d="M144.493,51.786c0,4.756-1.37,6.708-3.639,9.942c-1.218,1.736-2.599,3.703-3.767,6.191c-1.761,3.749-0.149,8.216,3.6,9.977
		c1.031,0.484,2.115,0.713,3.184,0.713c2.817,0,5.517-1.595,6.793-4.313c0.616-1.312,1.475-2.535,2.468-3.951
		c2.685-3.825,6.361-9.064,6.361-18.558s-3.676-14.733-6.361-18.558c-2.27-3.234-3.639-5.186-3.639-9.941
		c0-4.754,1.37-6.706,3.639-9.939c0.385-0.548,0.77-1.097,1.146-1.656c2.314-3.435,1.406-8.096-2.03-10.411
		c-3.435-2.315-8.097-1.406-10.411,2.029c-0.323,0.48-0.654,0.95-0.984,1.42c-2.685,3.825-6.361,9.063-6.361,18.556
		c0,9.494,3.676,14.733,6.361,18.558C143.124,45.078,144.493,47.03,144.493,51.786L144.493,51.786z"/>
	<path d="M52.333,51.786c0,4.756-1.37,6.708-3.639,9.942c-1.218,1.736-2.599,3.703-3.767,6.191c-1.761,3.749-0.149,8.216,3.6,9.977
		c1.031,0.484,2.115,0.713,3.184,0.713c2.817,0,5.517-1.595,6.793-4.313c0.616-1.312,1.475-2.535,2.468-3.951
		c2.685-3.825,6.361-9.064,6.361-18.558s-3.676-14.733-6.361-18.558c-2.27-3.234-3.639-5.186-3.639-9.941s1.37-6.707,3.639-9.94
		c0.385-0.548,0.769-1.096,1.146-1.655c2.314-3.435,1.406-8.096-2.029-10.411c-3.434-2.314-8.096-1.406-10.411,2.029
		c-0.323,0.48-0.653,0.949-0.983,1.419c-2.685,3.825-6.362,9.064-6.362,18.558s3.676,14.733,6.361,18.558
		C50.964,45.078,52.333,47.03,52.333,51.786z"/>
	<path d="M298.987,112.783c-8.375,0-15.553,5.18-18.528,12.5h-11.972c-4.143,0-7.5,3.358-7.5,7.5s3.357,7.5,7.5,7.5h11.972
		c2.974,7.32,10.152,12.5,18.528,12.5c11.028,0,20-8.972,20-20S310.015,112.783,298.987,112.783L298.987,112.783z M298.987,137.783
		c-2.757,0-5-2.243-5-5s2.243-5,5-5s5,2.243,5,5S301.744,137.783,298.987,137.783z"/>
	<path d="M293.987,384.743v-11.972c0-4.142-3.357-7.5-7.5-7.5s-7.5,3.358-7.5,7.5v11.972c-7.32,2.974-12.5,10.153-12.5,18.528
		c0,11.028,8.972,20,20,20s20-8.972,20-20C306.487,394.895,301.307,387.717,293.987,384.743L293.987,384.743z M286.487,408.27
		c-2.757,0-5-2.243-5-5s2.243-5,5-5s5,2.243,5,5S289.244,408.27,286.487,408.27z"/>
	<path d="M201.058,140.283h36.115c4.143,0,7.5-3.358,7.5-7.5s-3.357-7.5-7.5-7.5h-36.115c-4.143,0-7.5,3.358-7.5,7.5
		S196.915,140.283,201.058,140.283z"/>
	<path d="M129.5,254.277H93.385c-4.142,0-7.5,3.358-7.5,7.5s3.358,7.5,7.5,7.5H129.5c4.142,0,7.5-3.358,7.5-7.5
		S133.642,254.277,129.5,254.277L129.5,254.277z"/>
	<path d="M136.759,197.28c0,4.142,3.358,7.5,7.5,7.5h36.115c4.143,0,7.5-3.358,7.5-7.5s-3.357-7.5-7.5-7.5h-36.115
		C140.117,189.78,136.759,193.138,136.759,197.28z"/>
	<path d="M196.713,254.277h-36.114c-4.142,0-7.5,3.358-7.5,7.5s3.358,7.5,7.5,7.5h36.114c4.143,0,7.5-3.358,7.5-7.5
		S200.856,254.277,196.713,254.277L196.713,254.277z"/>
	<path d="M282.732,246.411c0.752,0.238,1.514,0.351,2.263,0.351c3.185,0,6.139-2.044,7.149-5.241
		c1.223-3.869,1.843-7.903,1.843-11.992c0-10.871-4.529-21.393-12.426-28.869c-3.008-2.848-7.755-2.718-10.603,0.29
		s-2.718,7.755,0.29,10.603c4.99,4.724,7.738,11.108,7.738,17.976c0,2.553-0.386,5.066-1.146,7.471
		C276.593,240.948,278.783,245.162,282.732,246.411L282.732,246.411z"/>
	<path d="M211.473,189.78c-4.143,0-7.5,3.358-7.5,7.5s3.357,7.5,7.5,7.5h36.114c4.143,0,7.5-3.358,7.5-7.5s-3.357-7.5-7.5-7.5
		H211.473z"/>
	<path d="M261.565,253.176c-2.36,0.73-4.826,1.1-7.327,1.1h-26.425c-4.143,0-7.5,3.358-7.5,7.5s3.357,7.5,7.5,7.5h26.425
		c4.005,0,7.961-0.596,11.759-1.77c3.957-1.224,6.173-5.424,4.949-9.381C269.723,254.169,265.521,251.95,261.565,253.176z"/>
	<path d="M275.691,346.171c1.39,2.406,3.91,3.751,6.502,3.751c1.272,0,2.563-0.324,3.743-1.006
		c3.588-2.071,4.816-6.658,2.745-10.246c-7.087-12.273-20.285-19.897-34.443-19.897h-2.307c-4.143,0-7.5,3.358-7.5,7.5
		s3.357,7.5,7.5,7.5h2.307C263.055,333.773,271.275,338.524,275.691,346.171L275.691,346.171z"/>
	<path d="M59.13,132.783c0,4.142,3.358,7.5,7.5,7.5h36.115c4.142,0,7.5-3.358,7.5-7.5s-3.358-7.5-7.5-7.5H66.63
		C62.488,125.283,59.13,128.641,59.13,132.783z"/>
	<path d="M69.786,261.777c0-4.142-3.358-7.5-7.5-7.5H39.748c-5.654,0-11.119,1.166-16.244,3.463c-3.78,1.694-5.47,6.132-3.776,9.912
		c1.248,2.783,3.983,4.434,6.848,4.434c1.025,0,2.067-0.211,3.063-0.658c3.183-1.426,6.584-2.15,10.109-2.15h22.537
		C66.428,269.277,69.786,265.919,69.786,261.777z"/>
	<path d="M25.027,313.922C18.655,309.197,15,301.945,15,294.026c0-1.542,0.142-3.085,0.422-4.584
		c0.761-4.072-1.922-7.989-5.994-8.75c-4.077-0.765-7.99,1.923-8.75,5.994C0.228,289.093,0,291.562,0,294.027
		c0,12.531,6.016,24.474,16.092,31.945c1.343,0.996,2.909,1.476,4.461,1.476c2.294,0,4.559-1.049,6.03-3.033
		C29.052,321.086,28.354,316.389,25.027,313.922z"/>
	<path d="M6.772,161.986c0.784,0.26,1.581,0.384,2.363,0.384c3.144,0,6.073-1.992,7.117-5.14
		c2.971-8.952,10.923-15.522,20.259-16.738c4.107-0.535,7.004-4.298,6.469-8.405c-0.535-4.107-4.3-7.006-8.405-6.469
		c-15.007,1.954-27.788,12.508-32.559,26.887C0.712,156.437,2.841,160.681,6.772,161.986z"/>
	<path d="M86.404,318.773H50.289c-4.142,0-7.5,3.358-7.5,7.5s3.358,7.5,7.5,7.5h36.115c4.142,0,7.5-3.358,7.5-7.5
		S90.546,318.773,86.404,318.773z"/>
	<path d="M153.618,318.773h-36.115c-4.142,0-7.5,3.358-7.5,7.5s3.358,7.5,7.5,7.5h36.115c4.142,0,7.5-3.358,7.5-7.5
		S157.76,318.773,153.618,318.773z"/>
	<path d="M133.844,140.283h36.114c4.143,0,7.5-3.358,7.5-7.5s-3.357-7.5-7.5-7.5h-36.115c-4.142,0-7.5,3.358-7.5,7.5
		S129.702,140.283,133.844,140.283z"/>
	<path d="M69.545,197.28c0,4.142,3.358,7.5,7.5,7.5h36.115c4.142,0,7.5-3.358,7.5-7.5s-3.358-7.5-7.5-7.5H77.045
		C72.903,189.78,69.545,193.138,69.545,197.28z"/>
	<path d="M45.946,189.78h-6.197c-7.858,0-15.077-3.61-19.804-9.904c-2.488-3.312-7.189-3.98-10.501-1.493
		c-3.312,2.488-3.98,7.189-1.493,10.501c7.588,10.102,19.178,15.896,31.798,15.896h6.197c4.142,0,7.5-3.358,7.5-7.5
		S50.088,189.78,45.946,189.78z"/>
	<path d="M220.832,318.773h-36.115c-4.143,0-7.5,3.358-7.5,7.5s3.357,7.5,7.5,7.5h36.115c4.143,0,7.5-3.358,7.5-7.5
		S224.975,318.773,220.832,318.773z"/>
</g>
</svg>
