<?xml version="1.0" encoding="utf-8"?>
<!-- Generator: Adobe Illustrator 21.1.0, SVG Export Plug-In . SVG Version: 6.00 Build 0)  -->
<svg version="1.1" id="Слой_1" xmlns="http://www.w3.org/2000/svg" xmlns:xlink="http://www.w3.org/1999/xlink" x="0px" y="0px"
	 viewBox="0 0 371 565" style="enable-background:new 0 0 371 565;" xml:space="preserve">
<style type="text/css">
	.st0{fill:#FBBB85;}
	.st1{fill:#7A3B22;}
	.st2{fill:#6F3D2A;}
	.st3{fill:#935533;}
	.st4{fill:#BC764E;}
	.st5{fill:#4C200F;}
	.st6{fill:#90161E;}
	.st7{fill:#ED925A;}
	.st8{fill:#D67D49;}
	.st9{fill:#FFFFFF;}
	.st10{fill:#F9B279;}
	.st11{fill:#BCADA4;}
	.st12{fill:#D6C4BA;}
	.st13{fill:#F9EBD2;}
	.st14{fill:#E6D9C0;}
	.st15{fill:#EAD9AE;}
	.st16{fill:#DBDBDD;}
	.st17{fill:#C2C2C3;}
	.st18{fill:#AFAFB0;}
	.st19{fill:#4B5E8B;}
	.st20{fill:#3D4F7A;}
	.st21{fill:#2D394E;}
</style>
<g id="Слой_x0020_1">
	<g id="_743701408">
		<path class="st0" d="M119.638,20.053l-47.713-0.652l-1.795,11.748l1.795,34.101l12.237,25.617l11.911,5.22l13.705-2.284
			l8.213-10.957l-0.314-14.803l0.641-6.879c0.43-2.653,0.961-3.298,0.244-8.105c0.478-2.184,0.696-5.062,0.684-8.552l0.637-6.553
			l0.612-7.011L119.638,20.053z"/>
		<path class="st1" d="M69.206,50.396c-1.142-4.514-2.489-9.457-3.631-13.971c-0.869-6.853-1.781-13.441-1.998-20.558
			c2.082-3.568,6.6-9.344,10.931-12.093c5.031-3.196,10.822-3.716,16.99-3.769c12.002-0.104,24.666,5.062,31.41,14.679
			c0.287,1.754-0.632,4.481-2.412,5.364c0.997,6.712,0.785,11.25-0.612,17.908c-0.073-6.776,0.228-11.29-1.586-16.378
			c-3.318,2.067-7.47,5.377-10.299,5.935c-7.206,0.396-19.304-1.337-32.227-4.62c0.246,3.073,2.205,8.115,1.45,8.291
			c-0.49,0.327-4.242-0.53-4.427,0.775c-0.959,10.964-0.398,19.973,1.781,26.965c2.16,6.929,5.923,10.642,11.349,14.785
			c-1.639,4.45-2.862,9.566-1.923,12.177c1.187,3.301,6.209,5.744,10.983,6.444c6.28-7.311,11.116-8.77,15.465-2.424
			c1.782-1.326,5.709-5.08,6.653-8.53c0.84-3.068-0.354-6.818-0.471-10.375c-0.115-3.479,1.213-5.584,1.687-9.836
			c0.054,8.252,0.719,12.609,0.509,24.145c-1.293,3.298-5.108,9.553-8.119,12.554c-0.917,0.914-2.419,1.074-3.41,1.338
			c-5.793,4.382-10.925,4.655-17.862,6.018c-7.07-5.167-14.14-10.333-21.211-15.501c0.109-4.079,0.217-8.159,0.326-12.237
			C68.771,68.454,68.988,59.424,69.206,50.396z"/>
		<path class="st2" d="M67.21,42.721c-0.562-2.133-1.118-4.259-1.635-6.296c-0.869-6.853-1.781-13.441-1.998-20.558
			c2.082-3.568,6.6-9.344,10.931-12.093c5.031-3.196,10.822-3.716,16.99-3.769c12.002-0.104,24.666,5.062,31.41,14.679
			c0.287,1.754-0.632,4.481-2.412,5.364c0.997,6.712,0.785,11.25-0.612,17.908c-0.073-6.776,0.228-11.29-1.586-16.378
			c-3.318,2.067-7.47,5.377-10.299,5.935c-7.206,0.396-19.304-1.337-32.227-4.62c0.246,3.073,2.205,8.115,1.45,8.291
			c-0.49,0.327-4.242-0.53-4.427,0.775c-0.526,6.008-0.595,11.428-0.191,16.252l-2.505-1.886L67.21,42.721z"/>
		<path class="st3" d="M122.434,14.031c0.161,0.216,0.319,0.433,0.474,0.653c0.287,1.754-0.632,4.481-2.412,5.364l-2.198,1.53
			c-3.318,2.067-7.47,5.377-10.299,5.935c-4.135,0.228-9.882-0.247-16.473-1.312c-8.054-1.825-15.914-4.747-23.43-9.614
			c15.12,5.878,34.453,3.707,47.848-3.141C117.39,13.446,119.779,13.985,122.434,14.031z"/>
		<path class="st4" d="M115.006,15.81c-1.544,4.696-6.425,10.026-13.828,10.688C109.091,24.304,109.423,22.789,115.006,15.81z"/>
		<path class="st4" d="M119.639,15.28c-1.176,4.757-5.324,9.577-12.973,11.911C115.248,22.859,116.259,20.506,119.639,15.28z"/>
		<path class="st5" d="M103.012,47.282c-5.817,0.448-11.525-0.281-16.781-2.224c0.412-0.911,0.921-1.59,1.524-2.04
			c4.679,0.919,9.737,1.542,15.257,1.265C103.009,45.509,103.012,46.233,103.012,47.282z"/>
		<path class="st5" d="M109.42,44.069c0,1.401,0,2.577,0,3.977c3.612-1.004,6.834-2.292,9.847-3.732
			c0.081-0.843,0.163-1.688,0.244-2.531C116.26,42.844,113.242,43.66,109.42,44.069z"/>
		<path class="st1" d="M116.029,70.217c-5.682,2.969-16.607,3.585-29.798,3.182C93.268,68.891,110.793,63.925,116.029,70.217z"/>
		<path class="st6" d="M95.312,75.316c6.496,0.991,13.268,1.626,17.943-2.121c0,0.34,0,0.436,0,0.775
			C107.835,79.124,101.625,78.2,95.312,75.316z"/>
		<path class="st7" d="M108.401,81.008c0,1.427-2.178,2.395-3.651,2.454c-1.019,0.04-2.154-0.259-3.386-0.843
			C102.535,81.546,107.013,79.793,108.401,81.008z"/>
		<path class="st8" d="M109.42,65.488c0.266-0.231,0.346-9.396-0.775-15.196c-0.158-0.815,0.469-1.742,0.775-2.246
			c-0.038,0.592-0.767,1.519-0.508,2.581c1.025,4.213,1.785,9.457,1.786,14.658c0.001,1.547-1.349,2.322-2.497,2.316
			c-1.897-0.011-4.103-1.818-5.19-3.908C105.443,66.077,108.094,67.59,109.42,65.488z"/>
		<path class="st9" d="M89.028,55.456c-0.782-0.947-1.564-1.897-2.346-2.844c1.155-1.078,2.311-2.155,3.466-3.234
			c1.388-0.252,2.774-0.503,4.161-0.755c2.216,0.478,3.393,0.488,4.936,2.407c-0.539,3.235-2.309,5.044-5.242,5.507
			C92.345,56.176,90.686,55.816,89.028,55.456z"/>
		<path d="M86.682,52.612c3.028-2.789,6.525-3.736,10.371-3.315C92.719,47.409,88.316,48.093,86.682,52.612z"/>
		<circle cx="94.119" cy="54.143" r="2.195"/>
		<circle class="st9" cx="95.368" cy="53.826" r="0.747"/>
		<path class="st8" d="M86.231,53.09c0.15-0.159,0.3-0.319,0.451-0.478c3.197,4.78,11.015,5.133,12.563-1.581
			C98.743,58.703,89.359,58.07,86.231,53.09z"/>
		<path class="st9" d="M113.369,55.599l-2.268-0.728l-0.608-0.883c0-2.367,0.984-4.163,2.06-4.916l3.59-1.428l1.978,1.468
			c0.366,3.5,0.34,3.093-2.203,6.119L113.369,55.599z"/>
		<circle cx="115.277" cy="53.367" r="2.069"/>
		<circle class="st9" cx="116.368" cy="52.983" r="0.773"/>
		<path class="st8" d="M110.493,53.988c-0.089,0.183-0.176,0.367-0.265,0.55c1.45,1.385,4.062,1.769,5.838,0.827
			c2.048-1.088,2.754-3.8,2.289-5.729c-0.257-0.352-0.301-0.411-0.559-0.764c1.107,2.545,0.178,4.42-1.408,5.621
			C114.738,55.743,111.907,55.516,110.493,53.988z"/>
		<path d="M112.553,49.072c2.654-0.898,4.907-1.024,6.201,0.693C119.057,45.545,114.368,47.429,112.553,49.072z"/>
		<path class="st8" d="M67.956,49.652c-0.83-0.664-0.198-3.774-0.156-5.403c0.071-2.751-1.255-6.275-1.968-6.002
			c-0.54,0.207-0.902,3.161-1.466,6.103c0.12-9.11,2.21-7.809,3.589-3.687c0.436,1.304,0.674,4.645,0.383,6.362
			C68.084,48.518,67.699,49.014,67.956,49.652z"/>
		<path class="st10" d="M95.694,130.713l-43.727-22.679l7.016-14.36l3.517-5.549l2.007-2.204c3.856-8.074,4.293-19.258,3.859-32.141
			c-6.081-0.296-8.597-13.081-4.946-17.38c1.475-1.739,3.809-1.794,5.131-0.653c0.882,0.762,1.496,2.474,1.528,5.551l0.133,31.924
			c-0.037,5.774,1.185,7.353,4.457,11.19c4.359,5.111,18.088,15.776,20.3,15.763c4.022,0.598,8.147,0.116,12.331-0.973l0.116,0.833
			l13.081,16.76L95.694,130.713z"/>
		<path class="st11" d="M305.405,555.56c-10.252-6.445-20.505-12.89-30.757-19.334c0.762-1.659,1.524-3.318,2.284-4.977
			c0.788-2.607,1.577-5.212,2.365-7.819c8.2-1.952,16.401-3.905,24.602-5.857c9.098,10.845,20.317,17.384,30.659,21.796
			c10.784,4.6,21.679,6.622,32.615,7.696c8.347,0.818,1.708,8.068-7.163,10.309c-6.87,1.734-28.507-0.772-35.924-1.548
			C315.9,554.969,308.661,554.438,305.405,555.56L305.405,555.56z"/>
		<path class="st12" d="M257.173,556.782c-4.704-1.224-14.94,1.191-13.281-12.806c0.243-0.529-0.177-22.907,0.732-29.519
			c8.201-1.952,14.199,5.069,22.4,3.117c7.624,11.335,17.543,24.119,27.884,28.529c10.783,4.599,19.762,6.96,30.698,8.034
			c8.347,0.818,1.708,8.069-7.164,10.309c-6.869,1.734-26.59-1.11-34.006-1.886C276.252,561.703,261.327,558.678,257.173,556.782
			L257.173,556.782z"/>
		<polygon class="st10" points="149.464,177.782 153.299,153.715 170.675,149.107 188.052,183.167 160.886,198.423 		"/>
		<path class="st13" d="M107.415,100.035c2.518,6.59,4.206,9.949,2.879,13.422c-1.944,5.095-8.846,6.805-12.329,6.774
			c-7.923-0.074-14.064-2.61-22.567-9.914C69.662,105.389,64.7,98.401,62.69,88.798l1.817-2.876
			c-16.482,13.577-32.483,23.721-51.359,32.512l35.87,115.594l9.85,26.581l104.854-31.327l-4.726-26.017
			c-2.193-10.455-3.798-21.097-3.596-32.314c1.735-3.326,1.805-9.368,1.468-16.071c5.773-0.861,10.429-2.737,13.808-5.773
			l-17.113-30.624c-2.797-4.845-5.402-6.769-12.695-8.429C129.67,107.499,118.502,104.439,107.415,100.035L107.415,100.035z"/>
		<path class="st14" d="M156.867,154.88c5.773-0.861,10.429-2.737,13.808-5.773l-17.113-30.624
			c-2.797-4.845-5.402-6.769-12.695-8.429C148.922,124.682,154.468,139.599,156.867,154.88z"/>
		<path class="st15" d="M30.037,176.201l18.979,57.827l9.85,26.581l62.09-18.55c-37.031-12.693-62.794-39.891-77.968-78.224
			L30.037,176.201L30.037,176.201z"/>
		<path class="st10" d="M21.862,157.594c5.9-1.142,14.245,2.158,20.146,1.016c4.696,18.354,4.701,31.076,6.242,48.994
			c12.368,3.785,27.073,5.623,42.955,5.928c8.46,0.162,20.517-0.805,26.206-0.758c8.702,2.662,17.041,5.548,25.743,8.659
			c2.406,2.57,6.217,7.75,9.155,11.83c-5.765,2.339-9.172,4.237-14.937,6.575c-1.511-2.359-4.643-3.652-6.275-7.187
			c-4.531,0-10.343,1.191-15.119,0.015c-2.511-0.619-2.682-2.211-6.744-5.4c-1.598-0.643-18.834,6.706-45.195,7.105
			c-12.849,0.194-26.224-0.759-40.181-3.515c-8.545-17.461-10.71-40.633-16.295-61.275
			C12.328,165.585,17.095,161.589,21.862,157.594L21.862,157.594z"/>
		<path class="st14" d="M14.009,118.118c-19.512,6.83-15.343,25.614-7.242,52.08c11.621-9.182,24.029-12.328,36.956-11.503
			C41.046,131.793,33.519,111.289,14.009,118.118z"/>
		<path class="st16" d="M238.2,229.144l-91.447,6.791l20.225-54.518c1.026-2.381,1.984-3.957,4.733-3.957l80.419-0.224
			c2.315,0,5.507,2.839,4.141,6.629L238.2,229.144z"/>
		<path class="st17" d="M241.137,231.755l-92.67,6.22l20.225-54.518c1.026-2.381,1.983-3.957,4.731-3.957l80.419-0.224
			c2.315,0,5.509,2.839,4.141,6.629L241.137,231.755z"/>
		<path class="st18" d="M149.844,234.26l18.848-50.803c1.026-2.381,1.983-3.957,4.731-3.957l80.419-0.224
			c2.315,0,5.509,2.839,4.141,6.629c-35.923,9.862-62.836,26.202-92.595,47.562L149.844,234.26L149.844,234.26z"/>
		<path class="st19" d="M212.573,233.075c9.55-2.343,24.245-6.116,31.933-7.724c7.39-1.546,33.096-7.198,39.551-5.211
			c6.262,1.926,8.714,11.4,8.714,17.836c2.901,95.054,6.387,188.813,11.465,279.077c-4.255,6.96-15.068,9.481-25.25,6.282
			l-2.422-9.707c-9.014,5.181-19.768,7.966-33.677,6.403c-18.751-21.969-50.138-153.149-68.172-246.499
			c-53.757,7.733-100.63,12.284-111.866,5.904c-3.067-5.881-3.98-12.74-3.98-18.825c49.185-18.55,95.969-32.046,139.03-37.674
			c7.185-0.933,11.418,3.42,14.582,9.691L212.573,233.075L212.573,233.075z M274.074,499.845l-1.454-9.772l-1.876-13.039
			c-12.413-87.916-22.98-194.84-19.409-209.537c-8.046,0-22.124,3.209-30.63,4.286l1.263,6.009
			c12.132,67.177,26.072,136.747,45.775,202.182C269.859,487.002,271.974,493.648,274.074,499.845z"/>
		<path class="st20" d="M173.458,273.71c-53.229,7.623-99.463,12.055-110.611,5.725c-3.067-5.881-3.98-12.74-3.98-18.825
			c22.787-8.594,45.057-16.103,66.682-22.247c0.614,1.05,1.525,1.984,2.683,2.82C130.535,258.475,150.539,268.951,173.458,273.71z"
			/>
		<ellipse class="st21" cx="209.728" cy="205.704" rx="1.099" ry="1.837"/>
		<path class="st20" d="M266.191,221.552h0.001c-26.042,17.969-44.272,34.773-45.507,49.043
			c-2.882-17.804-5.571-32.571-7.604-36.957C230.849,228.518,248.532,224.821,266.191,221.552L266.191,221.552z"/>
		<path class="st20" d="M292.519,524.283c-4.198,0.775-8.93,0.497-13.534-0.948l-2.422-9.707l1.593-1.713l-4.082-12.069
			c-0.487-3.215-0.971-6.477-1.454-9.772C279.254,506.534,285.886,519.152,292.519,524.283z"/>
	</g>
</g>
</svg>
