<?xml version="1.0" encoding="utf-8"?>
<!-- Generator: Adobe Illustrator 21.1.0, SVG Export Plug-In . SVG Version: 6.00 Build 0)  -->
<svg version="1.1" id="Слой_1" xmlns="http://www.w3.org/2000/svg" xmlns:xlink="http://www.w3.org/1999/xlink" x="0px" y="0px"
	 viewBox="0 0 512 343.706" style="enable-background:new 0 0 512 343.706;" xml:space="preserve">
<path d="M263.539,71.64c0,4.164-3.375,7.539-7.539,7.539s-7.539-3.375-7.539-7.539s3.375-7.539,7.539-7.539
	S263.539,67.476,263.539,71.64z"/>
<path d="M226.898,23.093c17.953-10.785,40.25-10.785,58.203,0c1.207,0.727,2.539,1.07,3.852,1.07c2.547,0,5.031-1.297,6.438-3.637
	c2.133-3.551,0.984-8.16-2.566-10.293c-22.715-13.645-50.934-13.645-73.648,0c-3.551,2.133-4.699,6.742-2.566,10.293
	S223.348,25.226,226.898,23.093z"/>
<path d="M278.879,48.05c2.129-3.555,0.98-8.16-2.57-10.293c-12.527-7.52-28.09-7.52-40.617,0c-3.551,2.133-4.699,6.738-2.57,10.293
	c2.133,3.551,6.738,4.703,10.293,2.57c7.766-4.66,17.41-4.66,25.172,0c1.211,0.723,2.539,1.07,3.855,1.07
	C274.988,51.69,277.473,50.39,278.879,48.05z"/>
<path d="M496.484,24.093h-16.031c-8.559,0-15.516,6.957-15.516,15.516v24.563h-17.066V47.624c0-2.488-1.234-4.816-3.293-6.211
	c-2.063-1.395-4.68-1.68-6.992-0.754l-160.32,64.129c-2.848,1.141-4.715,3.898-4.715,6.965v224.453c0,2.488,1.234,4.813,3.293,6.207
	c1.262,0.855,2.727,1.293,4.207,1.293c0.941,0,1.887-0.18,2.785-0.539l160.32-64.129c2.848-1.141,4.715-3.895,4.715-6.961v-16.551
	h17.066v32.582c0,4.141,3.355,7.5,7.5,7.5H504.5c4.141,0,7.5-3.359,7.5-7.5v-248.5C512,31.05,505.039,24.093,496.484,24.093z
	 M479.938,39.608c0-0.285,0.23-0.516,0.516-0.516h16.031c0.285,0,0.516,0.23,0.516,0.516v24.563h-17.063V39.608z M351.676,91.179
	l17.066-6.828v208.297l-17.066,6.828V91.179z M336.676,305.476l-17.063,6.824V104.003l17.063-6.824V305.476z M287.547,116.831
	l17.066-6.828V318.3l-17.066,6.824V116.831z M432.871,266.999l-17.063,6.824V127.784c0-4.145-3.359-7.5-7.5-7.5
	c-4.145,0-7.5,3.355-7.5,7.5v152.039l-17.066,6.824V78.351l17.066-6.824v24.191c0,4.141,3.355,7.5,7.5,7.5
	c4.141,0,7.5-3.359,7.5-7.5V65.526l17.063-6.824V266.999z M447.871,240.526V79.171h17.063v161.355H447.871z M479.938,280.608V79.171
	H497v201.438H479.938z"/>
<path d="M234.738,104.788L74.414,40.659c-2.309-0.926-4.93-0.645-6.988,0.754c-2.063,1.395-3.297,3.723-3.297,6.211v16.547H47.063
	V39.604c0-8.555-6.957-15.516-15.516-15.516H15.516C6.961,24.093,0,31.05,0,39.608v248.5c0,4.141,3.359,7.5,7.5,7.5h32.063
	c4.145,0,7.5-3.359,7.5-7.5v-32.582h17.066v16.547c0,3.066,1.867,5.824,4.715,6.965l160.32,64.129
	c0.898,0.359,1.844,0.535,2.785,0.535c1.48,0,2.945-0.438,4.207-1.289c2.059-1.395,3.293-3.723,3.293-6.211V111.753
	C239.453,108.687,237.586,105.929,234.738,104.788z M175.324,97.179l17.063,6.824V312.3l-17.063-6.824V97.179z M160.324,299.476
	l-17.066-6.828V84.351l17.066,6.828V299.476z M15.516,39.093h16.031c0.285,0,0.516,0.23,0.516,0.516v24.563H15V39.608
	C15,39.323,15.23,39.093,15.516,39.093z M32.063,280.608H15V79.171h17.063V280.608z M47.063,240.526V79.171h17.066v161.355H47.063z
	 M79.129,58.702l17.063,6.824v150.438c0,4.141,3.359,7.5,7.5,7.5c4.145,0,7.5-3.359,7.5-7.5V71.526l17.066,6.824v208.297
	l-17.066-6.824v-31.801c0-4.141-3.355-7.5-7.5-7.5c-4.141,0-7.5,3.359-7.5,7.5v25.801l-17.063-6.828V58.702z M224.453,325.128
	l-17.066-6.828V110.003l17.066,6.828V325.128z"/>
</svg>
