<?xml version="1.0" encoding="UTF-8"?>
<!DOCTYPE svg PUBLIC "-//W3C//DTD SVG 1.0//EN" "http://www.w3.org/TR/2001/REC-SVG-20010904/DTD/svg10.dtd">
<!-- Creator: CorelDRAW X7 -->
<svg xmlns="http://www.w3.org/2000/svg" xml:space="preserve" width="46px" height="47px" version="1.0" style="shape-rendering:geometricPrecision; text-rendering:geometricPrecision; image-rendering:optimizeQuality; fill-rule:evenodd; clip-rule:evenodd"
viewBox="0 0 187029 190368"
 xmlns:xlink="http://www.w3.org/1999/xlink">
 <defs>
  <style type="text/css">
   <![CDATA[
    .fil0 {fill:black}
   ]]>
  </style>
 </defs>
 <g id="Слой_x0020_1">
  <metadata id="CorelCorpID_0Corel-Layer"/>
  <g id="_1366522224">
   <path class="fil0" d="M15714 104725c1365,101 2777,-130 4170,-672 798,-313 1590,-726 2364,-1245 4655,-3098 5995,-8128 3262,-12236 0,0 0,0 0,0l-15633 -23468 21523 -14335 11587 17390c-1426,265 -2901,884 -4371,1864 -4761,3166 -6135,8033 -3426,12102 2282,3425 6255,4482 10214,2935 783,-307 1566,-715 2335,-1229 4655,-3099 5995,-8134 3262,-12237 0,0 0,0 0,-4l-20831 -31270c-1292,-1946 -3925,-2470 -5871,-1177l-22411 14926c-942,629 -1581,1581 -1802,2690 -225,1105 -4,2234 625,3176l16786 25202c-1422,269 -2902,884 -4372,1864 -2128,1417 -3632,3200 -4343,5155 -846,2320 -524,4785 918,6942 1426,2152 3564,3435 6014,3627l0 0zm29382 -22858c-922,610 -4083,2407 -5938,-384 -1643,-2470 611,-4502 2100,-5491 499,-337 1052,-649 1624,-870 1455,-572 3031,-567 4150,1110l0 5c1860,2786 -1013,5010 -1936,5630l0 0zm-18596 -36463l2258 3396 -21523 14336 -2258 -3392 21523 -14340zm-13241 50385c361,-980 1249,-1984 2508,-2820 500,-336 1052,-648 1629,-869 1451,-572 3026,-567 4146,1110l0 4c1859,2787 -1014,5011 -1936,5626 -1211,812 -2465,1211 -3531,1129 -995,-77 -1783,-572 -2407,-1508 -610,-918 -740,-1764 -409,-2672zm0 0z"/>
   <path class="fil0" d="M185694 105955c-802,-797 -1869,-1235 -2998,-1235l-26932 63c-2335,5 -4227,1907 -4223,4242l72 30299c-1359,-586 -2940,-888 -4674,-888 -2556,9 -4790,663 -6466,1897 -1989,1466 -3080,3704 -3075,6299 5,2579 1076,4833 3012,6341 1701,1326 3949,2023 6505,2018 1542,-5 2950,-269 4184,-754 3258,-1274 5304,-4070 5299,-7649l-67 -28195 25861 -58 48 20917c-1360,-581 -2936,-888 -4675,-884 -5717,15 -9550,3306 -9541,8196 10,2580 1076,4833 3017,6342 1701,1321 3949,2022 6500,2017 1542,-4 2950,-269 4185,-754 3257,-1273 5303,-4074 5299,-7648l-87 -37578c-5,-1129 -447,-2190 -1244,-2988l0 0zm-38789 44265c-1460,5 -2724,-350 -3564,-1009 -788,-615 -1172,-1460 -1177,-2589 0,-1100 360,-1878 1138,-2450 269,-202 591,-375 952,-514 749,-293 1671,-452 2695,-452 1494,-5 2762,327 3574,932 749,562 1100,1345 1105,2460 9,3353 -3613,3622 -4723,3622l0 0zm9417 -36598l-10 -4073 25861 -58 9 4074 -25860 57zm21210 36531c-1456,5 -2724,-356 -3565,-1009 -788,-615 -1172,-1460 -1177,-2589 0,-1663 937,-2532 2075,-2979 899,-351 1922,-437 2710,-437 1494,-5 2762,327 3574,932 754,562 1105,1345 1105,2460 10,3353 -3613,3622 -4722,3622l0 0zm0 0z"/>
   <path class="fil0" d="M111552 169912c-9772,15258 -31813,20134 -51270,11348 -11347,-5121 -20139,-14235 -24107,-25001 -3171,-8604 -2935,-17554 668,-25202 2565,-5443 6745,-10070 12082,-13385 7259,-4501 12702,-10987 15753,-18750 485,-1225 -120,-2609 -1345,-3089 -1225,-481 -2609,120 -3089,1345 -2671,6803 -7456,12486 -13831,16444 -6121,3796 -10920,9123 -13884,15402 -4151,8816 -4444,19073 -827,28883 4411,11957 14115,22051 26620,27700 13077,5905 27259,6169 38861,1629 7561,-2959 14028,-7956 18380,-14753 711,-1105 389,-2580 -720,-3291 -1110,-711 -2585,-389 -3291,720l0 0zm0 0z"/>
   <path class="fil0" d="M132897 46605c394,-24 787,-111 1162,-255 39,-14 72,-33 111,-48 999,-427 1787,-1259 2157,-2277l1311 -3598 3512 1537c605,264 1259,259 1826,38 567,-225 1052,-662 1316,-1268 524,-1206 -24,-2608 -1230,-3137l-3790 -1657 2061 -5664 3670 1609c600,264 1254,255 1821,34 567,-221 1052,-659 1316,-1264 529,-1206 -19,-2613 -1225,-3137l-3949 -1729 2047 -5616 2656 1162c606,264 1259,260 1826,39 567,-221 1052,-663 1316,-1264 529,-1206 -24,-2613 -1230,-3142l-2935 -1283 1480 -4069c711,-1950 -221,-4131 -2129,-4967l-14436 -6318c-1907,-835 -4141,-38 -5092,1807l-1984 3848 -2941 -1288c-1205,-523 -2613,24 -3137,1230 -528,1206 24,2614 1230,3137l2657 1168 -2738 5308 -3983 -1744c-1206,-528 -2609,24 -3137,1230 -529,1206 19,2609 1225,3137l3709 1624 -2763 5357 -3790 -1662c-1206,-529 -2609,24 -3137,1229 -529,1206 19,2609 1225,3138l3516 1537 -1758 3401c-495,966 -572,2109 -207,3132 140,404 351,779 611,1110l-13034 29786c-15613,-3137 -28200,1729 -33110,12952 -1268,2882 -2066,5524 -2441,8080 -196,1307 707,2518 2009,2710 422,62 840,9 1215,-140 769,-297 1360,-994 1489,-1873 317,-2128 1000,-4372 2095,-6865 5371,-12275 19567,-11612 26778,-10377l-14532 33201c-433,135 -865,279 -1293,447 -4544,1777 -8123,5217 -10079,9690 -1960,4473 -2061,9440 -278,13985 1777,4544 5217,8123 9690,10084 4467,1955 9435,2056 13980,278 4544,-1777 8128,-5222 10083,-9690 1956,-4472 2057,-9440 279,-13985 -168,-427 -355,-840 -548,-1249l14514 -33162c5774,4506 15796,14638 10175,27479 -884,2023 -2056,3915 -3488,5626 -7932,9464 -11054,21162 -8792,32932 947,4915 803,9748 -437,14369 -336,1273 418,2580 1691,2921 510,135 1024,96 1480,-82 682,-269 1235,-845 1436,-1604 1422,-5328 1595,-10882 510,-16507 -1989,-10334 773,-20624 7768,-28969 1720,-2056 3132,-4338 4199,-6779l0 0c2825,-6452 2704,-13297 -351,-19793 -2426,-5154 -6634,-9997 -12226,-14090l13048 -29800zm-32702 62819c-1662,-1764 -3680,-3190 -5967,-4194 -2291,-1000 -4708,-1514 -7134,-1538l28152 -64317 13101 5736c-9546,21335 -18774,42896 -28152,64313zm30155 -104418l13034 5702 -11237 30867 -16843 -7374 15046 -29195zm-31078 122380c-1446,3305 -4093,5847 -7451,7163 -3363,1312 -7033,1240 -10338,-206 -3305,-1446 -5847,-4093 -7158,-7456 -1317,-3358 -1245,-7029 201,-10334 1446,-3305 4094,-5847 7456,-7163 3359,-1312 7029,-1239 10334,207 3301,1446 5847,4093 7158,7456 1317,3358 1245,7028 -202,10333z"/>
   <path class="fil0" d="M48704 145738c-1821,4165 87,9041 4252,10862l31529 13802c2085,913 4343,894 6308,125 1970,-773 3647,-2291 4559,-4371 1821,-4170 -86,-9042 -4251,-10867l-31530 -13803c-2018,-884 -4261,-927 -6312,-125 -2052,803 -3666,2359 -4555,4377zm40485 13918c1758,768 2565,2829 1792,4588 -769,1758 -2825,2565 -4584,1791l-31529 -13797c-1758,-773 -2565,-2830 -1792,-4593 370,-850 1052,-1503 1922,-1845 864,-341 1811,-321 2661,53l31530 13803zm0 0z"/>
   <path class="fil0" d="M120968 57256c567,-221 1052,-659 1316,-1264 529,-1206 -24,-2609 -1230,-3137l-6586 -2882c-1206,-529 -2609,19 -3137,1225 -529,1205 19,2613 1225,3141l6586 2883c606,264 1259,259 1826,34l0 0zm0 0z"/>
   <path class="fil0" d="M116976 66383c567,-221 1052,-658 1311,-1263 529,-1206 -19,-2613 -1225,-3137l-6586 -2887c-1206,-524 -2614,24 -3142,1229 -524,1206 24,2614 1230,3138l6586 2887c605,264 1254,254 1826,33zm0 0z"/>
   <path class="fil0" d="M112979 75511c567,-226 1052,-663 1316,-1263 528,-1206 -24,-2614 -1230,-3142l-6586 -2883c-1206,-528 -2609,20 -3137,1230 -529,1206 19,2609 1225,3137l6591 2883c600,264 1254,259 1821,38zm0 0z"/>
   <path class="fil0" d="M108986 84634c567,-221 1053,-658 1317,-1263 528,-1206 -24,-2609 -1230,-3137l-6587 -2883c-1205,-528 -2613,19 -3137,1225 -528,1206 20,2614 1225,3137l6587 2888c605,264 1259,259 1825,33zm0 0z"/>
   <path class="fil0" d="M95352 87704c-528,1206 24,2614 1230,3137l6587 2888c600,264 1254,254 1820,33 572,-221 1053,-658 1317,-1263 528,-1206 -19,-2614 -1225,-3142l-6592 -2883c-1205,-528 -2608,24 -3137,1230zm0 0z"/>
   <path class="fil0" d="M123524 28349c-1206,-528 -2609,19 -3137,1225 -529,1211 19,2614 1225,3142 1206,529 2613,-24 3142,-1230 523,-1206 -24,-2608 -1230,-3137zm0 0z"/>
   <path class="fil0" d="M130912 31544c-1205,-529 -2613,24 -3141,1230 -524,1201 24,2608 1229,3137 1206,528 2609,-24 3138,-1230 528,-1206 -20,-2609 -1226,-3137zm0 0z"/>
   <path class="fil0" d="M127574 19072c-1206,-528 -2609,24 -3137,1225 -529,1211 24,2614 1229,3142 1206,529 2609,-24 3137,-1230 529,-1205 -19,-2608 -1229,-3137zm0 0z"/>
   <path class="fil0" d="M134967 22272c-1206,-529 -2608,24 -3137,1230 -528,1206 24,2608 1230,3137 1201,528 2609,-24 3137,-1230 528,-1201 -19,-2609 -1230,-3137zm0 0z"/>
   <path class="fil0" d="M131633 9800c-1206,-528 -2609,24 -3137,1230 -528,1206 19,2609 1225,3137 1206,529 2613,-19 3142,-1229 528,-1206 -24,-2609 -1230,-3138zm0 0z"/>
   <path class="fil0" d="M139027 13000c-1206,-528 -2614,24 -3137,1230 -529,1201 19,2608 1225,3137 1205,528 2608,-24 3137,-1230 528,-1206 -20,-2609 -1225,-3137zm0 0z"/>
  </g>
 </g>
</svg>
