<?xml version="1.0" encoding="utf-8"?>
<!-- Generator: Adobe Illustrator 21.1.0, SVG Export Plug-In . SVG Version: 6.00 Build 0)  -->
<svg version="1.1" id="Слой_1" xmlns="http://www.w3.org/2000/svg" xmlns:xlink="http://www.w3.org/1999/xlink" x="0px" y="0px"
	 viewBox="0 0 512 512.001" style="enable-background:new 0 0 512 512.001;" xml:space="preserve">
<path d="M14.121,176.801c3.887,1.871,8.285,2.816,12.992,2.816c2.695,0,5.492-0.309,8.355-0.934
	c17.191-3.75,26.887-16.961,23.582-32.129c0-0.004,0-0.004,0-0.004l-18.91-86.695l79.508-17.344l14.016,64.25
	c-4.477-0.848-9.516-0.73-14.949,0.453c-17.574,3.832-27.184,16.508-23.906,31.535c2.762,12.664,13.199,20.313,26.574,20.313
	c2.645,0,5.41-0.301,8.25-0.918c17.191-3.75,26.891-16.965,23.582-32.133c0,0,0,0,0-0.004L128.016,10.477
	c-1.563-7.172-8.676-11.734-15.855-10.168L29.367,18.367c-3.473,0.758-6.441,2.82-8.363,5.809
	c-1.926,2.992-2.566,6.555-1.809,10.027L39.5,127.305c-4.477-0.848-9.52-0.734-14.949,0.449
	c-7.855,1.715-14.301,5.219-18.633,10.129c-5.141,5.828-7.016,13.43-5.273,21.406C2.375,167.223,7.16,173.441,14.121,176.801z
	 M126.434,143.488c-3.41,0.742-14.723,2.375-16.969-7.934c-1.988-9.109,6.945-12.484,12.449-13.684
	c1.848-0.402,3.832-0.684,5.766-0.684c4.918,0,9.523,1.809,10.879,8.016v0.004C140.809,139.512,129.848,142.742,126.434,143.488z
	 M113.719,15.32l2.734,12.535L36.945,45.199l-2.734-12.531L113.719,15.32z M17.168,147.809c2.176-2.465,5.934-4.383,10.582-5.398
	c1.848-0.402,3.832-0.684,5.766-0.684c4.918,0,9.523,1.813,10.879,8.016v0.004c2.246,10.309-8.711,13.539-12.125,14.281
	c-4.48,0.977-8.613,0.715-11.637-0.742c-2.832-1.363-4.578-3.719-5.332-7.191C14.563,152.719,15.156,150.086,17.168,147.809z"/>
<path d="M510.863,375.242c-1.434-3.258-4.051-5.758-7.363-7.047L424.504,337.5c-6.848-2.66-14.574,0.746-17.234,7.59l-34.527,88.879
	c-3.313-3.262-7.59-5.973-12.684-7.953c-7.496-2.91-14.801-3.551-21.129-1.852c-7.504,2.016-13.262,7.32-16.219,14.93
	c-2.941,7.57-2.387,15.398,1.559,22.039c3.465,5.832,9.258,10.457,16.754,13.367c4.512,1.754,8.941,2.594,13.117,2.594
	c11.008,0,20.215-5.855,24.293-16.348l32.133-82.711l75.852,29.473l-23.84,61.363c-3.313-3.258-7.586-5.969-12.684-7.949
	c-16.766-6.516-31.777-1.258-37.348,13.078c-2.941,7.57-2.387,15.395,1.563,22.039c3.465,5.832,9.258,10.453,16.75,13.367
	c4.512,1.75,8.945,2.594,13.121,2.594c11.008,0,20.215-5.859,24.289-16.352l42.82-110.219
	C512.375,382.113,512.297,378.496,510.863,375.242z M346.453,460.516c-4.277-1.66-7.578-4.16-9.289-7.043
	c-1.605-2.707-1.762-5.633-0.473-8.945c1.25-3.223,3.199-5.086,6.133-5.875c1.027-0.277,2.164-0.414,3.379-0.414
	c2.535,0,5.426,0.594,8.422,1.762c4.379,1.699,7.715,4.125,9.398,6.832c1.563,2.512,1.695,5.207,0.426,8.48
	C360.629,465.145,349.711,461.781,346.453,460.516z M415.996,364.051l4.645-11.957l75.855,29.473l-4.645,11.957L415.996,364.051z
	 M436.289,495.422c-4.277-1.66-7.574-4.164-9.285-7.047c-1.609-2.703-1.762-5.629-0.477-8.941c1.891-4.863,5.637-6.34,9.492-6.34
	c3.031,0,6.133,0.914,8.441,1.813c4.379,1.699,7.715,4.125,9.398,6.832c1.563,2.512,1.695,5.207,0.426,8.477
	C450.465,500.051,439.547,496.688,436.289,495.422z"/>
<path d="M220.27,477.699c-46.117,33.516-116.301,22.551-163.258-25.504c-27.387-28.027-42.695-64.809-41.988-100.91
	c0.563-28.848,11.516-54.805,30.84-73.094c13.762-13.008,31.313-21.781,50.758-25.375c26.422-4.879,49.816-17.637,67.652-36.891
	c2.816-3.039,2.637-7.785-0.402-10.598c-3.039-2.82-7.781-2.637-10.598,0.402c-15.629,16.867-36.156,28.047-59.375,32.336
	c-22.297,4.117-42.469,14.223-58.344,29.227c-22.27,21.078-34.887,50.801-35.527,83.699c-0.785,40.098,16.078,80.805,46.258,111.688
	C77.848,494.98,119.102,512,158.313,512c25.543,0,50.227-7.23,70.773-22.164c3.352-2.434,4.094-7.125,1.66-10.477
	C228.309,476.008,223.617,475.266,220.27,477.699z"/>
<path d="M349.789,326.887c15.676-15.68,23.168-35.879,21.656-58.418c-1.195-17.887-7.984-36.891-19.676-55.293l47.863-47.863
	c2.93-2.93,2.93-7.68,0.004-10.605c-2.93-2.93-7.68-2.93-10.605,0L256.32,287.414c-2.855-7.078-7.125-13.578-12.684-19.137
	s-12.055-9.832-19.133-12.684L380.715,99.371l31.824,31.824l-0.887,0.887c-2.93,2.926-2.93,7.676,0,10.605
	c1.465,1.465,3.383,2.195,5.305,2.195c1.918,0,3.84-0.73,5.301-2.195l1.898-1.895c1.191,0.375,2.438,0.574,3.703,0.574
	c0.129,0,0.258-0.004,0.387-0.008c3.418-0.105,6.672-1.641,8.93-4.207l7.961-9.039l8.535,8.535c1.465,1.465,3.387,2.199,5.305,2.199
	s3.84-0.734,5.305-2.199c2.93-2.93,2.93-7.676,0-10.605l-9.211-9.211l12.527-14.227l8.914,8.914
	c1.465,1.465,3.387,2.195,5.305,2.195s3.84-0.73,5.305-2.195c2.93-2.93,2.93-7.68,0-10.609l-9.59-9.586l12.434-14.117l6.457,6.461
	c1.465,1.465,3.387,2.195,5.305,2.195s3.84-0.73,5.305-2.195c2.93-2.93,2.93-7.68,0-10.609l-7.137-7.133l9-10.219
	c4.32-4.906,4.086-12.371-0.535-16.996L473.285,3.637c-4.625-4.625-12.09-4.859-16.996-0.539l-10.223,9.004l-7.141-7.137
	c-2.93-2.926-7.68-2.926-10.605,0.004c-2.93,2.93-2.926,7.68,0.004,10.609l6.461,6.457l-14.113,12.426l-9.676-9.672
	c-2.926-2.93-7.676-2.93-10.605,0c-2.93,2.926-2.93,7.676,0,10.605l9.004,9l-14.23,12.531l-9.207-9.207
	c-2.926-2.93-7.676-2.93-10.605,0s-2.93,7.68,0,10.605l8.535,8.535l-9.043,7.961c-2.563,2.258-4.094,5.512-4.203,8.93
	c-0.043,1.348,0.145,2.684,0.527,3.957l-72.348,72.352c-42.164-27.094-84.625-27.254-111.879,0.004
	c-7.016,7-12.387,13.836-16.422,20.895c-2.059,3.598-0.809,8.18,2.785,10.234c1.176,0.672,2.453,0.992,3.719,0.992
	c2.602,0,5.133-1.359,6.516-3.781c3.367-5.883,7.941-11.68,14.004-17.73c29.813-29.816,70.656-11.602,90.375,0.289l-80.645,80.648
	c-1.422-0.105-2.852-0.176-4.293-0.176c-15.355,0-29.797,5.98-40.656,16.844c-10.863,10.859-16.844,25.301-16.844,40.66
	s5.98,29.801,16.844,40.66c10.859,10.859,25.301,16.844,40.656,16.844c15.359,0,29.801-5.984,40.66-16.844s16.84-25.301,16.84-40.66
	c0-1.441-0.07-2.871-0.176-4.293l80.551-80.551c11.766,19.824,29.516,61-1.676,92.191c-4.91,4.922-10.52,9.125-16.668,12.492
	c-34.102,18.652-56.66,49.352-63.516,86.441c-2.855,15.484-8.824,29.484-17.746,41.617c-2.453,3.34-1.738,8.035,1.598,10.488
	c1.34,0.984,2.895,1.457,4.438,1.457c2.305,0,4.578-1.059,6.047-3.059c10.277-13.977,17.145-30.051,20.414-47.781
	c6.02-32.566,25.895-59.559,55.965-76.008C337.113,337.879,343.871,332.816,349.789,326.887z M464.387,15.953l31.652,31.652
	L427.73,125.18l-40.91-40.918L464.387,15.953z M233.031,338.988c-8.027,8.027-18.699,12.449-30.051,12.449
	s-22.023-4.422-30.051-12.449s-12.449-18.699-12.449-30.051c0-11.355,4.422-22.027,12.449-30.055
	c8.023-8.027,18.699-12.449,30.051-12.449s22.023,4.422,30.051,12.449c8.023,8.027,12.445,18.699,12.445,30.055
	C245.477,320.289,241.059,330.961,233.031,338.988z"/>
<path d="M63.805,334.816c-10.121,10.121-10.121,26.594,0,36.715l76.582,76.586c5.063,5.059,11.711,7.59,18.355,7.59
	c6.648,0,13.297-2.531,18.359-7.594c10.121-10.121,10.121-26.59,0-36.715l-76.582-76.586c-4.902-4.902-11.422-7.602-18.355-7.602
	S68.711,329.914,63.805,334.816z M166.492,422.008c4.273,4.273,4.273,11.227,0,15.5c-4.27,4.273-11.223,4.277-15.5,0l-76.578-76.582
	c-4.273-4.273-4.273-11.23,0-15.504c2.066-2.066,4.82-3.211,7.75-3.211c2.926,0,5.68,1.141,7.75,3.211L166.492,422.008z"/>
<path d="M376.996,158.336c1.918,0,3.84-0.73,5.305-2.195c2.926-2.93,2.926-7.68,0-10.605l-16-16.004
	c-2.93-2.926-7.68-2.926-10.609,0c-2.93,2.93-2.93,7.68,0,10.609l16,16C373.156,157.605,375.078,158.336,376.996,158.336z"/>
<path d="M354.828,180.504c1.922,0,3.84-0.73,5.305-2.195c2.93-2.93,2.93-7.68,0-10.605l-16-16.004c-2.93-2.926-7.676-2.926-10.605,0
	c-2.93,2.93-2.93,7.68,0,10.609l16,16C350.992,179.773,352.91,180.504,354.828,180.504z"/>
<path d="M332.664,202.672c1.918,0,3.836-0.73,5.301-2.195c2.93-2.93,2.93-7.68,0-10.609l-16-16c-2.93-2.93-7.676-2.93-10.605,0
	s-2.93,7.68,0,10.605l16,16.004C328.824,201.941,330.742,202.672,332.664,202.672z"/>
<path d="M310.496,224.84c1.918,0,3.84-0.73,5.305-2.195c2.93-2.93,2.93-7.68,0-10.609l-16-16c-2.93-2.93-7.68-2.93-10.605,0
	c-2.93,2.93-2.93,7.68,0,10.605l16,16.004C306.66,224.109,308.578,224.84,310.496,224.84z"/>
<path d="M267.027,218.203c-2.93,2.93-2.93,7.68,0,10.609l16,16c1.465,1.465,3.383,2.195,5.305,2.195c1.918,0,3.836-0.73,5.301-2.195
	c2.93-2.93,2.93-7.68,0-10.609l-16-16C274.703,215.273,269.957,215.273,267.027,218.203z"/>
<path d="M417.621,76.543c-2.93-2.93-7.676-2.93-10.605,0s-2.93,7.676,0,10.605s7.676,2.93,10.605,0S420.551,79.473,417.621,76.543z"
	/>
<path d="M435.609,94.375c-2.93-2.93-7.68-2.93-10.609,0c-2.926,2.926-2.926,7.676,0,10.605c2.93,2.93,7.68,2.93,10.609,0
	C438.535,102.051,438.535,97.301,435.609,94.375z"/>
<path d="M440.129,54c-2.93-2.93-7.68-2.93-10.605,0c-2.93,2.93-2.93,7.68,0,10.605c2.926,2.93,7.676,2.93,10.605,0
	C443.059,61.68,443.059,56.93,440.129,54z"/>
<path d="M458.129,71.852c-2.93-2.93-7.68-2.93-10.605,0c-2.93,2.93-2.93,7.68,0,10.605c2.926,2.93,7.676,2.93,10.605,0
	C461.059,79.531,461.059,74.781,458.129,71.852z"/>
<path d="M462.648,31.48c-2.93-2.93-7.676-2.93-10.605,0s-2.93,7.676,0,10.605s7.676,2.93,10.605,0S465.578,34.41,462.648,31.48z"/>
<path d="M480.645,49.328c-2.93-2.93-7.68-2.93-10.605,0c-2.93,2.926-2.93,7.676,0,10.605c2.926,2.93,7.676,2.93,10.605,0
	S483.574,52.254,480.645,49.328z"/>
</svg>
