<?xml version="1.0" encoding="utf-8"?>
<!-- Generator: Adobe Illustrator 21.1.0, SVG Export Plug-In . SVG Version: 6.00 Build 0)  -->
<svg version="1.1" id="Capa_1" xmlns="http://www.w3.org/2000/svg" xmlns:xlink="http://www.w3.org/1999/xlink" x="0px" y="0px"
	 viewBox="0 0 174 153.282" style="enable-background:new 0 0 174 153.282;" xml:space="preserve">
<style type="text/css">
	.st0{fill:#000002;}
</style>
<path class="st0" d="M171.5,153.282H2.5c-1.381,0-2.5-1.119-2.5-2.5V2.5C0,1.119,1.119,0,2.5,0h151.672c1.381,0,2.5,1.119,2.5,2.5
	v73.927H171.5c1.381,0,2.5,1.119,2.5,2.5v71.855C174,152.163,172.881,153.282,171.5,153.282z M45.5,148.282H169V81.427h-51.701
	c-1.381,0-2.5-1.119-2.5-2.5v-4.813h-6.172c-1.381,0-2.5-1.119-2.5-2.5s1.119-2.5,2.5-2.5h6.172V52.947c0-1.381,1.119-2.5,2.5-2.5
	s2.5,1.119,2.5,2.5v23.48h14.529V5h-14.529v18.28c0,1.381-1.119,2.5-2.5,2.5s-2.5-1.119-2.5-2.5v-7.667H75.5
	c-1.381,0-2.5-1.119-2.5-2.5V5h-9.127v11.613c0,1.381-1.119,2.5-2.5,2.5s-2.5-1.119-2.5-2.5V5h-2.706v6.447
	c0,1.381-1.119,2.5-2.5,2.5h-0.779c0.447,1.021,0.696,2.149,0.696,3.333v6.5c0,4.595-3.738,8.333-8.333,8.333
	s-8.333-3.738-8.333-8.333v-6.5c0-1.185,0.249-2.312,0.696-3.333h-0.779c-1.381,0-2.5-1.119-2.5-2.5V5H25.25v33.113
	c0,1.381-1.119,2.5-2.5,2.5H19.5v14.038h39.373V43.113c0-1.381,1.119-2.5,2.5-2.5s2.5,1.119,2.5,2.5v26h6.172
	c1.381,0,2.5,1.119,2.5,2.5s-1.119,2.5-2.5,2.5h-6.172v12.25c0,1.381-1.119,2.5-2.5,2.5s-2.5-1.119-2.5-2.5V59.651H23.167v71.796H43
	c1.381,0,2.5,1.119,2.5,2.5V148.282z M5,148.282h35.5v-11.835H20.667c-1.381,0-2.5-1.119-2.5-2.5v-43.5H5V148.282z M5,85.447h13.167
	V59.651H5V85.447z M148,76.427h3.672V5H148V76.427z M139.328,76.427H143V5h-3.672V76.427z M5,53.78h9.5V40.613H5V53.78z M17,35.613
	h3.25V5H5v30.613H17z M45.25,13.947c-1.838,0-3.333,1.496-3.333,3.333v6.5c0,1.838,1.495,3.333,3.333,3.333s3.333-1.495,3.333-3.333
	v-6.5C48.583,15.443,47.088,13.947,45.25,13.947z M78,10.613h36.799V5H78V10.613z M45.25,8.947h5.917V5H39.333v3.947H45.25z
	 M99.956,140.863H79.911c-1.381,0-2.5-1.119-2.5-2.5V92.551c0-1.381,1.119-2.5,2.5-2.5h20.045c1.381,0,2.5,1.119,2.5,2.5v45.813
	C102.456,139.744,101.336,140.863,99.956,140.863z M82.411,135.863h15.045v-2.5h-8.873c-1.381,0-2.5-1.119-2.5-2.5v-30.812
	c0-1.381,1.119-2.5,2.5-2.5h8.873v-2.5H82.411V135.863z M91.083,128.363h6.373v-25.812h-6.373V128.363z M154.172,139.363
	c-1.381,0-2.5-1.119-2.5-2.5v-43c0-1.381,1.119-2.5,2.5-2.5s2.5,1.119,2.5,2.5v7.756c1.3,0.088,2.328,1.171,2.328,2.494v22.5
	c0,1.323-1.027,2.406-2.328,2.494v7.756C156.672,138.244,155.553,139.363,154.172,139.363z M130.071,136.363
	c-7.951,0-14.179-8.565-14.179-19.5s6.228-19.5,14.179-19.5s14.179,8.565,14.179,19.5S138.022,136.363,130.071,136.363z
	 M130.071,102.363c-4.976,0-9.179,6.64-9.179,14.5s4.204,14.5,9.179,14.5c4.975,0,9.179-6.64,9.179-14.5
	S135.046,102.363,130.071,102.363z"/>
</svg>
