<?xml version="1.0" encoding="utf-8"?>
<!-- Generator: Adobe Illustrator 21.1.0, SVG Export Plug-In . SVG Version: 6.00 Build 0)  -->
<svg version="1.1" id="Слой_1" xmlns="http://www.w3.org/2000/svg" xmlns:xlink="http://www.w3.org/1999/xlink" x="0px" y="0px"
	 viewBox="0 0 1357 1754" style="enable-background:new 0 0 1357 1754;" xml:space="preserve">
<style type="text/css">
	.st0{fill:#FFCF00;}
	.st1{fill:#207BBB;}
</style>
<g id="Слой_x0020_1">
	<g id="_1421051216">
		<path class="st0" d="M918.859,1474.89c0.729-1.9,1.595-3.746,2.594-5.518c16.286-35.391,24.325-73.958,24.325-112.888v-152.076
			c-94.015-42.301-183.672-93.992-267.383-154.161c-83.709,60.169-173.364,111.86-267.377,154.161v152.076
			c0,95.254,45.189,171.72,117.584,230.684c41.182,33.542,93.913,63.125,144.62,81.196c47.594-16.6,92.844-39.573,134.036-68.673
			C853.46,1567.055,893.771,1526.06,918.859,1474.89z"/>
		<path class="st1" d="M977.861,1539.62c-31.267,51.428-74.442,94.177-123.608,128.861
			c-51.749,36.507-108.979,64.702-169.392,83.681l-0.266,0.084l-0.268,0.076c-7.52,2.115-15.487,2.077-22.986-0.113l-0.269-0.079
			l-0.268-0.087c-58.791-19.141-114.282-47.475-164.199-83.967c-48.531-35.478-90.596-78.99-120.711-131.005
			c-10.771,4.49-20.598,11.068-28.947,19.345l-0.414,0.411c-43.564,43.192-102.17,67.834-163.598,67.722
			c-44.717-0.082-81.099-36.195-81.236-80.958c-0.117-38.2,9.304-75.767,27.245-109.343C9.396,1274.628-29.808,1073.2,23.042,880.15
			C69.79,709.396,183.462,562.386,337.576,476.361c-12.655-12.642-21.303-28.42-21.303-47.835v-53.492
			c0-0.338,0.009-0.672,0.025-1.006c-0.014-0.367-0.025-0.733-0.025-1.104c0-21.84,12.041-36.759,30.395-47.312
			c19.266-11.078,46.25-18.033,71.661-22.73c-15.859-19.469-28.839-41.203-38.495-64.511l-50.727-122.447
			c-7.065-17.052-2.06-36.731,12.295-48.335c17.852-14.43,44.099-11.637,58.547,6.168c8.883,10.829,25.709,21.365,38.35,26.646
			c33.601,14.04,68.788,9.845,101.574-3.82c23.51-35.345,60.002-62.332,98.967-78.179c76.383-31.066,163.056-21.998,231.968,23.046
			c25.676,16.783,68.685,38.446,98.883,21.967c12.091-6.598,26.67-6.793,38.931-0.517c20.471,10.477,28.573,35.573,18.107,56.047
			L956.13,257.069c-7.936,15.527-17.401,30.204-28.238,43.802c28.24,4.643,58.756,11.695,80.366,23.417
			c19.41,10.526,32.685,25.712,32.685,48.652c0,0.361-0.011,0.719-0.026,1.077c0.017,0.342,0.026,0.686,0.026,1.033v53.497
			c0,19.557-8.418,35.333-21.029,47.984c154.782,86.52,268.407,234.5,314.58,406.283c52.591,195.653,12.145,399.913-112.223,559.426
			c15.359,31.655,23.403,66.479,23.189,101.762c-0.272,44.726-36.828,80.559-81.449,80.559h-0.077
			c-61.347,0-120.102-24.436-163.435-67.849l-1.905-1.908C992.488,1548.685,985.485,1543.578,977.861,1539.62z M514.752,355.984
			c32.367,15.455,67.784,23.457,103.649,23.419h107.764c36.583,0.046,72.698-8.275,105.573-24.324
			c61.809,4.997,100.251,12.002,122.471,17.914c-42.504,11.094-135.116,23.55-275.609,23.55
			c-140.492,0-233.046-12.449-275.568-23.538c20.896-5.551,56.133-12.091,111.732-17.017L514.752,355.984z M439.802,213.525
			l-21.134-51.049c35.777,13.701,90.15,21.013,158.034-11.202c1.362-0.493,2.673-1.11,3.918-1.843
			c84.827-40.645,140.875-23.561,163.584-12.459l-37.285,195.893h-88.505c-30.121,0.028-59.828-6.987-86.76-20.473
			c-1.073-0.664-2.203-1.238-3.374-1.715c-39.943-21.036-71.244-55.412-88.446-97.148L439.802,213.525z M835.466,95.924
			c39.644,25.644,76.956,38.496,110.526,38.318l-47.654,93.279c-17.771,34.927-45.753,63.613-80.234,82.236
			c-1.439,0.578-2.817,1.3-4.108,2.156c-18.609,9.458-38.629,15.828-59.277,18.857l38.251-200.936
			c1.614-8.479-1.597-17.156-8.343-22.541c-2.46-1.963-45.06-34.854-119.655-29.345c56.383-22.033,119.949-15.33,170.493,17.98
			V95.924z M381.196,427.972v-12.848c22.036,6.374,44.532,11.052,67.282,13.992c61.654,9.014,143.382,13.965,230.135,13.965
			c86.75,0,168.474-4.966,230.125-13.965c22.755-2.94,45.249-7.618,67.289-13.992v12.802c-1.011,1.798-9.562,14.351-55.765,28.239
			c-0.233,0.07-0.465,0.124-0.691,0.198c-59.136,17.664-146.896,27.793-240.959,27.793c-78.909,0-154.116-7.177-211.778-20.21
			C403.501,449.625,383.55,433.08,381.196,427.972z M918.859,1474.89c0.729-1.9,1.595-3.746,2.594-5.518
			c16.286-35.391,24.325-73.958,24.325-112.888v-152.076c-94.015-42.301-183.672-93.992-267.383-154.161
			c-83.709,60.169-173.364,111.86-267.377,154.161v152.076c0,95.254,45.189,171.72,117.584,230.684
			c41.182,33.542,93.913,63.125,144.62,81.196c47.594-16.6,92.844-39.573,134.036-68.673
			C853.46,1567.055,893.771,1526.06,918.859,1474.89z M808.614,542.433c-43.178,4.539-86.603,6.708-130.018,6.644
			c-44.391-0.066-89.245-2.349-133.383-7.059c-37.431-3.993-75.873-9.812-112.382-19.532
			C271.06,590.691,149.725,732.962,103.399,902.153c-47.079,171.95-10.212,351.043,99.388,491.493
			c16.187,20.745,17.838,49.687,4.078,72.12c-13.945,22.734-21.498,48.813-21.833,75.455c38.559-0.412,75.442-15.977,102.662-43.365
			l0.386-0.388c15.682-15.776,34.287-28.257,54.667-36.889c-10.049-33.743-15.043-68.836-15.043-104.094V1177.21
			c0-16.65,9.921-31.699,25.216-38.274l2.03-0.873c105.935-45.542,206.201-103.64,298.456-172.812
			c14.806-11.103,35.171-11.101,49.978-0.001c92.261,69.172,192.564,127.276,298.503,172.821l2.013,0.866
			c15.294,6.576,25.216,21.624,25.216,38.274v179.291c0,36.433-5.507,72.669-16.54,107.33c16.653,8.127,31.899,18.963,45.041,32.138
			l1.896,1.901c27.259,27.328,64.087,42.954,102.652,43.374c-0.321-24.204-6.581-47.992-18.227-69.24
			c-12.836-23.418-10.28-52.325,6.444-73.142l0.127-0.153c111.655-140.542,150.215-320.791,103.574-494.283
			c-39.833-148.165-136.957-276.01-268.985-351.865c30.757,60.757,53.601,125.34,68.469,191.885
			c4.989,22.334-9.058,44.707-31.396,49.785c-3.04,0.691-6.154,1.04-9.274,1.038c-19.447-0.018-36.354-13.494-40.593-32.491
			c-15.847-71.012-41.652-139.651-77.752-202.836c-21.51,34.533-36.847,72.651-45.21,112.536c-0.028,0.136-0.056,0.271-0.085,0.407
			c-4.857,22.444-27.072,36.758-49.517,31.904c-22.387-4.841-36.65-27.048-31.926-49.428
			C776.128,615.967,789.856,577.937,808.614,542.433z"/>
		<path class="st1" d="M635.088,1373.759l125.251-125.24c16.167-15.725,41.931-15.719,58.094,0.007
			c16.483,16.037,16.844,42.417,0.807,58.899l-154.697,154.698c-16.262,16.262-42.643,16.262-58.904,0l-68.087-68.087
			c-15.735-16.169-15.73-41.94,0.007-58.106c16.041-16.479,42.422-16.833,58.9-0.79L635.088,1373.759z"/>
	</g>
</g>
</svg>
