<?xml version="1.0" encoding="UTF-8"?>
<!DOCTYPE svg PUBLIC "-//W3C//DTD SVG 1.0//EN" "http://www.w3.org/TR/2001/REC-SVG-20010904/DTD/svg10.dtd">
<!-- Creator: CorelDRAW X7 -->
<svg xmlns="http://www.w3.org/2000/svg" xml:space="preserve" width="43px" height="47px" version="1.0" style="shape-rendering:geometricPrecision; text-rendering:geometricPrecision; image-rendering:optimizeQuality; fill-rule:evenodd; clip-rule:evenodd"
viewBox="0 0 455947 505692"
 xmlns:xlink="http://www.w3.org/1999/xlink">
 <defs>
  <style type="text/css">
   <![CDATA[
    .fil0 {fill:black}
   ]]>
  </style>
 </defs>
 <g id="Слой_x0020_1">
  <metadata id="CorelCorpID_0Corel-Layer"/>
  <g id="_1392033616">
   <path class="fil0" d="M227973 229425c-4405,0 -8406,1792 -11271,4658 -2866,2865 -4658,6866 -4658,11271 0,4406 1792,8407 4658,11272 2865,2865 6866,4658 11271,4658 4406,0 8407,-1793 11272,-4658 2865,-2865 4658,-6866 4658,-11272 0,-4405 -1793,-8406 -4658,-11271 -2865,-2866 -6866,-4658 -11272,-4658zm-23843 -7914c6096,-6097 14553,-9884 23843,-9884 9290,0 17747,3787 23844,9884 6097,6096 9883,14553 9883,23843 0,9290 -3786,17747 -9883,23844 -6097,6097 -14554,9883 -23844,9883 -9290,0 -17747,-3786 -23843,-9883 -6097,-6097 -9884,-14554 -9884,-23844 0,-9290 3787,-17747 9884,-23843z"/>
   <path class="fil0" d="M256475 184729l0 -55387c0,-7839 -3219,-14983 -8369,-20133 -5150,-5150 -12294,-8369 -20133,-8369 -7838,0 -14982,3219 -20132,8369 -5176,5137 -8382,12282 -8382,20133l0 55387 -17797 0 0 -55387c0,-12711 5225,-24298 13619,-32692 8369,-8394 19969,-13607 32692,-13607 12724,0 24324,5213 32705,13594 8381,8381 13594,19981 13594,32705l0 55387 -17797 0z"/>
   <path class="fil0" d="M137142 175830l190574 0 0 162249 -199472 0 0 -162249 8898 0zm172776 17798l-163877 0 0 126653 163877 0 0 -126653z"/>
   <path class="fil0" d="M223694 438149c4885,88 8773,4153 8685,9038 -89,4885 -4153,8772 -9038,8684 -61938,-1224 -117830,-27176 -158184,-68363 -40291,-41124 -65157,-97458 -65157,-159535 0,-62922 25535,-119925 66773,-161175 41250,-41275 98265,-66798 161200,-66798 62936,0 119951,25523 161201,66773 41250,41250 66773,98265 66773,161200 0,30433 -6021,59565 -16914,86211 -11297,27656 -27896,52611 -48445,73526 -3434,3484 -9063,3534 -12547,101 -3484,-3433 -3534,-9063 -101,-12547 18984,-19325 34295,-42310 44683,-67744 9997,-24463 15526,-51336 15526,-79547 0,-58050 -23528,-110610 -61547,-148629 -38019,-38018 -90578,-61546 -148629,-61546 -58050,0 -110610,23528 -148629,61546 -38006,38007 -61546,90579 -61546,148629 0,57281 22897,109222 60007,147089 37236,38006 88786,61951 145889,63087z"/>
   <path class="fil0" d="M219075 270183c0,-4910 3988,-8899 8898,-8899 4910,0 8899,3989 8899,8899l0 25068c0,4910 -3989,8899 -8899,8899 -4910,0 -8898,-3989 -8898,-8899l0 -25068z"/>
   <path class="fil0" d="M171942 403589c-3471,-3471 -3471,-9101 0,-12572 3472,-3471 9101,-3471 12572,0l49745 49745c3471,3471 3471,9101 0,12572l-49745 49745c-3471,3471 -9100,3471 -12572,0 -3471,-3471 -3471,-9101 0,-12572l43459 -43459 -43459 -43459z"/>
  </g>
 </g>
</svg>
