<?xml version="1.0" encoding="utf-8"?>
<!-- Generator: Adobe Illustrator 21.1.0, SVG Export Plug-In . SVG Version: 6.00 Build 0)  -->
<svg version="1.1" id="Capa_1" xmlns="http://www.w3.org/2000/svg" xmlns:xlink="http://www.w3.org/1999/xlink" x="0px" y="0px"
	 viewBox="0 0 54 60" style="enable-background:new 0 0 54 60;" xml:space="preserve">
<g>
	<path d="M33,16c0-3.309-2.691-6-6-6s-6,2.691-6,6v5h-5v19h22V21h-5V16z M23,16c0-2.206,1.794-4,4-4s4,1.794,4,4v5h-8V16z M36,23v15
		H18V23h3h12H36z"/>
	<path d="M26,32.858V35c0,0.553,0.448,1,1,1s1-0.447,1-1v-2.142c1.72-0.447,3-1.999,3-3.858c0-2.206-1.794-4-4-4s-4,1.794-4,4
		C23,30.859,24.28,32.411,26,32.858z M27,27c1.103,0,2,0.897,2,2s-0.897,2-2,2s-2-0.897-2-2S25.897,27,27,27z"/>
	<path d="M27,0C12.112,0,0,12.112,0,27c0,14.109,10.881,25.719,24.691,26.895l-4.398,4.398c-0.391,0.391-0.391,1.023,0,1.414
		C20.488,59.902,20.744,60,21,60s0.512-0.098,0.707-0.293l5.999-5.999c0.093-0.092,0.166-0.203,0.217-0.326
		c0.101-0.244,0.101-0.52,0-0.764c-0.051-0.123-0.124-0.233-0.217-0.326l-5.999-5.999c-0.391-0.391-1.023-0.391-1.414,0
		s-0.391,1.023,0,1.414l4.164,4.164C11.862,50.593,2,39.927,2,27C2,13.215,13.215,2,27,2s25,11.215,25,25
		c0,6.633-2.57,12.881-7.238,17.593c-0.389,0.393-0.386,1.026,0.007,1.415c0.392,0.387,1.025,0.385,1.414-0.007
		C51.224,40.911,54,34.163,54,27C54,12.112,41.888,0,27,0z"/>
</g>
</svg>
