<?xml version="1.0" encoding="UTF-8"?>
<!DOCTYPE svg PUBLIC "-//W3C//DTD SVG 1.0//EN" "http://www.w3.org/TR/2001/REC-SVG-20010904/DTD/svg10.dtd">
<!-- Creator: CorelDRAW X7 -->
<svg xmlns="http://www.w3.org/2000/svg" xml:space="preserve" width="45px" height="38px" version="1.0" style="shape-rendering:geometricPrecision; text-rendering:geometricPrecision; image-rendering:optimizeQuality; fill-rule:evenodd; clip-rule:evenodd"
viewBox="0 0 435964 368224"
 xmlns:xlink="http://www.w3.org/1999/xlink">
 <defs>
  <style type="text/css">
   <![CDATA[
    .fil0 {fill:black}
   ]]>
  </style>
 </defs>
 <g id="Слой_x0020_1">
  <metadata id="CorelCorpID_0Corel-Layer"/>
  <g id="_1340908272">
   <path class="fil0" d="M44603 368224c25163,0 44592,-17107 44592,-42155 0,-25048 -19429,-42154 -44592,-42154 -25173,0 -44603,17106 -44603,42154 0,25048 19430,42155 44603,42155zm0 -21752c-11854,0 -19555,-9040 -19555,-20403 0,-11362 7701,-20402 19555,-20402 11844,0 19544,9040 19544,20402 0,11363 -7700,20403 -19544,20403zm131957 20287l0 -81506 -24682 0 0 28836 -29201 0 0 -28836 -24682 0 0 81506 24682 0 0 -31158 29201 0 0 31158 24682 0zm36902 0l30060 -46194 0 46194 24682 0 0 -81506 -25414 0 -28355 43505 0 -43505 -24682 0 0 81506 23709 0 0 0zm145528 0l-32143 -43630 30793 -37876 -30175 0 -21386 30552 0 -30552 -24682 0 0 81506 24682 0 0 -22610 4520 -6111 18331 28721 30060 0 0 0zm39946 1465c21386,0 32268,-12953 37028,-23835l-21260 -9772c-2071,6362 -8433,11855 -15768,11855 -11843,0 -19784,-9040 -19784,-20403 0,-11362 7941,-20402 19784,-20402 7335,0 13685,5493 15768,11843l21260 -9898c-4886,-11236 -15642,-23697 -37028,-23697 -25528,0 -44832,16981 -44832,42154 0,25048 19304,42155 44832,42155z"/>
   <path class="fil0" d="M246429 240730c-58621,15711 -118878,-19075 -134589,-77695 -15710,-58621 19075,-118878 77707,-134589l106142 -28446 0 0c7266,27119 -9085,54822 -36204,62088l-56847 15230c-31628,8479 -50394,40987 -41926,72615 8479,31627 40987,50405 72615,41926 31627,-8479 50405,-40988 41926,-72615 -4875,-18183 -17679,-32108 -33699,-39054l21260 -5698c12496,-3353 23126,-10264 31113,-19350 14086,13445 24785,30815 30197,51011 15711,58621 -19075,118866 -77695,134577l0 0z"/>
  </g>
 </g>
</svg>
