<?xml version="1.0" encoding="utf-8"?>
<!-- Generator: Adobe Illustrator 21.1.0, SVG Export Plug-In . SVG Version: 6.00 Build 0)  -->
<svg version="1.1" id="Слой_1" xmlns="http://www.w3.org/2000/svg" xmlns:xlink="http://www.w3.org/1999/xlink" x="0px" y="0px"
	 viewBox="0 0 23 23" style="enable-background:new 0 0 23 23;" xml:space="preserve">
<g id="Слой_x0020_1">
	<path d="M22.111,8.024h-7.148l0.039-7.109H7.998l0.026,6.168v0.941L0.915,7.998v7.005l6.168-0.039h0.941l-0.026,7.109h7.005
		l-0.039-6.155v-0.954l7.109,0.039L22.111,8.024z M22.111,7.083h-6.194V0.889C15.917,0.392,15.525,0,15.028,0h-7.07
		C7.462,0,7.083,0.392,7.083,0.889v6.194H0.889C0.392,7.083,0,7.462,0,7.959v7.07c0,0.497,0.392,0.889,0.889,0.889h6.194v6.194
		C7.083,22.595,7.462,23,7.959,23h7.07c0.497,0,0.889-0.405,0.889-0.889v-6.194h6.194c0.484,0,0.889-0.392,0.889-0.889v-7.07
		C22.948,7.462,22.556,7.083,22.111,7.083z"/>
</g>
</svg>
