<?xml version="1.0" encoding="utf-8"?>
<!-- Generator: Adobe Illustrator 21.1.0, SVG Export Plug-In . SVG Version: 6.00 Build 0)  -->
<svg version="1.1" id="Слой_1" xmlns="http://www.w3.org/2000/svg" xmlns:xlink="http://www.w3.org/1999/xlink" x="0px" y="0px"
	 viewBox="0 0 2139.216 2133" style="enable-background:new 0 0 2139.216 2133;" xml:space="preserve">
<g id="Слой_x0020_1">
	<path d="M2055.928,2133h83.288v-83.288V83.288V0h-83.288H83.288H0v83.288v1966.424V2133h83.288h75.281h83.288v-83.288v-965.528
		h115.908h83.288H975.25h83.288h568.417h83.288h187.117v965.528v41.644V2133H2055.928z M476.657,2049.712v-273.005h568.417v273.005
		H476.657z M393.369,1776.707v273.005V2133h83.288h568.417h83.288h534.197h83.288v-83.288v-444.853v-83.288h-83.288h-129.64h-83.288
		h-108.34h-83.288h-129.641h-83.288v83.288v88.561H476.657h-83.288V1776.707z M1128.361,2049.712v-444.853h129.641v158.375v83.288
		h83.288h108.34h83.288v-83.288v-158.375h129.64v444.853H1128.361z M1449.63,1604.859h-108.34v158.375h108.34V1604.859z
		 M583.284,1929.81v-83.288h218.717v83.288H583.284z M850.431,1929.81v-83.288h131.23v83.288H850.431z M1897.359,166.576H241.857
		h-83.288v1883.136H83.288V83.288h1972.641v1966.424h-75.281v-965.528v-83.288V166.576H1897.359z M241.857,249.864h1655.502v751.033
		h-187.117V727.891v-83.288h-83.288h-568.417v-88.561v-83.288H975.25H845.609h-83.288h-108.34h-83.288h-129.64h-83.288v83.288
		v444.854H241.857V249.864z M1253.181,880.994v-83.288h-131.23v83.288H1253.181z M1520.327,880.994v-83.288H1301.61v83.288H1520.327
		z M1058.538,727.891h568.417v273.005h-568.417V727.891z M845.609,797.706h-83.288h-108.34h-83.288v-83.288V556.043h-129.64v444.854
		H975.25V556.043H845.609v158.375V797.706z M653.981,556.043v158.375h108.34V556.043H653.981z"/>
</g>
</svg>
