<?xml version="1.0" encoding="UTF-8"?>
<!DOCTYPE svg PUBLIC "-//W3C//DTD SVG 1.0//EN" "http://www.w3.org/TR/2001/REC-SVG-20010904/DTD/svg10.dtd">
<!-- Creator: CorelDRAW X7 -->
<svg xmlns="http://www.w3.org/2000/svg" xml:space="preserve" width="37px" height="44px" version="1.0" style="shape-rendering:geometricPrecision; text-rendering:geometricPrecision; image-rendering:optimizeQuality; fill-rule:evenodd; clip-rule:evenodd"
viewBox="0 0 327400 392146"
 xmlns:xlink="http://www.w3.org/1999/xlink">
 <defs>
  <style type="text/css">
   <![CDATA[
    .fil0 {fill:black}
   ]]>
  </style>
 </defs>
 <g id="Слой_x0020_1">
  <metadata id="CorelCorpID_0Corel-Layer"/>
  <g id="_1230911648">
   <polygon class="fil0" points="0,392146 0,0 327400,0 327400,392146 312529,392146 312529,14871 14871,14871 14871,392146 "/>
   <polygon class="fil0" points="7435,168873 319965,168873 319965,183744 7435,183744 "/>
   <path class="fil0" d="M50698 69587l109063 0 0 114157 -116499 0 0 -114157 7436 0zm94192 14871l-86757 0 0 84415 86757 0 0 -84415z"/>
   <path class="fil0" d="M80756 69587l48957 0 0 45224 -56393 0 0 -45224 7436 0zm34087 14871l-26652 0 0 15482 26652 0 0 -15482z"/>
   <path class="fil0" d="M269256 114811l-109495 0 0 54062 109495 0 0 -54062zm-116931 -14871l131802 0 0 83804 -139237 0 0 -83804 7435 0z"/>
   <polygon class="fil0" points="174653,129629 194860,129629 194860,144500 174653,144500 "/>
   <polygon class="fil0" points="210944,129629 252466,129629 252466,144500 210944,144500 "/>
   <path class="fil0" d="M269256 292860l-86746 0 0 84415 86746 0 0 -84415zm-94181 -14871l109052 0 0 114157 -116488 0 0 -114157 7436 0z"/>
   <path class="fil0" d="M239209 292860l-26652 0 0 15482 26652 0 0 -15482zm-34087 -14871l48958 0 0 45224 -56393 0 0 -45224 7435 0z"/>
   <path class="fil0" d="M50698 308332l131812 0 0 83814 -139248 0 0 -83814 7436 0zm116941 14870l-109506 0 0 54073 109506 0 0 -54073z"/>
   <polygon class="fil0" points="152747,352902 132540,352902 132540,338031 152747,338031 "/>
   <polygon class="fil0" points="116456,352902 74934,352902 74934,338031 116456,338031 "/>
  </g>
 </g>
</svg>
