<?xml version="1.0" encoding="utf-8"?>
<!-- Generator: Adobe Illustrator 21.1.0, SVG Export Plug-In . SVG Version: 6.00 Build 0)  -->
<svg version="1.1" id="Слой_1" xmlns="http://www.w3.org/2000/svg" xmlns:xlink="http://www.w3.org/1999/xlink" x="0px" y="0px"
	 viewBox="0 0 1754 1754" style="enable-background:new 0 0 1754 1754;" xml:space="preserve">
<style type="text/css">
	.st0{fill:#207BBB;}
	.st1{fill:#FFCF00;}
</style>
<g id="Слой_x0020_1">
	<g id="_1421061584">
		<path class="st0" d="M326.682,1578.661H0.001v-83.327l334.111,0.002c4.994,0.088,9.943,1.078,14.345,2.822l464.009,172.512
			h125.472l474.971-414.997l-41.848-43.524l-416.12,305.652c-12.112,8.896-28.144,10.472-41.787,4.198l-324.274-149.128
			c-18.192-8.745-27.475-29.283-22.087-48.726c5.38-19.413,24.096-32.326,44.158-30.393l155.622,16.518l95.796-11.91v-49.041H751.73
			l-237.294-24.28l-163.388,71.499c-5.237,2.234-10.881,3.336-16.571,3.336l-334.477-0.001v-83.327h325.788l165.278-70.832
			c6.558-2.889,13.758-4.058,20.889-3.329l245.427,25.066h145.479c23.004,0,41.664,18.66,41.664,41.664v126.243
			c0,21.131-15.638,39.034-36.664,41.574l-90.454,10.051l106.253,49.978l425.655-313.55c16.595-12.225,39.837-10.148,54.241,4.511
			l99.066,100.82c16.075,16.359,16.162,42.602-0.111,58.852c-0.657,0.655-1.337,1.29-2.036,1.9L980.894,1743.62
			c-7.613,6.654-17.356,10.38-27.475,10.38H804.967c-4.969,0-9.911-0.8-14.574-2.537L326.682,1578.661z"/>
		<g>
			<circle class="st1" cx="666.669" cy="538.778" r="221.19"/>
			<path class="st0" d="M1529.802,731.191l201.477,0.001v83.327H1511.94c-11.357,0-22.199-4.701-30.037-12.907L1329.66,642.216
				l-296.955-26.996H884.231c-22.99,0-41.669-18.588-41.714-41.587c-0.001-0.882,0.02-1.764,0.078-2.645l9.352-142.316
				c1.245-18.95,15.073-34.712,33.582-38.256l142.041-29.166c5.792-1.438,11.852-1.429,17.641,0.026l158.548,35.169l160.39-17.162
				l9.961,83.009l-167.25,19.843c-4.57,0.746-9.241,0.726-13.805-0.059l-0.304-0.052l-157.275-35.142l-102.351,20.68l-4.328,64.915
				l107.675-0.001l316.179,29.276c10.143,0.939,19.614,5.496,26.524,12.824L1529.802,731.191z"/>
			<path class="st0" d="M1437.479,197.548L968.177,87.258L652.094,317.109l-49.132-67.453L934.331,8.662
				c9.622-7.416,22.087-10.273,33.983-7.779l0.298,0.066l496.462,116.819c6.012,1.244,11.641,3.911,16.221,7.623l272.704,212.102
				l-50.683,66.884L1437.479,197.548z"/>
			<path class="st0" d="M1003.92,180.148l157.423,62.97l-30.855,77.557l-140.252-57.264l-169.678,84.536l-37.52-74.205
				l186.744-93.373l0.233-0.105C980.791,175.419,993.118,175.381,1003.92,180.148z"/>
			<path class="st0" d="M887.87,555.76l83.097,11.22l-1.639,12.31c-20.187,151.603-149.64,264.581-302.526,264.452
				c-168.226-0.142-304.658-136.387-304.656-304.673c0.001-168.261,136.414-304.668,304.674-304.666
				c118.841,0.001,226.84,69.106,276.633,177.013l5.201,11.272l-75.481,35.03l-5.214-11.349
				c-24.601-53.54-69.024-94.703-124.272-115.16c-55.072-20.392-115.897-18.081-169.266,6.44
				c-53.542,24.6-94.704,69.024-115.161,124.272c-20.392,55.072-18.08,115.897,6.441,169.266
				c24.6,53.541,69.024,94.703,124.271,115.16c55.072,20.392,115.898,18.081,169.267-6.44
				c68.989-31.697,116.921-96.545,126.981-171.799L887.87,555.76z"/>
			<path class="st0" d="M657.503,473.645v39.747h29.795c10.975,0,19.874-8.898,19.874-19.874c0-10.975-8.898-19.874-19.874-19.874
				H657.503z M579.656,614.876v-36.317h33.175c0-50.474,0-100.949,0-151.422h74.468c36.662,0,66.382,29.72,66.382,66.382
				s-29.72,66.382-66.382,66.382h-29.795v18.659h79.039v36.317h-79.039v35.542H612.83v-35.542H579.656z"/>
		</g>
	</g>
</g>
</svg>
