<?xml version="1.0" encoding="utf-8"?>
<!-- Generator: Adobe Illustrator 21.1.0, SVG Export Plug-In . SVG Version: 6.00 Build 0)  -->
<svg version="1.1" id="Слой_1" xmlns="http://www.w3.org/2000/svg" xmlns:xlink="http://www.w3.org/1999/xlink" x="0px" y="0px"
	 viewBox="0 0 862 762.844" style="enable-background:new 0 0 862 762.844;" xml:space="preserve">
<g id="Слой_x0020_1">
	<g id="_921231472">
		<path d="M839.23,253.156h5.9c5.749,0,11.109-2.934,14.208-7.779c3.105-4.852,3.521-10.944,1.107-16.171L759.236,9.803
			C756.48,3.83,750.5,0,743.92,0H118.084c-6.579,0-12.559,3.83-15.314,9.803L1.553,229.206c-2.413,5.228-1.991,11.319,1.107,16.171
			c3.099,4.845,8.458,7.779,14.208,7.779h5.907h33.721v509.687h33.741c0-97.895,0-195.792,0-293.687l204.53-216h272.472l204.53,216
			c0,97.895-0.001,195.792-0.001,293.687h33.741V253.156H839.23z M147.203,253.156l-56.967,60.447v-60.447H147.203z M289.261,33.755
			h12.869l42.819,92.823l-42.819,92.824h-12.157L243.528,118.72L289.261,33.755z M225.847,80.384l-21.512-46.63l46.603,0.001
			L225.847,80.384z M437.081,33.755l42.819,92.823l-42.819,92.824h-12.156l-42.82-92.824l42.82-92.824L437.081,33.755z
			 M572.743,33.755l45.733,84.965l-46.445,100.683h-12.156l-42.82-92.824l42.82-92.824L572.743,33.755z M611.066,33.755h46.604
			l-21.512,46.629L611.066,33.755z M609.187,219.403l29.298-63.508l34.175,63.508H609.187z M522.718,219.403h-48.483l24.241-52.55
			L522.718,219.403z M498.477,86.304l-24.24-52.549h48.481L498.477,86.304z M246.7,254.844L90.237,420.074v-57.269l101.744-107.962
			H246.7z M387.768,219.403h-48.483l24.241-52.55L387.768,219.403z M363.527,86.304l-24.241-52.549h48.483L363.527,86.304z
			 M252.818,219.403h-63.474l34.176-63.508L252.818,219.403z M615.306,254.844h54.719l101.744,107.968v57.27L615.306,254.844z
			 M714.801,253.156h56.967v60.447L714.801,253.156z M818.766,219.396l-107.788,0.007l-54.812-101.843l38.659-83.804h38.303
			L818.766,219.396z M128.876,33.755h38.303l38.659,83.804l-54.811,101.843l-107.789-0.007L128.876,33.755z"/>
		<g>
			<path d="M616.556,594.074c-9.295,0-16.87,7.575-16.87,16.878c0,9.301,7.575,16.876,16.87,16.876
				c9.295,0,16.87-7.575,16.87-16.876C633.426,601.649,625.851,594.074,616.556,594.074z"/>
			<path d="M650.291,762.844h-33.735v-67.509h-33.735v67.509h-33.74v-67.509H431H312.919v67.509h-33.74v-67.509h-33.735v67.509
				H211.71v-67.509h-37.116c-9.315,0-16.863-7.555-16.863-16.876v-50.631v-33.755v-50.631c0-9.321,7.549-16.876,16.863-16.876H431
				h256.407c9.314,0,16.863,7.555,16.863,16.876v135.018c0,9.321-7.548,16.876-16.863,16.876h-37.116V762.844z M312.919,594.072
				H191.464v-33.754H431h239.535v101.263h-37.043c-0.026,0-0.046-0.006-0.066-0.006h-67.476c-0.026,0-0.046,0.006-0.066,0.006H431
				H296.116c-0.02,0-0.04-0.006-0.066-0.006h-67.476c-0.02,0-0.04,0.006-0.066,0.006h-37.044v-33.754h121.455h65.117H431h118.081
				c9.295,0,16.87-7.575,16.87-16.878c0-9.302-7.575-16.877-16.87-16.877L431,594.074h-52.964v-0.001H312.919z"/>
		</g>
	</g>
</g>
</svg>
