<?xml version="1.0" encoding="UTF-8"?>
<!DOCTYPE svg PUBLIC "-//W3C//DTD SVG 1.0//EN" "http://www.w3.org/TR/2001/REC-SVG-20010904/DTD/svg10.dtd">
<!-- Creator: CorelDRAW X7 -->
<svg xmlns="http://www.w3.org/2000/svg" xml:space="preserve" width="18px" height="26px" version="1.0" style="shape-rendering:geometricPrecision; text-rendering:geometricPrecision; image-rendering:optimizeQuality; fill-rule:evenodd; clip-rule:evenodd"
viewBox="0 0 15624 22806"
 xmlns:xlink="http://www.w3.org/1999/xlink">
 <defs>
  <style type="text/css">
   <![CDATA[
    .fil0 {fill:black}
   ]]>
  </style>
 </defs>
 <g id="Слой_x0020_1">
  <metadata id="CorelCorpID_0Corel-Layer"/>
  <g id="_1452153104">
   <path class="fil0" d="M14341 11673l0 8842c0,629 -258,1203 -673,1618 -415,413 -987,673 -1618,673l-8475 0c-630,0 -1203,-258 -1618,-673 -414,-416 -673,-989 -673,-1618l0 -8842 778 0 0 8842c0,416 170,796 444,1068 274,274 654,445 1069,445l8475 0c416,0 796,-171 1070,-445 273,-273 444,-654 444,-1068l0 -8842 777 0z"/>
   <path class="fil0" d="M1697 9448l12231 0c359,0 686,147 921,384 238,236 385,563 385,922 0,359 -146,688 -384,923 -235,236 -563,385 -922,385l-12231 0c-359,0 -686,-149 -922,-384 -236,-236 -383,-565 -383,-923 0,-358 147,-688 384,-923 235,-236 562,-384 921,-384zm12231 778l-12231 0c-144,0 -278,61 -372,155 -97,95 -156,228 -156,373 0,147 59,280 155,375 95,94 229,155 373,155l12231 0c145,0 278,-61 373,-155 96,-95 155,-228 155,-374 0,-146 -59,-279 -154,-374 -96,-96 -229,-155 -374,-155z"/>
   <path class="fil0" d="M5642 9837l0 -8927c0,-134 57,-258 143,-344 88,-88 209,-142 343,-142l3370 0c137,0 257,57 343,143 86,86 143,206 143,343l0 8927 -777 0 0 -8636 -2788 0 0 8636 -777 0z"/>
   <path class="fil0" d="M8219 3048c-215,0 -389,-174 -389,-389 0,-215 174,-389 389,-389l1376 0c215,0 389,174 389,389 0,215 -174,389 -389,389l-1376 0z"/>
   <path class="fil0" d="M8219 4825c-215,0 -389,-175 -389,-389 0,-215 174,-389 389,-389l1376 0c215,0 389,174 389,389 0,214 -174,389 -389,389l-1376 0z"/>
   <path class="fil0" d="M8219 6603c-215,0 -389,-175 -389,-389 0,-215 174,-389 389,-389l1376 0c215,0 389,174 389,389 0,214 -174,389 -389,389l-1376 0z"/>
   <path class="fil0" d="M8219 8379c-215,0 -389,-174 -389,-388 0,-215 174,-389 389,-389l1376 0c215,0 389,174 389,389 0,214 -174,388 -389,388l-1376 0z"/>
   <path class="fil0" d="M3458 4394c-54,-206 71,-419 277,-473 206,-54 420,70 474,276l1465 5502c54,206 -71,420 -277,474 -206,54 -420,-71 -474,-277l-1465 -5502zm-1450 5397c54,207 -70,420 -277,474 -206,54 -420,-70 -474,-277l-1244 -4676c-53,-206 71,-420 277,-474 207,-54 420,71 474,277l1244 4676z"/>
   <path class="fil0" d="M832 4937c389,70 856,32 1306,-87 447,-119 871,-320 1172,-574l-1942 -2308 -536 2969zm1503 663c-722,192 -1502,205 -2087,-25 -169,-67 -274,-244 -241,-430l746 -4126c16,-86 61,-168 132,-228 163,-137 409,-115 546,48l2681 3188c133,139 147,358 23,512 -394,492 -1079,869 -1800,1061z"/>
   <path class="fil0" d="M11106 3570c183,-944 985,-1661 1722,-2319l25 -20c411,-367 798,-715 984,-1037 107,-185 347,-248 531,-141 53,31 97,72 128,120 427,636 796,1493 986,2342 174,775 202,1558 1,2185 -274,851 -911,1274 -1620,1369 -332,42 -672,14 -993,-72 -320,-86 -631,-232 -901,-428l-13 -10c-617,-453 -1012,-1159 -850,-1989zm2238 -1738c-643,573 -1343,1198 -1475,1883 -97,497 154,932 541,1217l15 11c188,137 413,241 646,304 227,61 465,83 686,53 433,-58 821,-316 988,-836 155,-486 126,-1127 -20,-1779 -125,-561 -335,-1123 -591,-1606 -222,244 -488,482 -764,728l-26 25z"/>
   <path class="fil0" d="M12496 5319c-354,735 -681,1489 -984,2253 -309,790 -591,1571 -848,2341l-734 -247c275,-823 562,-1623 861,-2379 312,-781 646,-1552 1006,-2302l699 334zm674 4379c124,-676 236,-1355 324,-2030 88,-666 160,-1343 209,-2025l775 53c-48,681 -122,1374 -215,2072 -90,689 -203,1381 -330,2069l-763 -139z"/>
  </g>
 </g>
</svg>
