<?xml version="1.0" encoding="utf-8"?>
<!-- Generator: Adobe Illustrator 21.1.0, SVG Export Plug-In . SVG Version: 6.00 Build 0)  -->
<svg version="1.1" id="Слой_1" xmlns="http://www.w3.org/2000/svg" xmlns:xlink="http://www.w3.org/1999/xlink" x="0px" y="0px"
	 viewBox="0 0 15 22" style="enable-background:new 0 0 15 22;" xml:space="preserve">
<g id="Слой_x0020_1">
	<g id="_839958304">
		<g>
			<path d="M14.479,0.675c-0.019-0.135-0.116-0.231-0.251-0.289c-0.135-0.039-0.27-0.019-0.386,0.058
				c-0.424,0.308-2.506,1.87-2.853,2.796c-0.193,0.559-0.154,1.176,0.116,1.677c-0.501,0.733-1.022,1.754-1.504,2.738V0.791
				c0-0.231-0.174-0.424-0.405-0.424H5.88c-0.231,0-0.424,0.193-0.424,0.424v8.136H5.379L4.666,6.17c0,0,0,0,0-0.019L4.03,3.76l0,0
				c0-0.019-0.019-0.039-0.019-0.058l0,0c0-0.019-0.019-0.019-0.019-0.039l0,0c0-0.019-0.019-0.019-0.019-0.039l0,0
				C3.952,3.606,3.952,3.606,3.952,3.606c0-0.019,0-0.019-0.019-0.019L1.485,0.695C1.369,0.56,1.215,0.521,1.06,0.56
				S0.79,0.714,0.752,0.868L0,4.647l0,0c0,0.019,0,0.019,0,0.039l0,0c0,0.019,0,0.039,0,0.039v0.019v0.019c0,0.019,0,0.019,0,0.019
				c0,0.019,0.019,0.039,0.019,0.039l0.636,2.41l0.443,1.716c-0.27,0.039-0.501,0.154-0.675,0.347
				c-0.231,0.231-0.366,0.54-0.366,0.868c0,0.559,0.347,1.022,0.829,1.176v8.213c0,1.157,0.925,2.082,2.082,2.082h8.31
				c1.138,0,2.063-0.925,2.063-2.082v-8.213c0.174-0.058,0.347-0.154,0.482-0.289c0.231-0.231,0.347-0.54,0.347-0.887
				c0-0.598-0.424-1.099-1.003-1.215c0.27-1.099,0.463-2.198,0.54-3.046c0.54-0.212,0.983-0.656,1.195-1.234
				C15.251,3.741,14.614,1.177,14.479,0.675z M11.665,5.592c0.174,0.135,0.366,0.251,0.578,0.308
				c0.193,0.077,0.405,0.116,0.617,0.135c-0.096,0.829-0.289,1.851-0.54,2.892H9.949C10.585,7.481,11.163,6.344,11.665,5.592z
				 M6.285,1.196h2.487V2.16H7.943c-0.231,0-0.405,0.174-0.405,0.405c0,0.231,0.174,0.424,0.405,0.424h0.829v0.829H7.943
				c-0.231,0-0.405,0.174-0.405,0.405c0,0.231,0.174,0.424,0.405,0.424h0.829v0.829H7.943c-0.231,0-0.405,0.193-0.405,0.424
				c0,0.212,0.174,0.405,0.405,0.405h0.829v0.829H7.943c-0.231,0-0.405,0.193-0.405,0.424c0,0.231,0.174,0.405,0.405,0.405h0.829
				v0.964H6.285V1.196z M1.407,1.89l1.697,2.005C2.853,4.204,2.506,4.454,2.082,4.551c-0.405,0.116-0.81,0.077-1.195-0.058
				L1.407,1.89z M1.022,5.399c0.193,0.039,0.366,0.058,0.559,0.058c0.251,0,0.482-0.039,0.733-0.096
				c0.424-0.116,0.81-0.328,1.118-0.617l0.443,1.639l0.656,2.545H1.947L1.465,7.019l0,0L1.022,5.399z M12.513,19.551
				c0,0.694-0.559,1.253-1.234,1.253h-8.31c-0.694,0-1.253-0.559-1.253-1.253v-8.136h10.797V19.551z M13.342,10.161
				c0,0.116-0.039,0.231-0.116,0.308c-0.077,0.077-0.174,0.116-0.289,0.116H1.311c-0.231,0-0.424-0.193-0.424-0.424
				c0-0.096,0.039-0.212,0.116-0.289C1.08,9.795,1.195,9.756,1.311,9.756h3.74l0,0h0.019h4.242l0,0l0,0h3.316l0,0
				c0.019,0,0.019,0,0.019,0h0.289C13.168,9.756,13.342,9.949,13.342,10.161z M14.113,4.377c-0.135,0.405-0.482,0.713-0.906,0.79
				c-0.212,0.058-0.463,0.039-0.694-0.039s-0.424-0.231-0.559-0.424l0,0c-0.251-0.347-0.328-0.771-0.174-1.176
				c0.154-0.424,1.157-1.33,2.044-2.024C14.075,2.603,14.267,3.953,14.113,4.377z"/>
		</g>
	</g>
</g>
</svg>
