<?xml version="1.0" encoding="utf-8"?>
<!-- Generator: Adobe Illustrator 21.1.0, SVG Export Plug-In . SVG Version: 6.00 Build 0)  -->
<svg version="1.1" id="Слой_1" xmlns="http://www.w3.org/2000/svg" xmlns:xlink="http://www.w3.org/1999/xlink" x="0px" y="0px"
	 viewBox="0 0 38 38" style="enable-background:new 0 0 38 38;" xml:space="preserve">
<style type="text/css">
	.st0{fill:#207BBB;}
	.st1{fill:#FFFFFF;}
</style>
<g id="Слой_x0020_1">
	<circle class="st0" cx="19" cy="19" r="19"/>
	<g id="_810076288">
		<g>
			<path class="st1" d="M25.571,9.292c-0.031-0.125-0.125-0.227-0.251-0.267c-0.118-0.047-0.251-0.024-0.361,0.047
				c-0.392,0.29-2.352,1.757-2.674,2.635c-0.188,0.525-0.149,1.098,0.11,1.576c-0.478,0.69-0.972,1.639-1.411,2.564V9.394
				c0-0.22-0.173-0.392-0.392-0.392h-3.121c-0.22,0-0.392,0.173-0.392,0.392v7.653h-0.071l-0.667-2.596c0,0,0,0,0-0.008
				l-0.612-2.258l0,0c0-0.016-0.008-0.031-0.008-0.039c0-0.008-0.008-0.008-0.008-0.016c0-0.008-0.008-0.016-0.008-0.024
				c-0.008,0-0.008-0.008-0.008-0.016c-0.008-0.008-0.008-0.008-0.016-0.024c0,0-0.008,0-0.008-0.008
				c-0.008-0.008-0.008-0.016-0.016-0.024c0,0-0.008,0-0.008-0.008L13.338,9.3c-0.102-0.11-0.251-0.165-0.4-0.125
				c-0.141,0.039-0.259,0.157-0.282,0.306l-0.706,3.537v0.008c0,0.008,0,0.024,0,0.031c0,0.008,0,0.008,0,0.016
				c0,0.008-0.008,0.016,0,0.024c0,0.008,0,0.016,0,0.016c0,0.008,0,0.024,0,0.031v0.008c0,0.016,0.008,0.031,0.008,0.047
				l0.612,2.258l0.4,1.608c-0.235,0.039-0.455,0.157-0.627,0.329c-0.22,0.22-0.345,0.518-0.345,0.823
				c0,0.51,0.329,0.949,0.784,1.106v7.724c0,1.082,0.878,1.953,1.953,1.953h7.81c1.082,0,1.953-0.87,1.953-1.953v-7.724
				c0.165-0.055,0.314-0.149,0.439-0.274c0.22-0.22,0.345-0.518,0.345-0.831c0-0.565-0.408-1.043-0.949-1.145
				c0.251-1.035,0.431-2.07,0.502-2.878c0.518-0.196,0.925-0.612,1.121-1.145C26.277,12.162,25.689,9.763,25.571,9.292z
				 M22.913,13.911c0.165,0.125,0.345,0.227,0.541,0.306c0.188,0.063,0.384,0.102,0.58,0.11c-0.078,0.784-0.259,1.749-0.502,2.721
				h-2.235C21.894,15.699,22.442,14.632,22.913,13.911z M17.855,9.778H20.2v0.902h-0.776c-0.22,0-0.392,0.173-0.392,0.392
				c0,0.212,0.173,0.392,0.392,0.392H20.2v0.776h-0.776c-0.22,0-0.392,0.18-0.392,0.392c0,0.22,0.173,0.392,0.392,0.392H20.2v0.776
				h-0.776c-0.22,0-0.392,0.18-0.392,0.392c0,0.22,0.173,0.392,0.392,0.392H20.2v0.784h-0.776c-0.22,0-0.392,0.173-0.392,0.392
				c0,0.212,0.173,0.384,0.392,0.384H20.2v0.902h-2.345V9.778z M13.26,10.421l1.608,1.89c-0.243,0.306-0.572,0.525-0.957,0.627
				c-0.376,0.102-0.776,0.078-1.129-0.063L13.26,10.421z M12.915,13.723c0.173,0.039,0.345,0.055,0.525,0.055
				c0.22,0,0.447-0.024,0.674-0.086c0.4-0.11,0.761-0.306,1.059-0.572l0.408,1.529l0.619,2.4H13.77l-0.447-1.788l0,0L12.915,13.723z
				 M23.721,27.045c0,0.651-0.525,1.176-1.176,1.176h-7.81c-0.643,0-1.168-0.525-1.168-1.176v-7.653h10.155V27.045z M24.497,18.216
				c0,0.11-0.039,0.204-0.11,0.282c-0.078,0.071-0.173,0.11-0.274,0.11H13.174c-0.22,0-0.392-0.173-0.392-0.392
				c0-0.102,0.039-0.196,0.118-0.274c0.071-0.071,0.165-0.11,0.274-0.11h3.529l0,0l0,0h3.999l0,0l0,0h3.129l0,0l0,0h0.282
				C24.324,17.832,24.497,18.004,24.497,18.216z M25.226,12.782c-0.141,0.376-0.455,0.651-0.855,0.737
				c-0.212,0.047-0.439,0.039-0.651-0.039c-0.22-0.078-0.408-0.22-0.541-0.408l0,0c-0.235-0.314-0.29-0.729-0.157-1.098
				c0.149-0.4,1.098-1.255,1.929-1.905C25.179,11.104,25.367,12.374,25.226,12.782z"/>
		</g>
	</g>
</g>
</svg>
