<?xml version="1.0" encoding="utf-8"?>
<!-- Generator: Adobe Illustrator 21.1.0, SVG Export Plug-In . SVG Version: 6.00 Build 0)  -->
<svg version="1.1" id="Слой_1" xmlns="http://www.w3.org/2000/svg" xmlns:xlink="http://www.w3.org/1999/xlink" x="0px" y="0px"
	 viewBox="0 0 38 38" style="enable-background:new 0 0 38 38;" xml:space="preserve">
<style type="text/css">
	.st0{fill:#207BBB;}
	.st1{fill:#FFFFFF;}
</style>
<g id="Слой_x0020_1">
	<circle class="st0" cx="19" cy="19" r="19"/>
	<g id="_806040544">
		<path class="st1" d="M14.224,21.667L14.224,21.667L14.224,21.667h9.677c0.236,0,0.441-0.157,0.511-0.386l2.132-7.466
			c0.047-0.165,0.016-0.338-0.087-0.472c-0.102-0.134-0.26-0.212-0.425-0.212H12.997l-0.386-1.715
			c-0.055-0.244-0.267-0.417-0.519-0.417H8.89c-0.291,0-0.535,0.244-0.535,0.535c0,0.291,0.244,0.535,0.535,0.535h2.777
			c0.063,0.299,1.825,8.206,1.92,8.662c-0.566,0.252-0.96,0.818-0.96,1.471c0,0.881,0.716,1.597,1.597,1.597h9.677
			c0.291,0,0.527-0.236,0.527-0.527c0-0.299-0.236-0.535-0.527-0.535h-9.677c-0.291,0-0.535-0.244-0.535-0.535
			S13.933,21.667,14.224,21.667L14.224,21.667z M25.325,14.201l-1.833,6.404h-8.835l-1.424-6.404H25.325z"/>
		<path class="st1" d="M13.689,25.404c0,0.881,0.724,1.597,1.605,1.597s1.597-0.716,1.597-1.597c0-0.881-0.716-1.605-1.597-1.605
			S13.689,24.523,13.689,25.404z M15.294,24.869c0.291,0,0.535,0.236,0.535,0.535c0,0.291-0.244,0.527-0.535,0.527
			c-0.299,0-0.535-0.236-0.535-0.527C14.759,25.105,14.995,24.869,15.294,24.869z"/>
		<path class="st1" d="M21.234,25.404c0,0.881,0.716,1.597,1.597,1.597c0.881,0,1.597-0.716,1.597-1.597
			c0-0.881-0.716-1.605-1.597-1.605C21.95,23.799,21.234,24.523,21.234,25.404z M22.831,24.869c0.291,0,0.535,0.236,0.535,0.535
			c0,0.291-0.244,0.527-0.535,0.527c-0.291,0-0.535-0.236-0.535-0.527C22.296,25.105,22.54,24.869,22.831,24.869z"/>
	</g>
</g>
</svg>
