<?xml version="1.0" encoding="utf-8"?>
<!-- Generator: Adobe Illustrator 21.1.0, SVG Export Plug-In . SVG Version: 6.00 Build 0)  -->
<svg version="1.1" id="Слой_1" xmlns="http://www.w3.org/2000/svg" xmlns:xlink="http://www.w3.org/1999/xlink" x="0px" y="0px"
	 viewBox="0 0 20 18" style="enable-background:new 0 0 20 18;" xml:space="preserve">
<g id="Слой_x0020_1">
	<g id="_806320480">
		<path d="M6.447,11.939L6.447,11.939v-0.015h10.615c0.27,0,0.495-0.165,0.57-0.42l2.339-8.201c0.045-0.18,0.015-0.36-0.09-0.51
			c-0.12-0.15-0.285-0.24-0.48-0.24H5.097l-0.42-1.874c-0.06-0.27-0.3-0.465-0.585-0.465H0.585C0.255,0.214,0,0.484,0,0.799
			c0,0.33,0.255,0.585,0.585,0.585h3.043c0.075,0.33,2.009,9.025,2.114,9.52c-0.615,0.27-1.064,0.885-1.064,1.619
			c0,0.96,0.795,1.754,1.769,1.754h10.615c0.33,0,0.585-0.27,0.585-0.585c0-0.33-0.255-0.585-0.585-0.585H6.447
			c-0.33,0-0.585-0.27-0.585-0.585C5.862,12.193,6.117,11.939,6.447,11.939L6.447,11.939z M18.636,3.738l-2.009,7.016H6.912
			L5.352,3.738H18.636z"/>
		<path d="M5.862,16.031c0,0.975,0.78,1.754,1.754,1.754c0.96,0,1.754-0.78,1.754-1.754s-0.795-1.754-1.754-1.754
			C6.642,14.277,5.862,15.057,5.862,16.031z M7.616,15.447c0.315,0,0.585,0.255,0.585,0.585c0,0.33-0.27,0.585-0.585,0.585
			c-0.33,0-0.585-0.255-0.585-0.585C7.031,15.702,7.286,15.447,7.616,15.447z"/>
		<path d="M14.138,16.031c0,0.975,0.78,1.754,1.754,1.754s1.754-0.78,1.754-1.754s-0.78-1.754-1.754-1.754
			S14.138,15.057,14.138,16.031z M15.892,15.447c0.33,0,0.585,0.255,0.585,0.585c0,0.33-0.255,0.585-0.585,0.585
			c-0.315,0-0.585-0.255-0.585-0.585C15.307,15.702,15.577,15.447,15.892,15.447z"/>
	</g>
</g>
</svg>
