<?xml version="1.0" encoding="UTF-8"?>
<!DOCTYPE svg PUBLIC "-//W3C//DTD SVG 1.0//EN" "http://www.w3.org/TR/2001/REC-SVG-20010904/DTD/svg10.dtd">
<!-- Creator: CorelDRAW X7 -->
<svg xmlns="http://www.w3.org/2000/svg" xml:space="preserve" width="22px" height="19px" version="1.0" style="shape-rendering:geometricPrecision; text-rendering:geometricPrecision; image-rendering:optimizeQuality; fill-rule:evenodd; clip-rule:evenodd"
viewBox="0 0 22983 20017"
 xmlns:xlink="http://www.w3.org/1999/xlink">
 <defs>
  <style type="text/css">
   <![CDATA[
    .fil0 {fill:black}
   ]]>
  </style>
 </defs>
 <g id="Слой_x0020_1">
  <metadata id="CorelCorpID_0Corel-Layer"/>
  <g id="_1446614592">
   <path class="fil0" d="M8780 15961c558,0 1068,228 1434,594 366,366 595,874 595,1433 0,559 -229,1068 -595,1434 -366,366 -874,595 -1434,595 -559,0 -1067,-229 -1433,-595 -366,-366 -595,-875 -595,-1434 0,-559 229,-1067 595,-1433 366,-366 874,-594 1433,-594zm779 1250c-198,-198 -476,-323 -779,-323 -303,0 -580,125 -778,323 -198,197 -323,474 -323,777 0,303 125,581 323,779 198,198 475,323 778,323 304,0 581,-125 779,-323 197,-198 322,-476 322,-779 0,-303 -125,-580 -322,-777z"/>
   <path class="fil0" d="M18349 15961c559,0 1068,228 1434,594 366,366 595,874 595,1433 0,559 -229,1068 -595,1434 -366,366 -874,595 -1434,595 -559,0 -1067,-229 -1433,-595 -366,-366 -594,-875 -594,-1434 0,-559 228,-1067 594,-1433 366,-366 874,-594 1433,-594zm779 1250c-198,-198 -476,-323 -779,-323 -303,0 -580,125 -777,323 -198,197 -323,474 -323,777 0,303 125,581 323,779 197,198 474,323 777,323 304,0 581,-125 779,-323 198,-198 323,-476 323,-779 0,-303 -125,-580 -323,-777z"/>
   <path class="fil0" d="M6876 12026l-1883 -8963c-51,-250 108,-496 358,-547l16829 -11c129,0 228,0 341,30 447,118 557,346 382,1006l-2496 8995c-57,204 -244,337 -446,339l-12532 1c-301,0 -578,125 -776,322 -199,200 -324,476 -324,778 0,302 125,580 323,778 199,199 476,324 777,324l12486 0c255,0 463,207 463,463 0,256 -208,464 -463,464l-12486 0c-557,0 -1065,-229 -1433,-596 -365,-366 -594,-875 -594,-1433 0,-551 225,-1056 587,-1422l10 -10c241,-241 540,-422 877,-518zm-861 -8594l1789 8516 11806 0 2363 -8516 -15958 0z"/>
   <path class="fil0" d="M7882 12318c51,250 -109,496 -359,547 -249,50 -495,-109 -546,-359l-2433 -11579 -4080 0c-256,0 -464,-207 -464,-463 0,-256 208,-464 464,-464l4454 0c215,2 408,152 453,370l2511 11948z"/>
  </g>
 </g>
</svg>
