<?xml version="1.0" encoding="UTF-8"?>
<!DOCTYPE svg PUBLIC "-//W3C//DTD SVG 1.0//EN" "http://www.w3.org/TR/2001/REC-SVG-20010904/DTD/svg10.dtd">
<!-- Creator: CorelDRAW X7 -->
<svg xmlns="http://www.w3.org/2000/svg" xml:space="preserve" width="38px" height="38px" version="1.0" style="shape-rendering:geometricPrecision; text-rendering:geometricPrecision; image-rendering:optimizeQuality; fill-rule:evenodd; clip-rule:evenodd"
viewBox="0 0 103507 103507"
 xmlns:xlink="http://www.w3.org/1999/xlink">
 <defs>
  <style type="text/css">
   <![CDATA[
    .fil0 {fill:#207BBB}
    .fil1 {fill:white}
   ]]>
  </style>
 </defs>
 <g id="Слой_x0020_1">
  <metadata id="CorelCorpID_0Corel-Layer"/>
  <g id="_997144144">
   <circle class="fil0" cx="51754" cy="51754" r="51752"/>
   <g>
    <g id="_1446614592">
     <path class="fil1" d="M42652 66404c1194,0 2285,489 3070,1271 781,782 1270,1869 1270,3066 0,1197 -489,2284 -1270,3069 -785,782 -1873,1271 -3070,1271 -1196,0 -2284,-489 -3066,-1271 -781,-785 -1273,-1872 -1273,-3069 0,-1197 492,-2284 1273,-3066 782,-782 1870,-1271 3066,-1271zm1667 2674c-422,-425 -1017,-692 -1667,-692 -646,0 -1241,267 -1663,692 -425,421 -692,1013 -692,1663 0,647 267,1242 692,1666 422,422 1017,689 1663,689 650,0 1245,-267 1667,-689 421,-424 692,-1019 692,-1666 0,-650 -271,-1242 -692,-1663z"/>
     <path class="fil1" d="M63126 66404c1197,0 2284,489 3069,1271 782,782 1271,1869 1271,3066 0,1197 -489,2284 -1271,3069 -785,782 -1872,1271 -3069,1271 -1197,0 -2284,-489 -3066,-1271 -782,-785 -1271,-1872 -1271,-3069 0,-1197 489,-2284 1271,-3066 782,-782 1869,-1271 3066,-1271zm1667 2674c-425,-425 -1017,-692 -1667,-692 -647,0 -1242,267 -1663,692 -422,421 -689,1013 -689,1663 0,647 267,1242 689,1666 424,422 1016,689 1663,689 650,0 1242,-267 1667,-689 424,-424 691,-1019 691,-1666 0,-650 -267,-1242 -691,-1663z"/>
     <path class="fil1" d="M38580 57985l-4028 -19177c-110,-534 228,-1062 765,-1171l36006 -23c277,0 489,0 731,65 955,251 1190,740 817,2152l-5341 19245c-122,434 -524,720 -955,724l-26812 3c-646,0 -1238,267 -1663,688 -424,428 -691,1017 -691,1663 0,647 267,1242 691,1667 425,425 1017,692 1660,692l26715 0c547,0 991,444 991,990 0,551 -444,995 -991,995l-26715 0c-1190,0 -2278,-489 -3066,-1278 -781,-781 -1270,-1869 -1270,-3066 0,-1177 482,-2258 1254,-3040l23 -22c514,-515 1155,-904 1875,-1107l4 0zm-1844 -18386l3828 18219 25261 0 5054 -18219 -34143 0z"/>
     <path class="fil1" d="M40732 58609c109,534 -235,1062 -769,1171 -531,106 -1059,-235 -1168,-769l-5205 -24775 -8731 0c-547,0 -991,-440 -991,-990 0,-547 444,-991 991,-991l9532 0c460,3 872,325 968,791l5373 25563 0 0z"/>
    </g>
   </g>
  </g>
 </g>
</svg>
