<?xml version="1.0" encoding="UTF-8"?>
<!DOCTYPE svg PUBLIC "-//W3C//DTD SVG 1.0//EN" "http://www.w3.org/TR/2001/REC-SVG-20010904/DTD/svg10.dtd">
<!-- Creator: CorelDRAW X7 -->
<svg xmlns="http://www.w3.org/2000/svg" xml:space="preserve" width="53px" height="49px" version="1.0" style="shape-rendering:geometricPrecision; text-rendering:geometricPrecision; image-rendering:optimizeQuality; fill-rule:evenodd; clip-rule:evenodd"
viewBox="0 0 356163 329462"
 xmlns:xlink="http://www.w3.org/1999/xlink">
 <defs>
  <style type="text/css">
   <![CDATA[
    .fil0 {fill:black}
   ]]>
  </style>
 </defs>
 <g id="Слой_x0020_1">
  <metadata id="CorelCorpID_0Corel-Layer"/>
  <g id="_998774432">
   <path class="fil0" d="M34067 151785c0,3088 -2508,5596 -5596,5596 -3087,0 -5596,-2508 -5596,-5596l0 -101947c0,-2286 1374,-4246 3334,-5119l50958 -28368c1746,-968 3786,-897 5413,0l51402 28614c1833,1016 2865,2913 2865,4873l24 101947c0,3088 -2508,5596 -5596,5596 -3087,0 -5596,-2508 -5596,-5596l0 -98684 -45806 -25495 -45806 25495 0 98684z"/>
   <path class="fil0" d="M6294 146983l147158 0c1730,0 3318,723 4445,1850 1127,1111 1849,2690 1849,4445l0 21454c0,1730 -722,3318 -1849,4445 -1127,1127 -2715,1849 -4445,1849l-147158 0c-1754,0 -3333,-722 -4445,-1857 -1127,-1119 -1849,-2707 -1849,-4437l0 -21454c0,-1747 722,-3310 1841,-4430 1143,-1142 2707,-1865 4453,-1865zm142261 11192l-137363 0 0 11660 137363 0 0 -11660z"/>
   <path class="fil0" d="M34377 152579c0,-3088 2508,-5596 5595,-5596 3088,0 5596,2508 5596,5596l0 170589c0,1730 -722,3318 -1849,4445 -1127,1127 -2715,1849 -4445,1849l-21455 0c-1754,0 -3333,-722 -4445,-1857 -1127,-1119 -1849,-2707 -1849,-4437l0 -147737c0,-3088 2508,-5596 5596,-5596 3087,0 5596,2508 5596,5596l0 142840 11660 0 0 -165692z"/>
   <path class="fil0" d="M17121 295879c-3088,0 -5596,-2508 -5596,-5595 0,-3088 2508,-5596 5596,-5596l22851 0c3088,0 5596,2508 5596,5596 0,3087 -2508,5595 -5596,5595l-22851 0z"/>
   <polygon class="fil0" points="57077,329462 57077,175431 68428,175431 68428,329462 "/>
   <path class="fil0" d="M79873 67086c-6556,0 -12501,2659 -16787,6945 -4286,4286 -6945,10232 -6945,16788l0 56164 47465 0 0 -56164c0,-6564 -2667,-12509 -6937,-16796 -4295,-4278 -10240,-6937 -16796,-6937zm-24693 -960c6318,-6318 15049,-10231 24693,-10231 9628,0 18375,3913 24693,10231 6310,6334 10231,15065 10231,24693l0 67356 -69848 0 0 -67356c0,-9644 3913,-18375 10231,-24693z"/>
   <path class="fil0" d="M114178 152579c0,-3088 2508,-5596 5596,-5596 3088,0 5596,2508 5596,5596l0 165692 11660 0 0 -142840c0,-3088 2508,-5596 5596,-5596 3087,0 5595,2508 5595,5596l0 147737c0,1730 -722,3318 -1849,4445 -1127,1127 -2715,1849 -4445,1849l-21454 0c-1524,0 -2913,-540 -3977,-1429l-468 -420c-1127,-1127 -1850,-2715 -1850,-4445l0 -170589z"/>
   <path class="fil0" d="M149301 156032c-1516,-2675 -580,-6088 2095,-7604 2675,-1516 6088,-580 7604,2095l95685 167748 90287 0 0 -23273 -65134 0c-2183,0 -4072,-1246 -4993,-3071l-90040 -157064 -53601 0c-3088,0 -5596,-2508 -5596,-5596 0,-3087 2508,-5596 5596,-5596l56839 0c1937,8 3818,1024 4850,2818l90183 157318 66793 0c1730,0 3318,722 4445,1849 1127,1127 1849,2715 1849,4445l0 33067c0,1730 -722,3318 -1849,4445 -1127,1127 -2715,1849 -4445,1849l-98415 0c-1944,-24 -3826,-1040 -4850,-2841l-97303 -170589z"/>
   <path class="fil0" d="M142626 284688c3087,0 5595,2508 5595,5596 0,3087 -2508,5595 -5595,5595l-22852 0c-3088,0 -5596,-2508 -5596,-5595 0,-3088 2508,-5596 5596,-5596l22852 0z"/>
   <polygon class="fil0" points="91319,329462 91319,175431 102669,175431 102669,329462 "/>
   <polygon class="fil0" points="62752,301166 96994,301166 96994,312405 62752,312405 "/>
   <g>
    <path class="fil0" d="M62752 265916c11414,0 22828,0 34242,0 0,3746 0,7493 0,11239 -11414,0 -22828,0 -34242,0 0,-3746 0,-7493 0,-11239z"/>
    <path class="fil0" d="M62752 230666c11414,0 22828,0 34242,0 0,3747 0,7493 0,11240 -11414,0 -22828,0 -34242,0 0,-3747 0,-7493 0,-11240z"/>
   </g>
   <polygon class="fil0" points="62752,195417 96994,195417 96994,206656 62752,206656 "/>
   <rect class="fil0" x="159985" y="318286" width="11192" height="11176"/>
   <rect class="fil0" x="211268" y="318286" width="11192" height="11176"/>
   <rect class="fil0" x="182717" y="295578" width="11192" height="11176"/>
   <path class="fil0" d="M176359 83953c-7270,-333 -11636,1032 -13938,3596l-174 182c-1500,1802 -2278,4389 -2532,7549l91707 -32c-269,-3588 -984,-6255 -2547,-7882l-167 -183c-2262,-2198 -6747,-3286 -14565,-3286 -2723,0 -4993,-1944 -5493,-4524 -1000,-4048 -3714,-7112 -7318,-9199 -4024,-2326 -9128,-3516 -14343,-3588 -5341,-71 -10755,1000 -15263,3159 -4707,2246 -8414,5723 -9795,10255 -754,2485 -3087,4056 -5572,3953zm-22240 -3881c3953,-4406 9953,-7041 18748,-7303 2937,-5802 7985,-10175 14049,-13072 6064,-2906 13231,-4350 20200,-4255 7088,95 14129,1778 19820,5064 4977,2881 8985,6977 11271,12311 8739,492 14517,2651 18406,6516l310 302c4564,4755 5826,11208 5826,19637 0,7358 -6890,7144 -6969,7144l-100613 15c-3096,120 -6406,199 -6636,-6222l-8 -112c-349,-7842 1008,-14612 5270,-19628l326 -397z"/>
   <path class="fil0" d="M269774 28519c-7271,-334 -11637,1032 -13938,3595l-175 183c-1500,1802 -2278,4389 -2532,7548l91708 -31c-270,-3588 -985,-6255 -2548,-7882l-167 -183c-2262,-2198 -6747,-3286 -14565,-3286 -2722,0 -4992,-1944 -5492,-4524 -1001,-4048 -3715,-7112 -7319,-9199 -4024,-2326 -9128,-3517 -14342,-3588 -5342,-72 -10755,1000 -15264,3159 -4707,2246 -8413,5723 -9795,10255 -754,2484 -3087,4056 -5571,3953zm-22241 -3882c3953,-4405 9954,-7040 18748,-7302 2937,-5802 7985,-10176 14049,-13073 6064,-2905 13232,-4349 20201,-4254 7088,95 14128,1778 19819,5064 4977,2881 8985,6977 11271,12311 8739,492 14517,2651 18407,6516l309 302c4564,4754 5826,11207 5826,19637 0,7358 -6889,7143 -6969,7143l-100613 16c-3096,119 -6406,199 -6636,-6223l-8 -111c-349,-7842 1008,-14612 5271,-19629l325 -397z"/>
  </g>
 </g>
</svg>
