<?xml version="1.0" encoding="utf-8"?>
<!-- Generator: Adobe Illustrator 21.1.0, SVG Export Plug-In . SVG Version: 6.00 Build 0)  -->
<svg version="1.1" id="Слой_1" xmlns="http://www.w3.org/2000/svg" xmlns:xlink="http://www.w3.org/1999/xlink" x="0px" y="0px"
	 viewBox="0 0 480 480" style="enable-background:new 0 0 480 480;" xml:space="preserve">
<path d="M447.932,24.068h-2.48c-7.272-16.13-22.219-23.996-45.513-23.996c-21.844,0-39.018,9.225-45.688,23.996h-2.304
	c-8.542-0.191-16.794,3.117-22.836,9.159c-6.042,6.046-9.35,14.295-9.159,22.836v7.999c0,4.417,3.581,7.999,7.999,7.999h143.978
	c4.417,0,7.999-3.581,7.999-7.999v-7.999c0.605-8.655-2.57-17.15-8.71-23.286C465.082,26.642,456.587,23.466,447.932,24.068z
	 M335.949,56.063c-0.199-4.3,1.422-8.487,4.464-11.529c3.046-3.046,7.233-4.667,11.533-4.468h7.999
	c3.714,0.004,6.944-2.554,7.792-6.175c3.062-13.158,19.259-17.822,32.202-17.822c23.411,0,29.386,8.799,32.354,18.4
	c1.051,3.335,4.144,5.601,7.639,5.597h7.999c4.386-0.547,8.784,0.961,11.908,4.089c3.128,3.128,4.636,7.522,4.089,11.908H335.949z"
	/>
<path d="M215.967,152.049h143.978c4.417,0,7.999-3.581,7.999-7.999v-7.999c0.605-8.655-2.57-17.15-8.71-23.286
	c-6.136-6.136-14.631-9.311-23.286-8.71h-2.48c-7.272-16.13-22.219-23.996-45.513-23.996c-21.844,0-39.018,9.225-45.688,23.996
	h-2.304c-8.542-0.191-16.794,3.117-22.836,9.159c-6.042,6.046-9.35,14.295-9.159,22.836v7.999
	C207.968,148.467,211.55,152.049,215.967,152.049z M239.964,120.053h7.999c3.714,0.004,6.944-2.554,7.792-6.175
	c3.062-13.158,19.259-17.822,32.202-17.822c23.41,0,29.386,8.799,32.354,18.4c1.051,3.335,4.144,5.601,7.639,5.597h7.999
	c4.386-0.547,8.784,0.961,11.908,4.089c3.128,3.128,4.636,7.522,4.089,11.908H223.966c-0.199-4.3,1.422-8.487,4.464-11.529
	C231.477,121.475,235.663,119.854,239.964,120.053z"/>
<path d="M471.928,400.011H396.58L270.904,180.044c-1.433-2.48-4.081-4.003-6.944-3.999h-71.989V72.061
	c0-2.902-1.574-5.577-4.113-6.991l-71.989-39.994c-2.418-1.344-5.355-1.344-7.772,0L36.108,65.07
	c-2.539,1.414-4.113,4.089-4.113,6.991V208.04H7.999c-4.417,0-7.999,3.581-7.999,7.999v31.995c0,4.417,3.581,7.999,7.999,7.999
	h7.999v199.97c0,4.417,3.581,7.999,7.999,7.999h31.995c4.417,0,7.999-3.581,7.999-7.999v-199.97h15.998v223.966h15.998v-23.996
	h31.995v23.996h15.998V256.033h15.998v199.97c0,4.417,3.581,7.999,7.999,7.999h31.995c4.417,0,7.999-3.581,7.999-7.999v-199.97
	h7.999c4.417,0,7.999-3.581,7.999-7.999v-1.656l121.021,213.569c1.422,2.507,4.078,4.054,6.96,4.054h119.982
	c4.417,0,7.999-3.581,7.999-7.999V408.01C479.927,403.592,476.346,400.011,471.928,400.011z M143.978,208.04h-63.99v-79.988
	c0-17.669,14.326-31.995,31.995-31.995s31.995,14.326,31.995,31.995V208.04z M47.993,76.775l63.99-35.557l63.99,35.557V208.04
	h-15.998v-79.988c0-26.504-21.489-47.993-47.993-47.993S63.99,101.548,63.99,128.052v79.988H47.993V76.775z M15.998,224.038h31.995
	v15.998H15.998V224.038z M47.993,256.033v143.978H31.995V256.033H47.993z M47.993,448.004H31.995v-31.995h15.998V448.004z
	 M63.99,224.038h95.985v15.998H63.99V224.038z M95.985,376.015h31.995v23.996H95.985V376.015z M95.985,360.017v-23.996h31.995
	v23.996H95.985z M95.985,320.023v-23.996h31.995v23.996H95.985z M95.985,440.005v-23.996h31.995v23.996H95.985z M127.981,280.029
	H95.985v-23.996h31.995V280.029z M191.971,448.004h-15.998v-31.995h15.998V448.004z M191.971,400.011h-15.998V256.033h15.998
	V400.011z M207.968,240.035h-31.995v-15.998h31.995V240.035z M463.93,448.004H356.61L222.927,212.098l-0.105,0.055
	c-1.371-2.511-3.995-4.081-6.854-4.113h-23.996v-15.998h67.349l125.676,219.967c1.433,2.48,4.081,4.007,6.944,3.999h71.989V448.004z
	"/>
<path d="M255.961,432.006h15.998v15.998h-15.998V432.006z"/>
<path d="M295.955,456.002h15.998V472h-15.998V456.002z"/>
<path d="M223.966,464.001h15.998v15.998h-15.998V464.001z"/>
</svg>
