<?xml version="1.0" encoding="utf-8"?><svg xmlns="http://www.w3.org/2000/svg" xmlns:xlink="http://www.w3.org/1999/xlink"><symbol id="0%" viewBox="0 0 1754 1754" xmlns="http://www.w3.org/2000/svg"><style>.aast0{fill:#207bbb}</style><g id="aaСлой_x0020_1"><path class="aast0" d="M877 0c484.354 0 877 392.646 877 877s-392.646 877-877 877S0 1361.354 0 877 392.646 0 877 0zm0 83.326c438.335 0 793.674 355.34 793.674 793.674S1315.335 1670.674 877 1670.674 83.326 1315.335 83.326 877 438.665 83.326 877 83.326z"/><path class="aast0" d="M515.969 659.318h.001v.077l.004.306h-.004v434.98h-.001c0 41.729 33.83 75.559 75.559 75.559 41.73 0 75.559-33.83 75.559-75.559v-434.98h-.005l.005-.383c0-41.729-33.829-75.559-75.559-75.559s-75.559 33.83-75.559 75.559zm646.399-133.147h66.577L950.337 1227.83H883.76l278.608-701.659zm-354.27 268.986V640.401c0-58.276 47.242-105.519 105.519-105.519 58.276 0 105.518 47.243 105.518 105.519v154.756c0 58.276-47.242 105.518-105.518 105.518-58.277 0-105.519-47.242-105.519-105.518zm144.46-154.756c0-21.507-17.434-38.941-38.941-38.941-21.508 0-38.942 17.434-38.942 38.941v154.756c0 21.507 17.434 38.941 38.942 38.941 21.507 0 38.941-17.434 38.941-38.941V640.401zm141.013 473.198V958.843c0-58.276 47.242-105.518 105.518-105.518 58.277 0 105.519 47.242 105.519 105.518v154.756c0 58.276-47.242 105.519-105.519 105.519-58.277 0-105.518-47.243-105.518-105.519zm144.459-154.756c0-21.507-17.434-38.941-38.942-38.941-21.507 0-38.941 17.434-38.941 38.941v154.756c0 21.507 17.434 38.941 38.941 38.941 21.508 0 38.942-17.434 38.942-38.941V958.843zm-788.637 135.839V659.318c0-78.498 63.636-142.135 142.135-142.135s142.136 63.636 142.136 142.135h.001v435.364h-.001c0 78.498-63.636 142.135-142.136 142.135-78.499-.001-142.135-63.637-142.135-142.135z"/></g></symbol><symbol viewBox="0 0 24 44" id="arrow-left" xmlns="http://www.w3.org/2000/svg"><path d="M21.982.016L0 21.999l21.982 21.985L24 41.966 4.034 21.999 24 2.034z"/></symbol><symbol viewBox="0 0 24 44" id="arrow-right" xmlns="http://www.w3.org/2000/svg"><path d="M0 2.034l19.966 19.965L0 41.966l2.018 2.018L24 21.999 2.018.016z"/></symbol><symbol viewBox="0 0 469.456 511.998" id="baby-stroller" xmlns="http://www.w3.org/2000/svg"><path d="M73.682 394.318c-24.261 0-43.998 19.738-43.998 43.998 0 24.26 19.738 43.998 43.998 43.998s43.998-19.738 43.998-43.998-19.738-43.998-43.998-43.998zm0 70.004c-14.34 0-26.005-11.666-26.005-26.005s11.666-26.005 26.005-26.005 26.005 11.666 26.005 26.005-11.666 26.005-26.005 26.005zm256.161-70.003c-24.26 0-43.998 19.738-43.998 43.998s19.737 43.998 43.998 43.998 43.998-19.738 43.998-43.998c0-24.26-19.738-43.998-43.998-43.998zm0 70.002c-14.339 0-26.005-11.666-26.005-26.005 0-14.339 11.665-26.005 26.005-26.005s26.005 11.666 26.005 26.005c0 14.339-11.666 26.005-26.005 26.005z"/><path d="M460.459 103.297h-29.704a8.996 8.996 0 00-7.348 3.806l-34.779 49.238H206.043l50.782-144.359A8.996 8.996 0 00248.337 0H142.22C65.226 0 2.587 62.639 2.587 139.634v44.354c0 68.874 48.942 126.528 113.873 140.02l65.102 30.534-59.639 28.149c-12.937-11.235-29.802-18.059-48.24-18.059C33.053 364.632 0 397.687 0 438.315c0 40.63 33.055 73.683 73.683 73.683s73.683-33.055 73.683-73.683a73.62 73.62 0 00-1.973-16.879h112.741a73.607 73.607 0 00-1.973 16.879c0 40.63 33.055 73.683 73.683 73.683s73.683-33.055 73.683-73.683c0-40.63-33.055-73.683-73.683-73.683-18.048 0-34.592 6.534-47.417 17.345l-58.602-27.487 64.592-30.487c64.925-13.497 113.863-71.148 113.863-140.018v-15.784l33.136-46.912h25.044a8.996 8.996 0 10-.001-17.992zM202.335 17.992h33.302l-33.302 94.667V17.992zM20.579 139.634c0-67.074 54.568-121.641 121.641-121.641h42.122v138.348H20.579v-16.707zm53.103 354.374c-30.708 0-55.69-24.983-55.69-55.69 0-30.708 24.983-55.69 55.69-55.69s55.69 24.983 55.69 55.69c.001 30.706-24.982 55.69-55.69 55.69zm256.161-111.383c30.708 0 55.69 24.983 55.69 55.69 0 30.708-24.983 55.69-55.69 55.69s-55.69-24.983-55.69-55.69 24.982-55.69 55.69-55.69zm-60.172 13.244a73.95 73.95 0 00-4.719 7.576H138.573a73.999 73.999 0 00-4.14-6.763l68.271-32.222 66.967 31.409zm-66.991-51.294l-37.482-17.58h74.73l-37.248 17.58zm56.592-35.573H145.594c-68.933 0-125.014-56.081-125.014-125.014v-9.655h163.766v4.869c0 20.114 16.365 36.479 36.479 36.479h159.387c-14.067 53.636-62.955 93.321-120.94 93.321zm124.26-111.315H220.823c-10.193 0-18.487-8.293-18.487-18.487v-4.869h181.949v9.655h.001c0 4.631-.261 9.201-.754 13.701z"/></symbol><symbol id="barber" viewBox="0 0 38 38" xmlns="http://www.w3.org/2000/svg"><style>.aest0{fill:#207bbb}.aest1{fill:#fefefe}</style><g id="aeСлой_x0020_1"><circle class="aest0" cx="19" cy="19" r="19"/><g id="ae_806042016"><path class="aest1" d="M18.339 21.431a.462.462 0 01-.385-.732l6.451-9.496a.453.453 0 01.488-.189c.181.039.33.189.362.378.157.881.134 1.849-.055 2.793-.205.96-.574 1.857-1.086 2.581l-2.777 4.005a.483.483 0 01-.307.197.492.492 0 01-.346-.079 1.403 1.403 0 00-1.959.346.484.484 0 01-.386.196zm1.542-1.739c.315 0 .629.063.928.197l2.533-3.658c.645-.92 1.031-2.156 1.07-3.375l-4.65 6.845c.04-.001.08-.009.119-.009zm-3.698 6.924c-.48 0-.944-.149-1.337-.425a2.337 2.337 0 01-.574-3.265 2.336 2.336 0 011.511-.968 2.363 2.363 0 011.754.393c.511.354.85.897.96 1.511a2.347 2.347 0 01-.386 1.754c-.362.511-.897.85-1.518.96-.134.024-.276.04-.41.04zm-1.148-3.155a1.41 1.41 0 001.4 2.195c.37-.063.692-.275.905-.582.22-.307.299-.677.236-1.046a1.452 1.452 0 00-.582-.913 1.373 1.373 0 00-1.046-.228c-.37.062-.693.267-.913.574z"/><path class="aest1" d="M17.261 23.201a.485.485 0 01-.244-.071.462.462 0 01-.157-.637l1.078-1.77a.458.458 0 01.645-.157c.22.134.291.417.157.637l-1.078 1.77a.458.458 0 01-.401.228z"/><path class="aest1" d="M19.661 21.431a.483.483 0 01-.386-.197 1.402 1.402 0 00-1.959-.346.497.497 0 01-.346.079.48.48 0 01-.307-.197l-2.777-3.981c-1.015-1.448-1.463-3.572-1.141-5.397a.483.483 0 01.362-.378.452.452 0 01.488.189l6.451 9.496a.462.462 0 11-.385.732zm-6.074-8.576c.039 1.227.417 2.47 1.07 3.391l2.533 3.643a2.31 2.31 0 011.046-.189l-4.649-6.845zm8.23 13.761c-.134 0-.275-.016-.409-.039a2.321 2.321 0 01-1.511-.96 2.332 2.332 0 01.575-3.265 2.347 2.347 0 013.265.574 2.352 2.352 0 01-.574 3.265 2.38 2.38 0 01-1.346.425zm-.008-3.753c-.275 0-.559.087-.802.252a1.412 1.412 0 00-.346 1.959c.22.307.543.519.913.582.37.063.74-.016 1.046-.236a1.402 1.402 0 00.346-1.959 1.42 1.42 0 00-1.157-.598zm-1.07-.126z"/><path class="aest1" d="M20.739 23.201a.462.462 0 01-.401-.228l-1.078-1.77a.462.462 0 01.157-.637.458.458 0 01.645.157l1.078 1.77a.462.462 0 01-.157.637.478.478 0 01-.244.071zm2.69 3.8a.45.45 0 01-.378-.189l-.543-.732a.468.468 0 01.755-.551l.535.724a.459.459 0 01-.094.653.456.456 0 01-.275.095zm-9.118 0a.447.447 0 01-.275-.094.466.466 0 01-.102-.653l.543-.724a.465.465 0 01.747.551l-.535.732a.472.472 0 01-.378.188z"/></g></g></symbol><symbol viewBox="0 0 14 18" id="barber2" xmlns="http://www.w3.org/2000/svg"><path d="M6.274 11.674a.485.485 0 01-.295-.084.535.535 0 01-.147-.716L12.948.432a.501.501 0 01.526-.211.491.491 0 01.4.4 8.427 8.427 0 01-.063 3.074 7.77 7.77 0 01-1.179 2.863l-3.074 4.4a.477.477 0 01-.337.211.597.597 0 01-.379-.084c-.695-.505-1.663-.316-2.147.379a.52.52 0 01-.421.21zm1.684-1.916c.358 0 .695.084 1.032.232l2.779-4.042c.716-1.011 1.137-2.358 1.179-3.705L7.832 9.779c.042 0 .084-.021.126-.021zm-4.063 7.621a2.653 2.653 0 01-1.474-.463 2.591 2.591 0 01-.632-3.6c.4-.568.989-.926 1.663-1.053a2.543 2.543 0 011.937.421c.547.4.926.989 1.053 1.663.126.674-.042 1.368-.421 1.937-.4.568-.989.926-1.663 1.053-.169.021-.316.042-.463.042zm-1.263-3.474a1.573 1.573 0 00.379 2.168c.337.232.758.316 1.158.253s.758-.295 1.011-.632a1.61 1.61 0 00.253-1.158 1.563 1.563 0 00-1.79-1.264c-.422.086-.78.296-1.011.633z"/><path d="M5.074 13.632a.408.408 0 01-.253-.084.493.493 0 01-.168-.695l1.179-1.958a.493.493 0 01.695-.168.5.5 0 01.189.695l-1.2 1.958a.475.475 0 01-.442.252z"/><path d="M7.726 11.674a.49.49 0 01-.421-.211 1.55 1.55 0 00-2.168-.379.597.597 0 01-.379.084.576.576 0 01-.337-.211l-3.053-4.4C.252 4.978-.232 2.641.105.62a.52.52 0 01.4-.4.546.546 0 01.547.211l7.095 10.442a.512.512 0 01-.126.716.52.52 0 01-.295.085zM1.032 2.242c.042 1.347.463 2.716 1.179 3.726l2.8 4.021a2.386 2.386 0 011.137-.211L1.032 2.242zm9.073 15.137a3.16 3.16 0 01-.463-.042 2.577 2.577 0 01-1.663-1.053 2.542 2.542 0 01-.421-1.937 2.499 2.499 0 011.053-1.663c1.158-.821 2.779-.526 3.6.632.8 1.179.526 2.779-.632 3.6a2.703 2.703 0 01-1.474.463zm-.021-4.126c-.295 0-.611.084-.884.274a1.573 1.573 0 00-.379 2.168c.232.337.589.568 1.011.632a1.556 1.556 0 001.537-2.421 1.615 1.615 0 00-1.285-.653zm-1.179-.148z"/><path d="M8.905 13.632a.518.518 0 01-.442-.253l-1.179-1.958a.513.513 0 01.168-.695c.253-.147.568-.084.716.168l1.179 1.958a.513.513 0 01-.168.695.46.46 0 01-.274.085zm2.969 4.168a.49.49 0 01-.421-.211l-.589-.8a.508.508 0 01.105-.716.508.508 0 01.716.105l.589.8a.536.536 0 01-.105.737.481.481 0 01-.295.085zm-10.042 0a.485.485 0 01-.295-.084.534.534 0 01-.105-.737l.589-.8a.506.506 0 01.716-.105.506.506 0 01.105.716l-.589.8a.493.493 0 01-.421.21z"/></symbol><symbol viewBox="0 0 512 312.263" id="bicycle-parked" xmlns="http://www.w3.org/2000/svg"><path d="M503.738 136.894c-2.485-1.029-9.086-2.599-16.708 5.024l-11.091 11.091c-14.568-10.687-32.528-17.01-51.939-17.01a87.56 87.56 0 00-30.594 5.489l-8.923-18.657 8.26-8.26c1.385 3.19 4.563 5.429 8.257 5.429h46c4.962 0 9-4.037 9-9V64a8 8 0 00-8-8h-48a8 8 0 00-8 8v28.686l-14.838 14.838-29.831-62.374C354.865 41.097 360 33.138 360 24c0-13.233-10.766-24-24-24h-32a8 8 0 000 16h32c4.411 0 8 3.589 8 8s-3.589 8-8 8c-.041 0-.08.005-.121.006a7.649 7.649 0 00-.545.028 7.8 7.8 0 00-.752.099 6.877 6.877 0 00-.726.167 8.164 8.164 0 00-.412.125 9.423 9.423 0 00-.767.305c-.043.02-.087.034-.129.054-.047.023-.09.051-.136.074a7.79 7.79 0 00-1.063.643 9.605 9.605 0 00-.322.24c-.09.072-.177.146-.264.222a7.936 7.936 0 00-.331.301c-.075.073-.147.149-.219.224a8.136 8.136 0 00-.307.338c-.071.083-.138.17-.205.256a7.605 7.605 0 00-.256.342c-.072.103-.139.209-.206.315s-.133.211-.195.32c-.07.124-.135.251-.199.379-.049.098-.098.195-.142.295a8.747 8.747 0 00-.409 1.147c-.03.11-.06.22-.085.332a8.662 8.662 0 00-.175 1.142 8.757 8.757 0 00-.025.488c-.001.053-.008.104-.008.156 0 .047.006.093.007.14.003.168.012.337.026.505.008.103.017.206.029.309.018.15.042.299.069.449a7.277 7.277 0 00.296 1.157 8.984 8.984 0 00.301.759c.02.044.034.089.055.132l22.937 47.958-84.998 46.477c-.091.05-.181.102-.271.155-6.604 3.953-12.323 5.958-16.996 5.958H202.7l-46.372-104H176a8 8 0 000-16h-48c-3.637 0-8.477-3.748-10.224-5.535a8 8 0 00-11.552 11.071c1.026 1.071 10.358 10.465 21.776 10.465h10.808l22.817 51.173a7.664 7.664 0 00-.409.587l-33.56 53.697c-11.924-6.045-25.398-9.456-39.656-9.456-48.523 0-88 39.477-88 88s39.477 88 88 88c45.826 0 83.577-35.212 87.633-80h9.38c2.901 11.228 11.759 20.087 22.987 22.987v9.013c0 8.822 7.178 16 16 16h16a8 8 0 000-16h-16v-9.013c11.228-2.901 20.087-11.759 22.987-22.987h15.072c8.547 0 16.583-3.328 22.627-9.372l87.799-87.799 6.498 13.586C353.262 163.792 336 191.916 336 224c0 19.412 6.323 37.372 17.01 51.939l-11.354 11.354c-7.623 7.623-6.053 14.224-5.024 16.708 1.029 2.484 4.586 8.262 15.368 8.262h136c13.234 0 24-10.767 24-24v-136c0-10.782-5.778-14.34-8.262-15.369zM408 96.002v-.003h8v8h-8v-7.997zM432 104v-8h8v8h-8zm8-24h-8v-8h8v8zm-32-8h8v8h-8v-8zm-238.536 36.752l26.418 59.247H192a8 8 0 000 16h11.016l4.127 9.257c-10.819 3.122-19.304 11.803-22.13 22.743h-9.38c-2.287-25.261-15.292-47.472-34.423-62.041l28.254-45.206zM159.545 216h-57.111l30.247-48.396c14.656 11.636 24.691 28.841 26.864 48.396zm-40.409-56.913l-32.59 52.144-43.451-43.451C55.417 157.918 71.027 152 88.001 152a71.576 71.576 0 0131.135 7.087zM88 296c-39.701 0-72-32.299-72-72 0-16.974 5.918-32.583 15.78-44.906l50.563 50.563c.017.017.036.031.053.048.103.101.212.196.321.292.071.062.138.129.211.189.03.025.062.047.092.071.088.07.18.134.272.2.089.065.174.134.266.195.046.031.093.059.14.088.021.014.041.03.062.043.036.022.074.037.11.058a.819.819 0 00.04.023c.106.063.21.13.319.189.119.064.242.118.364.175l.083.04c.046.021.091.046.137.066.042.018.083.037.126.054.117.049.237.088.356.131.127.046.253.094.383.134l.103.03c.067.019.135.032.202.049l.056.014c.133.033.264.071.399.097.1.02.202.031.303.047.096.015.191.031.287.043.062.008.121.019.183.025.238.023.477.034.716.036.022 0 .044.005.066.005l.016-.001h71.537C155.551 267.948 124.996 296 88 296zm128-56c-8.822 0-16-7.178-16-16 0-5.906 3.226-11.063 8-13.835V224a8 8 0 0016 0v-13.835c4.774 2.772 8 7.928 8 13.835 0 8.822-7.178 16-16 16zm57.373-28.687A15.896 15.896 0 01262.06 216h-15.072c-2.846-11.015-11.428-19.741-22.354-22.807l-.633-1.42V184c0-6.734-4.187-12.497-10.089-14.855L209.834 160h39.622c7.57 0 16.006-2.741 25.077-8.147l84.101-45.987 6.531 13.656-91.792 91.791zm147.061 19.829a8.011 8.011 0 003.572.859 7.961 7.961 0 003.446-.785 8 8 0 003.766-10.668l-.061-.128 45.478-45.478C488.635 187.81 496 205.057 496 224c0 39.701-32.299 72-72 72-18.943 0-36.189-7.365-49.057-19.367l45.491-45.491zM424 152c14.992 0 28.925 4.611 40.466 12.483l-40.631 40.631-23.485-49.104A71.635 71.635 0 01424 152zm-72 72c0-25.728 13.573-48.333 33.925-61.069l25.912 54.18-47.355 47.355C356.611 252.925 352 238.992 352 224zm11.62 63.956a88.727 88.727 0 0010.221 8.307h-18.528l8.307-8.307zm132.38.306c0 4.411-3.589 8-8 8h-13.841A88.737 88.737 0 00496 274.537v13.725zm-8.044-124.642l8.044-8.044v17.886a88.698 88.698 0 00-8.044-9.842z"/></symbol><symbol id="bus" viewBox="0 0 38 38" xmlns="http://www.w3.org/2000/svg"><style>.ahst0{fill:#207bbb}.ahst1{fill:#fff}</style><g id="ahСлой_x0020_1"><circle class="ahst0" cx="19" cy="19" r="19"/><path class="ahst1" d="M27.647 12.674H10.353a2.363 2.363 0 00-2.329 2.002.484.484 0 00-.024.149v8.616c0 .234.187.428.428.428h4.479a1.897 1.897 0 003.684 0h7.604c.203.834.95 1.449 1.838 1.449a1.88 1.88 0 001.838-1.449h1.698a.432.432 0 00.428-.428v-8.413a2.357 2.357 0 00-2.35-2.354zm-13.204 1.722h-2.407a.432.432 0 00-.428.428v2.407c0 .241.195.428.428.428h2.407a.422.422 0 00.428-.428v-2.407a.427.427 0 00-.428-.428zm-.429 2.407h-1.55v-1.55h1.55v1.55zm4.558-2.407h-2.407a.427.427 0 00-.428.428v2.407c0 .241.187.428.428.428h2.407a.427.427 0 00.428-.428v-2.407a.432.432 0 00-.428-.428zm-.429 2.407h-1.55v-1.55h1.55v1.55zm-5.235 6.209H8.857V17.66h1.465a.427.427 0 00.428-.428v-2.407a.432.432 0 00-.428-.428H8.998a1.5 1.5 0 011.355-.857h17.294c.686 0 1.27.467 1.441 1.098h-3.646a.432.432 0 00-.428.428v3.864c0 .234.195.428.428.428h3.7v3.654H27.88c-.195-.841-.95-1.472-1.846-1.472s-1.651.631-1.838 1.472h-.039v-7.946a.432.432 0 00-.428-.428h-3.443a.432.432 0 00-.428.428v7.946h-3.264a1.89 1.89 0 00-3.686 0zm1.846 1.449c-.569 0-1.036-.46-1.036-1.028s.467-1.036 1.036-1.036a1.032 1.032 0 110 2.064zm-4.861-9.208v1.55H8.857v-1.55h1.036zm13.399 3.576h-.265a.429.429 0 00-.436.428c0 .234.195.428.436.428h.265v3.326h-2.579v-7.517h2.579v3.335zm2.742 5.632c-.569 0-1.028-.46-1.028-1.028s.46-1.036 1.028-1.036 1.036.467 1.036 1.036-.467 1.028-1.036 1.028zm3.109-5.96h-3.272v-3.007h3.272v3.007z"/></g></symbol><symbol viewBox="0 0 24 14" id="bus2" xmlns="http://www.w3.org/2000/svg"><path d="M21.434.101H2.566A2.566 2.566 0 00.025 2.286a.59.59 0 00-.025.16v9.391c0 .258.209.466.466.466h4.886c.221.908 1.043 1.596 2.013 1.596s1.792-.687 2.013-1.596h8.287a2.08 2.08 0 002.013 1.596c.97 0 1.792-.687 2.001-1.596h1.854a.466.466 0 00.466-.466v-9.17A2.571 2.571 0 0021.434.101zm-14.4 1.878H4.407a.466.466 0 00-.466.466v2.627c0 .258.209.466.466.466h2.627a.466.466 0 00.466-.466V2.446a.465.465 0 00-.466-.467zm-.479 2.627H4.874V2.912h1.682v1.694zm4.972-2.627H8.9a.466.466 0 00-.466.466v2.627c0 .258.209.466.466.466h2.627a.466.466 0 00.466-.466V2.446a.465.465 0 00-.466-.467zm-.466 2.627H9.379V2.912h1.682v1.694zM5.352 11.37H.933V5.539h1.596a.466.466 0 00.466-.466V2.446a.466.466 0 00-.466-.466H1.093a1.633 1.633 0 011.473-.946h18.869c.749 0 1.375.516 1.571 1.203h-3.977a.466.466 0 00-.466.466v4.223c0 .258.209.466.466.466h4.039v3.977h-1.375c-.221-.921-1.031-1.608-2.013-1.608s-1.805.687-2.013 1.608h-.037V2.716a.48.48 0 00-.479-.479h-3.744a.476.476 0 00-.466.479v8.655H9.379c-.209-.921-1.031-1.609-2.013-1.609s-1.805.688-2.014 1.608zm2.014 1.584a1.123 1.123 0 010-2.246c.614 0 1.129.503 1.129 1.117 0 .626-.515 1.129-1.129 1.129zM2.062 2.912v1.694H.933V2.912h1.129zm14.621 3.892h-.295a.469.469 0 00-.466.479c0 .258.209.466.466.466h.295v3.621h-2.811V3.182h2.811v3.622zm2.996 6.15zm3.388-6.506h-3.572V3.17h3.572v3.278z"/></symbol><symbol id="cafe" viewBox="0 0 38 38" xmlns="http://www.w3.org/2000/svg"><style>.ajst0{fill:#207bbb}.ajst1{fill:#fff}</style><g id="ajСлой_x0020_1"><circle class="ajst0" cx="19" cy="19" r="19"/><path class="ajst1" d="M12.2 19.234h.016c-.305-.399-.578-.938-.563-1.579.016-.875.531-1.727 1.548-2.54a2.136 2.136 0 01-.078-1.125c.297-1.454 1.876-2.032 3.322-2.36a1.88 1.88 0 01.907-2.188c-.586-1.18-1.36-1.305-1.665-1.305-.399 0-.649.086-.797.156a.307.307 0 01-.344-.023.33.33 0 01.039-.547c.234-.117.586-.234 1.102-.234.617 0 1.204.281 1.68.828.164.18.399.485.602.922a1.887 1.887 0 011.922.938c.117-.125.242-.297.336-.492a.313.313 0 01.195-.164.303.303 0 01.258.023c.969.539 1.673 1.266 2.102 2.149.36.758.43 1.454.43 1.86.031.008.055.023.078.031.844.36 1.329 1.047 1.399 1.977.031.375-.008.719-.055.954.664.234 1.133.696 1.297 1.29.133.477.063.985-.172 1.43h.266c.094 0 .188.047.25.125.063.07.086.172.063.274l-1.602 7.065a1.013 1.013 0 01-.993.782h-9.262c-.477 0-.891-.32-.993-.782l-1.602-7.065a.307.307 0 01.063-.274.307.307 0 01.251-.126zm6.05-9.371c-.68 0-1.235.547-1.235 1.227s.555 1.235 1.235 1.235 1.227-.555 1.227-1.235-.547-1.227-1.227-1.227zm5.494 16.976c.172 0 .32-.117.36-.289l1.516-6.667h-1.055l-1.157 6.792a1.218 1.218 0 01-.039.164h.375zm-1.157 0c.055 0 .156-.094.188-.274l1.133-6.682h-1.055l-.766 6.776a1.613 1.613 0 01-.031.18h.531zm-1.219 0a.526.526 0 00.07-.25l.766-6.706h-1.063l-.383 6.761c0 .063-.008.133-.016.195h.626zm-1.93 0h.649c.008-.055.023-.133.031-.234l.375-6.722h-1.056v6.956zm-1.329-.234c.008.102.016.18.023.234h.657v-6.956h-1.063l.383 6.722zm-1.258.234h.625c-.008-.063-.008-.133-.016-.195l-.383-6.761h-1.063l.766 6.706a.638.638 0 00.071.25zm-1.212 0h.531a1.412 1.412 0 01-.031-.18l-.774-6.776H14.31l1.141 6.682c.032.18.126.274.188.274zm-1.516-.289a.368.368 0 00.36.289h.367a1.218 1.218 0 01-.039-.164l-1.157-6.792h-1.048l1.517 6.667zm-1.032-7.316h4.963c-.727-.383-1.673-.914-2.556-1.54a.318.318 0 01-.078-.453.323.323 0 01.445-.078c1.548 1.086 3.314 1.915 3.658 2.071h5.455c.32-.344.453-.828.328-1.251-.133-.485-.571-.821-1.219-.954a57.39 57.39 0 01-4.064-.985.332.332 0 01-.219-.406.321.321 0 01.399-.219c1.618.461 3.087.789 3.806.93.094-.531.164-1.688-.969-2.173-.438-.188-1.329-.344-2.267-.516l-.313-.063a.316.316 0 01-.258-.375.322.322 0 01.375-.258l.313.055a29.45 29.45 0 011.665.336c-.039-.758-.36-2.087-1.923-3.087-.117.18-.242.32-.344.422a1.322 1.322 0 01-.18.18c.008.07.016.148.016.219a1.884 1.884 0 01-1.876 1.884c-.61 0-1.157-.297-1.501-.742-.633.133-1.165.289-1.594.477a.327.327 0 00-.047.281c.086.25.586.946 3.501 1.93a.336.336 0 01.203.414.327.327 0 01-.305.219c-.039 0-.07-.008-.109-.016-1.039-.36-1.891-.711-2.517-1.055-.797-.438-1.251-.86-1.391-1.297a1.329 1.329 0 01-.023-.102c-.399.289-.625.633-.711 1.039-.117.586.148 1.235.797 1.93a.323.323 0 01-.235.547.37.37 0 01-.242-.102 5.01 5.01 0 01-.594-.774c-.774.649-1.172 1.305-1.18 1.938-.014.707.455 1.27.791 1.574z" id="aj_807251104"/></g></symbol><symbol viewBox="0 0 16 22" id="cafe2" xmlns="http://www.w3.org/2000/svg"><path d="M.597 12.91h.018C.29 12.475-.018 11.896 0 11.19c.018-.959.579-1.882 1.683-2.769-.126-.416-.163-.815-.072-1.213.308-1.593 2.027-2.226 3.62-2.57a1.698 1.698 0 01-.091-.597c0-.778.434-1.448 1.068-1.792C5.575.964 4.724.819 4.398.819c-.434 0-.706.091-.869.181-.127.054-.271.054-.38-.036-.199-.145-.181-.471.055-.597.253-.127.633-.254 1.194-.254.67 0 1.303.308 1.828.905.181.199.434.525.652.995.109-.018.199-.018.308-.018.76 0 1.43.416 1.792 1.05.126-.145.271-.326.361-.543a.441.441 0 01.218-.181.362.362 0 01.271.036c1.05.579 1.828 1.376 2.299 2.335.398.833.471 1.593.471 2.027.018.018.054.018.072.036.923.398 1.448 1.14 1.538 2.154a4.33 4.33 0 01-.072 1.032c.724.253 1.231.76 1.412 1.412.145.507.072 1.068-.181 1.557h.29a.38.38 0 01.271.127.38.38 0 01.072.308l-1.756 7.692a1.085 1.085 0 01-1.068.851h-10.1a1.07 1.07 0 01-1.068-.851L.252 13.345a.38.38 0 01.072-.308.359.359 0 01.273-.127zM7.186 2.701c-.742 0-1.339.597-1.339 1.339s.596 1.34 1.339 1.34 1.339-.597 1.339-1.339-.597-1.34-1.339-1.34zm5.99 18.48a.387.387 0 00.38-.308l1.647-7.258h-1.14l-1.267 7.403a.532.532 0 01-.036.163h.416zm-1.266 0c.054 0 .163-.09.199-.29l1.249-7.276H12.2L11.367 21c-.018.054-.018.127-.036.181h.579zm-1.322 0a.877.877 0 00.072-.271l.833-7.294h-1.158l-.416 7.348c0 .09 0 .163-.018.217h.687zm-2.117 0h.724c0-.054.018-.145.018-.253l.416-7.312H8.471v7.565zm-1.448-.253c.018.109.018.199.036.253h.706v-7.566H6.606l.417 7.313zm-1.358.253h.688c-.018-.054-.018-.127-.018-.217L5.9 13.615H4.76l.833 7.294c0 .145.054.236.072.272zm-1.321 0h.579A.646.646 0 014.887 21l-.833-7.385H2.896l1.249 7.276c.018.199.126.29.199.29zm-1.647-.308a.387.387 0 00.38.308h.416l-.054-.163-1.249-7.403H1.032l1.665 7.258zM1.575 12.91h5.394c-.778-.416-1.81-.995-2.787-1.683a.346.346 0 01-.072-.489.35.35 0 01.489-.09c1.683 1.195 3.602 2.081 3.982 2.262h5.937c.344-.38.489-.905.362-1.376-.145-.525-.615-.887-1.339-1.032a56.535 56.535 0 01-4.416-1.068A.353.353 0 018.887 9a.342.342 0 01.434-.253c1.756.507 3.348.869 4.127 1.032.109-.597.181-1.846-1.05-2.371-.471-.199-1.448-.38-2.462-.561l-.343-.073a.353.353 0 01-.29-.416.364.364 0 01.416-.272l.344.054c.652.127 1.303.235 1.81.362-.036-.814-.398-2.262-2.081-3.348a3.563 3.563 0 01-.38.452l-.199.199a.968.968 0 01.018.236 2.055 2.055 0 01-2.045 2.045c-.67 0-1.249-.308-1.629-.814-.688.162-1.267.325-1.738.524-.09.145-.072.235-.054.308.09.271.633 1.032 3.819 2.1a.372.372 0 01.217.452.37.37 0 01-.344.235c-.036 0-.072 0-.109-.018-1.14-.38-2.063-.76-2.751-1.14-.85-.471-1.357-.941-1.502-1.412-.018-.036-.018-.072-.036-.108-.416.307-.67.687-.76 1.122-.127.651.163 1.357.868 2.117.127.127.109.362-.018.489-.072.072-.163.09-.253.09s-.181-.036-.253-.108a6.424 6.424 0 01-.652-.833c-.833.706-1.267 1.412-1.285 2.1-.018.778.489 1.376.869 1.72z"/></symbol><symbol id="card" viewBox="0 0 38 38" xmlns="http://www.w3.org/2000/svg"><style>.alst0{fill:#207bbb}.alst1{fill:#fefefe}</style><g id="alСлой_x0020_1"><circle class="alst0" cx="19" cy="19" r="19"/><g id="al_806015680"><path class="alst1" d="M27.026 10.99L20.92 7.685c-.58-.317-1.378-.07-1.687.503l-3.576 6.64h-4.342a.978.978 0 00-.991.991v10.735c0 .557.433.991.991.991h13.877a.978.978 0 00.991-.991v-2.508h.41c.217 0 .387-.17.387-.387v-2.871a.383.383 0 00-.387-.387h-.41v-2.825c0-.457-.341-.867-.774-.96l2.121-3.939a1.26 1.26 0 00-.504-1.687zm-4.342-1.471l-3.815 7.066h-1.084l4.079-7.499.82.433zm-2.755-.967a.479.479 0 01.627-.193l.604.341-4.249 7.886h-1.323l4.341-8.034zm-8.854 7.244c0-.077.093-.193.217-.193h3.932l-.534.96h-3.398c-.077 0-.147 0-.217.023v-.79zm14.31 10.758a.217.217 0 01-.217.217H11.292a.212.212 0 01-.217-.217v-8.978c0-.116.093-.217.217-.217h13.853c.116 0 .217.101.217.217v2.825h-1.478c-.65 0-1.153.534-1.153 1.161v1.323c0 .658.526 1.161 1.153 1.161h1.501v2.508zm.774-5.379h.023v2.097h-2.298a.383.383 0 01-.387-.387v-1.323c0-.217.17-.387.387-.387h2.275zm.673-8.885l-2.314 4.295h-4.783l3.622-6.679 3.281 1.78c.241.101.31.387.194.604z"/><path class="alst1" d="M25.362 11.934l-.193-.101c-.488-.263-1.138-.07-1.401.41l-.24.464a1 1 0 00-.077.789.971.971 0 00.511.604l.193.101c.139.07.31.116.48.116.387 0 .727-.217.921-.526l.24-.457c.239-.51.046-1.137-.434-1.4zm-.271 1.037l-.24.457a.265.265 0 01-.364.093l-.193-.116c-.046-.023-.093-.101-.116-.147-.023-.07-.023-.147.023-.193l.24-.457c.046-.07.147-.147.24-.147a.24.24 0 01.124.023l.193.101a.366.366 0 01.093.386z"/></g></g></symbol><symbol viewBox="0 0 19 22" id="card2" xmlns="http://www.w3.org/2000/svg"><path d="M18.289 3.819L11.61.201c-.634-.34-1.515-.077-1.855.557L5.844 8.024H1.082C.479 8.024 0 8.503 0 9.106v11.765c0 .603.479 1.082 1.082 1.082h15.197a1.08 1.08 0 001.098-1.082v-2.752h.448a.415.415 0 00.417-.417v-3.154a.415.415 0 00-.417-.417h-.448v-3.092c0-.51-.371-.959-.85-1.051l2.319-4.313a1.378 1.378 0 00-.557-1.856zm-4.746-1.608l-4.19 7.745h-1.19l4.468-8.225.912.48zm-3.015-1.067c.124-.232.448-.34.68-.201l.665.371L7.22 9.956H5.766l4.762-8.812zM.819 9.075c0-.077.108-.201.232-.201h4.313l-.571 1.052H1.051c-.077 0-.155 0-.232.031v-.882zm15.677 11.796c0 .139-.108.247-.232.247H1.051c-.124 0-.232-.108-.232-.247v-9.832c0-.139.108-.232.232-.232h15.181c.139 0 .232.093.232.232v3.092h-1.608c-.711 0-1.268.587-1.268 1.268v1.453c0 .711.587 1.268 1.268 1.268h1.639v2.751zm.85-5.89h.031v2.303h-2.52a.42.42 0 01-.417-.433v-1.453c0-.232.186-.417.417-.417h2.489zm.742-9.74l-2.535 4.715h-5.241l3.973-7.328 3.587 1.963c.262.109.34.418.216.65z"/><path d="M16.465 4.855l-.201-.108c-.526-.294-1.252-.077-1.531.448l-.278.51c-.124.263-.17.572-.077.866.077.294.294.526.557.665l.216.108c.155.077.34.124.526.124.417 0 .788-.232 1.005-.587l.263-.495c.262-.557.061-1.238-.48-1.531zm-.279 1.128l-.278.51c-.077.124-.263.186-.386.108l-.216-.139a.399.399 0 01-.124-.155c-.031-.077-.031-.155.015-.216l.263-.495c.062-.077.17-.17.278-.17.046 0 .077 0 .124.031l.216.108a.415.415 0 01.108.418z"/></symbol><symbol viewBox="0 0 510.999 436.624" id="cctv" xmlns="http://www.w3.org/2000/svg"><path d="M504.884 139.927L128.756.578c-4.811-1.778-10.156.682-11.93 5.497-.004.004-.004.008-.008.012L75.181 119.424c-1.77 4.815.698 10.156 5.513 11.926h.008l43.598 16.008-9.606 26.171a9.288 9.288 0 005.517 11.918l87.212 32.019-6.409 17.446c-5.825 15.626-.39 33.216 13.24 42.826v47.407H89.255a46.578 46.578 0 00-33.22-26.94v-19.509a9.288 9.288 0 00-9.29-9.29H9.29a9.29 9.29 0 00-9.29 9.29v148.635c0 5.134 4.16 9.29 9.29 9.29h37.454a9.286 9.286 0 009.29-9.29v-19.505a46.578 46.578 0 0033.22-26.943h124.998v9.29c0 15.392 12.476 27.871 27.867 27.871s27.871-12.479 27.871-27.871v-102.91a36.842 36.842 0 0018.218-20.3l6.409-17.446 78.487 28.799a9.297 9.297 0 0011.922-5.517l3.481-9.485c30.23 5.688 59.345-14.207 65.029-44.433a55.717 55.717 0 00-3.91-33.084l56.316-28.916c4.565-2.339 6.37-7.938 4.031-12.503a9.28 9.28 0 00-5.045-4.48l-.044.029zM232.83 286.203l7.692 2.788a36.958 36.958 0 0010.889 2.136v34.019H232.83v-38.943zM37.458 418.047H18.581V287.989h18.877v130.058zm37.158-55.739a27.933 27.933 0 01-18.581 26.281v-71.142a27.924 27.924 0 0118.581 26.281v18.58zm18.869-18.581h157.926v18.581H93.485v-18.581zm148.635 55.739a9.29 9.29 0 01-9.29-9.29v-9.29h18.581v9.29c0 5.13-4.16 9.29-9.291 9.29zm35.061-156.347l-6.409 17.446c-3.54 9.622-14.21 14.557-23.84 11.025l-17.474-6.402c-9.63-3.536-14.573-14.21-11.037-23.844v-.004l6.413-17.435 47.088 17.286 5.259 1.928zm93.613 14.585L135.333 171.24l6.413-17.446L281.27 205.03a9.349 9.349 0 009.575-1.953l26.07-24.542 73.091 26.846-19.212 52.323zm62.811-36.308c-5.887 15.871-21.719 25.789-38.565 24.156l14.355-39.103 23.446-12.074a36.844 36.844 0 01.764 27.021zm-31.356-32.121a8.532 8.532 0 00-1.458.257l-82.826-30.413a9.299 9.299 0 00-9.571 1.949l-26.101 24.546-186.469-68.475 35.22-95.898L478.63 150.016l-76.381 39.259z"/><path d="M171.992 125.311l6.402-17.442 17.442 6.405-6.405 17.442-17.439-6.405zm34.881 12.807l6.402-17.442 17.442 6.405-6.405 17.439-17.439-6.402zm34.881 12.814l6.405-17.442 17.439 6.405-6.405 17.442-17.439-6.405z"/></symbol><symbol id="develop" viewBox="0 0 38 38" xmlns="http://www.w3.org/2000/svg"><style>.aost0{fill:#207bbb}.aost1{fill:#fff}</style><g id="aoСлой_x0020_1"><circle class="aost0" cx="19" cy="19" r="19"/><g id="ao_806041664"><path class="aost1" d="M24.846 15.131l-2.845-7.269a.765.765 0 00-.985-.43l-7.269 2.845a.763.763 0 00-.422.993l2.861 7.261a.76.76 0 00.993.43l7.245-2.845a.755.755 0 00.422-.985zm-7.894 3.001l-2.782-7.073 7.073-2.782 2.775 7.073-7.066 2.782zm.876 1.556h-7.784a.764.764 0 00-.758.758v7.792c0 .422.344.758.758.758h7.784a.76.76 0 00.766-.758v-7.792a.766.766 0 00-.766-.758zm-.094 8.449h-7.589v-7.589h7.589v7.589zm11.591-8.488l-7.527-2.001a.774.774 0 00-.93.555l-2.001 7.519a.768.768 0 00.539.938l7.527 1.993a.755.755 0 00.93-.531l1.985-7.542a.763.763 0 00-.523-.931zm-2.259 8.12l-7.347-1.93 1.954-7.339 7.339 1.954-1.946 7.315z"/><path class="aost1" d="M21.642 14.045a1.524 1.524 0 00-.305-.399l-2.142-2.251-.25-.274a1.133 1.133 0 00-.211-.172.584.584 0 00-.25-.102.722.722 0 00-.586.234.568.568 0 00-.117.242 1.584 1.584 0 00-.031.328v3.431c.008.133.016.227.023.297a.55.55 0 00.039.188c.039.102.125.18.227.211a.38.38 0 00.32 0 .326.326 0 00.227-.211c.031-.164.047-.336.039-.5v-.61l1.688-.664.399.43.188.18a.765.765 0 00.172.148.373.373 0 00.156.047c.063.008.125 0 .188-.023a.474.474 0 00.227-.219.433.433 0 00-.001-.311zm-3.056-.313l-.063-1.938 1.297 1.446-1.234.492zm-3.58 10.278c.406-.148.672-.547.664-.977 0-.125-.023-.25-.063-.367a.881.881 0 00-.188-.32.995.995 0 00-.274-.242 1.04 1.04 0 00-.43-.148 2.584 2.584 0 00-.547-.039h-1.422a.518.518 0 00-.422.125.57.57 0 00-.133.43v3.345a.595.595 0 00.125.43.57.57 0 00.43.133h1.368c.195-.008.399-.023.594-.055.156-.023.32-.063.469-.117.211-.094.391-.242.516-.43.125-.203.195-.438.195-.672a1.098 1.098 0 00-.882-1.096zm-1.899-1.407h.711c.25-.016.5.023.727.109.164.078.258.25.242.43a.524.524 0 01-.078.281.457.457 0 01-.281.242c-.172.055-.344.07-.524.07h-.821l.024-1.132zm1.86 2.439c0 .438-.305.657-.914.657h-.969l.023-1.297h.922c.25-.016.492.039.711.156a.527.527 0 01.227.484zm11.544-3.158a1.773 1.773 0 00-.508-.688 2.026 2.026 0 00-.86-.43 2.098 2.098 0 00-.852-.063 1.976 1.976 0 00-.782.266 2.129 2.129 0 00-.617.594 2.84 2.84 0 00-.399.883 3.368 3.368 0 00-.102.625c-.008.195 0 .391.039.586.031.18.094.36.172.524a1.664 1.664 0 00.773.813c.195.102.399.172.602.227.274.078.555.102.828.07.234-.039.453-.125.657-.25.164-.102.305-.234.422-.383.102-.125.18-.274.219-.43a.359.359 0 00-.039-.297.345.345 0 00-.234-.18.312.312 0 00-.297.039.868.868 0 00-.211.234c-.133.195-.32.344-.539.43-.219.07-.461.07-.68 0a1.133 1.133 0 01-.547-.274 1.066 1.066 0 01-.266-.602 2.26 2.26 0 01.086-.852c.078-.43.297-.821.625-1.11.274-.211.633-.274.961-.18.203.047.391.156.531.313.133.172.227.367.266.586.023.109.063.219.117.32a.361.361 0 00.234.148.355.355 0 00.281-.047.384.384 0 00.18-.234 1.035 1.035 0 00-.06-.638z"/></g></g></symbol><symbol viewBox="0 0 23 24" id="develop2" xmlns="http://www.w3.org/2000/svg"><path d="M17.356 8.598L14.189.537A.867.867 0 0013.09.053L5.029 3.219a.844.844 0 00-.484 1.099l3.193 8.061a.85.85 0 001.099.484l8.035-3.167a.843.843 0 00.484-1.098zm-8.781 3.337L5.5 4.083 13.352.995l3.075 7.852-7.852 3.088zm.982 1.727H.92a.85.85 0 00-.851.851v8.65c0 .458.38.837.851.837h8.637a.846.846 0 00.851-.838v-8.65a.85.85 0 00-.851-.85zm-.105 9.383H1.025v-8.427h8.427v8.427zm12.864-9.422l-8.349-2.225a.847.847 0 00-1.034.615l-2.225 8.349a.858.858 0 00.602 1.047l8.349 2.212a.831.831 0 001.034-.589l2.212-8.375a.847.847 0 00-.589-1.034zm-2.5 9.016l-8.166-2.146 2.172-8.153 8.153 2.172-2.159 8.127z"/><path d="M13.784 7.394a1.354 1.354 0 00-.34-.432l-2.369-2.499-.275-.315-.236-.196a.764.764 0 00-.288-.105.813.813 0 00-.641.262.543.543 0 00-.131.275 1.632 1.632 0 00-.039.353v3.821c.013.144.026.249.026.327 0 .065.013.144.039.209a.462.462 0 00.262.236.547.547 0 00.353 0 .405.405 0 00.249-.236c.039-.183.052-.379.039-.563v-.68l1.871-.733.458.471.196.209c.065.065.131.118.196.157.052.039.118.052.17.065a.54.54 0 00.209-.039.441.441 0 00.249-.236.407.407 0 00.002-.351zm-3.39-.341l-.065-2.159 1.439 1.61-1.374.549zM6.416 18.465c.458-.17.759-.602.746-1.086 0-.144-.026-.275-.079-.406a.939.939 0 00-.196-.353 1.258 1.258 0 00-.314-.275 1.435 1.435 0 00-.471-.17 4.733 4.733 0 00-.615-.039h-1.57a.57.57 0 00-.471.144.57.57 0 00-.144.471v3.716c-.026.17.026.34.131.484a.708.708 0 00.484.144h1.518c.209-.013.432-.026.654-.065.183-.013.353-.065.523-.131.236-.092.432-.262.576-.471.144-.222.209-.484.209-.746a1.22 1.22 0 00-.981-1.217zm-2.107-1.571h.785c.288-.013.563.026.824.131.17.079.275.275.262.471a.518.518 0 01-.092.314.545.545 0 01-.314.275 1.68 1.68 0 01-.576.065h-.915l.026-1.256zm2.068 2.709c0 .497-.34.733-1.021.733H4.283l.026-1.439h1.034c.275-.013.537.039.785.17.17.117.262.327.249.536zm12.811-3.494a1.931 1.931 0 00-.563-.772 2.202 2.202 0 00-.942-.471 2.35 2.35 0 00-.955-.079 2.17 2.17 0 00-1.544.955 3.107 3.107 0 00-.445.995 2.98 2.98 0 00-.118.68 2.413 2.413 0 00.235 1.243c.092.196.209.366.353.523.157.144.327.275.51.366.209.118.432.196.667.262.301.092.615.105.916.065.262-.039.51-.131.733-.275.17-.105.34-.249.471-.419.105-.144.196-.301.236-.484a.37.37 0 00-.039-.327.393.393 0 00-.262-.196.36.36 0 00-.327.039c-.092.079-.17.17-.236.262a1.296 1.296 0 01-.602.484c-.249.079-.51.079-.759 0a1.31 1.31 0 01-.602-.301 1.232 1.232 0 01-.288-.667c-.039-.327 0-.641.092-.955.079-.471.327-.903.68-1.23a1.176 1.176 0 011.073-.196c.236.052.432.17.589.34.157.196.262.419.301.654.026.118.065.249.131.353a.436.436 0 00.262.17.385.385 0 00.314-.052.479.479 0 00.196-.262 1.083 1.083 0 00-.077-.705z"/></symbol><symbol viewBox="0 0 1944 2133" id="door" xmlns="http://www.w3.org/2000/svg"><path d="M478.416 1799.683h1134.991v83.354H328.509v-83.354h149.907zm1219.304 0h34.167c22.902 0 41.638-18.739 41.638-41.643v-.002c0-22.904-18.736-41.643-41.638-41.643h-225.7V41.66c0-23.011-19.691-41.66-42.686-41.66H478.416c-22.995 0-40.602 18.65-40.602 41.66v1674.735H212.113c-22.902 0-41.638 18.739-41.638 41.643v.002c0 22.904 18.736 41.643 41.638 41.643h34.166v83.354H41.83c-22.897 0-41.64 18.739-41.64 41.643v.002c0 22.904 18.744 41.643 41.64 41.643h34.164v125.014c0 23.01 17.607 41.661 40.602 41.661H1825.32c22.995 0 42.686-18.649 42.686-41.661v-125.015h34.164c22.896 0 41.64-18.739 41.64-41.643v-.002c0-22.904-18.745-41.643-41.64-41.643h-204.45v-83.353zM285.306 1966.325c.523.02 1.047.033 1.575.033h1368.153c.528 0 1.053-.013 1.579-.033h127.08v83.354H158.224v-83.354h127.082zm963.405-949.08v.002c0 22.904 18.739 41.643 41.643 41.643h131.52v289.737h-901.83V451.056h901.83v524.547h-131.52c-22.905-.001-41.643 18.738-41.643 41.642zm173.162-649.477h-901.83V83.321h901.83v284.447zm-901.83 1064.147h901.83v284.447h-901.83v-284.447z"/></symbol><symbol viewBox="0 0 512 449.973" id="download_(1)" xmlns="http://www.w3.org/2000/svg"><path d="M498.966 308.932c-7.197 0-13.034 5.837-13.034 13.034v49.804c0 28.747-23.388 52.135-52.135 52.135H78.203c-28.747 0-52.135-23.388-52.135-52.135v-49.804c0-7.197-5.835-13.034-13.034-13.034S0 314.768 0 321.966v49.804c0 43.121 35.082 78.203 78.203 78.203h355.594c43.121 0 78.203-35.082 78.203-78.203v-49.804c0-7.198-5.835-13.034-13.034-13.034z"/><path d="M419.833 360.286H92.167c-7.197 0-13.034 5.837-13.034 13.034s5.835 13.034 13.034 13.034h327.665c7.199 0 13.034-5.835 13.034-13.034 0-7.197-5.835-13.034-13.033-13.034zm-31.914-183.37c-4.795-5.367-13.034-5.834-18.404-1.038l-100.482 89.765V13.034C269.033 5.837 263.198 0 255.999 0c-7.197 0-13.034 5.835-13.034 13.034v252.609l-100.482-89.764c-5.367-4.796-13.607-4.328-18.404 1.038-4.794 5.369-4.331 13.609 1.037 18.404l109.174 97.527a32.496 32.496 0 0021.708 8.292 32.517 32.517 0 0021.708-8.289l109.174-97.53c5.37-4.798 5.834-13.038 1.039-18.405z"/></symbol><symbol viewBox="0 0 384.002 512" id="elevator" xmlns="http://www.w3.org/2000/svg"><path d="M312 96H24c-4.424 0-8 3.576-8 8v400c0 4.424 3.576 8 8 8s8-3.576 8-8V112h272v392c0 4.424 3.576 8 8 8s8-3.576 8-8V104c0-4.424-3.576-8-8-8z"/><path d="M288 120H48c-4.424 0-8 3.576-8 8v376c0 4.424 3.576 8 8 8s8-3.576 8-8V136h224v368c0 4.424 3.576 8 8 8s8-3.576 8-8V128c0-4.424-3.576-8-8-8zm77.656 138.344a7.991 7.991 0 00-11.312 0l-16 16a7.991 7.991 0 000 11.312c1.56 1.56 3.608 2.344 5.656 2.344s4.096-.784 5.656-2.344l16-16a7.991 7.991 0 000-11.312z"/><path d="M381.656 274.344l-16-16a7.991 7.991 0 00-11.312 0 7.991 7.991 0 000 11.312l16 16c1.56 1.56 3.608 2.344 5.656 2.344s4.096-.784 5.656-2.344a7.991 7.991 0 000-11.312zm0 48a7.991 7.991 0 00-11.312 0l-16 16a7.991 7.991 0 000 11.312c1.56 1.56 3.608 2.344 5.656 2.344s4.096-.784 5.656-2.344l16-16a7.991 7.991 0 000-11.312z"/><path d="M365.656 338.344l-16-16a7.991 7.991 0 00-11.312 0 7.991 7.991 0 000 11.312l16 16c1.56 1.56 3.608 2.344 5.656 2.344s4.096-.784 5.656-2.344a7.991 7.991 0 000-11.312zM168 120c-4.424 0-8 3.576-8 8v376c0 4.424 3.576 8 8 8s8-3.576 8-8V128c0-4.424-3.576-8-8-8z"/><path d="M328 496H8c-4.424 0-8 3.576-8 8s3.576 8 8 8h320c4.424 0 8-3.576 8-8s-3.576-8-8-8zM168 0c-39.704 0-72 32.296-72 72 0 4.424 3.576 8 8 8s8-3.576 8-8c0-30.872 25.128-56 56-56s56 25.128 56 56c0 4.424 3.576 8 8 8s8-3.576 8-8c0-39.704-32.296-72-72-72z"/><path d="M232 64H104c-4.424 0-8 3.576-8 8s3.576 8 8 8h128c4.424 0 8-3.576 8-8s-3.576-8-8-8z"/><path d="M168 32c-4.424 0-8 3.576-8 8v32c0 4.424 3.576 8 8 8s8-3.576 8-8V40c0-4.424-3.576-8-8-8z"/></symbol><symbol viewBox="0 0 318.987 423.271" id="floor" xmlns="http://www.w3.org/2000/svg"><path d="M236.653 51.786c0 4.756-1.37 6.708-3.639 9.942-1.219 1.736-2.599 3.703-3.768 6.191a7.5 7.5 0 0013.579 6.376c.615-1.312 1.474-2.535 2.468-3.951 2.685-3.825 6.36-9.064 6.36-18.558s-3.677-14.733-6.361-18.558c-2.269-3.234-3.639-5.186-3.639-9.941 0-4.754 1.37-6.705 3.639-9.938.385-.549.77-1.097 1.146-1.657 2.314-3.435 1.406-8.096-2.029-10.411s-8.096-1.406-10.41 2.029c-.324.48-.654.95-.984 1.421-2.685 3.825-6.361 9.063-6.361 18.556 0 9.494 3.677 14.733 6.36 18.558 2.269 3.233 3.639 5.185 3.639 9.941zm-92.16 0c0 4.756-1.37 6.708-3.639 9.942-1.218 1.736-2.599 3.703-3.767 6.191a7.5 7.5 0 0013.577 6.377c.616-1.312 1.475-2.535 2.468-3.951 2.685-3.825 6.361-9.064 6.361-18.558s-3.676-14.733-6.361-18.558c-2.27-3.234-3.639-5.186-3.639-9.941 0-4.754 1.37-6.706 3.639-9.939.385-.548.77-1.097 1.146-1.656a7.5 7.5 0 00-2.03-10.411 7.5 7.5 0 00-10.411 2.029c-.323.48-.654.95-.984 1.42-2.685 3.825-6.361 9.063-6.361 18.556 0 9.494 3.676 14.733 6.361 18.558 2.271 3.233 3.64 5.185 3.64 9.941zm-92.16 0c0 4.756-1.37 6.708-3.639 9.942-1.218 1.736-2.599 3.703-3.767 6.191a7.5 7.5 0 0013.577 6.377c.616-1.312 1.475-2.535 2.468-3.951 2.685-3.825 6.361-9.064 6.361-18.558s-3.676-14.733-6.361-18.558c-2.27-3.234-3.639-5.186-3.639-9.941s1.37-6.707 3.639-9.94c.385-.548.769-1.096 1.146-1.655a7.501 7.501 0 00-12.44-8.382c-.323.48-.653.949-.983 1.419-2.685 3.825-6.362 9.064-6.362 18.558s3.676 14.733 6.361 18.558c2.27 3.232 3.639 5.184 3.639 9.94zm246.654 60.997c-8.375 0-15.553 5.18-18.528 12.5h-11.972c-4.143 0-7.5 3.358-7.5 7.5s3.357 7.5 7.5 7.5h11.972c2.974 7.32 10.152 12.5 18.528 12.5 11.028 0 20-8.972 20-20s-8.972-20-20-20zm0 25c-2.757 0-5-2.243-5-5s2.243-5 5-5 5 2.243 5 5-2.243 5-5 5zm-5 246.96v-11.972c0-4.142-3.357-7.5-7.5-7.5s-7.5 3.358-7.5 7.5v11.972c-7.32 2.974-12.5 10.153-12.5 18.528 0 11.028 8.972 20 20 20s20-8.972 20-20c0-8.376-5.18-15.554-12.5-18.528zm-7.5 23.527c-2.757 0-5-2.243-5-5s2.243-5 5-5 5 2.243 5 5-2.243 5-5 5zm-85.429-267.987h36.115c4.143 0 7.5-3.358 7.5-7.5s-3.357-7.5-7.5-7.5h-36.115c-4.143 0-7.5 3.358-7.5 7.5s3.357 7.5 7.5 7.5zM129.5 254.277H93.385a7.5 7.5 0 000 15H129.5a7.5 7.5 0 000-15zm7.259-56.997a7.5 7.5 0 007.5 7.5h36.115c4.143 0 7.5-3.358 7.5-7.5s-3.357-7.5-7.5-7.5h-36.115a7.5 7.5 0 00-7.5 7.5zm59.954 56.997h-36.114a7.5 7.5 0 000 15h36.114c4.143 0 7.5-3.358 7.5-7.5s-3.357-7.5-7.5-7.5zm86.019-7.866a7.49 7.49 0 009.412-4.89 39.733 39.733 0 001.843-11.992c0-10.871-4.529-21.393-12.426-28.869a7.5 7.5 0 10-10.313 10.893c4.99 4.724 7.738 11.108 7.738 17.976A24.76 24.76 0 01277.84 237a7.502 7.502 0 004.892 9.411zm-71.259-56.631c-4.143 0-7.5 3.358-7.5 7.5s3.357 7.5 7.5 7.5h36.114c4.143 0 7.5-3.358 7.5-7.5s-3.357-7.5-7.5-7.5h-36.114zm50.092 63.396c-2.36.73-4.826 1.1-7.327 1.1h-26.425c-4.143 0-7.5 3.358-7.5 7.5s3.357 7.5 7.5 7.5h26.425c4.005 0 7.961-.596 11.759-1.77a7.5 7.5 0 00-4.432-14.33zm14.126 92.995a7.498 7.498 0 0010.245 2.745 7.5 7.5 0 002.745-10.246c-7.087-12.273-20.285-19.897-34.443-19.897h-2.307c-4.143 0-7.5 3.358-7.5 7.5s3.357 7.5 7.5 7.5h2.307c8.817 0 17.037 4.751 21.453 12.398zM59.13 132.783a7.5 7.5 0 007.5 7.5h36.115a7.5 7.5 0 000-15H66.63a7.5 7.5 0 00-7.5 7.5zm10.656 128.994a7.5 7.5 0 00-7.5-7.5H39.748a39.458 39.458 0 00-16.244 3.463 7.5 7.5 0 006.135 13.688 24.563 24.563 0 0110.109-2.15h22.537a7.502 7.502 0 007.501-7.501zm-44.759 52.145C18.655 309.197 15 301.945 15 294.026c0-1.542.142-3.085.422-4.584a7.499 7.499 0 00-5.994-8.75 7.494 7.494 0 00-8.75 5.994A40.04 40.04 0 000 294.027c0 12.531 6.016 24.474 16.092 31.945a7.465 7.465 0 004.461 1.476 7.5 7.5 0 004.474-13.526zM6.772 161.986a7.5 7.5 0 002.363.384 7.502 7.502 0 007.117-5.14c2.971-8.952 10.923-15.522 20.259-16.738a7.5 7.5 0 00-1.936-14.874c-15.007 1.954-27.788 12.508-32.559 26.887a7.501 7.501 0 004.756 9.481zm79.632 156.787H50.289a7.5 7.5 0 000 15h36.115a7.5 7.5 0 000-15zm67.214 0h-36.115a7.5 7.5 0 000 15h36.115a7.5 7.5 0 000-15zm-19.774-178.49h36.114c4.143 0 7.5-3.358 7.5-7.5s-3.357-7.5-7.5-7.5h-36.115a7.5 7.5 0 10.001 15zM69.545 197.28a7.5 7.5 0 007.5 7.5h36.115a7.5 7.5 0 000-15H77.045a7.5 7.5 0 00-7.5 7.5zm-23.599-7.5h-6.197c-7.858 0-15.077-3.61-19.804-9.904a7.5 7.5 0 00-11.994 9.008c7.588 10.102 19.178 15.896 31.798 15.896h6.197a7.5 7.5 0 000-15zm174.886 128.993h-36.115c-4.143 0-7.5 3.358-7.5 7.5s3.357 7.5 7.5 7.5h36.115c4.143 0 7.5-3.358 7.5-7.5s-3.357-7.5-7.5-7.5z"/></symbol><symbol viewBox="0 0 512 343.706" id="gate" xmlns="http://www.w3.org/2000/svg"><path d="M263.539 71.64c0 4.164-3.375 7.539-7.539 7.539s-7.539-3.375-7.539-7.539 3.375-7.539 7.539-7.539 7.539 3.375 7.539 7.539zm-36.641-48.547a56.395 56.395 0 0158.203 0 7.5 7.5 0 007.724-12.86c-22.715-13.645-50.934-13.645-73.648 0-3.551 2.133-4.699 6.742-2.566 10.293s6.737 4.7 10.287 2.567zm51.981 24.957a7.506 7.506 0 00-2.57-10.293 39.383 39.383 0 00-40.617 0 7.502 7.502 0 007.723 12.863 24.41 24.41 0 0125.172 0 7.502 7.502 0 0010.292-2.57zm217.605-23.957h-16.031c-8.559 0-15.516 6.957-15.516 15.516v24.563h-17.066V47.624a7.5 7.5 0 00-10.285-6.965l-160.32 64.129a7.503 7.503 0 00-4.715 6.965v224.453a7.495 7.495 0 003.293 6.207 7.491 7.491 0 006.992.754l160.32-64.129a7.499 7.499 0 004.715-6.961v-16.551h17.066v32.582c0 4.141 3.355 7.5 7.5 7.5H504.5c4.141 0 7.5-3.359 7.5-7.5v-248.5c0-8.558-6.961-15.515-15.516-15.515zm-16.546 15.515c0-.285.23-.516.516-.516h16.031c.285 0 .516.23.516.516v24.563h-17.063V39.608zM351.676 91.179l17.066-6.828v208.297l-17.066 6.828V91.179zm-15 214.297l-17.063 6.824V104.003l17.063-6.824v208.297zm-49.129-188.645l17.066-6.828V318.3l-17.066 6.824V116.831zm145.324 150.168l-17.063 6.824V127.784c0-4.145-3.359-7.5-7.5-7.5a7.496 7.496 0 00-7.5 7.5v152.039l-17.066 6.824V78.351l17.066-6.824v24.191c0 4.141 3.355 7.5 7.5 7.5 4.141 0 7.5-3.359 7.5-7.5V65.526l17.063-6.824v208.297zm15-26.473V79.171h17.063v161.355h-17.063zm32.067 40.082V79.171H497v201.438h-17.062zm-245.2-175.82L74.414 40.659a7.48 7.48 0 00-6.988.754 7.498 7.498 0 00-3.297 6.211v16.547H47.063V39.604c0-8.555-6.957-15.516-15.516-15.516H15.516C6.961 24.093 0 31.05 0 39.608v248.5c0 4.141 3.359 7.5 7.5 7.5h32.063c4.145 0 7.5-3.359 7.5-7.5v-32.582h17.066v16.547a7.504 7.504 0 004.715 6.965l160.32 64.129a7.518 7.518 0 006.992-.754 7.504 7.504 0 003.293-6.211V111.753a7.495 7.495 0 00-4.711-6.965zm-59.414-7.609l17.063 6.824V312.3l-17.063-6.824V97.179zm-15 202.297l-17.066-6.828V84.351l17.066 6.828v208.297zM15.516 39.093h16.031c.285 0 .516.23.516.516v24.563H15V39.608c0-.285.23-.515.516-.515zm16.547 241.515H15V79.171h17.063v201.437zm15-40.082V79.171h17.066v161.355H47.063zM79.129 58.702l17.063 6.824v150.438c0 4.141 3.359 7.5 7.5 7.5 4.145 0 7.5-3.359 7.5-7.5V71.526l17.066 6.824v208.297l-17.066-6.824v-31.801c0-4.141-3.355-7.5-7.5-7.5a7.501 7.501 0 00-7.5 7.5v25.801l-17.063-6.828V58.702zm145.324 266.426l-17.066-6.828V110.003l17.066 6.828v208.297z"/></symbol><symbol viewBox="0 0 512 512.001" id="guitar" xmlns="http://www.w3.org/2000/svg"><path d="M14.121 176.801c3.887 1.871 8.285 2.816 12.992 2.816 2.695 0 5.492-.309 8.355-.934 17.191-3.75 26.887-16.961 23.582-32.129v-.004L40.14 59.855l79.508-17.344 14.016 64.25c-4.477-.848-9.516-.73-14.949.453-17.574 3.832-27.184 16.508-23.906 31.535 2.762 12.664 13.199 20.313 26.574 20.313 2.645 0 5.41-.301 8.25-.918 17.191-3.75 26.891-16.965 23.582-32.133v-.004l-25.199-115.53C126.453 3.305 119.34-1.257 112.161.309L29.367 18.367a13.23 13.23 0 00-8.363 5.809 13.207 13.207 0 00-1.809 10.027L39.5 127.305c-4.477-.848-9.52-.734-14.949.449-7.855 1.715-14.301 5.219-18.633 10.129-5.141 5.828-7.016 13.43-5.273 21.406 1.73 7.934 6.515 14.152 13.476 17.512zm112.313-33.313c-3.41.742-14.723 2.375-16.969-7.934-1.988-9.109 6.945-12.484 12.449-13.684 1.848-.402 3.832-.684 5.766-.684 4.918 0 9.523 1.809 10.879 8.016v.004c2.25 10.306-8.711 13.536-12.125 14.282zM113.719 15.32l2.734 12.535-79.508 17.344-2.734-12.531 79.508-17.348zM17.168 147.809c2.176-2.465 5.934-4.383 10.582-5.398 1.848-.402 3.832-.684 5.766-.684 4.918 0 9.523 1.813 10.879 8.016v.004c2.246 10.309-8.711 13.539-12.125 14.281-4.48.977-8.613.715-11.637-.742-2.832-1.363-4.578-3.719-5.332-7.191-.738-3.376-.145-6.009 1.867-8.286zm493.695 227.433a13.235 13.235 0 00-7.363-7.047L424.504 337.5c-6.848-2.66-14.574.746-17.234 7.59l-34.527 88.879c-3.313-3.262-7.59-5.973-12.684-7.953-7.496-2.91-14.801-3.551-21.129-1.852-7.504 2.016-13.262 7.32-16.219 14.93-2.941 7.57-2.387 15.398 1.559 22.039 3.465 5.832 9.258 10.457 16.754 13.367 4.512 1.754 8.941 2.594 13.117 2.594 11.008 0 20.215-5.855 24.293-16.348l32.133-82.711 75.852 29.473-23.84 61.363c-3.313-3.258-7.586-5.969-12.684-7.949-16.766-6.516-31.777-1.258-37.348 13.078-2.941 7.57-2.387 15.395 1.563 22.039 3.465 5.832 9.258 10.453 16.75 13.367 4.512 1.75 8.945 2.594 13.121 2.594 11.008 0 20.215-5.859 24.289-16.352l42.82-110.219a13.235 13.235 0 00-.227-10.187zm-164.41 85.274c-4.277-1.66-7.578-4.16-9.289-7.043-1.605-2.707-1.762-5.633-.473-8.945 1.25-3.223 3.199-5.086 6.133-5.875 1.027-.277 2.164-.414 3.379-.414 2.535 0 5.426.594 8.422 1.762 4.379 1.699 7.715 4.125 9.398 6.832 1.563 2.512 1.695 5.207.426 8.48-3.82 9.832-14.738 6.468-17.996 5.203zm69.543-96.465l4.645-11.957 75.855 29.473-4.645 11.957-75.855-29.473zm20.293 131.371c-4.277-1.66-7.574-4.164-9.285-7.047-1.609-2.703-1.762-5.629-.477-8.941 1.891-4.863 5.637-6.34 9.492-6.34 3.031 0 6.133.914 8.441 1.813 4.379 1.699 7.715 4.125 9.398 6.832 1.563 2.512 1.695 5.207.426 8.477-3.819 9.835-14.737 6.472-17.995 5.206zM220.27 477.699c-46.117 33.516-116.301 22.551-163.258-25.504-27.387-28.027-42.695-64.809-41.988-100.91.563-28.848 11.516-54.805 30.84-73.094 13.762-13.008 31.313-21.781 50.758-25.375 26.422-4.879 49.816-17.637 67.652-36.891 2.816-3.039 2.637-7.785-.402-10.598a7.494 7.494 0 00-10.598.402c-15.629 16.867-36.156 28.047-59.375 32.336-22.297 4.117-42.469 14.223-58.344 29.227C13.285 288.37.668 318.093.028 350.991c-.785 40.098 16.078 80.805 46.258 111.688C77.848 494.98 119.102 512 158.313 512c25.543 0 50.227-7.23 70.773-22.164a7.5 7.5 0 00-8.816-12.137z"/><path d="M349.789 326.887c15.676-15.68 23.168-35.879 21.656-58.418-1.195-17.887-7.984-36.891-19.676-55.293l47.863-47.863c2.93-2.93 2.93-7.68.004-10.605-2.93-2.93-7.68-2.93-10.605 0L256.32 287.414c-2.855-7.078-7.125-13.578-12.684-19.137s-12.055-9.832-19.133-12.684L380.715 99.371l31.824 31.824-.887.887a7.496 7.496 0 000 10.605 7.473 7.473 0 005.305 2.195c1.918 0 3.84-.73 5.301-2.195l1.898-1.895c1.191.375 2.438.574 3.703.574.129 0 .258-.004.387-.008a12.449 12.449 0 008.93-4.207l7.961-9.039 8.535 8.535c1.465 1.465 3.387 2.199 5.305 2.199s3.84-.734 5.305-2.199a7.496 7.496 0 000-10.605l-9.211-9.211 12.527-14.227 8.914 8.914c1.465 1.465 3.387 2.195 5.305 2.195s3.84-.73 5.305-2.195a7.501 7.501 0 000-10.609l-9.59-9.586 12.434-14.117 6.457 6.461c1.465 1.465 3.387 2.195 5.305 2.195s3.84-.73 5.305-2.195a7.501 7.501 0 000-10.609l-7.137-7.133 9-10.219c4.32-4.906 4.086-12.371-.535-16.996L473.285 3.637c-4.625-4.625-12.09-4.859-16.996-.539l-10.223 9.004-7.141-7.137a7.501 7.501 0 00-10.601 10.613l6.461 6.457-14.113 12.426-9.676-9.672a7.496 7.496 0 00-10.605 0 7.496 7.496 0 000 10.605l9.004 9-14.23 12.531-9.207-9.207c-2.926-2.93-7.676-2.93-10.605 0s-2.93 7.68 0 10.605l8.535 8.535-9.043 7.961a12.471 12.471 0 00-4.203 8.93 12.4 12.4 0 00.527 3.957l-72.348 72.352c-42.164-27.094-84.625-27.254-111.879.004-7.016 7-12.387 13.836-16.422 20.895a7.497 7.497 0 002.785 10.234 7.495 7.495 0 0010.235-2.789c3.367-5.883 7.941-11.68 14.004-17.73 29.813-29.816 70.656-11.602 90.375.289l-80.645 80.648a58.243 58.243 0 00-4.293-.176c-15.355 0-29.797 5.98-40.656 16.844-10.863 10.859-16.844 25.301-16.844 40.66s5.98 29.801 16.844 40.66c10.859 10.859 25.301 16.844 40.656 16.844 15.359 0 29.801-5.984 40.66-16.844s16.84-25.301 16.84-40.66c0-1.441-.07-2.871-.176-4.293l80.551-80.551c11.766 19.824 29.516 61-1.676 92.191a73.165 73.165 0 01-16.668 12.492c-34.102 18.652-56.66 49.352-63.516 86.441-2.855 15.484-8.824 29.484-17.746 41.617-2.453 3.34-1.738 8.035 1.598 10.488a7.47 7.47 0 004.438 1.457 7.484 7.484 0 006.047-3.059c10.277-13.977 17.145-30.051 20.414-47.781 6.02-32.566 25.895-59.559 55.965-76.008a88.181 88.181 0 0020.077-15.044zM464.387 15.953l31.652 31.652-68.309 77.575-40.91-40.918 77.567-68.309zM233.031 338.988c-8.027 8.027-18.699 12.449-30.051 12.449s-22.023-4.422-30.051-12.449-12.449-18.699-12.449-30.051c0-11.355 4.422-22.027 12.449-30.055 8.023-8.027 18.699-12.449 30.051-12.449s22.023 4.422 30.051 12.449c8.023 8.027 12.445 18.699 12.445 30.055.001 11.352-4.417 22.024-12.445 30.051zm-169.226-4.172c-10.121 10.121-10.121 26.594 0 36.715l76.582 76.586c5.063 5.059 11.711 7.59 18.355 7.59 6.648 0 13.297-2.531 18.359-7.594 10.121-10.121 10.121-26.59 0-36.715l-76.582-76.586c-4.902-4.902-11.422-7.602-18.355-7.602s-13.453 2.704-18.359 7.606zm102.687 87.192c4.273 4.273 4.273 11.227 0 15.5-4.27 4.273-11.223 4.277-15.5 0l-76.578-76.582c-4.273-4.273-4.273-11.23 0-15.504a10.895 10.895 0 017.75-3.211c2.926 0 5.68 1.141 7.75 3.211l76.578 76.586z"/><path d="M376.996 158.336a7.48 7.48 0 005.305-2.195c2.926-2.93 2.926-7.68 0-10.605l-16-16.004a7.501 7.501 0 10-10.609 10.609l16 16a7.48 7.48 0 005.304 2.195zm-22.168 22.168c1.922 0 3.84-.73 5.305-2.195 2.93-2.93 2.93-7.68 0-10.605l-16-16.004a7.501 7.501 0 00-10.605 10.609l16 16a7.47 7.47 0 005.3 2.195zm-22.164 22.168a7.501 7.501 0 005.301-12.804l-16-16c-2.93-2.93-7.676-2.93-10.605 0s-2.93 7.68 0 10.605l16 16.004a7.473 7.473 0 005.304 2.195zm-22.168 22.168a7.501 7.501 0 005.305-12.804l-16-16c-2.93-2.93-7.68-2.93-10.605 0-2.93 2.93-2.93 7.68 0 10.605l16 16.004a7.47 7.47 0 005.3 2.195zm-43.469-6.637a7.501 7.501 0 000 10.609l16 16a7.473 7.473 0 005.305 2.195 7.501 7.501 0 005.301-12.804l-16-16a7.497 7.497 0 00-10.606 0zm150.594-141.66c-2.93-2.93-7.676-2.93-10.605 0s-2.93 7.676 0 10.605 7.676 2.93 10.605 0 2.93-7.675 0-10.605zm17.988 17.832A7.501 7.501 0 10425 104.982a7.501 7.501 0 0010.609-10.607zM440.129 54c-2.93-2.93-7.68-2.93-10.605 0-2.93 2.93-2.93 7.68 0 10.605a7.496 7.496 0 0010.605 0c2.93-2.925 2.93-7.675 0-10.605zm18 17.852c-2.93-2.93-7.68-2.93-10.605 0-2.93 2.93-2.93 7.68 0 10.605a7.496 7.496 0 0010.605 0 7.496 7.496 0 000-10.605zm4.519-40.372c-2.93-2.93-7.676-2.93-10.605 0s-2.93 7.676 0 10.605 7.676 2.93 10.605 0 2.93-7.675 0-10.605zm17.997 17.848c-2.93-2.93-7.68-2.93-10.605 0a7.496 7.496 0 000 10.605c2.926 2.93 7.676 2.93 10.605 0s2.929-7.679 0-10.605z"/></symbol><symbol viewBox="0 0 51 39" id="heating2" xmlns="http://www.w3.org/2000/svg"><path d="M.075 38.152c0 .469.379.848.847.848h40.677a.847.847 0 00.848-.848v-.861h7.631a.846.846 0 00.847-.848.846.846 0 00-.847-.848h-7.631v-.845h7.631a.846.846 0 00.847-.848.845.845 0 00-.847-.847h-7.631V6.788h7.631a.846.846 0 00.847-.848.846.846 0 00-.847-.848h-.846v-.845h.846a.846.846 0 100-1.695h-2.543v-.857h.849a.847.847 0 100-1.695h-3.392a.846.846 0 100 1.695h.848v.857h-3.393v-.001a.847.847 0 00-.848-.848h-5.056c-.008 0-.014-.003-.021-.003-.006 0-.013.003-.02.003h-5.045c-.007 0-.013-.003-.02-.003-.007 0-.014.003-.02.003h-5.046c-.007 0-.013-.003-.02-.003-.007 0-.013.003-.02.003h-5.045c-.008 0-.014-.003-.021-.003-.006 0-.013.003-.02.003H16.2c-.007 0-.013-.003-.02-.003-.007 0-.014.003-.02.003h-5.046c-.007 0-.013-.003-.02-.003-.007 0-.013.003-.02.003H6.03c-.008 0-.014-.003-.021-.003-.006 0-.013.003-.02.003H.922a.847.847 0 00-.847.848v35.601zM45.841 4.247h1.695v.845h-1.695v-.845zm-3.394 0h1.7v.845h-1.7v-.845zm-5.077-.848h3.381v33.906H37.37V3.399zm-5.086 0h3.391v33.906h-3.391V3.399zm-5.085 0h3.39v33.906h-3.39V3.399zm-5.086 0h3.39v33.906h-3.39V3.399zm-5.086 0h3.391v33.906h-3.391V3.399zm-5.084 0h3.39v33.906h-3.39V3.399zm-5.086 0h3.391v33.906H6.857V3.399zm-5.087 0h3.392v33.906H1.77V3.399z"/></symbol><symbol id="house-plans" viewBox="0 0 174 153.282" xmlns="http://www.w3.org/2000/svg"><style>.axst0{fill:#000002}</style><path class="axst0" d="M171.5 153.282H2.5a2.5 2.5 0 01-2.5-2.5V2.5A2.5 2.5 0 012.5 0h151.672a2.5 2.5 0 012.5 2.5v73.927H171.5a2.5 2.5 0 012.5 2.5v71.855a2.5 2.5 0 01-2.5 2.5zm-126-5H169V81.427h-51.701a2.5 2.5 0 01-2.5-2.5v-4.813h-6.172a2.5 2.5 0 110-5h6.172V52.947a2.5 2.5 0 115 0v23.48h14.529V5h-14.529v18.28a2.5 2.5 0 11-5 0v-7.667H75.5a2.5 2.5 0 01-2.5-2.5V5h-9.127v11.613a2.5 2.5 0 11-5 0V5h-2.706v6.447a2.5 2.5 0 01-2.5 2.5h-.779a8.293 8.293 0 01.696 3.333v6.5c0 4.595-3.738 8.333-8.333 8.333s-8.333-3.738-8.333-8.333v-6.5a8.29 8.29 0 01.696-3.333h-.779a2.5 2.5 0 01-2.5-2.5V5H25.25v33.113a2.5 2.5 0 01-2.5 2.5H19.5v14.038h39.373V43.113a2.5 2.5 0 115 0v26h6.172a2.5 2.5 0 110 5h-6.172v12.25a2.5 2.5 0 11-5 0V59.651H23.167v71.796H43a2.5 2.5 0 012.5 2.5v14.335zm-40.5 0h35.5v-11.835H20.667a2.5 2.5 0 01-2.5-2.5v-43.5H5v57.835zm0-62.835h13.167V59.651H5v25.796zm143-9.02h3.672V5H148v71.427zm-8.672 0H143V5h-3.672v71.427zM5 53.78h9.5V40.613H5V53.78zm12-18.167h3.25V5H5v30.613h12zm28.25-21.666a3.337 3.337 0 00-3.333 3.333v6.5c0 1.838 1.495 3.333 3.333 3.333s3.333-1.495 3.333-3.333v-6.5a3.337 3.337 0 00-3.333-3.333zM78 10.613h36.799V5H78v5.613zM45.25 8.947h5.917V5H39.333v3.947h5.917zm54.706 131.916H79.911a2.5 2.5 0 01-2.5-2.5V92.551a2.5 2.5 0 012.5-2.5h20.045a2.5 2.5 0 012.5 2.5v45.813a2.5 2.5 0 01-2.5 2.499zm-17.545-5h15.045v-2.5h-8.873a2.5 2.5 0 01-2.5-2.5v-30.812a2.5 2.5 0 012.5-2.5h8.873v-2.5H82.411v40.812zm8.672-7.5h6.373v-25.812h-6.373v25.812zm63.089 11a2.5 2.5 0 01-2.5-2.5v-43a2.5 2.5 0 115 0v7.756a2.5 2.5 0 012.328 2.494v22.5a2.5 2.5 0 01-2.328 2.494v7.756a2.5 2.5 0 01-2.5 2.5zm-24.101-3c-7.951 0-14.179-8.565-14.179-19.5s6.228-19.5 14.179-19.5 14.179 8.565 14.179 19.5-6.228 19.5-14.179 19.5zm0-34c-4.976 0-9.179 6.64-9.179 14.5s4.204 14.5 9.179 14.5c4.975 0 9.179-6.64 9.179-14.5s-4.204-14.5-9.179-14.5z"/></symbol><symbol id="insurance" viewBox="0 0 1357 1754" xmlns="http://www.w3.org/2000/svg"><style>.ayst0{fill:#ffcf00}.ayst1{fill:#207bbb}</style><g id="ayСлой_x0020_1"><g id="ay_1421051216"><path class="ayst0" d="M918.859 1474.89a41.53 41.53 0 012.594-5.518c16.286-35.391 24.325-73.958 24.325-112.888v-152.076a1543.326 1543.326 0 01-267.383-154.161 1543.274 1543.274 0 01-267.377 154.161v152.076c0 95.254 45.189 171.72 117.584 230.684 41.182 33.542 93.913 63.125 144.62 81.196 47.594-16.6 92.844-39.573 134.036-68.673 46.202-32.636 86.513-73.631 111.601-124.801z"/><path class="ayst1" d="M977.861 1539.62c-31.267 51.428-74.442 94.177-123.608 128.861-51.749 36.507-108.979 64.702-169.392 83.681l-.266.084-.268.076a41.718 41.718 0 01-22.986-.113l-.269-.079-.268-.087c-58.791-19.141-114.282-47.475-164.199-83.967-48.531-35.478-90.596-78.99-120.711-131.005-10.771 4.49-20.598 11.068-28.947 19.345l-.414.411c-43.564 43.192-102.17 67.834-163.598 67.722-44.717-.082-81.099-36.195-81.236-80.958-.117-38.2 9.304-75.767 27.245-109.343C9.396 1274.628-29.808 1073.2 23.042 880.15c46.748-170.754 160.42-317.764 314.534-403.789-12.655-12.642-21.303-28.42-21.303-47.835v-53.492c0-.338.009-.672.025-1.006a28.858 28.858 0 01-.025-1.104c0-21.84 12.041-36.759 30.395-47.312 19.266-11.078 46.25-18.033 71.661-22.73a259.278 259.278 0 01-38.495-64.511l-50.727-122.447c-7.065-17.052-2.06-36.731 12.295-48.335 17.852-14.43 44.099-11.637 58.547 6.168 8.883 10.829 25.709 21.365 38.35 26.646 33.601 14.04 68.788 9.845 101.574-3.82 23.51-35.345 60.002-62.332 98.967-78.179C715.223-12.662 801.896-3.594 870.808 41.45c25.676 16.783 68.685 38.446 98.883 21.967a41.66 41.66 0 0138.931-.517c20.471 10.477 28.573 35.573 18.107 56.047L956.13 257.069a260.549 260.549 0 01-28.238 43.802c28.24 4.643 58.756 11.695 80.366 23.417 19.41 10.526 32.685 25.712 32.685 48.652 0 .361-.011.719-.026 1.077.017.342.026.686.026 1.033v53.497c0 19.557-8.418 35.333-21.029 47.984 154.782 86.52 268.407 234.5 314.58 406.283 52.591 195.653 12.145 399.913-112.223 559.426 15.359 31.655 23.403 66.479 23.189 101.762-.272 44.726-36.828 80.559-81.449 80.559h-.077c-61.347 0-120.102-24.436-163.435-67.849l-1.905-1.908a83.869 83.869 0 00-20.733-15.184zM514.752 355.984a239.952 239.952 0 00103.649 23.419h107.764a239.976 239.976 0 00105.573-24.324c61.809 4.997 100.251 12.002 122.471 17.914-42.504 11.094-135.116 23.55-275.609 23.55-140.492 0-233.046-12.449-275.568-23.538 20.896-5.551 56.133-12.091 111.732-17.017l-.012-.004zm-74.95-142.459l-21.134-51.049c35.777 13.701 90.15 21.013 158.034-11.202a23.457 23.457 0 003.918-1.843c84.827-40.645 140.875-23.561 163.584-12.459l-37.285 195.893h-88.505a193.37 193.37 0 01-86.76-20.473 22.659 22.659 0 00-3.374-1.715 192.863 192.863 0 01-88.446-97.148l-.032-.004zM835.466 95.924c39.644 25.644 76.956 38.496 110.526 38.318l-47.654 93.279a192.849 192.849 0 01-80.234 82.236 22.84 22.84 0 00-4.108 2.156 192.497 192.497 0 01-59.277 18.857l38.251-200.936a23.274 23.274 0 00-8.343-22.541c-2.46-1.963-45.06-34.854-119.655-29.345 56.383-22.033 119.949-15.33 170.493 17.98v-.004zm-454.27 332.048v-12.848a449.479 449.479 0 0067.282 13.992c61.654 9.014 143.382 13.965 230.135 13.965 86.75 0 168.474-4.966 230.125-13.965a449.542 449.542 0 0067.289-13.992v12.802c-1.011 1.798-9.562 14.351-55.765 28.239-.233.07-.465.124-.691.198-59.136 17.664-146.896 27.793-240.959 27.793-78.909 0-154.116-7.177-211.778-20.21-63.333-14.321-83.284-30.866-85.638-35.974zM918.859 1474.89a41.53 41.53 0 012.594-5.518c16.286-35.391 24.325-73.958 24.325-112.888v-152.076a1543.326 1543.326 0 01-267.383-154.161 1543.274 1543.274 0 01-267.377 154.161v152.076c0 95.254 45.189 171.72 117.584 230.684 41.182 33.542 93.913 63.125 144.62 81.196 47.594-16.6 92.844-39.573 134.036-68.673 46.202-32.636 86.513-73.631 111.601-124.801zM808.614 542.433c-43.178 4.539-86.603 6.708-130.018 6.644-44.391-.066-89.245-2.349-133.383-7.059-37.431-3.993-75.873-9.812-112.382-19.532-161.771 68.205-283.106 210.476-329.432 379.667-47.079 171.95-10.212 351.043 99.388 491.493 16.187 20.745 17.838 49.687 4.078 72.12a147.904 147.904 0 00-21.833 75.455 146.966 146.966 0 00102.662-43.365l.386-.388c15.682-15.776 34.287-28.257 54.667-36.889-10.049-33.743-15.043-68.836-15.043-104.094V1177.21c0-16.65 9.921-31.699 25.216-38.274l2.03-.873c105.935-45.542 206.201-103.64 298.456-172.812 14.806-11.103 35.171-11.101 49.978-.001 92.261 69.172 192.564 127.276 298.503 172.821l2.013.866c15.294 6.576 25.216 21.624 25.216 38.274v179.291c0 36.433-5.507 72.669-16.54 107.33 16.653 8.127 31.899 18.963 45.041 32.138l1.896 1.901c27.259 27.328 64.087 42.954 102.652 43.374a148.191 148.191 0 00-18.227-69.24c-12.836-23.418-10.28-52.325 6.444-73.142l.127-.153c111.655-140.542 150.215-320.791 103.574-494.283-39.833-148.165-136.957-276.01-268.985-351.865 30.757 60.757 53.601 125.34 68.469 191.885 4.989 22.334-9.058 44.707-31.396 49.785a41.742 41.742 0 01-9.274 1.038c-19.447-.018-36.354-13.494-40.593-32.491-15.847-71.012-41.652-139.651-77.752-202.836a348.06 348.06 0 00-45.295 112.943c-4.857 22.444-27.072 36.758-49.517 31.904-22.387-4.841-36.65-27.048-31.926-49.428 8.314-39.395 22.042-77.425 40.8-112.929z"/><path class="ayst1" d="M635.088 1373.759l125.251-125.24c16.167-15.725 41.931-15.719 58.094.007 16.483 16.037 16.844 42.417.807 58.899l-154.697 154.698c-16.262 16.262-42.643 16.262-58.904 0l-68.087-68.087c-15.735-16.169-15.73-41.94.007-58.106 16.041-16.479 42.422-16.833 58.9-.79l38.629 38.619z"/></g></g></symbol><symbol viewBox="0 0 54 60" id="lock" xmlns="http://www.w3.org/2000/svg"><path d="M33 16c0-3.309-2.691-6-6-6s-6 2.691-6 6v5h-5v19h22V21h-5v-5zm-10 0c0-2.206 1.794-4 4-4s4 1.794 4 4v5h-8v-5zm13 7v15H18V23h18z"/><path d="M26 32.858V35a1 1 0 102 0v-2.142c1.72-.447 3-1.999 3-3.858 0-2.206-1.794-4-4-4s-4 1.794-4 4c0 1.859 1.28 3.411 3 3.858zM27 27c1.103 0 2 .897 2 2s-.897 2-2 2-2-.897-2-2 .897-2 2-2z"/><path d="M27 0C12.112 0 0 12.112 0 27c0 14.109 10.881 25.719 24.691 26.895l-4.398 4.398a.999.999 0 101.414 1.414l5.999-5.999a1.001 1.001 0 000-1.416l-5.999-5.999a.999.999 0 10-1.414 1.414l4.164 4.164C11.862 50.593 2 39.927 2 27 2 13.215 13.215 2 27 2s25 11.215 25 25c0 6.633-2.57 12.881-7.238 17.593a1 1 0 101.421 1.408A26.838 26.838 0 0054 27C54 12.112 41.888 0 27 0z"/></symbol><symbol id="logo" viewBox="0 0 559 183" xmlns="http://www.w3.org/2000/svg"><style>.bast0{fill:#fff}</style><path class="bast0" d="M530.789 36.606l7.549 50.422H523.24l7.549-50.422zm12.248-17.661h-22.932l-15.954 99.705h14.386l2.706-18.089h19.229l2.706 18.089h15.811l-15.952-99.705zM463.13 33.188h17.805v85.462h15.954V18.945h-49.426v99.705h15.668V33.188zM420.257 0v13.674h13.674V0h-13.674zm-21.651 0v13.674h13.675V0h-13.675zm12.107 33.188h27.063V18.945h-42.73v99.705h42.73v-14.243h-27.063v-29.2h21.508V60.963h-21.508V33.188zm-70.933 0h16.38v85.462h15.668V33.188h16.38V18.945H339.78v14.243zm-19.798 48.286v14.243c0 7.122-3.134 9.687-8.119 9.687-4.985 0-8.119-2.565-8.119-9.687v-53.84c0-7.122 3.134-9.828 8.119-9.828 4.985 0 8.119 2.706 8.119 9.828V52.56h14.812v-9.686c0-15.952-7.976-25.069-23.359-25.069s-23.359 9.116-23.359 25.069V94.72c0 15.954 7.976 25.07 23.359 25.07 15.383 0 23.359-9.116 23.359-25.07V81.474h-14.812zm-87.266-48.286v30.624h-6.125c-5.839 0-9.401-2.565-9.401-10.541v-9.828c0-7.121 2.422-10.255 7.976-10.255h7.55zm-17.092 85.461c.854-2.563 1.425-4.131 1.425-12.249V90.732c0-9.258 3.133-12.677 10.255-12.677h5.413v40.594h15.668V18.945H224.74c-16.238 0-23.217 7.549-23.217 22.932v7.834c0 10.255 3.276 16.949 10.255 20.225-7.833 3.277-10.398 10.826-10.398 21.223v15.383c0 4.843-.142 8.404-1.709 12.107h15.953zm-57.83-85.461h13.247v71.503H150.53c2.563-2.422 3.988-5.697 4.416-13.247l2.848-58.256zm36.037 85.461v-13.958h-6.837V18.945h-43.87l-3.562 72.784c-.285 5.84-1.139 9.544-3.845 12.963h-6.125v13.958h64.239zm-87.884-85.461v30.624h-6.125c-5.839 0-9.401-2.565-9.401-10.541v-9.828c0-7.121 2.422-10.255 7.976-10.255h7.55zm-17.092 85.461c.854-2.563 1.425-4.131 1.425-12.249V90.732c0-9.258 3.133-12.677 10.255-12.677h5.413v40.594h15.668V18.945H97.971c-16.238 0-23.217 7.549-23.217 22.932v7.834c0 10.255 3.276 16.949 10.255 20.225-7.833 3.277-10.398 10.826-10.398 21.223v15.383c0 4.843-.142 8.404-1.709 12.107h15.953zm-57.83-85.461h13.247v71.503h-20.51c2.563-2.422 3.988-5.697 4.416-13.247l2.847-58.256zm36.037 85.461v-13.958h-6.837V18.945h-43.87l-3.562 72.784c-.285 5.84-1.139 9.544-3.845 12.963H.009v13.958h67.053zm146.201 59.501l-8.301-17.503-2.351 4.001v13.502h-2.3v-13.552l-2.3-3.951-8.302 17.503h-2.4l9.152-19.653-8.751-15.352h2.351l10.251 18.003v-18.003h2.3v18.003l10.251-18.003h2.4l-8.7 15.303 9.051 19.703h-2.351zm19.303-30.955l-5.301 14.703-5.701 16.252h-2.501v-35.006h2.1v29.954l4.051-11.552 6.702-18.402h2.75v35.006h-2.1v-30.955zm21.554-1.951h-8.551l-.9 24.354c-.067 1.334-.184 2.458-.351 3.376-.167.917-.458 1.8-.875 2.65-.416.851-1.032 1.484-1.85 1.901-.816.417-1.842.641-3.075.675h-.45v-2.1c.933 0 1.7-.158 2.3-.475.6-.317 1.034-.816 1.301-1.5a8.55 8.55 0 00.525-1.95c.084-.617.142-1.459.175-2.526l1.05-26.504h13.052v35.006h-2.35v-32.907zm6.25 24.354v-17.903c0-2.667.643-4.809 1.926-6.426 1.284-1.617 3.192-2.425 5.726-2.425 2.601 0 4.543.8 5.826 2.4 1.284 1.601 1.926 3.751 1.926 6.451v17.903c0 2.7-.641 4.85-1.926 6.451-1.283 1.601-3.225 2.4-5.826 2.4-2.534 0-4.442-.808-5.726-2.425-1.283-1.617-1.926-3.759-1.926-6.426zm2.302-18.053v18.203c0 2.034.434 3.642 1.299 4.826.867 1.184 2.217 1.775 4.051 1.775 1.868 0 3.243-.592 4.126-1.775.884-1.184 1.325-2.791 1.325-4.826v-18.203c0-2.034-.442-3.642-1.325-4.826-.884-1.184-2.259-1.775-4.126-1.775-1.833 0-3.184.592-4.051 1.775-.866 1.184-1.299 2.792-1.299 4.826zm28.454-14.902h1.551c-.034 1.333-.517 2.374-1.451 3.125-.933.75-2.133 1.126-3.601 1.126-1.467 0-2.659-.376-3.576-1.126-.917-.75-1.392-1.792-1.425-3.125h1.599c.034.933.367 1.633 1.001 2.1.633.467 1.433.699 2.4.699 2.235.001 3.403-.932 3.502-2.799zm1.95 10.552l-11.002 30.955h-2.501v-35.006h2.1v29.954l4.402-12.452 6.351-17.502h2.75v35.006h-2.1v-30.955zM327.733 183h-2.3v-4.85H308.73V183h-2.25v-6.951h2.4c1.034-1.1 1.617-2.967 1.751-5.601l1.4-27.305h12.803v32.905h2.9V183zm-13.552-37.756l-1.301 25.204c-.167 2.734-.717 4.6-1.65 5.601h11.252v-30.805h-8.301zm17.053 24.354v-17.903c0-2.667.643-4.809 1.926-6.426 1.284-1.617 3.192-2.425 5.726-2.425 2.601 0 4.543.8 5.826 2.4 1.284 1.601 1.926 3.751 1.926 6.451v17.903c0 2.7-.641 4.85-1.926 6.451-1.283 1.601-3.225 2.4-5.826 2.4-2.534 0-4.442-.808-5.726-2.425-1.284-1.617-1.926-3.759-1.926-6.426zm2.301-18.053v18.203c0 2.034.434 3.642 1.299 4.826.867 1.184 2.217 1.775 4.051 1.775 1.868 0 3.243-.592 4.126-1.775s1.325-2.791 1.325-4.826v-18.203c0-2.034-.442-3.642-1.325-4.826-.884-1.184-2.259-1.775-4.126-1.775-1.833 0-3.184.592-4.051 1.775-.866 1.184-1.299 2.792-1.299 4.826zm35.955-4.5l-7.3 31.055h-2.301l-7.401-30.955v31.005h-2.051v-35.006h3.301l7.351 30.955 7.302-30.955h3.301v35.006h-2.201l-.001-31.105zM.038 159.597h168.11v2.1H.038zm390.872 0h168.11v2.1H390.91z" id="baСлой_x0020_1"/></symbol><symbol id="medical" viewBox="0 0 38 38" xmlns="http://www.w3.org/2000/svg"><style>.bbst0{fill:#207bbb}.bbst1{fill:#fff}</style><g id="bbСлой_x0020_1"><circle class="bbst0" cx="19" cy="19" r="19"/><path class="bbst1" d="M28.504 15.894h-6.398l.031-6.367h-6.274l.031 5.513v.854l-6.367-.031v6.274l5.513-.031h.854l-.031 6.367h6.274l-.031-5.513v-.854l6.367.031.031-6.243zm0-.854H22.96V9.496a.79.79 0 00-.792-.792h-6.336a.79.79 0 00-.792.792v5.544H9.496a.79.79 0 00-.792.792v6.336a.79.79 0 00.792.792h5.544v5.544a.79.79 0 00.792.792h6.336a.79.79 0 00.792-.792V22.96h5.544a.79.79 0 00.792-.792v-6.336c-.047-.443-.404-.792-.792-.792z"/></g></symbol><symbol viewBox="0 0 23 23" id="medical2" xmlns="http://www.w3.org/2000/svg"><path d="M22.111 8.024h-7.148l.039-7.109H7.998l.026 6.168v.941L.915 7.998v7.005l6.168-.039h.941l-.026 7.109h7.005l-.039-6.155v-.954l7.109.039.038-6.979zm0-.941h-6.194V.889A.881.881 0 0015.028 0h-7.07a.87.87 0 00-.875.889v6.194H.889A.87.87 0 000 7.959v7.07c0 .497.392.889.889.889h6.194v6.194c0 .483.379.888.876.888h7.07a.89.89 0 00.889-.889v-6.194h6.194a.89.89 0 00.889-.889v-7.07c-.053-.496-.445-.875-.89-.875z"/></symbol><symbol viewBox="0 0 2139.216 2133" id="pantry" xmlns="http://www.w3.org/2000/svg"><path d="M2055.928 2133h83.288V0H0v2133h241.857V1084.184H1897.36V2133h158.568zm-1579.271-83.288v-273.005h568.417v273.005H476.657zm-83.288-273.005V2133h1352.478v-611.429h-700.773v171.849H393.369v83.287zm734.992 273.005v-444.853h129.641v241.663h274.916v-241.663h129.64v444.853h-534.197zm321.269-444.853h-108.34v158.375h108.34v-158.375zM583.284 1929.81v-83.288h218.717v83.288H583.284zm267.147 0v-83.288h131.23v83.288h-131.23zM1897.359 166.576H158.569v1883.136H83.288V83.288h1972.641v1966.424h-75.281V166.576h-83.289zM241.857 249.864h1655.502v751.033h-187.117V644.603h-651.705V472.754H357.765v528.142H241.857V249.864zm1011.324 631.13v-83.288h-131.23v83.288h131.23zm267.146 0v-83.288H1301.61v83.288h218.717zm-461.789-153.103h568.417v273.005h-568.417V727.891zm-212.929 69.815H570.693V556.043h-129.64v444.854H975.25V556.043H845.609v241.663zM653.981 556.043v158.375h108.34V556.043h-108.34z"/></symbol><symbol id="pay2" viewBox="0 0 1754 1754" xmlns="http://www.w3.org/2000/svg"><style>.best0{fill:#207bbb}.best1{fill:#ffcf00}</style><g id="beСлой_x0020_1"><g id="be_1421061584"><path class="best0" d="M326.682 1578.661H.001v-83.327l334.111.002c4.994.088 9.943 1.078 14.345 2.822l464.009 172.512h125.472l474.971-414.997-41.848-43.524-416.12 305.652c-12.112 8.896-28.144 10.472-41.787 4.198L588.88 1372.871c-18.192-8.745-27.475-29.283-22.087-48.726 5.38-19.413 24.096-32.326 44.158-30.393l155.622 16.518 95.796-11.91v-49.041H751.73l-237.294-24.28-163.388 71.499c-5.237 2.234-10.881 3.336-16.571 3.336L0 1299.873v-83.327h325.788l165.278-70.832c6.558-2.889 13.758-4.058 20.889-3.329l245.427 25.066h145.479c23.004 0 41.664 18.66 41.664 41.664v126.243c0 21.131-15.638 39.034-36.664 41.574l-90.454 10.051 106.253 49.978 425.655-313.55c16.595-12.225 39.837-10.148 54.241 4.511l99.066 100.82c16.075 16.359 16.162 42.602-.111 58.852a42.008 42.008 0 01-2.036 1.9L980.894 1743.62c-7.613 6.654-17.356 10.38-27.475 10.38H804.967c-4.969 0-9.911-.8-14.574-2.537l-463.711-172.802z"/><circle class="best1" cx="666.669" cy="538.778" r="221.19"/><path class="best0" d="M1529.802 731.191l201.477.001v83.327H1511.94c-11.357 0-22.199-4.701-30.037-12.907L1329.66 642.216l-296.955-26.996H884.231c-22.99 0-41.669-18.588-41.714-41.587-.001-.882.02-1.764.078-2.645l9.352-142.316c1.245-18.95 15.073-34.712 33.582-38.256l142.041-29.166a36.4 36.4 0 0117.641.026l158.548 35.169 160.39-17.162 9.961 83.009-167.25 19.843a41.78 41.78 0 01-13.805-.059l-.304-.052-157.275-35.142-102.351 20.68-4.328 64.915 107.675-.001 316.179 29.276c10.143.939 19.614 5.496 26.524 12.824l150.627 156.615zm-92.323-533.643L968.177 87.258 652.094 317.109l-49.132-67.453L934.331 8.662A41.75 41.75 0 01968.314.883l.298.066 496.462 116.819c6.012 1.244 11.641 3.911 16.221 7.623l272.704 212.102-50.683 66.884-265.837-206.829z"/><path class="best0" d="M1003.92 180.148l157.423 62.97-30.855 77.557-140.252-57.264-169.678 84.536-37.52-74.205 186.744-93.373.233-.105a41.668 41.668 0 0133.905-.116z"/><path class="best0" d="M887.87 555.76l83.097 11.22-1.639 12.31c-20.187 151.603-149.64 264.581-302.526 264.452-168.226-.142-304.658-136.387-304.656-304.673.001-168.261 136.414-304.668 304.674-304.666 118.841.001 226.84 69.106 276.633 177.013l5.201 11.272-75.481 35.03-5.214-11.349c-24.601-53.54-69.024-94.703-124.272-115.16a221.223 221.223 0 00-169.266 6.44c-53.542 24.6-94.704 69.024-115.161 124.272a221.223 221.223 0 006.441 169.266c24.6 53.541 69.024 94.703 124.271 115.16a221.225 221.225 0 00169.267-6.44c68.989-31.697 116.921-96.545 126.981-171.799l1.65-12.348z"/><path class="best0" d="M657.503 473.645v39.747h29.795c10.975 0 19.874-8.898 19.874-19.874 0-10.975-8.898-19.874-19.874-19.874h-29.795zm-77.847 141.231v-36.317h33.175V427.137h74.468c36.662 0 66.382 29.72 66.382 66.382s-29.72 66.382-66.382 66.382h-29.795v18.659h79.039v36.317h-79.039v35.542H612.83v-35.542h-33.174z"/></g></g></symbol><symbol viewBox="0 0 862 762.844" id="pergola2" xmlns="http://www.w3.org/2000/svg"><path d="M839.23 253.156h5.9a16.873 16.873 0 0014.208-7.779 16.869 16.869 0 001.107-16.171L759.236 9.803A16.872 16.872 0 00743.92 0H118.084a16.869 16.869 0 00-15.314 9.803L1.553 229.206a16.89 16.89 0 001.107 16.171 16.872 16.872 0 0014.208 7.779h39.628v509.687h33.741V469.156l204.53-216h272.472l204.53 216-.001 293.687h33.741V253.156h33.721zm-692.027 0l-56.967 60.447v-60.447h56.967zM289.261 33.755h12.869l42.819 92.823-42.819 92.824h-12.157L243.528 118.72l45.733-84.965zm-63.414 46.629l-21.512-46.63 46.603.001-25.091 46.629zm211.234-46.629l42.819 92.823-42.819 92.824h-12.156l-42.82-92.824 42.82-92.824 12.156.001zm135.662 0l45.733 84.965-46.445 100.683h-12.156l-42.82-92.824 42.82-92.824h12.868zm38.323 0h46.604l-21.512 46.629-25.092-46.629zm-1.879 185.648l29.298-63.508 34.175 63.508h-63.473zm-86.469 0h-48.483l24.241-52.55 24.242 52.55zM498.477 86.304l-24.24-52.549h48.481l-24.241 52.549zM246.7 254.844L90.237 420.074v-57.269l101.744-107.962H246.7zm141.068-35.441h-48.483l24.241-52.55 24.242 52.55zM363.527 86.304l-24.241-52.549h48.483l-24.242 52.549zM252.818 219.403h-63.474l34.176-63.508 29.298 63.508zm362.488 35.441h54.719l101.744 107.968v57.27L615.306 254.844zm99.495-1.688h56.967v60.447l-56.967-60.447zm103.965-33.76l-107.788.007-54.812-101.843 38.659-83.804h38.303l85.638 185.64zM128.876 33.755h38.303l38.659 83.804-54.811 101.843-107.789-.007 85.638-185.64z"/><path d="M616.556 594.074c-9.295 0-16.87 7.575-16.87 16.878 0 9.301 7.575 16.876 16.87 16.876 9.295 0 16.87-7.575 16.87-16.876 0-9.303-7.575-16.878-16.87-16.878z"/><path d="M650.291 762.844h-33.735v-67.509h-33.735v67.509h-33.74v-67.509H312.919v67.509h-33.74v-67.509h-33.735v67.509H211.71v-67.509h-37.116c-9.315 0-16.863-7.555-16.863-16.876V543.442c0-9.321 7.549-16.876 16.863-16.876h512.813c9.314 0 16.863 7.555 16.863 16.876V678.46c0 9.321-7.548 16.876-16.863 16.876h-37.116v67.508zM312.919 594.072H191.464v-33.754h479.071v101.263h-37.043c-.026 0-.046-.006-.066-.006H565.95c-.026 0-.046.006-.066.006H296.116c-.02 0-.04-.006-.066-.006h-67.476c-.02 0-.04.006-.066.006h-37.044v-33.754h357.617c9.295 0 16.87-7.575 16.87-16.878 0-9.302-7.575-16.877-16.87-16.877L431 594.074h-52.964v-.001h-65.117z"/></symbol><symbol viewBox="0 0 45 45" id="plan" xmlns="http://www.w3.org/2000/svg"><path d="M0 0h15.894l9.101 6.853-1.052 1.396-8.632-6.501H1.748v41.504h17.469v-17.81h-7.769v-1.748h17.285v1.748h-7.769v17.81h22.288v-17.81h-8.073v-1.748h8.073V1.748H28.734V0H45v45H0z"/></symbol><symbol id="point" viewBox="0 0 182 263" xmlns="http://www.w3.org/2000/svg"><style>.bhst0{fill:#1047a9}</style><path class="bhst0" d="M91 .56c50.257 0 91 40.743 91 91 0 17.236-4.796 33.88-13.92 48.382L91 262.44 13.92 139.942C4.508 123.639 0 108.802 0 91.56c0-50.257 40.743-91 91-91z" id="bhСлой_x0020_1"/></symbol><symbol id="prime" viewBox="0 0 446 128.815" xmlns="http://www.w3.org/2000/svg"><style>.bist0{fill:#b8b8b8}</style><g id="biСлой_x0020_1"><path class="bist0" d="M132.796 102.032v14.378h8.672v12.404h-32.052V116.41h8.452V63.174h-8.452V50.77h32.235c10.3 0 17.836 2.415 22.594 7.244 4.793 4.793 7.19 10.848 7.19 18.167 0 7.225-2.378 13.335-7.134 18.349-4.757 4.995-11.544 7.502-20.343 7.502h-11.162zm0-37.541v24.04h10.154c4.557 0 7.94-1.172 10.173-3.531 2.251-2.397 3.385-5.25 3.385-8.561 0-3.33-1.281-6.147-3.824-8.472-2.506-2.323-6.293-3.476-11.398-3.476h-8.49zm42.5 64.324v-12.404h8.452V63.174h-8.452V50.77h35.545c9.716 0 16.977 2.469 21.754 7.408 4.829 4.922 7.244 11.288 7.244 19.081 0 5.764-1.756 11.032-5.25 15.824-3.496 4.793-8.177 7.427-14.07 7.886l12.076 15.404v.037h8.89v12.404h-18.184l-24.57-34.907h-.056v22.503h6.807v12.404h-30.186zm23.379-64.544v28.211h10.135c5.16 0 9.13-1.392 11.911-4.19 2.8-2.799 4.189-6.329 4.189-10.592 0-4.538-1.262-7.903-3.804-10.098-2.544-2.214-6.331-3.33-11.38-3.33h-11.051zm6.368-20.746zm4.829 85.29zm-37.101-80.13zm72.794 80.13v-12.404h8.671V63.174h-8.671V50.77h32.052v12.403h-8.453v53.237h8.453v12.404h-32.052zm16.026-85.29zm9.989 85.29zm-28.54-80.13zm39.17 80.13v-12.404h8.67V63.174h-8.67V50.77h29.417l20.983 55.158h.091l21.735-55.158h29.417v12.403h-8.671v53.237h8.671v12.404h-32.052V116.41h8.451V70.876h-.054L338.3 128.815h-10.538l-21.899-57.939h-.054v45.535h9.111v12.404h-32.71zM445.982 50.77L446 74.809h-14.947l.018-10.976h-19.448v19.648h22.832-.11v11.635h.11-22.832v20.635h19.43l.018-10.976h14.911l.018 24.04h-57.974v-12.404h8.67V63.174h-8.67V50.77h57.956zm-29.418-7.245zm22.283 85.29zm-53.127-80.13zM17.124 45.256h14.928v83.558H0V116.41h17.124V45.256zm43.119 71.153h17.124v12.404H45.315V12.877H0V.473h60.243v115.936zm52.005-96.028v13.635h-2.831V.473h11.425c3.492 0 6.244.888 8.257 2.673 2.021 1.784 3.035 4.238 3.035 7.36 0 3.153-.975 5.59-2.917 7.304-1.942 1.714-4.757 2.571-8.444 2.571h-8.525zm0-2.405h8.594c2.753 0 4.845-.653 6.291-1.966 1.447-1.305 2.163-3.129 2.163-5.465 0-2.327-.716-4.175-2.155-5.551-1.432-1.385-3.467-2.084-6.11-2.116h-8.783v15.098zm43.434 6.605h-15.23L137 34.016h-2.972L146.719.472h2.697l12.69 33.544h-2.949l-3.475-9.435zm-14.35-2.407h13.455l-6.731-18.251-6.724 18.251zm46.32-12.95c0-2.116-.763-3.774-2.28-4.994-1.518-1.219-3.688-1.824-6.495-1.824-2.43 0-4.435.645-6.016 1.942-1.581 1.289-2.375 2.933-2.375 4.923h-2.831c0-1.785.48-3.382 1.454-4.789.968-1.407 2.32-2.501 4.065-3.295C174.913.393 176.816 0 178.877 0c3.624 0 6.463.81 8.524 2.422 2.052 1.613 3.082 3.901 3.082 6.865 0 1.706-.542 3.224-1.635 4.56-1.086 1.337-2.555 2.328-4.396 2.972 4.356 1.172 6.542 3.869 6.542 8.099 0 2.901-1.093 5.229-3.287 6.967-2.187 1.738-5.135 2.603-8.831 2.603-2.241 0-4.286-.424-6.134-1.282-1.839-.848-3.231-2.005-4.167-3.452-.936-1.454-1.408-3.137-1.408-5.04h2.839c0 2.138.834 3.908 2.508 5.291 1.675 1.385 3.798 2.077 6.362 2.077 2.901 0 5.174-.645 6.818-1.927s2.461-3.004 2.461-5.174c0-2.288-.723-3.994-2.186-5.126-1.455-1.125-3.712-1.707-6.747-1.738h-4.286v-2.406h4.144c2.8-.015 4.923-.566 6.385-1.652 1.456-1.084 2.187-2.697 2.187-4.835zm14.867 11.157v13.635h-2.831V.473h11.425c3.492 0 6.244.888 8.257 2.673 2.021 1.784 3.035 4.238 3.035 7.36 0 3.153-.975 5.59-2.917 7.304-1.942 1.714-4.757 2.571-8.444 2.571h-8.525zm0-2.405h8.594c2.753 0 4.845-.653 6.291-1.966 1.447-1.305 2.163-3.129 2.163-5.465 0-2.327-.716-4.175-2.155-5.551-1.432-1.385-3.467-2.084-6.11-2.116h-8.783v15.098zm43.434 6.605h-15.23l-3.452 9.436h-2.972L236.99.473h2.697l12.69 33.544h-2.949l-3.475-9.436zm-14.35-2.407h13.455l-6.731-18.251-6.724 18.251zm48.05-19.296h-17.37v12.173h8.319c2.288 0 4.271.377 5.945 1.14 1.675.755 2.949 1.848 3.837 3.271.881 1.415 1.322 3.09 1.322 5.024 0 2.964-.991 5.291-2.972 6.99-1.982 1.691-4.718 2.54-8.226 2.54h-11.079V.473h20.224v2.405zm-17.361 14.578V31.61h8.287c2.595 0 4.624-.637 6.086-1.919 1.454-1.282 2.186-3.035 2.186-5.261 0-2.115-.708-3.805-2.123-5.055-1.407-1.251-3.388-1.888-5.936-1.92h-8.5zm54.002 1.612c0 3.082-.535 5.795-1.604 8.138-1.061 2.336-2.587 4.128-4.568 5.394-1.981 1.258-4.269 1.887-6.865 1.887-3.915 0-7.085-1.399-9.49-4.207-2.415-2.807-3.617-6.588-3.617-11.354v-3.46c0-3.059.542-5.763 1.62-8.122 1.085-2.359 2.618-4.175 4.6-5.441C298.35.637 300.631 0 303.209 0c2.58 0 4.86.621 6.833 1.864 1.974 1.25 3.492 3.011 4.57 5.283 1.076 2.273 1.635 4.907 1.682 7.903v4.018zm-2.83-3.632c0-4.041-.912-7.211-2.744-9.499-1.824-2.287-4.333-3.435-7.51-3.435-3.113 0-5.599 1.148-7.454 3.444-1.848 2.304-2.775 5.512-2.775 9.625v3.507c0 3.979.927 7.139 2.768 9.466 1.839 2.328 4.349 3.492 7.509 3.492 3.209 0 5.717-1.148 7.51-3.445 1.8-2.304 2.697-5.504 2.697-9.608v-3.547zm34.4-12.558h-11.496v31.138h-2.839V2.878h-11.472V.473h25.807v2.405zm23.996 21.703h-15.23l-3.452 9.436h-2.972L362.897.473h2.697l12.69 33.544h-2.949l-3.475-9.436zm-14.35-2.407h13.455l-6.731-18.251-6.724 18.251zm52.854 11.842h-2.854V17.928h-19.17v16.088h-2.831V.473h2.831v15.049h19.17V.473h2.854v33.543zm35.611-14.948c0 3.082-.535 5.795-1.604 8.138-1.061 2.336-2.587 4.128-4.568 5.394-1.981 1.258-4.269 1.887-6.865 1.887-3.915 0-7.085-1.399-9.49-4.207-2.415-2.807-3.617-6.588-3.617-11.354v-3.46c0-3.059.542-5.763 1.62-8.122 1.085-2.359 2.618-4.175 4.6-5.441C428.031.637 430.311 0 432.89 0c2.58 0 4.86.621 6.833 1.864 1.974 1.25 3.492 3.011 4.57 5.283 1.076 2.273 1.635 4.907 1.682 7.903v4.018zm-2.83-3.632c0-4.041-.912-7.211-2.744-9.499-1.824-2.287-4.333-3.435-7.51-3.435-3.113 0-5.598 1.148-7.454 3.444-1.848 2.304-2.775 5.512-2.775 9.625v3.507c0 3.979.927 7.139 2.768 9.466 1.839 2.328 4.349 3.492 7.509 3.492 3.209 0 5.717-1.148 7.51-3.445 1.8-2.304 2.697-5.504 2.697-9.608v-3.547z" id="bi_841998672"/></g></symbol><symbol id="scholl" viewBox="0 0 38 38" xmlns="http://www.w3.org/2000/svg"><style>.bjst0{fill:#207bbb}.bjst1{fill:#fff}</style><g id="bjСлой_x0020_1"><circle class="bjst0" cx="19" cy="19" r="19"/><path class="bjst1" d="M25.571 9.292a.375.375 0 00-.251-.267.396.396 0 00-.361.047c-.392.29-2.352 1.757-2.674 2.635a1.936 1.936 0 00.11 1.576c-.478.69-.972 1.639-1.411 2.564V9.394a.388.388 0 00-.392-.392h-3.121a.388.388 0 00-.392.392v7.653h-.071l-.667-2.596v-.008l-.612-2.258c0-.016-.008-.031-.008-.039s-.008-.008-.008-.016-.008-.016-.008-.024c-.008 0-.008-.008-.008-.016-.008-.008-.008-.008-.016-.024 0 0-.008 0-.008-.008-.008-.008-.008-.016-.016-.024 0 0-.008 0-.008-.008L13.338 9.3a.402.402 0 00-.4-.125.388.388 0 00-.282.306l-.706 3.537v.055c0 .008-.008.016 0 .024v.055c0 .016.008.031.008.047l.612 2.258.4 1.608a1.164 1.164 0 00-.627.329 1.17 1.17 0 00-.345.823c0 .51.329.949.784 1.106v7.724c0 1.082.878 1.953 1.953 1.953h7.81c1.082 0 1.953-.87 1.953-1.953v-7.724a1.175 1.175 0 00.784-1.105c0-.565-.408-1.043-.949-1.145.251-1.035.431-2.07.502-2.878a1.925 1.925 0 001.121-1.145c.321-.888-.267-3.287-.385-3.758zm-2.658 4.619c.165.125.345.227.541.306.188.063.384.102.58.11-.078.784-.259 1.749-.502 2.721h-2.235c.597-1.349 1.145-2.416 1.616-3.137zm-5.058-4.133H20.2v.902h-.776a.388.388 0 00-.392.392c0 .212.173.392.392.392h.776v.776h-.776a.393.393 0 000 .784h.776v.776h-.776a.393.393 0 000 .784h.776v.784h-.776a.388.388 0 100 .776h.776v.902h-2.345V9.778zm-4.595.643l1.608 1.89a1.803 1.803 0 01-.957.627 1.793 1.793 0 01-1.129-.063l.478-2.454zm-.345 3.302c.173.039.345.055.525.055.22 0 .447-.024.674-.086.4-.11.761-.306 1.059-.572l.408 1.529.619 2.4h-2.43l-.447-1.788-.408-1.538zm10.806 13.322c0 .651-.525 1.176-1.176 1.176h-7.81a1.172 1.172 0 01-1.168-1.176v-7.653h10.155v7.653zm.776-8.829c0 .11-.039.204-.11.282a.404.404 0 01-.274.11H13.174a.388.388 0 110-.776h10.939c.211 0 .384.172.384.384zm.729-5.434a1.165 1.165 0 01-.855.737 1.16 1.16 0 01-.651-.039 1.118 1.118 0 01-.541-.408 1.172 1.172 0 01-.157-1.098c.149-.4 1.098-1.255 1.929-1.905.228 1.035.416 2.305.275 2.713z" id="bj_810076288"/></g></symbol><symbol viewBox="0 0 15 22" id="scholl2" xmlns="http://www.w3.org/2000/svg"><path d="M14.479.675c-.019-.135-.116-.231-.251-.289a.454.454 0 00-.386.058c-.424.308-2.506 1.87-2.853 2.796a2.109 2.109 0 00.116 1.677c-.501.733-1.022 1.754-1.504 2.738V.791a.412.412 0 00-.405-.424H5.88a.428.428 0 00-.424.424v8.136h-.077L4.666 6.17v-.019L4.03 3.76c0-.019-.019-.039-.019-.058 0-.019-.019-.019-.019-.039 0-.019-.019-.019-.019-.039l-.021-.018c0-.019 0-.019-.019-.019L1.485.695C1.369.56 1.215.521 1.06.56S.79.714.752.868L0 4.647v.135c0 .019.019.039.019.039l.636 2.41.443 1.716c-.27.039-.501.154-.675.347-.231.231-.366.54-.366.868 0 .559.347 1.022.829 1.176v8.213c0 1.157.925 2.082 2.082 2.082h8.31a2.069 2.069 0 002.063-2.082v-8.213c.174-.058.347-.154.482-.289.231-.231.347-.54.347-.887a1.24 1.24 0 00-1.003-1.215c.27-1.099.463-2.198.54-3.046.54-.212.983-.656 1.195-1.234.349-.926-.288-3.49-.423-3.992zm-2.814 4.917c.174.135.366.251.578.308.193.077.405.116.617.135a25.358 25.358 0 01-.54 2.892H9.949c.636-1.446 1.214-2.583 1.716-3.335zm-5.38-4.396h2.487v.964h-.829a.396.396 0 00-.405.405c0 .231.174.424.405.424h.829v.829h-.829a.396.396 0 00-.405.405c0 .231.174.424.405.424h.829v.829h-.829a.412.412 0 00-.405.424c0 .212.174.405.405.405h.829v.829h-.829a.412.412 0 00-.405.424c0 .231.174.405.405.405h.829v.964H6.285V1.196zm-4.878.694l1.697 2.005a1.859 1.859 0 01-1.022.656c-.405.116-.81.077-1.195-.058l.52-2.603zm-.385 3.509c.193.039.366.058.559.058.251 0 .482-.039.733-.096.424-.116.81-.328 1.118-.617l.443 1.639.656 2.545H1.947l-.482-1.909-.443-1.62zm11.491 14.152c0 .694-.559 1.253-1.234 1.253h-8.31a1.25 1.25 0 01-1.253-1.253v-8.136h10.797v8.136zm.829-9.39a.437.437 0 01-.116.308.394.394 0 01-.289.116H1.311a.428.428 0 01-.424-.424c0-.096.039-.212.116-.289a.437.437 0 01.308-.116h11.625c.232 0 .406.193.406.405zm.771-5.784a1.184 1.184 0 01-.906.79c-.212.058-.463.039-.694-.039s-.424-.231-.559-.424c-.251-.347-.328-.771-.174-1.176.154-.424 1.157-1.33 2.044-2.024.251 1.099.443 2.449.289 2.873z"/></symbol><symbol id="shop" viewBox="0 0 38 38" xmlns="http://www.w3.org/2000/svg"><style>.blst0{fill:#207bbb}.blst1{fill:#fff}</style><g id="blСлой_x0020_1"><circle class="blst0" cx="19" cy="19" r="19"/><g id="bl_806040544"><path class="blst1" d="M14.224 21.667h9.677a.536.536 0 00.511-.386l2.132-7.466a.536.536 0 00-.512-.684H12.997l-.386-1.715a.53.53 0 00-.519-.417H8.89a.54.54 0 00-.535.535.54.54 0 00.535.535h2.777c.063.299 1.825 8.206 1.92 8.662-.566.252-.96.818-.96 1.471 0 .881.716 1.597 1.597 1.597h9.677a.527.527 0 00.527-.527.529.529 0 00-.527-.535h-9.677c-.291 0-.535-.244-.535-.535s.244-.535.535-.535zm11.101-7.466l-1.833 6.404h-8.835l-1.424-6.404h12.092z"/><path class="blst1" d="M13.689 25.404c0 .881.724 1.597 1.605 1.597s1.597-.716 1.597-1.597-.716-1.605-1.597-1.605-1.605.724-1.605 1.605zm1.605-.535c.291 0 .535.236.535.535a.534.534 0 01-.535.527.53.53 0 110-1.062zm5.94.535c0 .881.716 1.597 1.597 1.597s1.597-.716 1.597-1.597-.716-1.605-1.597-1.605-1.597.724-1.597 1.605zm1.597-.535c.291 0 .535.236.535.535a.534.534 0 01-.535.527.534.534 0 01-.535-.527c0-.299.244-.535.535-.535z"/></g></g></symbol><symbol viewBox="0 0 20 18" id="shop2" xmlns="http://www.w3.org/2000/svg"><path d="M6.447 11.939v-.015h10.615a.58.58 0 00.57-.42l2.339-8.201a.613.613 0 00-.09-.51.604.604 0 00-.48-.24H5.097L4.677.679a.596.596 0 00-.585-.465H.585C.255.214 0 .484 0 .799c0 .33.255.585.585.585h3.043c.075.33 2.009 9.025 2.114 9.52a1.771 1.771 0 00-1.064 1.619c0 .96.795 1.754 1.769 1.754h10.615c.33 0 .585-.27.585-.585a.576.576 0 00-.585-.585H6.447a.586.586 0 01-.585-.585c0-.329.255-.583.585-.583zm12.189-8.201l-2.009 7.016H6.912l-1.56-7.016h13.284zM5.862 16.031c0 .975.78 1.754 1.754 1.754.96 0 1.754-.78 1.754-1.754s-.795-1.754-1.754-1.754c-.974 0-1.754.78-1.754 1.754zm1.754-.584a.586.586 0 11-.585.585c0-.33.255-.585.585-.585zm6.522.584c0 .975.78 1.754 1.754 1.754s1.754-.78 1.754-1.754-.78-1.754-1.754-1.754-1.754.78-1.754 1.754zm1.754-.584c.33 0 .585.255.585.585 0 .33-.255.585-.585.585a.586.586 0 010-1.17z"/></symbol><symbol viewBox="0 0 480 480" id="slide" xmlns="http://www.w3.org/2000/svg"><path d="M447.932 24.068h-2.48C438.18 7.938 423.233.072 399.939.072c-21.844 0-39.018 9.225-45.688 23.996h-2.304a31.307 31.307 0 00-22.836 9.159 31.315 31.315 0 00-9.159 22.836v7.999a8 8 0 007.999 7.999h143.978a8 8 0 007.999-7.999v-7.999a29.966 29.966 0 00-8.71-23.286 29.993 29.993 0 00-23.286-8.709zM335.949 56.063a15.307 15.307 0 0115.997-15.997h7.999a7.996 7.996 0 007.792-6.175c3.062-13.158 19.259-17.822 32.202-17.822 23.411 0 29.386 8.799 32.354 18.4a8 8 0 007.639 5.597h7.999a14.327 14.327 0 0111.908 4.089 14.332 14.332 0 014.089 11.908H335.949zm-119.982 95.986h143.978a8 8 0 007.999-7.999v-7.999a29.966 29.966 0 00-8.71-23.286 29.994 29.994 0 00-23.286-8.71h-2.48c-7.272-16.13-22.219-23.996-45.513-23.996-21.844 0-39.018 9.225-45.688 23.996h-2.304a31.307 31.307 0 00-22.836 9.159 31.315 31.315 0 00-9.159 22.836v7.999a8 8 0 007.999 8zm23.997-31.996h7.999a7.996 7.996 0 007.792-6.175c3.062-13.158 19.259-17.822 32.202-17.822 23.41 0 29.386 8.799 32.354 18.4a8 8 0 007.639 5.597h7.999a14.327 14.327 0 0111.908 4.089 14.332 14.332 0 014.089 11.908h-127.98a15.307 15.307 0 0115.998-15.997z"/><path d="M471.928 400.011H396.58L270.904 180.044a8.005 8.005 0 00-6.944-3.999h-71.989V72.061a8.004 8.004 0 00-4.113-6.991l-71.989-39.994a7.995 7.995 0 00-7.772 0L36.108 65.07a8.004 8.004 0 00-4.113 6.991V208.04H7.999A8 8 0 000 216.039v31.995a8 8 0 007.999 7.999h7.999v199.97a8 8 0 007.999 7.999h31.995a8 8 0 007.999-7.999v-199.97h15.998v223.966h15.998v-23.996h31.995v23.996h15.998V256.033h15.998v199.97a8 8 0 007.999 7.999h31.995a8 8 0 007.999-7.999v-199.97h7.999a8 8 0 007.999-7.999v-1.656L344.99 459.947a7.998 7.998 0 006.96 4.054h119.982a8 8 0 007.999-7.999V408.01a8.005 8.005 0 00-8.003-7.999zM143.978 208.04h-63.99v-79.988c0-17.669 14.326-31.995 31.995-31.995s31.995 14.326 31.995 31.995v79.988zM47.993 76.775l63.99-35.557 63.99 35.557V208.04h-15.998v-79.988c0-26.504-21.489-47.993-47.993-47.993S63.99 101.548 63.99 128.052v79.988H47.993V76.775zM15.998 224.038h31.995v15.998H15.998v-15.998zm31.995 31.995v143.978H31.995V256.033h15.998zm0 191.971H31.995v-31.995h15.998v31.995zM63.99 224.038h95.985v15.998H63.99v-15.998zm31.995 151.977h31.995v23.996H95.985v-23.996zm0-15.998v-23.996h31.995v23.996H95.985zm0-39.994v-23.996h31.995v23.996H95.985zm0 119.982v-23.996h31.995v23.996H95.985zm31.996-159.976H95.985v-23.996h31.995v23.996zm63.99 167.975h-15.998v-31.995h15.998v31.995zm0-47.993h-15.998V256.033h15.998v143.978zm15.997-159.976h-31.995v-15.998h31.995v15.998zM463.93 448.004H356.61L222.927 212.098l-.105.055a7.908 7.908 0 00-6.854-4.113h-23.996v-15.998h67.349l125.676 219.967a7.997 7.997 0 006.944 3.999h71.989v31.996z"/><path d="M255.961 432.006h15.998v15.998h-15.998v-15.998zm39.994 23.996h15.998V472h-15.998v-15.998zm-71.989 7.999h15.998v15.998h-15.998v-15.998z"/></symbol><symbol viewBox="0 0 315 188.152" id="sofa" xmlns="http://www.w3.org/2000/svg"><path d="M308 54.249h-16.408V7a7 7 0 00-7-7H30.408a7 7 0 00-7 7v47.249H7a7 7 0 00-7 7V162.53a7 7 0 007 7h16.408v11.622a7 7 0 1014 0V169.53h240.184v11.622a7 7 0 1014 0V169.53H308a7 7 0 007-7V61.249a7 7 0 00-7-7zM37.408 14h240.184v40.249h-16.406a7 7 0 00-7 7v47.83H60.814v-47.83a7 7 0 00-7-7H37.408V14zM301 155.53H14V68.249h32.814v47.83a7 7 0 007 7h207.371a7 7 0 007-7v-47.83H301v87.281z"/></symbol><symbol id="stadium" viewBox="0 0 38 38" xmlns="http://www.w3.org/2000/svg"><style>.bpst0{fill:#207bbb}.bpst1{fill:#fff}</style><g id="bpСлой_x0020_1"><circle class="bpst0" cx="19" cy="19" r="19"/><path class="bpst1" d="M26.269 9.002H11.731c-.604 0-1.098.494-1.098 1.098v17.8c0 .604.494 1.098 1.098 1.098h14.538c.604 0 1.098-.494 1.098-1.098V10.1c0-.604-.494-1.098-1.098-1.098zm-1.286 4.282V9.912c0-.071-.055-.133-.125-.133h-2.784a1.924 1.924 0 01-1.874 1.529h-2.4a1.924 1.924 0 01-1.874-1.529h-2.784c-.071 0-.125.063-.125.133v3.372h11.966zm-11.966.784v4.54h2.525A3.488 3.488 0 0119 15.518a3.488 3.488 0 013.458 3.09h2.525v-4.54H13.017zm0 5.324h2.525A3.488 3.488 0 0019 22.482a3.488 3.488 0 003.458-3.09h2.525v4.478H13.017v-4.478zm8.657 0c-.196 1.302-1.317 2.305-2.674 2.305s-2.478-1.004-2.674-2.305h5.348zm-5.348-.784c.196-1.302 1.317-2.305 2.674-2.305s2.478 1.004 2.674 2.305h-5.348zm4.94-8.83c-.165.439-.58.753-1.066.753h-2.4c-.486 0-.902-.314-1.066-.753h4.532zM11.409 27.9V10.1c0-.18.141-.322.322-.322h.518c-.008.047-.016.086-.016.133v18.177c0 .047.008.086.016.133h-.518a.322.322 0 01-.322-.321zm5.325.322c.165-.439.58-.753 1.066-.753h2.4c.486 0 .902.314 1.066.753h-4.532zm5.34 0a1.924 1.924 0 00-1.874-1.529h-2.4c-.917 0-1.694.659-1.874 1.529h-2.784c-.071 0-.125-.063-.125-.133v-3.442h11.966v3.442c0 .071-.055.133-.125.133h-2.784zm4.517-.322a.323.323 0 01-.322.322h-.518c.008-.047.016-.086.016-.133V9.912c0-.047-.008-.086-.016-.133h.518c.173 0 .322.141.322.322V27.9z"/></g></symbol><symbol viewBox="0 0 19 22" id="stadium2" xmlns="http://www.w3.org/2000/svg"><path d="M17.501 0H1.499C.835 0 .293.541.293 1.206v19.588C.293 21.459.835 22 1.499 22H17.5c.665 0 1.206-.541 1.206-1.206V1.206A1.206 1.206 0 0017.501 0zm-1.407 4.715v-3.71c0-.077-.077-.139-.155-.139h-3.061a2.08 2.08 0 01-2.056 1.67H8.178A2.104 2.104 0 016.122.866H3.061a.139.139 0 00-.139.139v3.71h13.172zm-13.172.851v5.009h2.783a3.81 3.81 0 013.803-3.401 3.832 3.832 0 013.803 3.401h2.783V5.566H2.922zm0 5.875h2.783a3.821 3.821 0 003.803 3.401c1.963 0 3.587-1.5 3.803-3.401h2.783v4.916H2.922v-4.916zm9.523 0c-.216 1.422-1.453 2.535-2.937 2.535a2.967 2.967 0 01-2.937-2.535h5.874zm-5.875-.866A2.954 2.954 0 019.507 8.04a2.978 2.978 0 012.937 2.535H6.57zM11.997.866a1.26 1.26 0 01-1.175.819H8.178a1.24 1.24 0 01-1.16-.819h4.979zM1.159 20.794V1.206c0-.186.155-.34.34-.34h.572c-.015.046-.015.093-.015.139v20.006c0 .046 0 .093.015.139h-.572a.347.347 0 01-.34-.356zm5.86.356c.17-.479.634-.819 1.16-.819h2.644c.541 0 .989.34 1.175.819H7.019zm5.859 0a2.092 2.092 0 00-2.056-1.685H8.178c-1.005 0-1.855.727-2.056 1.685H3.061a.139.139 0 01-.139-.139v-3.788h13.172v3.788c0 .077-.077.139-.155.139h-3.061zm4.978-.356a.35.35 0 01-.356.356h-.572c.015-.046.015-.093.015-.139V1.005c0-.046 0-.093-.015-.139h.572c.201 0 .356.155.356.34v19.588z"/></symbol><symbol viewBox="0 0 49.94 49.94" id="star" xmlns="http://www.w3.org/2000/svg"><path d="M48.856 22.731a3.56 3.56 0 00.906-3.671 3.56 3.56 0 00-2.892-2.438l-12.092-1.757a1.58 1.58 0 01-1.19-.865L28.182 3.043a3.56 3.56 0 00-3.212-1.996 3.56 3.56 0 00-3.211 1.996L16.352 14c-.23.467-.676.79-1.191.865L3.069 16.623A3.557 3.557 0 00.178 19.06a3.56 3.56 0 00.906 3.671l8.749 8.528c.373.364.544.888.456 1.4L8.224 44.702a3.559 3.559 0 001.424 3.502 3.552 3.552 0 003.772.273l10.814-5.686a1.583 1.583 0 011.472 0l10.815 5.686a3.568 3.568 0 003.772-.273 3.559 3.559 0 001.424-3.502L39.651 32.66a1.582 1.582 0 01.456-1.4l8.749-8.529zM37.681 32.998l2.065 12.042a1.553 1.553 0 01-.629 1.547 1.558 1.558 0 01-1.665.121l-10.815-5.687a3.588 3.588 0 00-3.334.001L12.49 46.708a1.56 1.56 0 01-1.666-.121 1.554 1.554 0 01-.629-1.547l2.065-12.042a3.581 3.581 0 00-1.03-3.17l-8.75-8.529a1.55 1.55 0 01-.4-1.621c.19-.586.667-.988 1.276-1.077l12.091-1.757a3.576 3.576 0 002.697-1.959l5.407-10.957a1.551 1.551 0 011.418-.881c.616 0 1.146.329 1.419.881l5.407 10.957a3.575 3.575 0 002.696 1.959l12.092 1.757a1.552 1.552 0 011.276 1.077c.19.585.041 1.191-.4 1.621l-8.749 8.528a3.58 3.58 0 00-1.029 3.171z"/></symbol><symbol viewBox="0 0 368 368" id="sun_(1)" xmlns="http://www.w3.org/2000/svg"><path d="M184 0c-4.416 0-8 3.584-8 8v48c0 4.416 3.576 8 8 8 4.416 0 8-3.584 8-8V8c0-4.416-3.584-8-8-8zm0 304c-4.416 0-8 3.584-8 8v48c0 4.416 3.584 8 8 8s8-3.584 8-8v-48c0-4.416-3.584-8-8-8zm176-128h-48c-4.424 0-8 3.584-8 8s3.584 8 8 8h48c4.416 0 8-3.584 8-8s-3.584-8-8-8zm-304 0H8c-4.416 0-8 3.584-8 8s3.576 8 8 8h48c4.416 0 8-3.584 8-8s-3.584-8-8-8zm261.656 130.344l-40-40c-3.128-3.128-8.184-3.128-11.312 0s-3.128 8.184 0 11.312l40 40c1.56 1.56 3.608 2.344 5.656 2.344s4.096-.784 5.656-2.344a7.991 7.991 0 000-11.312zm-216-216l-40-40c-3.128-3.128-8.184-3.128-11.312 0s-3.128 8.184 0 11.312l40 40C91.904 103.216 93.952 104 96 104s4.096-.784 5.656-2.344a7.991 7.991 0 000-11.312zm0 176a7.991 7.991 0 00-11.312 0l-40 40a7.991 7.991 0 000 11.312C51.904 319.216 53.952 320 56 320s4.096-.784 5.656-2.344l40-40a7.991 7.991 0 000-11.312zm216-216a7.991 7.991 0 00-11.312 0l-40 40a7.991 7.991 0 000 11.312c1.56 1.56 3.608 2.344 5.656 2.344s4.096-.784 5.656-2.344l40-40a7.991 7.991 0 000-11.312zM184 96c-48.52 0-88 39.48-88 88s39.48 88 88 88 88-39.48 88-88-39.48-88-88-88zm0 160c-39.696 0-72-32.304-72-72s32.304-72 72-72 72 32.304 72 72-32.304 72-72 72z"/></symbol><symbol viewBox="0 0 36 45" id="wardrobe3" xmlns="http://www.w3.org/2000/svg"><path d="M.901 0h34.196c.497 0 .903.406.903.902L35.999 45H0V.902C0 .405.405 0 .901 0zm28.533 34.141v-1.695h4.818v-4.617h-4.818v-1.695h4.818v-4.617h-4.818v-1.695h4.818v-4.618h-4.818v-1.695h4.818V8.893h-4.818V7.198h4.818V1.695H27.4v41.61h6.852v-9.164h-4.818zm-5.85-10.615h-.001a.848.848 0 01-.847-.847v-2.282c0-.467.38-.847.847-.847h.001c.467 0 .847.38.847.847v2.282c0 .467-.38.847-.847.847zm-8.663 0h-.001a.848.848 0 01-.847-.847v-2.282c0-.467.38-.847.847-.847h.001c.467 0 .847.38.847.847v2.282c0 .467-.38.847-.847.847zm10.784 19.779V1.695h-6.857v41.61h6.857zm-8.552 0V1.695H1.747v41.61h15.406z"/></symbol><symbol viewBox="0 0 38 45" id="washing-machine2" xmlns="http://www.w3.org/2000/svg"><path d="M35.876 0H2.124A1.877 1.877 0 00.25 1.874v41.25C.25 44.159 1.091 45 2.124 45h33.751a1.877 1.877 0 001.874-1.874V1.876A1.876 1.876 0 0035.876 0zM19 13.124c-7.248 0-13.124 5.876-13.124 13.124S11.752 39.373 19 39.373c7.249 0 13.125-5.876 13.125-13.124S26.249 13.124 19 13.124zm-7.022 7.019a.872.872 0 011.325 1.133l-.118.138a.872.872 0 01-1.325-1.133l.118-.138zm-1.724 2.926a.873.873 0 011.114-.526.873.873 0 01.526 1.114 7.554 7.554 0 00-.452 2.592c0 2.088.847 3.979 2.213 5.346 1.366 1.366 3.257 2.213 5.346 2.213s3.979-.846 5.347-2.212c1.365-1.368 2.212-3.259 2.212-5.347s-.846-3.979-2.212-5.347A7.545 7.545 0 0019 18.69a7.615 7.615 0 00-3.158.687l-.36.178a.872.872 0 01-.784-1.556l.422-.207a9.276 9.276 0 011.892-.636 9.44 9.44 0 011.989-.214 9.286 9.286 0 016.578 2.726 9.284 9.284 0 012.729 6.581 9.28 9.28 0 01-2.726 6.581 9.299 9.299 0 01-6.581 2.726 9.28 9.28 0 01-6.581-2.726 9.28 9.28 0 01-2.584-8.197c.09-.521.23-1.04.418-1.564zM19 14.873c-6.283 0-11.376 5.093-11.376 11.376S12.716 37.625 19 37.625s11.376-5.093 11.376-11.376S25.284 14.873 19 14.873zM10.561 3.819h.001c.489 0 .887.398.887.887v.001a.888.888 0 01-.887.887h-.001a.888.888 0 01-.887-.887v-.001c0-.489.398-.887.887-.887zm3.076.873c0-.481.39-.874.874-.874H33.05a.874.874 0 010 1.748H14.511a.873.873 0 01-.874-.874zM1.998 7.5h3.877V2.029H1.998V7.5zm5.626 0h28.378V2.029H7.624V7.5zm28.378 1.748H1.998v33.723h34.004V9.248z"/></symbol><symbol viewBox="0 0 43 33" id="width3" xmlns="http://www.w3.org/2000/svg"><path d="M0 .112h2.25V16.5l11.51 11.51 1.59-1.591-8.794-8.794h29.888l-8.794 8.794 1.59 1.591L40.75 16.5v16.388H43V.112h-2.25V16.5L29.24 4.99l-1.59 1.591 8.794 8.794H6.556l8.794-8.794-1.59-1.591L2.25 16.5v16.388H0z"/></symbol></svg>