<?xml version="1.0" encoding="utf-8"?>
<!-- Generator: Adobe Illustrator 21.1.0, SVG Export Plug-In . SVG Version: 6.00 Build 0)  -->
<svg version="1.1" id="Слой_1" xmlns="http://www.w3.org/2000/svg" xmlns:xlink="http://www.w3.org/1999/xlink" x="0px" y="0px"
	 viewBox="0 0 38 38" style="enable-background:new 0 0 38 38;" xml:space="preserve">
<style type="text/css">
	.st0{fill:#207BBB;}
	.st1{fill:#FFFFFF;}
</style>
<g id="Слой_x0020_1">
	<circle class="st0" cx="19" cy="19" r="19"/>
	<path class="st1" d="M26.269,9.002H11.731c-0.604,0-1.098,0.494-1.098,1.098v17.8c0,0.604,0.494,1.098,1.098,1.098h14.538
		c0.604,0,1.098-0.494,1.098-1.098V10.1C27.367,9.496,26.873,9.002,26.269,9.002L26.269,9.002z M24.983,13.284V9.912
		c0-0.071-0.055-0.133-0.125-0.133h-2.784c-0.18,0.87-0.957,1.529-1.874,1.529h-2.4c-0.917,0-1.694-0.659-1.874-1.529h-2.784
		c-0.071,0-0.125,0.063-0.125,0.133v3.372C17.008,13.284,20.992,13.284,24.983,13.284z M13.017,14.068v4.54h2.525
		c0.196-1.733,1.67-3.09,3.458-3.09c1.788,0,3.262,1.357,3.458,3.09h2.525v-4.54C20.992,14.068,17.008,14.068,13.017,14.068z
		 M13.017,19.392h2.525c0.196,1.733,1.67,3.09,3.458,3.09c1.788,0,3.262-1.357,3.458-3.09h2.525v4.478H13.017V19.392z
		 M21.674,19.392c-0.196,1.302-1.317,2.305-2.674,2.305s-2.478-1.004-2.674-2.305H21.674z M16.326,18.608
		c0.196-1.302,1.317-2.305,2.674-2.305s2.478,1.004,2.674,2.305H16.326z M21.266,9.778c-0.165,0.439-0.58,0.753-1.066,0.753h-2.4
		c-0.486,0-0.902-0.314-1.066-0.753H21.266z M11.409,27.9V10.1c0-0.18,0.141-0.322,0.322-0.322h0.518
		c-0.008,0.047-0.016,0.086-0.016,0.133v18.177c0,0.047,0.008,0.086,0.016,0.133h-0.518C11.551,28.222,11.409,28.073,11.409,27.9
		L11.409,27.9z M16.734,28.222c0.165-0.439,0.58-0.753,1.066-0.753h2.4c0.486,0,0.902,0.314,1.066,0.753H16.734z M22.074,28.222
		c-0.18-0.87-0.957-1.529-1.874-1.529h-2.4c-0.917,0-1.694,0.659-1.874,1.529h-2.784c-0.071,0-0.125-0.063-0.125-0.133v-3.442
		h11.966v3.442c0,0.071-0.055,0.133-0.125,0.133H22.074z M26.591,27.9c0,0.173-0.141,0.322-0.322,0.322h-0.518
		c0.008-0.047,0.016-0.086,0.016-0.133V9.912c0-0.047-0.008-0.086-0.016-0.133h0.518c0.173,0,0.322,0.141,0.322,0.322V27.9z"/>
</g>
</svg>
