<?xml version="1.0" encoding="UTF-8"?>
<!DOCTYPE svg PUBLIC "-//W3C//DTD SVG 1.0//EN" "http://www.w3.org/TR/2001/REC-SVG-20010904/DTD/svg10.dtd">
<!-- Creator: CorelDRAW X7 -->
<svg xmlns="http://www.w3.org/2000/svg" xml:space="preserve" width="25px" height="24px" version="1.0" style="shape-rendering:geometricPrecision; text-rendering:geometricPrecision; image-rendering:optimizeQuality; fill-rule:evenodd; clip-rule:evenodd"
viewBox="0 0 30448 29131"
 xmlns:xlink="http://www.w3.org/1999/xlink">
 <defs>
  <style type="text/css">
   <![CDATA[
    .fil0 {fill:black}
   ]]>
  </style>
 </defs>
 <g id="Слой_x0020_1">
  <metadata id="CorelCorpID_0Corel-Layer"/>
  <path class="fil0" d="M29179 12000c90,-87 152,-196 179,-308 28,-116 24,-242 -15,-361 -38,-117 -107,-220 -196,-296 -89,-73 -203,-128 -329,-145l-7634 -1108c-421,-61 -820,-227 -1157,-472 -335,-242 -616,-571 -806,-956l-3413 -6918c-53,-113 -139,-206 -236,-266 -99,-62 -221,-96 -348,-96 -126,0 -247,36 -344,96 -100,60 -183,153 -239,266l-3414 6918c-191,385 -472,714 -807,956 -336,245 -736,411 -1158,472l-7634 1108c-124,17 -237,70 -325,143 -90,75 -160,181 -199,301 -38,120 -43,245 -16,358 28,112 89,221 179,308l5524 5384c308,297 533,665 662,1062 129,395 162,825 90,1246l-1305 7603c-20,124 -5,248 38,356 46,110 121,210 223,283 99,72 216,115 331,122 119,9 243,-16 354,-75l6827 -3590c381,-200 799,-302 1213,-302 414,0 832,102 1213,302l6828 3590 148 58 156 18 198 -31 182 -92c101,-73 179,-175 223,-283 43,-108 57,-232 37,-356l-1305 -7601c-71,-421 -38,-851 91,-1246 129,-394 355,-765 660,-1063l5524 -5385zm1219 -50c-76,302 -237,589 -472,818l-5523 5385c-180,174 -313,393 -389,627 -76,232 -94,485 -53,733l1305 7602c56,325 17,650 -100,940 -118,287 -320,549 -584,744 -147,106 -310,192 -480,247 -171,55 -351,85 -533,85 -136,0 -278,-18 -418,-54 -132,-33 -264,-83 -384,-147l-6829 -3591c-220,-116 -468,-176 -714,-176 -247,0 -494,60 -715,176l-6827 3591c-294,154 -613,219 -925,197 -312,-20 -620,-133 -888,-328 -265,-193 -467,-454 -586,-743 -119,-291 -157,-616 -101,-941l1304 -7603c42,-248 23,-502 -53,-734 -76,-234 -209,-452 -389,-627l-5524 -5383c-235,-229 -397,-517 -471,-821 -75,-306 -63,-632 35,-942 102,-317 288,-586 525,-788 240,-205 541,-342 868,-390l7633 -1108c248,-36 483,-133 680,-276 199,-144 365,-340 477,-565l3414 -6917c146,-294 367,-536 633,-700 265,-168 583,-261 910,-261 328,0 641,93 909,259 267,165 489,407 633,702l3415 6917c111,225 277,421 476,565 197,143 431,240 679,276l7634 1108c328,48 624,184 865,386 240,206 428,478 528,792 100,312 110,638 35,945z"/>
 </g>
</svg>
