<svg aria-hidden="true" style="position: absolute; width: 0; height: 0; overflow: hidden;" version="1.1" xmlns="http://www.w3.org/2000/svg" xmlns:xlink="http://www.w3.org/1999/xlink">
<defs>
<symbol id="icon-download" viewBox="0 0 36 32">
<title>download</title>
<path d="M35.484 21.97c-0.512 0-0.927 0.415-0.927 0.927v3.542c0 2.044-1.663 3.708-3.708 3.708h-25.288c-2.044 0-3.708-1.663-3.708-3.708v-3.542c0-0.512-0.415-0.927-0.927-0.927s-0.927 0.415-0.927 0.927v3.542c0 3.067 2.495 5.561 5.561 5.561h25.288c3.067 0 5.561-2.495 5.561-5.561v-3.542c0-0.512-0.415-0.927-0.927-0.927z"></path>
<path d="M29.857 25.622h-23.302c-0.512 0-0.927 0.415-0.927 0.927s0.415 0.927 0.927 0.927h23.302c0.512 0 0.927-0.415 0.927-0.927s-0.415-0.927-0.927-0.927z"></path>
<path d="M27.587 12.581c-0.341-0.382-0.927-0.415-1.309-0.074l-7.146 6.384v-17.964c0-0.512-0.415-0.927-0.927-0.927s-0.927 0.415-0.927 0.927v17.964l-7.146-6.384c-0.382-0.341-0.968-0.308-1.309 0.074s-0.308 0.968 0.074 1.309l7.764 6.936c0.44 0.393 0.992 0.59 1.544 0.59s1.104-0.197 1.544-0.589l7.764-6.936c0.382-0.341 0.415-0.927 0.074-1.309z"></path>
</symbol>
<symbol id="icon-untitled" viewBox="0 0 32 32">
<title>untitled</title>
<path fill="#207bbb" style="fill: var(--color1, #207bbb)" d="M16 1.509c-4.001 0-7.625 1.623-10.247 4.244s-4.244 6.246-4.244 10.247c0 4.002 1.623 7.625 4.244 10.247s6.246 4.244 10.247 4.244c4.002 0 7.625-1.622 10.247-4.244s4.244-6.245 4.244-10.247c0-4.001-1.622-7.625-4.244-10.247s-6.245-4.244-10.247-4.244zM4.686 4.686c2.895-2.895 6.896-4.686 11.314-4.686s8.419 1.791 11.314 4.686c2.895 2.895 4.686 6.896 4.686 11.314s-1.791 8.419-4.686 11.314c-2.895 2.895-6.896 4.686-11.314 4.686s-8.419-1.791-11.314-4.686c-2.895-2.895-4.686-6.896-4.686-11.314s1.791-8.419 4.686-11.314z"></path>
<path fill="#207bbb" style="fill: var(--color1, #207bbb)" d="M9.427 12.036v0 7.927c0 0.759 0.616 1.375 1.376 1.375s1.376-0.616 1.376-1.375v-7.92h-0l0-0.007c0-0.759-0.616-1.375-1.376-1.375s-1.376 0.616-1.376 1.375zM21.196 9.612h1.212l-5.072 12.775h-1.212l5.073-12.775zM14.746 14.51v-2.818c0-1.061 0.86-1.921 1.921-1.921s1.921 0.861 1.921 1.921v2.818c0 1.061-0.86 1.921-1.921 1.921s-1.921-0.86-1.921-1.921zM17.375 11.692c0-0.391-0.317-0.709-0.709-0.709s-0.709 0.317-0.709 0.709v2.818c0 0.392 0.317 0.709 0.709 0.709s0.709-0.317 0.709-0.709v-2.818zM19.943 20.308v-2.818c0-1.061 0.861-1.921 1.922-1.921s1.921 0.86 1.921 1.921v2.818c0 1.061-0.86 1.921-1.921 1.921s-1.922-0.861-1.922-1.921zM22.573 17.49c0-0.392-0.317-0.709-0.709-0.709s-0.709 0.317-0.709 0.709v2.818c0 0.391 0.317 0.709 0.709 0.709s0.709-0.317 0.709-0.709v-2.818zM8.214 19.963v-7.927c0-1.429 1.159-2.588 2.588-2.588s2.588 1.158 2.588 2.588v0 7.927c0 1.429-1.159 2.588-2.588 2.588s-2.588-1.158-2.588-2.588z"></path>
</symbol>
<symbol id="icon-baby-stroller" viewBox="0 0 31 32">
<title>baby-stroller</title>
<path d="M20.587 24.663c0.754 0 1.438 0.307 1.932 0.801s0.801 1.178 0.801 1.932c0 0.754-0.307 1.438-0.801 1.932-0.496 0.493-1.18 0.801-1.932 0.801s-1.436-0.307-1.93-0.801c-0.495-0.496-0.802-1.18-0.802-1.932s0.307-1.436 0.801-1.93c0.494-0.496 1.178-0.803 1.932-0.803zM21.676 26.308c-0.278-0.278-0.664-0.451-1.089-0.451s-0.811 0.173-1.089 0.451c-0.277 0.277-0.45 0.663-0.45 1.089s0.173 0.811 0.448 1.089c0.279 0.278 0.665 0.45 1.091 0.45s0.812-0.173 1.090-0.449c0.277-0.278 0.45-0.665 0.45-1.090s-0.173-0.811-0.451-1.089z"></path>
<path d="M4.592 24.663c0.754 0 1.438 0.307 1.932 0.801s0.801 1.178 0.801 1.932c0 0.754-0.307 1.438-0.801 1.932-0.496 0.493-1.18 0.801-1.932 0.801s-1.436-0.307-1.93-0.801c-0.495-0.496-0.802-1.18-0.802-1.932s0.307-1.436 0.801-1.93c0.494-0.496 1.178-0.803 1.932-0.803zM5.681 26.308c-0.278-0.278-0.664-0.451-1.089-0.451s-0.812 0.173-1.089 0.451c-0.277 0.277-0.45 0.663-0.45 1.089s0.173 0.811 0.448 1.089c0.279 0.278 0.665 0.45 1.091 0.45s0.812-0.173 1.090-0.449c0.277-0.278 0.45-0.665 0.45-1.090s-0.173-0.811-0.451-1.089z"></path>
<path d="M4.592 22.792c1.271 0 2.423 0.516 3.255 1.349s1.349 1.984 1.349 3.255c0 1.268-0.517 2.421-1.35 3.254s-1.984 1.35-3.254 1.35c-1.268 0-2.42-0.516-3.253-1.349-0.834-0.834-1.351-1.986-1.351-3.254 0-1.271 0.516-2.423 1.349-3.255s1.986-1.349 3.254-1.349zM7.004 24.984c-0.617-0.617-1.47-0.999-2.413-0.999s-1.797 0.382-2.412 0.997c-0.617 0.619-0.999 1.472-0.999 2.414s0.382 1.797 0.997 2.412c0.616 0.617 1.47 0.999 2.413 0.999s1.796-0.382 2.413-0.999c0.617-0.614 0.999-1.468 0.999-2.412s-0.382-1.796-0.999-2.413z"></path>
<path d="M20.587 22.792c1.271 0 2.423 0.516 3.255 1.349s1.349 1.984 1.349 3.255c0 1.268-0.517 2.421-1.35 3.254s-1.983 1.35-3.255 1.35c-1.271 0-2.423-0.516-3.255-1.349s-1.349-1.986-1.349-3.254c0-1.271 0.516-2.423 1.349-3.255s1.984-1.349 3.255-1.349zM22.999 24.984c-0.617-0.617-1.47-0.999-2.413-0.999s-1.796 0.382-2.413 0.999c-0.617 0.617-0.998 1.47-0.998 2.413s0.382 1.797 0.997 2.412c0.619 0.617 1.472 0.999 2.414 0.999s1.796-0.382 2.413-0.999c0.617-0.614 0.999-1.468 0.999-2.412s-0.382-1.796-0.999-2.413z"></path>
<path d="M9.001 0h6.49c0.329 0 0.597 0.267 0.597 0.597 0 0.090-0.019 0.174-0.055 0.251l-3.196 8.911h11.858c0.329 0 0.597 0.267 0.597 0.597v1.103c0 2.477-1.015 4.731-2.647 6.364l-0.013 0.013c-1.632 1.626-3.881 2.636-6.353 2.636h-7.277c-2.478 0-4.731-1.015-6.364-2.647l-0.013-0.013c-1.626-1.632-2.636-3.881-2.636-6.353v-2.445c0-2.479 1.015-4.734 2.647-6.366s3.887-2.647 6.366-2.647zM14.646 1.193h-5.645c-2.151 0-4.106 0.879-5.523 2.297-1.416 1.416-2.297 3.372-2.297 5.523v2.445c0 2.151 0.881 4.107 2.296 5.524 1.417 1.415 3.373 2.296 5.524 2.296h7.277c2.151 0 4.108-0.881 5.524-2.296 1.415-1.417 2.296-3.374 2.296-5.524v-0.506h-12.107c-0.067-0.003-0.134-0.014-0.2-0.037-0.309-0.11-0.469-0.451-0.359-0.76l3.214-8.961z"></path>
<path d="M0.585 10.923c-0.313 0-0.568-0.255-0.568-0.568s0.255-0.568 0.568-0.568h23.843l2.518-3.083c0.112-0.137 0.275-0.208 0.439-0.209l2.637-0.002c0.313 0 0.568 0.255 0.568 0.568s-0.255 0.568-0.568 0.568h-2.369l-2.494 3.052c-0.102 0.146-0.272 0.241-0.464 0.241h-24.11z"></path>
<path d="M24.562 13.541h-10.674c-0.686 0-1.31-0.281-1.761-0.732s-0.732-1.076-0.732-1.762v-10.451h1.193v10.451c0 0.358 0.147 0.685 0.382 0.919s0.561 0.382 0.918 0.382h10.674v1.193z"></path>
<path d="M8.654 19.321l9.315 4.778-0.54 1.058-9.315-4.778z"></path>
<path d="M17.165 20.379l-9.315 4.778-0.54-1.058 9.315-4.778z"></path>
<path d="M8.283 25.237h8.6v1.193h-8.6z"></path>
</symbol>
<symbol id="icon-barber" viewBox="0 0 26 32">
<title>barber</title>
<path d="M7.431 21.708c1.316 0 2.508 0.535 3.368 1.395 0.863 0.861 1.396 2.052 1.395 3.365 0.002 1.314-0.532 2.509-1.393 3.37s-2.054 1.395-3.368 1.396c-1.313-0.002-2.508-0.535-3.368-1.396s-1.394-2.057-1.394-3.37c0.003-1.311 0.535-2.506 1.396-3.367 0.864-0.859 2.056-1.393 3.365-1.393zM7.434 22.977c-0.967 0-1.84 0.393-2.471 1.021-0.632 0.633-1.026 1.509-1.026 2.47 0.002 0.964 0.394 1.843 1.025 2.473 0.633 0.633 1.509 1.028 2.471 1.028s1.84-0.394 2.471-1.028c0.632-0.63 1.023-1.507 1.023-2.47 0.002-0.962-0.39-1.838-1.023-2.471-0.63-0.628-1.504-1.023-2.47-1.023z"></path>
<path d="M3.794 31.751c-0.211 0.277-0.609 0.331-0.887 0.118-0.277-0.211-0.329-0.609-0.118-0.885l1.388-1.822c0.211-0.278 0.609-0.331 0.885-0.119 0.278 0.211 0.331 0.609 0.119 0.887l-1.388 1.822zM10.209 23.322c-0.178 0.3-0.568 0.398-0.867 0.218-0.3-0.178-0.398-0.568-0.218-0.867 0.56-0.938 1.149-1.815 1.735-2.684l0.023-0.031c0.571-0.851 1.147-1.71 1.671-2.584l11.49-16.827c0.3-0.439 0.63-0.606 0.985-0.525l0.064 0.018c0.326 0.103 0.525 0.404 0.596 0.874l0.007 0.054c0.232 1.53 0.25 3.082-0.062 4.719-0.311 1.647-0.954 3.39-2.030 5.285l-5.272 7.657c-0.192 0.28-0.575 0.355-0.861 0.174-0.789-0.501-1.539-0.863-2.264-0.856h-0.031c-0.686 0.015-1.421 0.363-2.267 1.249l-0.997 1.503c-0.589 0.872-1.178 1.75-1.702 2.627zM24.551 2.044l-10.045 14.709c0.229-0.049 0.462-0.074 0.689-0.075 0.846-0.007 1.64 0.291 2.432 0.74l4.889-7.099c0.992-1.753 1.586-3.357 1.871-4.869 0.221-1.174 0.262-2.303 0.164-3.406z"></path>
<path d="M18.749 22.977c-0.964 0-1.841 0.393-2.471 1.023-0.633 0.63-1.025 1.504-1.025 2.47 0 0.964 0.393 1.841 1.025 2.471 0.63 0.632 1.507 1.025 2.471 1.025 0.966 0 1.84-0.391 2.47-1.023s1.023-1.509 1.023-2.473c0-0.962-0.393-1.838-1.023-2.47s-1.504-1.023-2.47-1.023zM15.382 23.104c0.859-0.863 2.054-1.396 3.367-1.396s2.504 0.534 3.367 1.396c0.861 0.859 1.395 2.054 1.395 3.365 0 1.313-0.534 2.508-1.395 3.368-0.863 0.863-2.054 1.396-3.367 1.396s-2.508-0.535-3.368-1.396c-0.861-0.861-1.396-2.056-1.396-3.368s0.535-2.503 1.398-3.365z"></path>
<path d="M23.393 30.984c0.211 0.277 0.159 0.674-0.118 0.885-0.278 0.213-0.676 0.159-0.887-0.118l-1.388-1.822c-0.211-0.278-0.159-0.676 0.119-0.887 0.277-0.211 0.674-0.159 0.885 0.119l1.388 1.822zM17.058 22.672c0.18 0.3 0.082 0.689-0.218 0.867-0.3 0.18-0.689 0.082-0.867-0.218-0.524-0.877-1.113-1.755-1.702-2.627l-0.997-1.503c-0.843-0.884-1.581-1.234-2.267-1.249h-0.028c-0.728-0.007-1.476 0.355-2.267 0.858-0.286 0.18-0.669 0.105-0.861-0.175l-5.272-7.657c-1.074-1.895-1.719-3.638-2.030-5.285-0.313-1.643-0.295-3.205-0.057-4.742l0.005-0.036c0.074-0.47 0.268-0.766 0.593-0.869l0.064-0.018c0.358-0.080 0.686 0.087 0.985 0.525l11.49 16.827c0.524 0.874 1.102 1.733 1.673 2.584l0.021 0.031c0.586 0.869 1.175 1.746 1.735 2.684zM11.675 16.754l-10.045-14.709c-0.097 1.103-0.057 2.233 0.164 3.406 0.285 1.512 0.881 3.116 1.871 4.869l4.889 7.099c0.794-0.448 1.588-0.746 2.429-0.74 0.231 0.002 0.463 0.026 0.692 0.075z"></path>
</symbol>
<symbol id="icon-bicycle-parked" viewBox="0 0 53 32">
<title>bicycle-parked</title>
<path d="M9.079 13.893c2.501 0 4.774 1.017 6.417 2.66 1.645 1.645 2.663 3.917 2.663 6.419 0 2.501-1.017 4.774-2.66 6.417-1.645 1.645-3.918 2.663-6.419 2.663-2.502 0-4.774-1.017-6.417-2.66-1.645-1.645-2.663-3.918-2.663-6.419 0-2.502 1.017-4.774 2.66-6.417 1.645-1.645 3.917-2.663 6.419-2.663zM14.327 17.725c-1.34-1.341-3.197-2.171-5.247-2.171-2.051 0-3.907 0.83-5.246 2.17-1.343 1.341-2.173 3.197-2.173 5.248 0 2.050 0.83 3.907 2.17 5.246 1.341 1.343 3.197 2.173 5.249 2.173 2.050 0 3.907-0.83 5.246-2.17 1.343-1.341 2.173-3.198 2.173-5.249 0-2.051-0.83-3.907-2.171-5.247z"></path>
<path d="M43.921 13.893c2.501 0 4.774 1.017 6.417 2.66 1.645 1.645 2.663 3.917 2.663 6.419 0 2.501-1.017 4.774-2.66 6.417-1.645 1.645-3.918 2.663-6.419 2.663-2.502 0-4.774-1.017-6.417-2.66-1.645-1.645-2.663-3.918-2.663-6.419 0-2.502 1.017-4.774 2.66-6.417 1.645-1.645 3.917-2.663 6.419-2.663zM49.168 17.725c-1.34-1.341-3.197-2.171-5.247-2.171-2.051 0-3.907 0.83-5.246 2.17-1.343 1.341-2.173 3.197-2.173 5.248 0 2.050 0.83 3.907 2.17 5.246 1.341 1.343 3.197 2.173 5.249 2.173 2.050 0 3.907-0.83 5.246-2.17 1.343-1.341 2.173-3.198 2.173-5.249 0-2.051-0.83-3.907-2.171-5.247z"></path>
<path d="M22.225 19.668c0.91 0 1.739 0.371 2.336 0.968s0.968 1.424 0.968 2.336c0 0.91-0.371 1.739-0.968 2.336s-1.426 0.968-2.336 0.968c-0.913 0-1.739-0.371-2.336-0.968s-0.968-1.426-0.968-2.336c0-0.913 0.371-1.739 0.968-2.336s1.424-0.968 2.336-0.968zM23.388 21.808c-0.296-0.296-0.709-0.48-1.163-0.48s-0.868 0.185-1.164 0.48c-0.296 0.296-0.48 0.709-0.48 1.163s0.185 0.868 0.48 1.164c0.296 0.296 0.709 0.48 1.164 0.48s0.868-0.185 1.163-0.48c0.296-0.296 0.48-0.709 0.48-1.164s-0.185-0.868-0.48-1.163z"></path>
<path d="M19.778 22.142c0.458 0 0.83 0.372 0.83 0.83s-0.372 0.83-0.83 0.83h-10.698c-0.252 0-0.478-0.112-0.63-0.29l-5.768-5.811c-0.322-0.324-0.322-0.849 0.002-1.171s0.849-0.322 1.171 0.002l5.568 5.609h10.356z"></path>
<path d="M23.055 22.972c0 0.458-0.372 0.83-0.83 0.83s-0.83-0.372-0.83-0.83v-3.958c0-0.088-0.013-0.144-0.033-0.166l-1.611-0.002c-0.458 0-0.83-0.372-0.83-0.83s0.372-0.83 0.83-0.83h1.602c0.465 0 0.925 0.195 1.255 0.572 0.271 0.311 0.448 0.737 0.448 1.256v3.958z"></path>
<path d="M18.107 2.295c0.458 0 0.83 0.372 0.83 0.83s-0.372 0.83-0.83 0.83h-5.123l-0.218-0.029c-0.364-0.090-0.694-0.234-1.002-0.426l-0.066-0.046c-0.281-0.184-0.538-0.404-0.775-0.654-0.314-0.331-0.303-0.856 0.028-1.171s0.856-0.303 1.171 0.028c0.153 0.16 0.309 0.298 0.466 0.403l0.052 0.031c0.14 0.087 0.291 0.158 0.451 0.204h5.015z"></path>
<path d="M15.564 2.788l7.79 17.373-1.512 0.674-7.79-17.373z"></path>
<path d="M8.379 22.53l8.539-13.58 1.401 0.883-8.539 13.58z"></path>
<path d="M20.394 16.41c-0.458 0-0.83-0.372-0.83-0.83s0.372-0.83 0.83-0.83h5.124c0.682 0 1.339-0.358 2.023-0.73l9.384-5.095c0.4-0.218 0.904-0.069 1.122 0.331s0.069 0.904-0.331 1.122l-9.384 5.095c-0.88 0.478-1.724 0.937-2.814 0.937h-5.124z"></path>
<path d="M44.666 22.609c0.2 0.411 0.028 0.908-0.383 1.108s-0.908 0.028-1.108-0.383l-9.188-18.881c-0.2-0.411-0.028-0.908 0.383-1.108 0.117-0.057 0.24-0.084 0.363-0.084 0.23-0.001 0.438-0.093 0.584-0.24l0.015-0.015c0.139-0.145 0.226-0.349 0.226-0.571 0-0.228-0.092-0.438-0.239-0.584l-0.015-0.015c-0.145-0.139-0.349-0.226-0.571-0.226h-3.515c-0.458 0-0.83-0.372-0.83-0.83s0.372-0.83 0.83-0.83h3.515c0.674 0 1.291 0.272 1.739 0.714l0.015 0.015c0.453 0.452 0.731 1.073 0.731 1.757 0 0.674-0.272 1.291-0.714 1.739l-0.015 0.015c-0.172 0.172-0.365 0.317-0.577 0.432l8.753 17.988z"></path>
<path d="M24.689 23.802c-0.458 0-0.83-0.372-0.83-0.83s0.372-0.83 0.83-0.83h2.911l10.443-10.616c0.32-0.325 0.846-0.33 1.171-0.009s0.33 0.846 0.009 1.171l-10.648 10.823c-0.152 0.179-0.378 0.292-0.631 0.292h-3.255z"></path>
<path d="M44.002 21.803c-0.093 0.092-0.204 0.155-0.319 0.194-0.041 0.117-0.107 0.226-0.2 0.318l-8.18 8.076h16.037v-15.832l-7.338 7.243zM42.641 20.941c0.041-0.117 0.106-0.226 0.2-0.318l7.893-7.789c0.28-0.265 0.648-0.39 0.988-0.39 0.153 0 0.308 0.027 0.455 0.077l0.085 0.034c0.136 0.055 0.264 0.138 0.369 0.237l0.077 0.082c0.181 0.204 0.293 0.463 0.293 0.774v17.573c0 0.458-0.372 0.83-0.83 0.83h-17.18c-0.325 0-0.602-0.075-0.826-0.198l-0.061-0.038c-0.29-0.179-0.476-0.433-0.572-0.724-0.093-0.279-0.097-0.575-0.031-0.854l0.025-0.084c0.081-0.279 0.238-0.552 0.445-0.774l8.351-8.245c0.093-0.092 0.204-0.155 0.319-0.194z"></path>
<path d="M21.395 25.659c0-0.458 0.372-0.83 0.83-0.83s0.83 0.372 0.83 0.83v1.271c0 0.089 0.014 0.145 0.033 0.166l1.611 0.002c0.458 0 0.83 0.372 0.83 0.83s-0.372 0.83-0.83 0.83h-1.602c-0.466 0-0.925-0.195-1.255-0.572-0.271-0.311-0.448-0.737-0.448-1.256v-1.271z"></path>
</symbol>
<symbol id="icon-bus" viewBox="0 0 56 32">
<title>bus</title>
<path d="M13.11 28.403h-11.821c-0.354 0-0.678-0.147-0.91-0.379s-0.379-0.564-0.379-0.909v-21.338c0-1.623 0.665-3.101 1.734-4.17 1.066-1.066 2.545-1.731 4.168-1.731h44.196c1.621 0 3.098 0.665 4.168 1.731 1.069 1.072 1.734 2.549 1.734 4.17v21.338c0 0.344-0.151 0.677-0.382 0.906-0.229 0.231-0.554 0.382-0.907 0.382h-4.883v-1.777h4.395v-20.849c0-1.135-0.467-2.167-1.209-2.915-0.749-0.743-1.781-1.21-2.916-1.21h-44.196c-1.132 0-2.167 0.467-2.912 1.21-0.749 0.749-1.213 1.783-1.213 2.915v20.849h11.334v1.777zM41.912 28.403h-20.883v-1.777h20.883v1.777z"></path>
<path d="M17.071 22.414c1.339 0 2.557 0.545 3.433 1.421s1.421 2.094 1.421 3.432c0 1.339-0.545 2.557-1.421 3.433s-2.094 1.424-3.433 1.424c-1.338 0-2.555-0.548-3.432-1.424s-1.424-2.094-1.424-3.433c0-1.338 0.548-2.555 1.424-3.432s2.094-1.421 3.432-1.421zM19.249 25.091c-0.555-0.555-1.329-0.9-2.178-0.9-0.847 0-1.623 0.345-2.176 0.9-0.555 0.554-0.903 1.329-0.903 2.176 0 0.849 0.348 1.624 0.903 2.178 0.554 0.555 1.329 0.903 2.176 0.903 0.849 0 1.623-0.348 2.178-0.903 0.554-0.554 0.9-1.329 0.9-2.178 0-0.847-0.347-1.623-0.9-2.176z"></path>
<path d="M45.872 22.414c1.339 0 2.557 0.545 3.433 1.421s1.421 2.094 1.421 3.432c0 1.339-0.545 2.557-1.421 3.433s-2.094 1.424-3.433 1.424c-1.338 0-2.557-0.548-3.433-1.424-0.875-0.877-1.423-2.094-1.423-3.433 0-1.338 0.548-2.555 1.423-3.432 0.877-0.877 2.096-1.421 3.433-1.421zM48.050 25.091c-0.555-0.555-1.329-0.9-2.178-0.9-0.847 0-1.623 0.345-2.176 0.9-0.555 0.554-0.903 1.329-0.903 2.176 0 0.849 0.348 1.624 0.903 2.178 0.554 0.555 1.329 0.903 2.176 0.903 0.849 0 1.623-0.348 2.178-0.903 0.554-0.554 0.9-1.329 0.9-2.178 0-0.847-0.347-1.623-0.9-2.176z"></path>
<path d="M30.177 27.27v-21.13c0-0.352 0.144-0.67 0.372-0.9 0.25-0.247 0.576-0.388 0.918-0.388h8.36c0.352 0 0.671 0.144 0.9 0.372 0.244 0.247 0.389 0.564 0.389 0.916v21.13h-1.777v-20.642h-7.385v20.642h-1.777z"></path>
<path d="M38.066 17.564c-0.49 0-0.888-0.398-0.888-0.888 0-0.489 0.398-0.888 0.888-0.888h2.162c0.49 0 0.888 0.399 0.888 0.888 0 0.49-0.398 0.888-0.888 0.888h-2.162z"></path>
<path d="M21.438 4.853h5.821c0.352 0 0.67 0.144 0.9 0.372 0.244 0.247 0.388 0.564 0.388 0.916v5.821c0 0.341-0.142 0.668-0.372 0.9-0.247 0.244-0.564 0.389-0.916 0.389h-5.821c-0.342 0-0.668-0.142-0.9-0.373-0.247-0.248-0.389-0.576-0.389-0.916v-5.821c0-0.352 0.144-0.67 0.372-0.9 0.25-0.247 0.576-0.388 0.918-0.388zM26.77 6.628h-4.844v4.846h4.844v-4.846z"></path>
<path d="M0.888 4.853h4.636c0.348 0 0.683 0.147 0.91 0.379 0.232 0.232 0.379 0.557 0.379 0.909v5.821c0 0.352-0.147 0.677-0.379 0.91-0.232 0.232-0.557 0.379-0.91 0.379h-4.636v-1.777h4.148v-4.846h-4.148v-1.775z"></path>
<path d="M10.57 4.853h5.821c0.354 0 0.671 0.144 0.9 0.372 0.245 0.247 0.389 0.564 0.389 0.916v5.821c0 0.341-0.142 0.668-0.372 0.9-0.247 0.244-0.564 0.389-0.918 0.389h-5.821c-0.341 0-0.667-0.142-0.9-0.373-0.245-0.248-0.388-0.576-0.388-0.916v-5.821c0-0.352 0.144-0.67 0.372-0.9 0.25-0.247 0.576-0.388 0.916-0.388zM15.903 6.628h-4.844v4.846h4.844v-4.846z"></path>
<path d="M55.112 16.89h-10.448c-0.355 0-0.677-0.15-0.905-0.377s-0.376-0.549-0.376-0.905v-9.475c0-0.352 0.148-0.68 0.376-0.907 0.232-0.232 0.552-0.373 0.905-0.373h10.448v1.775h-9.952v8.485h9.952v1.777z"></path>
</symbol>
<symbol id="icon-cafe" viewBox="0 0 24 32">
<title>cafe</title>
<path d="M0.967 18.805h0.028c-0.479-0.638-0.931-1.489-0.904-2.526 0.027-1.41 0.851-2.765 2.473-4.070-0.185-0.611-0.238-1.196-0.105-1.783 0.451-2.339 2.978-3.271 5.32-3.776-0.108-0.293-0.134-0.586-0.134-0.877 0-1.144 0.639-2.129 1.571-2.635-0.932-1.888-2.182-2.101-2.661-2.101-0.638 0-1.037 0.133-1.277 0.266-0.186 0.080-0.398 0.080-0.558-0.053-0.293-0.213-0.267-0.692 0.079-0.877 0.373-0.186 0.931-0.373 1.756-0.373 0.985 0 1.916 0.453 2.687 1.331 0.266 0.292 0.638 0.771 0.957 1.462 0.16-0.025 0.293-0.025 0.453-0.025 1.117 0 2.101 0.611 2.633 1.542 0.186-0.213 0.398-0.478 0.531-0.798 0.053-0.107 0.186-0.213 0.319-0.266 0.134-0.027 0.266-0.027 0.399 0.053 1.543 0.851 2.687 2.022 3.379 3.432 0.585 1.222 0.69 2.339 0.69 2.978 0.028 0.027 0.081 0.027 0.107 0.052 1.357 0.587 2.129 1.676 2.262 3.166 0.027 0.586-0.028 1.144-0.107 1.516 1.064 0.373 1.808 1.117 2.074 2.074 0.212 0.745 0.107 1.57-0.266 2.287h0.426c0.16 0 0.293 0.080 0.398 0.186 0.108 0.132 0.132 0.292 0.108 0.451l-2.58 11.306c-0.16 0.744-0.825 1.25-1.57 1.25h-14.841c-0.771 0-1.411-0.506-1.571-1.25l-2.579-11.306c-0.027-0.16 0-0.32 0.107-0.451 0.081-0.107 0.24-0.186 0.399-0.186l-0.002-0.001zM10.649 3.804c-1.090 0-1.968 0.877-1.968 1.969 0 1.090 0.877 1.968 1.968 1.968s1.969-0.877 1.969-1.968c0-1.092-0.879-1.969-1.969-1.969zM19.453 30.96c0.266 0 0.505-0.185 0.559-0.451l2.42-10.666h-1.675l-1.863 10.879c0 0.081-0.028 0.16-0.053 0.238h0.611zM17.591 30.96c0.081 0 0.241-0.132 0.294-0.425l1.835-10.692h-1.702l-1.224 10.852c-0.027 0.080-0.027 0.186-0.054 0.265h0.851zM15.651 30.96c0.027-0.052 0.079-0.185 0.105-0.398l1.224-10.719h-1.702l-0.611 10.8c0 0.132 0 0.238-0.028 0.32h1.012v-0.002zM12.538 30.96h1.065c0-0.079 0.027-0.212 0.027-0.372l0.611-10.746h-1.65c0 0 0 0 0 0s0 0-0.027 0h-0.027v11.117zM10.41 30.589c0.027 0.16 0.027 0.293 0.052 0.372h1.038v-11.117h-1.702l0.611 10.746zM8.415 30.96h1.011c-0.027-0.079-0.027-0.185-0.027-0.32l-0.638-10.798h-1.675l1.222 10.719c0 0.213 0.081 0.346 0.107 0.398v0zM6.475 30.96h0.85c-0.025-0.079-0.052-0.185-0.052-0.265l-1.225-10.852h-1.702l1.834 10.693c0.028 0.293 0.186 0.425 0.294 0.425h0.001zM4.053 30.509c0.054 0.266 0.293 0.451 0.558 0.451h0.614c-0.028-0.079-0.054-0.157-0.081-0.238l-1.835-10.879h-1.117c0 0 0 0 0 0s0 0 0 0h-0.585l2.446 10.666zM2.404 18.805h7.927c-1.142-0.611-2.66-1.463-4.097-2.473-0.212-0.16-0.292-0.479-0.106-0.719 0.16-0.24 0.479-0.293 0.718-0.133 2.475 1.756 5.294 3.059 5.852 3.325h8.725c0.506-0.558 0.719-1.329 0.532-2.021-0.213-0.771-0.904-1.303-1.969-1.515-0.983-0.186-3.591-0.745-6.491-1.571-0.265-0.079-0.425-0.372-0.346-0.637 0.081-0.294 0.346-0.454 0.639-0.373 2.58 0.744 4.92 1.277 6.065 1.515 0.16-0.876 0.266-2.713-1.543-3.484-0.691-0.292-2.128-0.558-3.616-0.823l-0.506-0.108c-0.293-0.052-0.479-0.319-0.425-0.611 0.052-0.266 0.345-0.453 0.611-0.398l0.503 0.079c0.959 0.186 1.916 0.346 2.661 0.533-0.053-1.197-0.586-3.325-3.059-4.921-0.185 0.266-0.399 0.506-0.559 0.666-0.107 0.106-0.212 0.212-0.292 0.293 0.027 0.105 0.027 0.213 0.027 0.346 0 1.648-1.357 3.005-3.006 3.005-0.984 0-1.834-0.451-2.394-1.198-1.009 0.241-1.861 0.479-2.554 0.772-0.132 0.213-0.105 0.346-0.079 0.451 0.132 0.399 0.931 1.518 5.611 3.086 0.267 0.107 0.399 0.398 0.319 0.666-0.079 0.212-0.292 0.346-0.505 0.346-0.053 0-0.107 0-0.159-0.027-1.676-0.56-3.033-1.117-4.043-1.677-1.25-0.69-1.994-1.382-2.209-2.073-0.027-0.053-0.027-0.108-0.052-0.161-0.612 0.454-0.984 1.012-1.117 1.65-0.186 0.959 0.238 1.997 1.277 3.114 0.185 0.185 0.16 0.531-0.027 0.718-0.108 0.105-0.24 0.132-0.373 0.132-0.132 0-0.265-0.053-0.373-0.16-0.372-0.398-0.69-0.824-0.956-1.222-1.225 1.036-1.863 2.074-1.889 3.085-0.025 1.144 0.719 2.022 1.277 2.526v-0.001z"></path>
</symbol>
<symbol id="icon-card" viewBox="0 0 28 32">
<title>card</title>
<path d="M25.598 25.554v4.878c0 0.428-0.178 0.824-0.461 1.108-0.285 0.28-0.678 0.461-1.108 0.461h-22.23c-0.428 0-0.824-0.179-1.106-0.461-0.283-0.283-0.462-0.68-0.462-1.108v-14.392c0-0.431 0.179-0.825 0.461-1.106 0.283-0.283 0.68-0.463 1.107-0.463h22.23c0.429 0 0.825 0.178 1.108 0.461 0.283 0.283 0.461 0.677 0.461 1.109v4.878h-1.118v-4.878c0-0.122-0.052-0.238-0.133-0.319-0.079-0.080-0.194-0.132-0.317-0.132h-22.23c-0.123 0-0.239 0.052-0.317 0.13-0.081 0.081-0.133 0.195-0.133 0.32v14.392c0 0.123 0.052 0.239 0.132 0.317 0.080 0.080 0.195 0.133 0.319 0.133h22.23c0.123 0 0.239-0.053 0.319-0.133 0.080-0.081 0.132-0.195 0.132-0.317v-4.878h1.118z"></path>
<path d="M0.231 16.040v-2.762c0-0.43 0.179-0.824 0.461-1.106 0.283-0.283 0.68-0.462 1.107-0.462h7.339v1.118h-7.339c-0.123 0-0.239 0.052-0.317 0.132-0.081 0.080-0.133 0.195-0.133 0.319v2.762h-1.118z"></path>
<path d="M24.984 26.112h-2.954c-0.509 0-0.975-0.21-1.309-0.544s-0.544-0.799-0.544-1.309v-2.047c0-0.51 0.21-0.976 0.544-1.31 0.335-0.336 0.801-0.544 1.309-0.544h2.954v1.118h-2.954c-0.202 0-0.387 0.083-0.518 0.215-0.133 0.134-0.216 0.319-0.216 0.521v2.047c0 0.201 0.083 0.386 0.216 0.518s0.317 0.216 0.518 0.216h2.954v1.118z"></path>
<path d="M24.984 20.358h1.282c0.218 0 0.427 0.096 0.568 0.238 0.143 0.143 0.238 0.346 0.238 0.568v4.143c0 0.222-0.094 0.426-0.238 0.568-0.142 0.143-0.346 0.238-0.568 0.238h-1.282v-1.118h0.969v-3.518h-0.969v-1.118z"></path>
<path d="M22.901 14.767l3.79-7.026c0.131-0.246 0.152-0.529 0.076-0.781-0.074-0.25-0.247-0.479-0.491-0.61l-9.523-5.137c-0.234-0.108-0.497-0.122-0.731-0.052-0.253 0.074-0.477 0.247-0.609 0.491l-7.357 13.642-0.984-0.528 7.395-13.712c0.293-0.483 0.738-0.815 1.236-0.964 0.524-0.156 1.11-0.113 1.628 0.165l9.474 5.111c0.518 0.28 0.878 0.75 1.035 1.274 0.156 0.523 0.113 1.11-0.163 1.628l-3.79 7.026-0.984-0.528z"></path>
<path d="M18.943 1.759l-7.301 13.536-0.984-0.528 7.301-13.536z"></path>
<path d="M21.353 3.058l-6.6 12.238-0.984-0.528 6.6-12.238z"></path>
<path d="M21.384 7.996l0.233-0.43c0.234-0.436 0.627-0.734 1.065-0.865 0.44-0.129 0.93-0.094 1.36 0.139l0.155 0.085c0.436 0.234 0.734 0.627 0.865 1.062 0.131 0.44 0.095 0.929-0.138 1.361l-0.233 0.435c-0.233 0.429-0.624 0.729-1.063 0.861-0.392 0.115-0.825 0.1-1.222-0.072l-0.301-0.152c-0.428-0.233-0.729-0.625-0.858-1.063-0.12-0.393-0.103-0.823 0.068-1.219l0.067-0.141zM22.601 8.092l-0.233 0.433c-0.086 0.162-0.1 0.346-0.051 0.511 0.048 0.165 0.162 0.31 0.323 0.399l0.161 0.085c0.16 0.088 0.346 0.1 0.509 0.054 0.162-0.049 0.309-0.165 0.397-0.326l0.233-0.429c0.087-0.161 0.1-0.346 0.051-0.511-0.049-0.163-0.162-0.315-0.322-0.4l-0.158-0.085c-0.162-0.088-0.35-0.1-0.511-0.054-0.166 0.051-0.315 0.165-0.4 0.323z"></path>
</symbol>
<symbol id="icon-cctv" viewBox="0 0 37 32">
<title>cctv</title>
<path d="M0.771 19.806h2.538c0.211 0 0.407 0.088 0.544 0.226 0.14 0.14 0.227 0.334 0.227 0.545v10.652c0 0.202-0.082 0.394-0.219 0.534l-0.018 0.018c-0.14 0.137-0.332 0.219-0.535 0.219h-2.538c-0.212 0-0.405-0.086-0.545-0.227-0.138-0.138-0.226-0.333-0.226-0.544v-10.652c0-0.21 0.086-0.398 0.218-0.535l0.049-0.046c0.138-0.117 0.311-0.19 0.505-0.19zM2.812 21.074h-1.543v9.656h1.543v-9.656z"></path>
<path d="M6.041 23.863h12.832v4.080h-13.466v-4.080h0.634zM17.604 25.132h-10.929v1.542h10.929v-1.542z"></path>
<path d="M3.284 21.638c0.93 0 1.78 0.381 2.394 0.997 0.615 0.613 0.997 1.461 0.997 2.394v1.748c0 0.933-0.383 1.782-0.996 2.395s-1.462 0.996-2.395 0.996v-1.269c0.583 0 1.115-0.239 1.499-0.624s0.624-0.916 0.624-1.499v-1.748c0-0.583-0.239-1.115-0.624-1.499-0.383-0.385-0.914-0.624-1.499-0.624v-1.269z"></path>
<path d="M17.604 20.567c0-0.35 0.284-0.634 0.634-0.634s0.634 0.284 0.634 0.634v7.987c0 0.56-0.23 1.072-0.599 1.441s-0.881 0.599-1.441 0.599c-0.561 0-1.073-0.23-1.442-0.599s-0.599-0.879-0.599-1.441v-1.245c0-0.35 0.284-0.634 0.634-0.634s0.634 0.284 0.634 0.634v1.245c0 0.212 0.088 0.406 0.227 0.544s0.333 0.227 0.545 0.227c0.212 0 0.406-0.088 0.544-0.227s0.227-0.333 0.227-0.544v-7.987zM16.061 24.505c0 0.35-0.284 0.634-0.634 0.634s-0.634-0.284-0.634-0.634v-4.782c0-0.35 0.284-0.634 0.634-0.634s0.634 0.284 0.634 0.634v4.782z"></path>
<path d="M28.848 14.395c0.121-0.329 0.486-0.497 0.814-0.375s0.497 0.487 0.375 0.815l-1.851 5.010c-0.072 0.194-0.22 0.342-0.39 0.424l-0.059 0.025c-0.167 0.061-0.352 0.069-0.526 0.010l-18.29-6.76c-0.197-0.069-0.344-0.217-0.426-0.385-0.087-0.18-0.102-0.388-0.036-0.582l0.899-2.434c0.12-0.327 0.485-0.494 0.812-0.373s0.494 0.485 0.373 0.812l-0.72 1.95 17.344 6.41 1.68-4.546z"></path>
<path d="M36.939 11.46l-7 3.62c-0.174 0.132-0.369 0.254-0.713 0.13l-6.046-2.234-1.946 1.854c-0.18 0.171-0.436 0.216-0.654 0.136-3.825-1.413-11.388-3.708-14.621-5.41-0.152-0.081-0.271-0.212-0.34-0.363-0.080-0.176-0.097-0.384-0.023-0.583l2.993-8.104 0.054-0.113c0.080-0.141 0.202-0.249 0.337-0.314 0.176-0.086 0.392-0.103 0.593-0.031l27.242 10.066c0.065 0.023 0.124 0.056 0.175 0.097 0.114 0.083 0.208 0.197 0.262 0.305l0.069 0.213c0.020 0.11 0.016 0.238-0.037 0.371l-0.076 0.137c-0.061 0.090-0.148 0.17-0.27 0.225zM29.412 13.929l5.866-3.034-25.672-9.486-2.65 7.173 13.692 5.060 1.837-1.75c0.164-0.157 0.343-0.224 0.542-0.234l0.032-0.001c0.123-0.002 0.241 0.021 0.358 0.060l5.995 2.213z"></path>
<path d="M32.513 12.95c0.36 0.526 0.597 1.146 0.679 1.795 0.078 0.62 0.017 1.269-0.211 1.886l-0.007 0.021c-0.389 1.030-1.155 1.81-2.082 2.237-0.934 0.431-2.032 0.505-3.070 0.122l-0.065-0.030 0.289-0.582 0.212-0.578c0.712 0.263 1.465 0.212 2.104-0.082 0.639-0.292 1.167-0.832 1.429-1.542 0.158-0.429 0.2-0.872 0.147-1.294-0.056-0.446-0.22-0.875-0.47-1.239l1.046-0.715z"></path>
<path d="M13.107 7.911l1.19 0.44-0.44 1.19-1.19-0.44 0.44-1.19z"></path>
<path d="M15.643 8.848l1.19 0.44-0.44 1.19-1.19-0.44 0.44-1.19z"></path>
<path d="M18.241 9.808l1.19 0.44-0.44 1.19-1.19-0.44 0.44-1.19z"></path>
<path d="M20.011 16.97c0.121-0.327 0.485-0.494 0.812-0.373s0.494 0.485 0.373 0.812l-0.758 2.049c-0.234 0.639-0.71 1.124-1.285 1.388-0.573 0.264-1.251 0.309-1.889 0.074l-1.676-0.616c-0.639-0.237-1.122-0.713-1.387-1.287s-0.31-1.251-0.075-1.89l0.756-2.053c0.121-0.329 0.487-0.497 0.815-0.375s0.496 0.487 0.375 0.815l-0.758 2.050c-0.117 0.307-0.093 0.641 0.037 0.922 0.129 0.279 0.364 0.512 0.673 0.625l1.676 0.619c0.308 0.117 0.639 0.094 0.922-0.037 0.279-0.128 0.512-0.364 0.626-0.674l0.761-2.050z"></path>
</symbol>
<symbol id="icon-develop" viewBox="0 0 31 32">
<title>develop</title>
<path d="M8.047 25.161c0.567-0.209 0.939-0.745 0.923-1.344 0-0.178-0.032-0.341-0.097-0.502-0.049-0.162-0.129-0.308-0.244-0.438-0.113-0.146-0.242-0.243-0.388-0.341-0.178-0.096-0.372-0.177-0.583-0.209-0.243-0.033-0.503-0.049-0.761-0.049h-1.945c-0.211-0.032-0.422 0.033-0.583 0.177-0.146 0.162-0.21 0.373-0.177 0.584v4.601c-0.033 0.21 0.032 0.421 0.162 0.599 0.162 0.131 0.388 0.194 0.599 0.177h1.879c0.26-0.015 0.535-0.032 0.81-0.080 0.227-0.017 0.438-0.081 0.649-0.162 0.291-0.114 0.535-0.325 0.712-0.584 0.178-0.275 0.259-0.599 0.259-0.923 0.016-0.729-0.503-1.361-1.215-1.507zM5.439 23.217h0.972c0.357-0.016 0.697 0.033 1.021 0.162 0.21 0.098 0.34 0.341 0.323 0.584 0 0.146-0.033 0.275-0.113 0.388-0.081 0.162-0.21 0.275-0.388 0.341-0.228 0.064-0.47 0.096-0.713 0.081h-1.134l0.033-1.556zM7.999 26.571c0 0.616-0.422 0.908-1.265 0.908h-1.328l0.033-1.783h1.279c0.341-0.017 0.665 0.049 0.973 0.211 0.211 0.146 0.324 0.405 0.309 0.664v0z"></path>
<path d="M1.303 19.232h10.572c0.301 0 0.576 0.125 0.773 0.319 0.201 0.203 0.325 0.478 0.325 0.779v10.572c0 0.302-0.125 0.579-0.322 0.776-0.198 0.197-0.474 0.322-0.777 0.322h-10.572c-0.297 0-0.574-0.123-0.772-0.32-0.203-0.205-0.326-0.481-0.326-0.778v-10.572c0-0.302 0.125-0.579 0.323-0.777 0.197-0.197 0.473-0.322 0.775-0.322zM11.875 20.196h-10.572c-0.036 0-0.071 0.016-0.094 0.039-0.025 0.024-0.040 0.059-0.040 0.095v10.572c0 0.037 0.014 0.071 0.036 0.092 0.027 0.029 0.060 0.042 0.098 0.042h10.572c0.036 0 0.071-0.015 0.095-0.040 0.023-0.023 0.038-0.058 0.038-0.094v-10.572c0-0.036-0.015-0.072-0.038-0.095s-0.060-0.039-0.095-0.039z"></path>
<path d="M25.518 22.549c-0.042-0.398-0.191-0.774-0.419-1.106-0.252-0.37-0.592-0.665-0.973-0.871-0.345-0.211-0.711-0.346-1.115-0.405-0.372-0.052-0.766-0.025-1.129 0.077-0.384 0.113-0.738 0.302-1.026 0.559-0.349 0.29-0.632 0.65-0.856 1.042-0.15 0.244-0.271 0.497-0.363 0.774-0.089 0.261-0.146 0.532-0.167 0.793-0.017 0.248-0.008 0.52 0.042 0.768 0.045 0.263 0.13 0.505 0.251 0.741 0.14 0.222 0.301 0.435 0.49 0.604 0.211 0.209 0.451 0.375 0.711 0.53 0.329 0.207 0.7 0.326 1.072 0.376 0.326 0.039 0.652 0.010 0.966-0.088 0.236-0.069 0.487-0.185 0.698-0.346 0.173-0.138 0.333-0.295 0.44-0.501 0.081-0.111 0.104-0.257 0.060-0.404-0.029-0.142-0.133-0.254-0.248-0.319-0.129-0.086-0.273-0.108-0.404-0.060-0.134 0.064-0.259 0.148-0.366 0.236-0.246 0.218-0.547 0.338-0.879 0.382-0.322 0.013-0.634-0.073-0.905-0.248-0.25-0.135-0.47-0.313-0.622-0.555-0.127-0.271-0.176-0.585-0.126-0.891 0.060-0.404 0.209-0.766 0.422-1.111 0.247-0.538 0.685-0.973 1.214-1.248 0.451-0.178 0.947-0.143 1.345 0.118 0.264 0.138 0.461 0.343 0.593 0.598 0.123 0.286 0.175 0.585 0.146 0.879-0.008 0.15-0.004 0.318 0.040 0.464 0.049 0.131 0.142 0.224 0.257 0.29 0.117 0.064 0.261 0.088 0.392 0.040s0.255-0.132 0.32-0.248c0.139-0.265 0.189-0.57 0.137-0.869l0.001 0.002z"></path>
<path d="M21.051 15.014l9.102 5.381c0.261 0.156 0.435 0.401 0.504 0.671 0.070 0.271 0.035 0.573-0.118 0.831l-5.381 9.102c-0.152 0.258-0.399 0.434-0.669 0.503-0.223 0.060-0.467 0.045-0.692-0.049-0.082 0-8.37-4.941-9.244-5.449-0.259-0.153-0.433-0.401-0.502-0.667-0.058-0.23-0.045-0.474 0.050-0.7 0-0.090 4.939-8.363 5.448-9.237 0.152-0.259 0.399-0.434 0.669-0.503 0.224-0.059 0.467-0.045 0.692 0.049l0.14 0.068zM29.662 21.221l-9.1-5.379c-0.031-0.018-0.068-0.022-0.099-0.014l-0.080 0.056-5.386 9.111c-0.018 0.029-0.021 0.067-0.013 0.1l0.054 0.077 9.108 5.385c0.031 0.017 0.067 0.021 0.099 0.014l0.080-0.055 5.385-9.108 0.014-0.103c-0.010-0.033-0.033-0.065-0.063-0.084z"></path>
<path d="M18.519 8.59c-0.161-0.148-0.365-0.278-0.583-0.351l-3.837-1.86-0.455-0.244c-0.119-0.041-0.239-0.082-0.358-0.123-0.129-0.021-0.252-0.025-0.38 0.004-0.278 0.088-0.511 0.297-0.629 0.584-0.041 0.119-0.062 0.247-0.031 0.375 0.021 0.148 0.058 0.29 0.109 0.426 0.063 0.167 0.115 0.304 0.16 0.425l1.511 4.002c0.079 0.161 0.139 0.277 0.174 0.368 0.029 0.076 0.077 0.161 0.137 0.225 0.107 0.099 0.253 0.165 0.406 0.158 0.139 0 0.29-0.056 0.409-0.154 0.119-0.096 0.185-0.244 0.185-0.38-0.035-0.231-0.106-0.463-0.201-0.67l-0.297-0.787 1.846-1.668 0.737 0.346 0.319 0.157c0.103 0.046 0.203 0.078 0.295 0.095 0.077 0.023 0.16 0.010 0.225 0.002 0.092-0.033 0.161-0.079 0.225-0.136 0.119-0.098 0.171-0.238 0.185-0.382 0.010-0.16-0.042-0.296-0.154-0.409h0.001zM14.444 9.678l-1.019-2.473 2.372 1.236-1.352 1.237z"></path>
<path d="M6.529 7.262l7.935-6.987c0.231-0.201 0.519-0.288 0.791-0.273 0.275 0.018 0.539 0.138 0.735 0.348l7.009 7.958c0.199 0.23 0.289 0.517 0.271 0.795s-0.144 0.553-0.371 0.752l-7.934 6.988c-0.229 0.199-0.519 0.289-0.793 0.271-0.281-0.017-0.556-0.146-0.755-0.368l-6.987-7.937c-0.201-0.232-0.288-0.517-0.273-0.792 0.018-0.271 0.137-0.536 0.346-0.733l0.025-0.023zM15.106 0.996l-7.94 6.989c-0.028 0.025-0.045 0.059-0.046 0.090l0.029 0.094 6.99 7.939c0.024 0.025 0.057 0.045 0.090 0.046 0.036 0.001 0.073-0.009 0.1-0.031l7.935-6.988c0.026-0.021 0.043-0.056 0.045-0.090l-0.031-0.099-6.988-7.935c-0.023-0.027-0.060-0.045-0.092-0.046l-0.092 0.031z"></path>
</symbol>
<symbol id="icon-door" viewBox="0 0 29 32">
<title>door</title>
<path d="M7.458 0h14.361c0.203 0 0.386 0.083 0.518 0.215s0.215 0.316 0.215 0.518v25.52c0 0.202-0.083 0.385-0.215 0.518-0.138 0.132-0.32 0.214-0.518 0.214h-14.361c-0.201 0-0.381-0.082-0.512-0.21-0.139-0.137-0.222-0.321-0.222-0.522v-25.52c0-0.202 0.083-0.385 0.215-0.518s0.315-0.215 0.518-0.215zM21.416 1.137h-13.555v24.712h13.555v-24.712z"></path>
<path d="M7.292 5.468h14.692v1.137h-14.692z"></path>
<path d="M7.292 20.381h14.692v1.137h-14.692z"></path>
<path d="M3.217 26.985c-0.314 0-0.568-0.255-0.568-0.568s0.255-0.568 0.568-0.568h22.843c0.314 0 0.568 0.255 0.568 0.568s-0.255 0.568-0.568 0.568h-22.843z"></path>
<path d="M0.645 29.522c-0.314 0-0.568-0.255-0.568-0.568s0.255-0.568 0.568-0.568h27.987c0.314 0 0.568 0.255 0.568 0.568s-0.255 0.568-0.568 0.568h-27.987z"></path>
<path d="M28.006 28.953v2.314c0 0.199-0.085 0.385-0.218 0.515-0.131 0.133-0.318 0.218-0.515 0.218h-25.269c-0.196 0-0.384-0.082-0.518-0.216-0.131-0.135-0.215-0.315-0.215-0.517v-2.314h1.137v1.91h24.461v-1.91h1.137z"></path>
<path d="M4.898 26.417v2.536h-1.137v-2.536z"></path>
<path d="M25.516 26.417v2.536h-1.137v-2.536z"></path>
<path d="M19.432 15.249c-0.314 0-0.568-0.255-0.568-0.568s0.255-0.568 0.568-0.568h2.553c0.314 0 0.568 0.255 0.568 0.568s-0.255 0.568-0.568 0.568h-2.553z"></path>
</symbol>
<symbol id="icon-elevator" viewBox="0 0 24 32">
<title>elevator</title>
<path d="M1.005 31.434v-24.544c0-0.215 0.088-0.413 0.23-0.554s0.339-0.23 0.554-0.23h17.363c0.215 0 0.413 0.088 0.554 0.23 0.142 0.147 0.23 0.34 0.23 0.554v24.544h-1.133v-24.196h-16.666v24.196h-1.133z"></path>
<path d="M0.481 32c-0.313 0-0.566-0.254-0.566-0.566s0.254-0.566 0.566-0.566h19.98c0.313 0 0.566 0.254 0.566 0.566s-0.254 0.566-0.566 0.566h-19.98z"></path>
<path d="M11.037 6.105v25.328h-1.133v-25.328z"></path>
<path d="M10.47 0c1.235 0 2.353 0.501 3.162 1.31s1.31 1.927 1.31 3.162c0 0.313-0.254 0.566-0.566 0.566h-7.812c-0.312 0-0.566-0.254-0.566-0.566v-0.014c0.004-1.229 0.505-2.342 1.31-3.147 0.809-0.809 1.929-1.31 3.162-1.31zM12.832 2.11c-0.603-0.603-1.44-0.978-2.362-0.978s-1.758 0.374-2.362 0.978c-0.477 0.477-0.811 1.1-0.929 1.795h6.583c-0.119-0.696-0.452-1.318-0.929-1.795z"></path>
<path d="M11.037 4.472c0 0.313-0.254 0.566-0.566 0.566s-0.566-0.254-0.566-0.566v-1.803c0-0.312 0.254-0.566 0.566-0.566s0.566 0.254 0.566 0.566v1.803z"></path>
<path d="M21.92 17.926c-0.221 0.219-0.579 0.219-0.799-0.002s-0.219-0.579 0.002-0.799l0.914-0.913c0.221-0.219 0.578-0.219 0.798 0.001l0.914 0.913c0.221 0.221 0.221 0.579 0 0.8s-0.579 0.221-0.8 0l-0.514-0.514-0.515 0.514z"></path>
<path d="M21.121 20.978c-0.221-0.221-0.221-0.579 0-0.8s0.579-0.221 0.8 0l0.514 0.514 0.515-0.514c0.221-0.219 0.579-0.219 0.799 0.002s0.219 0.579-0.002 0.799l-0.913 0.913c-0.221 0.221-0.579 0.221-0.8 0l-0.913-0.913z"></path>
</symbol>
<symbol id="icon-floor" viewBox="0 0 24 32">
<title>floor</title>
<path d="M17.923 3.915c0 0.36-0.103 0.508-0.275 0.752-0.092 0.131-0.197 0.28-0.285 0.468-0.133 0.284-0.012 0.621 0.272 0.755 0.078 0.036 0.16 0.054 0.24 0.054 0.213 0 0.417-0.121 0.514-0.326 0.047-0.1 0.111-0.192 0.187-0.299 0.203-0.289 0.481-0.685 0.481-1.403s-0.278-1.113-0.481-1.402c-0.172-0.245-0.275-0.392-0.275-0.752s0.103-0.508 0.275-0.751c0.029-0.042 0.058-0.083 0.086-0.126 0.175-0.26 0.106-0.611-0.153-0.787s-0.611-0.106-0.787 0.153c-0.024 0.036-0.049 0.071-0.075 0.107-0.203 0.289-0.481 0.685-0.481 1.403s0.278 1.113 0.481 1.403c0.172 0.244 0.275 0.392 0.275 0.751z"></path>
<path d="M10.955 3.915c0 0.36-0.103 0.508-0.275 0.752-0.092 0.131-0.197 0.28-0.285 0.468-0.133 0.284-0.011 0.621 0.272 0.755 0.078 0.036 0.16 0.054 0.24 0.054 0.213 0 0.417-0.121 0.514-0.326 0.047-0.1 0.111-0.192 0.187-0.299 0.203-0.289 0.481-0.685 0.481-1.402s-0.278-1.114-0.481-1.403c-0.172-0.245-0.275-0.392-0.275-0.752s0.103-0.508 0.275-0.751c0.029-0.042 0.058-0.083 0.086-0.126 0.175-0.26 0.107-0.611-0.153-0.787s-0.612-0.106-0.787 0.153c-0.025 0.036-0.049 0.072-0.075 0.107-0.203 0.289-0.481 0.685-0.481 1.403s0.278 1.113 0.481 1.403c0.172 0.244 0.275 0.392 0.275 0.751v0z"></path>
<path d="M3.987 3.915c0 0.36-0.103 0.508-0.275 0.752-0.092 0.131-0.197 0.28-0.285 0.468-0.133 0.284-0.011 0.621 0.272 0.755 0.078 0.036 0.16 0.054 0.24 0.054 0.213 0 0.417-0.121 0.514-0.326 0.047-0.1 0.111-0.192 0.187-0.299 0.203-0.289 0.481-0.685 0.481-1.402s-0.278-1.114-0.481-1.403c-0.172-0.245-0.275-0.392-0.275-0.752s0.103-0.508 0.275-0.751c0.029-0.042 0.058-0.083 0.086-0.126 0.175-0.26 0.106-0.611-0.153-0.787s-0.611-0.106-0.787 0.153c-0.024 0.036-0.049 0.071-0.075 0.107-0.203 0.289-0.481 0.685-0.481 1.403s0.278 1.113 0.481 1.403c0.172 0.244 0.275 0.392 0.275 0.751v0z"></path>
<path d="M22.636 8.527c-0.634 0-1.176 0.392-1.401 0.945h-0.905c-0.313 0-0.567 0.254-0.567 0.567s0.254 0.567 0.567 0.567h0.905c0.225 0.553 0.767 0.945 1.401 0.945 0.833 0 1.511-0.678 1.511-1.512s-0.678-1.512-1.511-1.512v0zM22.636 10.416c-0.209 0-0.379-0.169-0.379-0.378s0.17-0.378 0.379-0.378c0.208 0 0.378 0.169 0.378 0.378s-0.17 0.378-0.378 0.378z"></path>
<path d="M22.257 29.087v-0.905c0-0.313-0.254-0.567-0.566-0.567s-0.567 0.254-0.567 0.567v0.905c-0.554 0.225-0.945 0.767-0.945 1.401 0 0.834 0.678 1.512 1.512 1.512s1.511-0.678 1.511-1.512c0-0.633-0.391-1.176-0.945-1.401zM21.691 30.866c-0.208 0-0.379-0.169-0.379-0.378s0.17-0.378 0.379-0.378c0.208 0 0.378 0.169 0.378 0.378s-0.17 0.378-0.378 0.378z"></path>
<path d="M15.232 10.606h2.73c0.313 0 0.567-0.254 0.567-0.567s-0.254-0.567-0.567-0.567h-2.73c-0.313 0-0.567 0.254-0.567 0.567s0.254 0.567 0.567 0.567z"></path>
<path d="M9.822 19.224h-2.73c-0.313 0-0.567 0.254-0.567 0.567s0.254 0.567 0.567 0.567h2.73c0.313 0 0.567-0.254 0.567-0.567s-0.254-0.567-0.567-0.567z"></path>
<path d="M10.37 14.915c0 0.312 0.254 0.566 0.567 0.566h2.73c0.313 0 0.567-0.254 0.567-0.566s-0.254-0.567-0.567-0.567h-2.73c-0.313 0-0.567 0.254-0.567 0.567z"></path>
<path d="M14.903 19.224h-2.73c-0.313 0-0.567 0.254-0.567 0.567s0.254 0.567 0.567 0.567h2.73c0.313 0 0.567-0.254 0.567-0.567s-0.254-0.567-0.567-0.567z"></path>
<path d="M21.407 18.629c0.057 0.018 0.114 0.027 0.171 0.027 0.24 0 0.464-0.154 0.541-0.396 0.092-0.293 0.139-0.597 0.139-0.907 0-0.822-0.342-1.618-0.939-2.182-0.227-0.215-0.586-0.206-0.802 0.022s-0.205 0.587 0.022 0.802c0.378 0.357 0.586 0.84 0.586 1.359 0 0.193-0.029 0.383-0.087 0.565-0.094 0.298 0.071 0.617 0.37 0.711v0z"></path>
<path d="M16.019 14.348c-0.313 0-0.567 0.254-0.567 0.567s0.254 0.566 0.567 0.566h2.73c0.313 0 0.567-0.254 0.567-0.566s-0.254-0.567-0.567-0.567h-2.73z"></path>
<path d="M19.806 19.141c-0.178 0.055-0.364 0.083-0.554 0.083h-1.997c-0.313 0-0.567 0.254-0.567 0.567s0.254 0.567 0.567 0.567h1.997c0.303 0 0.602-0.045 0.889-0.134 0.3-0.092 0.467-0.41 0.375-0.71s-0.411-0.467-0.71-0.374v0z"></path>
<path d="M20.874 26.171c0.106 0.182 0.296 0.284 0.492 0.284 0.096 0 0.194-0.025 0.283-0.076 0.271-0.157 0.364-0.504 0.208-0.775-0.536-0.927-1.534-1.504-2.604-1.504h-0.174c-0.313 0-0.567 0.254-0.567 0.566s0.254 0.567 0.567 0.567h0.174c0.667 0 1.288 0.359 1.622 0.937z"></path>
<path d="M4.502 10.039c0 0.314 0.254 0.567 0.567 0.567h2.73c0.313 0 0.567-0.254 0.567-0.567s-0.254-0.567-0.567-0.567h-2.73c-0.313 0-0.567 0.254-0.567 0.567z"></path>
<path d="M5.307 19.791c0-0.313-0.254-0.567-0.566-0.567h-1.704c-0.428 0-0.841 0.088-1.228 0.262-0.287 0.128-0.414 0.463-0.286 0.749 0.094 0.21 0.301 0.335 0.518 0.335 0.077 0 0.156-0.016 0.231-0.049 0.241-0.108 0.498-0.163 0.765-0.163h1.703c0.313 0 0.567-0.254 0.567-0.567z"></path>
<path d="M1.923 23.733c-0.482-0.358-0.758-0.906-0.758-1.505 0-0.116 0.011-0.233 0.032-0.346 0.058-0.308-0.145-0.604-0.453-0.662s-0.604 0.146-0.661 0.453c-0.034 0.182-0.052 0.368-0.052 0.554 0 0.948 0.455 1.851 1.217 2.415 0.101 0.076 0.219 0.111 0.337 0.111 0.173 0 0.345-0.079 0.456-0.229 0.187-0.252 0.134-0.607-0.117-0.793v0z"></path>
<path d="M0.544 12.246c0.058 0.020 0.119 0.029 0.178 0.029 0.238 0 0.459-0.151 0.538-0.389 0.225-0.677 0.826-1.174 1.532-1.265 0.311-0.041 0.53-0.325 0.489-0.636-0.040-0.31-0.325-0.529-0.635-0.489-1.135 0.148-2.101 0.946-2.462 2.033-0.098 0.297 0.063 0.618 0.36 0.716v0z"></path>
<path d="M6.564 24.1h-2.73c-0.313 0-0.567 0.254-0.567 0.566s0.254 0.567 0.567 0.567h2.73c0.313 0 0.567-0.254 0.567-0.567s-0.254-0.566-0.567-0.566z"></path>
<path d="M11.645 24.1h-2.73c-0.313 0-0.567 0.254-0.567 0.566s0.254 0.567 0.567 0.567h2.73c0.313 0 0.567-0.254 0.567-0.567s-0.254-0.566-0.567-0.566z"></path>
<path d="M10.15 10.606h2.73c0.313 0 0.567-0.254 0.567-0.567s-0.254-0.567-0.567-0.567h-2.73c-0.313 0-0.567 0.254-0.567 0.567s0.254 0.567 0.567 0.567z"></path>
<path d="M5.289 14.915c0 0.312 0.254 0.566 0.567 0.566h2.731c0.313 0 0.567-0.254 0.567-0.566s-0.254-0.567-0.567-0.567h-2.731c-0.313 0-0.567 0.254-0.567 0.567z"></path>
<path d="M3.505 14.348h-0.468c-0.594 0-1.14-0.273-1.498-0.749-0.188-0.25-0.543-0.301-0.793-0.113s-0.301 0.544-0.113 0.794c0.574 0.763 1.45 1.201 2.404 1.201h0.468c0.313 0 0.567-0.254 0.567-0.566s-0.254-0.567-0.567-0.567z"></path>
<path d="M16.726 24.1h-2.73c-0.313 0-0.567 0.254-0.567 0.566s0.254 0.567 0.567 0.567h2.73c0.313 0 0.567-0.254 0.567-0.567s-0.254-0.566-0.567-0.566z"></path>
</symbol>
<symbol id="icon-gate" viewBox="0 0 48 32">
<title>gate</title>
<path d="M24.707 6.605c0 0.391-0.317 0.707-0.707 0.707s-0.707-0.316-0.707-0.707c0-0.39 0.317-0.707 0.707-0.707s0.707 0.317 0.707 0.707z"></path>
<path d="M21.272 2.054c1.683-1.011 3.774-1.011 5.456 0 0.113 0.069 0.238 0.1 0.361 0.1 0.239 0 0.471-0.121 0.604-0.341 0.2-0.332 0.093-0.765-0.241-0.965-2.129-1.279-4.775-1.279-6.905 0-0.333 0.2-0.441 0.633-0.241 0.965 0.2 0.333 0.632 0.441 0.965 0.241z"></path>
<path d="M26.145 4.394c0.199-0.333 0.092-0.766-0.242-0.966-1.175-0.704-2.633-0.704-3.807 0-0.333 0.2-0.441 0.633-0.241 0.966s0.632 0.441 0.965 0.241c0.728-0.437 1.632-0.437 2.359 0 0.114 0.068 0.239 0.1 0.362 0.1 0.239 0 0.471-0.122 0.604-0.341v0z"></path>
<path d="M46.546 2.147h-1.504c-0.802 0-1.454 0.652-1.454 1.455v2.302h-1.6v-1.552c0-0.233-0.115-0.452-0.308-0.582s-0.439-0.157-0.655-0.071l-15.031 6.012c-0.267 0.106-0.442 0.365-0.442 0.652v21.043c0 0.233 0.115 0.451 0.308 0.582 0.118 0.080 0.256 0.12 0.395 0.12 0.088 0 0.177-0.016 0.261-0.050l15.031-6.012c0.267-0.107 0.442-0.365 0.442-0.652v-1.552h1.6v3.054c0 0.388 0.314 0.703 0.703 0.703h3.006c0.388 0 0.703-0.315 0.703-0.703v-23.297c0-0.803-0.652-1.455-1.454-1.455v0zM44.994 3.603c0-0.027 0.022-0.049 0.048-0.049h1.504c0.026 0 0.048 0.022 0.048 0.049v2.302h-1.599v-2.302zM32.969 8.438l1.6-0.641v19.528l-1.6 0.639v-19.527zM31.563 28.528l-1.599 0.639v-19.527l1.599-0.641v19.528zM26.958 10.842l1.599-0.64v19.528l-1.599 0.64v-19.527zM40.581 24.92l-1.599 0.641v-13.692c0-0.388-0.314-0.703-0.703-0.703-0.388 0-0.703 0.315-0.703 0.703v14.254l-1.599 0.64v-19.527l1.599-0.64v2.269c0 0.388 0.315 0.703 0.703 0.703 0.389 0 0.703-0.315 0.703-0.703v-2.831l1.599-0.639v19.527zM41.988 22.439v-15.127h1.6v15.127h-1.6zM44.994 26.196v-18.885h1.599v18.885h-1.599z"></path>
<path d="M22.007 9.714l-15.031-6.012c-0.216-0.086-0.462-0.061-0.655 0.071s-0.308 0.349-0.308 0.582v1.552h-1.6v-2.302c0-0.803-0.652-1.455-1.454-1.455h-1.504c-0.802 0-1.454 0.652-1.454 1.455v23.297c0 0.388 0.315 0.703 0.703 0.703h3.006c0.389 0 0.703-0.315 0.703-0.703v-3.054h1.6v1.552c0 0.287 0.175 0.546 0.442 0.652l15.031 6.012c0.084 0.034 0.172 0.050 0.261 0.050 0.139 0 0.277-0.041 0.395-0.12 0.193-0.131 0.308-0.349 0.308-0.583v-21.042c0-0.287-0.175-0.546-0.442-0.652zM16.437 8.999l1.599 0.641v19.527l-1.599-0.639v-19.528zM15.031 27.965l-1.6-0.64v-19.528l1.6 0.641v19.527zM1.454 3.554h1.504c0.026 0 0.048 0.022 0.048 0.049v2.302h-1.599v-2.302c0-0.027 0.022-0.049 0.048-0.049zM3.006 26.196h-1.599v-18.885h1.599v18.885zM4.412 22.439v-15.127h1.6v15.127h-1.6zM7.419 5.393l1.599 0.639v14.104c0 0.388 0.314 0.703 0.703 0.703s0.703-0.315 0.703-0.703v-13.542l1.599 0.64v19.527l-1.599-0.64v-2.981c0-0.389-0.315-0.703-0.703-0.703s-0.703 0.314-0.703 0.703v2.419l-1.599-0.641v-19.527zM21.042 30.37l-1.599-0.64v-19.528l1.599 0.64v19.527z"></path>
</symbol>
<symbol id="icon-guitar" viewBox="0 0 31 32">
<title>guitar</title>
<path d="M2.582 17.604c0.229 0.017 0.467-0.022 0.701-0.113 0.134-0.053 0.267-0.122 0.397-0.209 0.782-0.521 1.008-1.366 0.548-2.057 0 0 0 0 0 0l-2.628-3.945 3.618-2.41 1.948 2.923c-0.24 0.045-0.488 0.149-0.735 0.313-0.8 0.532-1.031 1.35-0.576 2.034 0.384 0.576 1.051 0.753 1.717 0.493 0.132-0.052 0.263-0.12 0.393-0.207 0.782-0.521 1.008-1.367 0.548-2.057 0 0 0 0 0-0.001l-3.502-5.256c-0.217-0.327-0.66-0.415-0.987-0.198l-3.767 2.509c-0.158 0.106-0.266 0.266-0.303 0.452s-0.001 0.376 0.105 0.534l2.822 4.236c-0.239 0.045-0.488 0.149-0.735 0.313-0.358 0.238-0.611 0.538-0.73 0.867-0.142 0.39-0.088 0.804 0.154 1.167 0.24 0.362 0.599 0.577 1.011 0.61v0zM7.521 13.761c-0.155 0.103-0.686 0.405-0.998-0.065-0.276-0.415 0.103-0.757 0.353-0.923 0.084-0.057 0.177-0.109 0.273-0.146 0.245-0.096 0.51-0.095 0.698 0.187v0.001c0.313 0.468-0.17 0.842-0.325 0.946v0zM4.395 7.632l0.38 0.571-3.618 2.41-0.38-0.57 3.618-2.41zM2.169 16.102c0.061-0.165 0.21-0.334 0.422-0.474 0.084-0.056 0.177-0.109 0.274-0.146 0.244-0.096 0.509-0.095 0.697 0.187v0.001c0.313 0.468-0.17 0.842-0.325 0.946-0.204 0.137-0.414 0.204-0.594 0.19-0.167-0.013-0.3-0.096-0.405-0.253-0.103-0.154-0.124-0.297-0.069-0.449z"></path>
<path d="M31.155 17.811c-0.135-0.134-0.314-0.208-0.504-0.208l-4.527 0.011c-0.392 0.001-0.711 0.321-0.71 0.713l0.012 5.093c-0.228-0.099-0.494-0.149-0.786-0.149-0.43 0.002-0.805 0.111-1.087 0.319-0.334 0.246-0.518 0.623-0.517 1.059 0.001 0.434 0.181 0.812 0.506 1.066 0.286 0.223 0.664 0.34 1.093 0.339 0.259-0.001 0.496-0.045 0.703-0.127 0.548-0.214 0.892-0.684 0.891-1.286l-0.011-4.739 4.347-0.010 0.008 3.516c-0.229-0.098-0.494-0.149-0.786-0.149-0.961 0.003-1.605 0.556-1.604 1.378 0.002 0.434 0.181 0.812 0.507 1.066 0.286 0.222 0.664 0.34 1.093 0.339 0.259-0.001 0.496-0.045 0.703-0.127 0.547-0.214 0.891-0.685 0.891-1.286l-0.015-6.317c-0.001-0.19-0.075-0.368-0.209-0.502v0zM24.634 25.251c-0.245 0.001-0.458-0.059-0.599-0.17-0.132-0.103-0.197-0.245-0.198-0.435 0-0.185 0.061-0.316 0.191-0.412 0.045-0.034 0.099-0.063 0.16-0.086 0.126-0.049 0.281-0.076 0.453-0.076 0.251-0.001 0.464 0.055 0.601 0.157 0.126 0.094 0.185 0.226 0.186 0.413 0.002 0.564-0.607 0.609-0.794 0.609v0zM26.217 19.099l-0.002-0.685 4.347-0.010 0.002 0.685-4.347 0.010zM29.783 25.24c-0.245 0.001-0.458-0.060-0.599-0.17-0.132-0.103-0.197-0.245-0.198-0.435 0-0.28 0.157-0.426 0.349-0.501 0.151-0.059 0.323-0.073 0.456-0.073 0.251-0.001 0.464 0.055 0.601 0.157 0.127 0.094 0.186 0.226 0.186 0.413 0.002 0.564-0.607 0.609-0.794 0.609v0z"></path>
<path d="M18.692 28.561c-1.643 2.565-5.348 3.384-8.618 1.908-1.907-0.861-3.385-2.393-4.052-4.203-0.533-1.446-0.493-2.951 0.112-4.236 0.431-0.915 1.134-1.693 2.031-2.25 1.22-0.757 2.135-1.847 2.648-3.152 0.082-0.206-0.020-0.439-0.226-0.519s-0.439 0.020-0.519 0.226c-0.449 1.144-1.253 2.099-2.325 2.764-1.029 0.638-1.836 1.534-2.334 2.589-0.698 1.482-0.747 3.206-0.139 4.855 0.741 2.010 2.373 3.707 4.475 4.656 2.198 0.993 4.582 1.037 6.532 0.274 1.271-0.497 2.358-1.337 3.090-2.48 0.12-0.186 0.065-0.434-0.121-0.553s-0.435-0.065-0.553 0.121v0z"></path>
<path d="M22.28 7.834c0.066-0.004 0.132-0.019 0.195-0.043 0.007-0.002 0.012-0.006 0.019-0.008 0.168-0.072 0.3-0.212 0.363-0.383l0.22-0.605 0.59 0.258c0.102 0.044 0.212 0.044 0.307 0.006s0.177-0.111 0.221-0.213c0.088-0.203-0.004-0.438-0.207-0.527l-0.637-0.279 0.346-0.952 0.617 0.27c0.101 0.044 0.211 0.043 0.306 0.006s0.177-0.111 0.221-0.212c0.089-0.203-0.003-0.439-0.206-0.527l-0.664-0.291 0.344-0.944 0.446 0.195c0.102 0.044 0.212 0.044 0.307 0.007s0.177-0.111 0.221-0.212c0.089-0.203-0.004-0.439-0.207-0.528l-0.493-0.216 0.249-0.684c0.12-0.328-0.037-0.694-0.358-0.835l-2.427-1.062c-0.321-0.14-0.696-0.006-0.856 0.304l-0.334 0.647-0.494-0.217c-0.203-0.088-0.439 0.004-0.527 0.207s0.004 0.439 0.207 0.527l0.447 0.196-0.46 0.892-0.67-0.293c-0.203-0.089-0.439 0.004-0.527 0.207s0.003 0.439 0.206 0.527l0.623 0.273-0.464 0.9-0.637-0.279c-0.203-0.089-0.439 0.004-0.527 0.207s0.003 0.439 0.206 0.527l0.591 0.258-0.296 0.572c-0.083 0.162-0.096 0.354-0.035 0.526 0.024 0.068 0.059 0.131 0.103 0.187l-2.191 5.007c-2.624-0.527-4.74 0.291-5.566 2.177-0.213 0.484-0.347 0.929-0.41 1.358-0.033 0.22 0.119 0.423 0.338 0.456 0.071 0.010 0.141 0.002 0.204-0.024 0.129-0.050 0.229-0.167 0.25-0.315 0.053-0.358 0.168-0.735 0.352-1.154 0.903-2.063 3.289-1.952 4.501-1.744l-2.443 5.581c-0.073 0.023-0.145 0.047-0.217 0.075-0.764 0.299-1.365 0.877-1.694 1.629s-0.346 1.587-0.047 2.351c0.299 0.764 0.877 1.365 1.629 1.695 0.751 0.329 1.586 0.346 2.35 0.047s1.366-0.878 1.695-1.629c0.329-0.752 0.346-1.587 0.047-2.351-0.028-0.072-0.060-0.141-0.092-0.21l2.44-5.574c0.971 0.757 2.655 2.461 1.71 4.619-0.149 0.34-0.346 0.658-0.586 0.946-1.333 1.591-1.858 3.557-1.478 5.536 0.159 0.826 0.135 1.639-0.073 2.415-0.056 0.214 0.070 0.434 0.284 0.491 0.086 0.023 0.172 0.016 0.249-0.014 0.115-0.045 0.208-0.142 0.241-0.27 0.239-0.896 0.268-1.829 0.086-2.775-0.334-1.737 0.13-3.467 1.306-4.87 0.289-0.346 0.526-0.729 0.706-1.14v0c0.475-1.085 0.455-2.235-0.059-3.327-0.408-0.866-1.115-1.68-2.055-2.368l2.193-5.009zM16.783 18.394c-0.279-0.297-0.619-0.536-1.003-0.705s-0.791-0.255-1.199-0.259l4.732-10.811 2.202 0.964c-1.605 3.586-3.156 7.211-4.732 10.811zM21.851 0.842l2.191 0.958-1.889 5.189-2.831-1.24 2.529-4.908zM16.627 21.413c-0.243 0.556-0.688 0.983-1.252 1.204s-1.182 0.208-1.738-0.035-0.983-0.688-1.203-1.253c-0.221-0.564-0.209-1.182 0.034-1.737s0.688-0.983 1.253-1.204c0.565-0.221 1.182-0.208 1.737 0.035s0.983 0.688 1.203 1.253c0.221 0.564 0.209 1.181-0.034 1.737z"></path>
<path d="M8.127 24.498c-0.306 0.7 0.015 1.52 0.715 1.826l5.3 2.32c0.35 0.153 0.73 0.15 1.060 0.021s0.613-0.385 0.766-0.735c0.306-0.701-0.014-1.52-0.715-1.827l-5.3-2.32c-0.339-0.149-0.716-0.156-1.061-0.021s-0.616 0.397-0.766 0.736zM14.932 26.837c0.296 0.129 0.431 0.476 0.301 0.771s-0.475 0.431-0.771 0.301l-5.3-2.319c-0.296-0.13-0.431-0.476-0.301-0.772 0.062-0.143 0.177-0.253 0.323-0.31s0.304-0.054 0.447 0.009l5.3 2.32z"></path>
<path d="M20.274 9.624c0.095-0.037 0.177-0.111 0.221-0.212 0.089-0.203-0.004-0.439-0.207-0.527l-1.107-0.484c-0.203-0.089-0.439 0.003-0.527 0.206s0.003 0.439 0.206 0.528l1.107 0.485c0.102 0.044 0.212 0.044 0.307 0.006v0z"></path>
<path d="M19.603 11.159c0.095-0.037 0.177-0.111 0.22-0.212 0.089-0.203-0.003-0.439-0.206-0.527l-1.107-0.485c-0.203-0.088-0.439 0.004-0.528 0.207s0.004 0.439 0.207 0.527l1.107 0.485c0.102 0.044 0.211 0.043 0.307 0.006z"></path>
<path d="M18.931 12.693c0.095-0.038 0.177-0.111 0.221-0.212 0.089-0.203-0.004-0.439-0.207-0.528l-1.107-0.485c-0.203-0.089-0.439 0.003-0.527 0.207s0.003 0.439 0.206 0.527l1.108 0.485c0.101 0.044 0.211 0.044 0.306 0.006z"></path>
<path d="M18.26 14.227c0.095-0.037 0.177-0.111 0.221-0.212 0.089-0.203-0.004-0.439-0.207-0.527l-1.107-0.485c-0.203-0.089-0.439 0.003-0.527 0.206s0.003 0.439 0.206 0.527l1.107 0.485c0.102 0.044 0.212 0.044 0.307 0.006z"></path>
<path d="M15.968 14.743c-0.089 0.203 0.004 0.439 0.207 0.527l1.107 0.485c0.101 0.044 0.211 0.043 0.306 0.006 0.096-0.037 0.177-0.111 0.221-0.212 0.089-0.203-0.003-0.439-0.206-0.528l-1.108-0.485c-0.203-0.089-0.438 0.004-0.527 0.207z"></path>
<path d="M20.704 4.765c-0.203-0.089-0.439 0.003-0.527 0.206s0.003 0.439 0.206 0.528c0.203 0.089 0.439-0.004 0.528-0.207 0.088-0.203-0.004-0.438-0.207-0.527z"></path>
<path d="M21.946 5.302c-0.203-0.089-0.439 0.004-0.528 0.207s0.004 0.438 0.207 0.527c0.203 0.089 0.439-0.004 0.527-0.207s-0.003-0.439-0.206-0.527z"></path>
<path d="M21.385 3.206c-0.203-0.089-0.439 0.004-0.527 0.206-0.089 0.204 0.004 0.439 0.207 0.528s0.439-0.004 0.527-0.207c0.089-0.203-0.003-0.438-0.207-0.527z"></path>
<path d="M22.628 3.744c-0.203-0.089-0.438 0.004-0.527 0.207s0.004 0.438 0.207 0.527c0.202 0.089 0.439-0.004 0.527-0.207s-0.003-0.439-0.207-0.527z"></path>
<path d="M22.067 1.647c-0.203-0.089-0.439 0.004-0.527 0.207s0.003 0.439 0.206 0.527c0.203 0.089 0.439-0.003 0.528-0.207s-0.004-0.439-0.207-0.527z"></path>
<path d="M23.31 2.185c-0.203-0.089-0.439 0.004-0.527 0.207-0.089 0.202 0.003 0.438 0.206 0.527s0.438-0.004 0.527-0.207c0.089-0.203-0.003-0.439-0.206-0.527z"></path>
</symbol>
<symbol id="icon-heating" viewBox="0 0 43 32">
<title>heating</title>
<path d="M0.863 0.761h34.538l0.485 0.207 0.208 0.485v29.83l-0.208 0.485-0.485 0.208h-34.71l-0.485-0.208-0.207-0.485v-29.83l0.207-0.485 0.485-0.207h0.171zM34.394 2.462h-32.693v27.813h32.693v-27.813z"></path>
<path d="M6.614 1.612v29.514h-1.701v-29.514z"></path>
<path d="M1.146 5.9h33.801v1.701h-33.801z"></path>
<path d="M41.816 2.97c0.468 0 0.85 0.382 0.85 0.851s-0.382 0.851-0.85 0.851h-6.342c-0.469 0-0.851-0.382-0.851-0.851s0.382-0.851 0.851-0.851h6.342z"></path>
<path d="M41.816 28.067c0.468 0 0.85 0.382 0.85 0.85s-0.382 0.851-0.85 0.851h-6.176c-0.469 0-0.851-0.382-0.851-0.851s0.382-0.85 0.851-0.85h6.176z"></path>
<path d="M40.677 0.024c0.469 0 0.851 0.382 0.851 0.851s-0.382 0.85-0.851 0.85h-2.547c-0.468 0-0.85-0.382-0.85-0.85s0.382-0.851 0.85-0.851h2.547z"></path>
<path d="M38.553 0.875c0-0.469 0.382-0.851 0.851-0.851s0.85 0.382 0.85 0.851v2.503c0 0.469-0.382 0.851-0.85 0.851s-0.851-0.382-0.851-0.851v-2.503z"></path>
<path d="M11.527 1.612v29.514h-1.701v-29.514z"></path>
<path d="M16.441 1.612v29.514h-1.701v-29.514z"></path>
<path d="M21.354 1.612v29.514h-1.701v-29.514z"></path>
<path d="M26.268 1.612v29.514h-1.701v-29.514z"></path>
<path d="M31.181 1.612v29.514h-1.701v-29.514z"></path>
</symbol>
<symbol id="icon-insurance" viewBox="0 0 25 32">
<title>insurance</title>
<path fill="#ffcf00" style="fill: var(--color2, #ffcf00)" d="M12.29 31.272c-2.97-0.983-5.658-3.591-5.643-6.428l0.018-3.368c2.077-0.914 3.862-2.068 5.572-3.303 1.709 1.235 3.585 2.389 5.662 3.303l0.018 3.368c0.015 2.837-2.657 5.445-5.626 6.428z"></path>
<path fill="#207bbb" style="fill: var(--color1, #207bbb)" d="M12.063 31.963c-1.666-0.551-3.253-1.582-4.391-2.879-1.076-1.225-1.757-2.696-1.749-4.243l0.018-3.368c0.001-0.295 0.179-0.549 0.434-0.661 1.018-0.45 1.956-0.952 2.84-1.488 0.895-0.542 1.755-1.131 2.599-1.741 0.265-0.191 0.615-0.177 0.863 0.011 0.826 0.596 1.7 1.178 2.624 1.724 0.916 0.541 1.879 1.046 2.892 1.492 0.285 0.125 0.449 0.413 0.433 0.708l0.018 3.323c0.007 1.548-0.672 3.020-1.745 4.247-1.132 1.294-2.714 2.324-4.378 2.875-0.154 0.050-0.312 0.047-0.456 0zM8.763 28.129c0.914 1.042 2.181 1.885 3.527 2.373 1.344-0.488 2.604-1.33 3.514-2.37 0.853-0.974 1.392-2.117 1.387-3.286l-0.015-2.899c-0.908-0.419-1.78-0.883-2.616-1.378-0.801-0.473-1.575-0.98-2.322-1.506-0.731 0.518-1.483 1.022-2.273 1.5-0.824 0.499-1.678 0.965-2.577 1.383l-0.015 2.899c-0.006 1.167 0.536 2.309 1.391 3.282z"></path>
<path fill="#207bbb" style="fill: var(--color1, #207bbb)" d="M7.282 26.455c0.4 0.025 0.704 0.371 0.68 0.771s-0.371 0.704-0.771 0.679c-0.611-0.040-1.124 0.39-1.597 0.787-0.754 0.633-1.443 1.21-2.553 0.821-0.704-0.246-1.095-0.702-1.165-1.468-0.045-0.492 0.075-1.108 0.358-1.897-0.205-0.317-0.394-0.634-0.567-0.947-1.46-2.654-2.079-5.609-1.547-8.441 0.533-2.841 2.218-5.54 5.356-7.667 0.452-0.306 0.923-0.595 1.41-0.863 0.352-0.193 0.794-0.064 0.987 0.287s0.064 0.794-0.287 0.987c-0.471 0.259-0.904 0.523-1.297 0.789-2.787 1.889-4.277 4.257-4.742 6.735-0.467 2.487 0.089 5.105 1.393 7.474 0.21 0.383 0.434 0.749 0.667 1.097 0.161 0.198 0.214 0.474 0.114 0.728-0.297 0.754-0.43 1.267-0.401 1.586 0.010 0.115 0.078 0.187 0.199 0.229 0.331 0.115 0.719-0.209 1.143-0.565 0.685-0.575 1.431-1.2 2.621-1.122z"></path>
<path fill="#207bbb" style="fill: var(--color1, #207bbb)" d="M17.357 27.906c-0.4 0.025-0.746-0.279-0.771-0.679s0.279-0.746 0.679-0.771c1.191-0.078 1.936 0.547 2.621 1.122 0.424 0.356 0.812 0.681 1.143 0.565 0.121-0.042 0.188-0.114 0.199-0.229 0.029-0.319-0.104-0.832-0.401-1.586-0.1-0.254-0.047-0.531 0.114-0.728 0.233-0.348 0.457-0.715 0.667-1.097 1.303-2.369 1.86-4.987 1.393-7.474-0.465-2.477-1.955-4.846-4.742-6.735-0.393-0.266-0.825-0.53-1.297-0.789-0.351-0.193-0.48-0.635-0.287-0.987s0.635-0.48 0.987-0.287c0.487 0.268 0.958 0.557 1.41 0.863 3.139 2.127 4.823 4.827 5.356 7.667 0.532 2.832-0.086 5.787-1.547 8.441-0.172 0.313-0.362 0.63-0.567 0.947 0.283 0.789 0.403 1.405 0.358 1.897-0.070 0.766-0.461 1.222-1.166 1.468-1.11 0.389-1.799-0.188-2.553-0.821-0.472-0.396-0.985-0.827-1.597-0.787z"></path>
<path fill="#207bbb" style="fill: var(--color1, #207bbb)" d="M9.305 5.265c0.399-0.048 0.762 0.235 0.81 0.634s-0.235 0.762-0.634 0.811c-0.615 0.076-1.186 0.179-1.683 0.306-0.269 0.069-0.513 0.143-0.727 0.224v0.372c0.969 0.763 2.749 1.176 4.743 1.176 1.962 0 4.094-0.41 5.854-1.288v-0.259c-0.251-0.097-0.527-0.181-0.829-0.257-0.491-0.122-1.050-0.217-1.683-0.289-0.399-0.044-0.686-0.403-0.643-0.802s0.403-0.686 0.802-0.643c0.695 0.078 1.316 0.185 1.872 0.323 0.543 0.135 1.027 0.304 1.461 0.511 0.278 0.103 0.476 0.37 0.476 0.683v1.169c-0.003 0.255-0.137 0.502-0.375 0.634-2.058 1.142-4.613 1.672-6.935 1.672-2.48 0-4.744-0.616-5.936-1.747-0.161-0.134-0.263-0.334-0.263-0.559v-1.169c0.002-0.263 0.146-0.517 0.395-0.645 0.392-0.203 0.878-0.376 1.429-0.517 0.556-0.142 1.188-0.257 1.865-0.341z"></path>
<path fill="#207bbb" style="fill: var(--color1, #207bbb)" d="M13.206 3.302c-1.378-0.441-2.112-0.232-2.766-0.046-0.797 0.227-1.51 0.429-2.639-0.018 0.31 0.79 0.744 1.374 1.312 1.772 0.822 0.577 1.966 0.801 3.449 0.728l0.207-0.724c0.155-0.531 0.297-1.014 0.436-1.712zM10.042 1.858c0.95-0.27 2.031-0.578 4.21 0.28 0.338 0.108 0.555 0.451 0.495 0.812-0.187 1.111-0.373 1.749-0.584 2.468-0.097 0.333-0.2 0.685-0.326 1.183-0.074 0.292-0.326 0.519-0.643 0.546-2.077 0.185-3.698-0.099-4.911-0.948-1.227-0.86-1.986-2.253-2.323-4.271-0.038-0.186-0.004-0.387 0.111-0.556 0.226-0.331 0.678-0.417 1.010-0.19 1.565 1.074 2.207 0.891 2.961 0.676z"></path>
<path fill="#207bbb" style="fill: var(--color1, #207bbb)" d="M13.047 7.158c-0.397 0.053-0.763-0.226-0.816-0.623s0.226-0.763 0.623-0.816c1.587-0.217 2.549-0.653 3.173-1.309 0.425-0.447 0.72-1.022 0.964-1.716-0.491-0.083-1.006-0.306-1.565-0.548-1.363-0.59-3.093-1.337-4.967 0.674-0.273 0.293-0.733 0.31-1.027 0.037s-0.31-0.734-0.037-1.027c2.571-2.759 4.828-1.784 6.605-1.015 0.71 0.307 1.312 0.567 1.579 0.393 0.173-0.134 0.403-0.189 0.631-0.129 0.388 0.102 0.62 0.499 0.518 0.887-0.378 1.418-0.804 2.558-1.649 3.446-0.853 0.896-2.080 1.48-4.032 1.746z"></path>
<path fill="#207bbb" style="fill: var(--color1, #207bbb)" d="M15.302 12.284c-0.051 0.397-0.416 0.678-0.813 0.626s-0.677-0.416-0.626-0.813c0.075-0.568 0.295-1.15 0.587-1.703 0.348-0.659 0.807-1.293 1.233-1.81 0.254-0.309 0.712-0.354 1.021-0.099l0.014 0.012c0.471 0.406 0.899 1.137 1.297 2.073 0.365 0.859 0.724 1.928 1.077 3.088 0.116 0.383-0.1 0.788-0.483 0.904s-0.788-0.1-0.904-0.483c-0.335-1.101-0.676-2.118-1.026-2.94-0.147-0.345-0.291-0.649-0.432-0.9-0.185 0.266-0.36 0.547-0.511 0.832-0.22 0.416-0.384 0.836-0.434 1.213z"></path>
<path fill="#207bbb" style="fill: var(--color1, #207bbb)" d="M11.496 25.027l2.275-2.275c0.294-0.286 0.762-0.285 1.055 0 0.299 0.291 0.306 0.77 0.014 1.070l-2.81 2.81c-0.295 0.295-0.775 0.295-1.070 0l-1.237-1.237c-0.285-0.294-0.285-0.762 0.001-1.055 0.291-0.299 0.77-0.306 1.069-0.014l0.702 0.702z"></path>
<path fill="#207bbb" style="fill: var(--color1, #207bbb)" d="M6.444 6.79c1.652 0.565 3.48 0.821 5.399 0.822 2.083 0.002 4.282-0.295 6.483-0.819l0.143 0.606c-2.241 0.533-4.487 0.836-6.626 0.833-1.989-0.002-3.885-0.267-5.599-0.854l0.2-0.59z"></path>
</symbol>
<symbol id="icon-interior-design" viewBox="0 0 32 32">
<title>interior-design</title>
<path d="M17.609 3.2h1.067c0.295 0 0.533-0.239 0.533-0.533s-0.239-0.533-0.533-0.533h-1.067c-0.295 0-0.533 0.239-0.533 0.533s0.239 0.533 0.533 0.533z"></path>
<path d="M3.742 3.2h11.733c0.295 0 0.533-0.239 0.533-0.533s-0.239-0.533-0.533-0.533h-11.733c-0.295 0-0.533 0.239-0.533 0.533s0.239 0.533 0.533 0.533z"></path>
<path d="M31.318 15.526c0.984-1.096 0.893-2.782-0.203-3.766s-2.782-0.893-3.766 0.203c-2.685 2.989-1.458 1.623-6.007 6.69v-6.919h4.8c0.884 0 1.6-0.716 1.6-1.6v-6.4c-0.003-2.061-1.673-3.731-3.733-3.733h-20.267c-2.061 0.002-3.731 1.672-3.733 3.733v26.667c0 0.884 0.716 1.6 1.6 1.6h18.133c0.884 0 1.6-0.716 1.6-1.6v-3.765zM28.143 12.676c0.379-0.436 0.964-0.633 1.529-0.517s1.025 0.529 1.201 1.078c0.176 0.55 0.043 1.152-0.35 1.576l-1.781 1.987c-1.47-1.32-0.919-0.826-2.381-2.139zM26.675 3.733v6.4c0 0.295-0.239 0.533-0.533 0.533h-4.8v-6.933c0-1.473 1.194-2.667 2.667-2.667s2.667 1.194 2.667 2.667zM19.742 30.933h-18.133c-0.295 0-0.533-0.239-0.533-0.533v-26.667c0.002-1.472 1.195-2.665 2.667-2.667h17.659c-0.72 0.701-1.125 1.662-1.125 2.667v16.107l-2.15 2.394c-0.083-0.813-0.766-1.432-1.583-1.434v-8h1.568c0.349 0.007 0.678-0.157 0.885-0.438s0.263-0.645 0.152-0.975l-1.317-3.733c-0.159-0.435-0.574-0.724-1.037-0.721h-3.702c-0.463-0.003-0.879 0.285-1.037 0.721l-1.317 3.733c-0.111 0.331-0.054 0.694 0.152 0.975s0.537 0.444 0.885 0.437h1.569v8c-0.884 0-1.6 0.716-1.6 1.6v1.067h-1.6v-1.748c0.328-0.19 0.531-0.539 0.533-0.918v-0.949c0.42-0.374 0.611-0.943 0.502-1.495s-0.503-1.005-1.035-1.19v-3.298c0-1.178-0.955-2.133-2.133-2.133h-2.667c-1.178 0-2.133 0.955-2.133 2.133v3.298c-0.532 0.185-0.926 0.638-1.035 1.19s0.081 1.121 0.502 1.496v0.949c0.001 0.379 0.204 0.729 0.533 0.918v1.748c-0.295 0-0.533 0.239-0.533 0.533s0.239 0.533 0.533 0.533h13.378l-1.564 4.267h-8.614c-0.295 0-0.533 0.239-0.533 0.533s0.239 0.533 0.533 0.533h9.067c0.206-0 0.393-0.12 0.48-0.307l4.32-2.133v2.974c0 0.295-0.239 0.533-0.533 0.533zM19.644 26.548l-3.249 1.604 1.247-3.402zM11.773 11.733c-0.053 0.014-0.183 0.427 1.317-3.733l3.733 0.009 1.286 3.724zM14.409 12.8h1.067v8h-1.067zM16.542 21.867c0.295 0 0.533 0.239 0.533 0.533v1.005c-0.079 0.089 0.401 0.062-4.267 0.062v-1.067c0-0.295 0.239-0.533 0.533-0.533zM9.609 18.133c0.295 0 0.533 0.239 0.533 0.533s-0.239 0.533-0.533 0.533-0.533-0.239-0.533-0.533 0.239-0.533 0.533-0.533zM9.075 17.165c-0.452 0.161-0.807 0.517-0.969 0.969h-2.863c-0.161-0.452-0.516-0.807-0.968-0.969v-3.298c0-0.589 0.478-1.067 1.067-1.067h2.667c0.589 0 1.067 0.478 1.067 1.067zM3.742 18.133c0.295 0 0.533 0.239 0.533 0.533s-0.239 0.533-0.533 0.533-0.533-0.239-0.533-0.533 0.239-0.533 0.533-0.533zM5.243 19.2h2.863c0.225 0.637 0.826 1.064 1.502 1.067v0.533h-5.867v-0.533c0.675-0.003 1.276-0.43 1.501-1.067zM4.275 21.867h0.951l-0.32 1.6h-0.631zM6.312 21.867h0.728l0.32 1.6h-1.368zM8.125 21.867h0.95v1.6h-0.63zM20.547 25.924l-2.381-2.138 7.483-8.333 2.381 2.138z"></path>
<path d="M4.809 28.8h-1.6c-0.295 0-0.533 0.239-0.533 0.533s0.239 0.533 0.533 0.533h1.6c0.295 0 0.533-0.239 0.533-0.533s-0.239-0.533-0.533-0.533z"></path>
</symbol>
<symbol id="icon-lock" viewBox="0 0 29 32">
<title>lock</title>
<path d="M14.638 14.518c-0.279 0-0.532 0.113-0.713 0.295s-0.295 0.434-0.295 0.713c0 0.279 0.113 0.532 0.295 0.713s0.434 0.295 0.713 0.295c0.279 0 0.532-0.113 0.713-0.295s0.295-0.434 0.295-0.713c0-0.279-0.113-0.532-0.295-0.713s-0.434-0.295-0.713-0.295zM13.13 14.017c0.386-0.386 0.921-0.625 1.509-0.625s1.123 0.24 1.509 0.625c0.386 0.386 0.625 0.921 0.625 1.509s-0.24 1.123-0.625 1.509c-0.386 0.386-0.921 0.625-1.509 0.625s-1.123-0.24-1.509-0.625c-0.386-0.386-0.625-0.921-0.625-1.509s0.24-1.123 0.625-1.509z"></path>
<path d="M16.442 11.69v-3.505c0-0.496-0.204-0.948-0.53-1.274s-0.778-0.53-1.274-0.53c-0.496 0-0.948 0.204-1.274 0.53-0.328 0.325-0.53 0.777-0.53 1.274v3.505h-1.126v-3.505c0-0.804 0.331-1.538 0.862-2.069 0.53-0.531 1.264-0.861 2.069-0.861s1.539 0.33 2.070 0.86 0.86 1.264 0.86 2.070v3.505h-1.126z"></path>
<path d="M8.89 11.126h12.059v10.267h-12.623v-10.267h0.563zM19.824 12.253h-10.37v8.015h10.37v-8.015z"></path>
<path d="M14.367 27.726c0.309 0.006 0.555 0.263 0.55 0.572s-0.263 0.555-0.572 0.55c-3.919-0.077-7.456-1.72-10.010-4.326-2.55-2.602-4.123-6.167-4.123-10.095 0-3.982 1.616-7.589 4.225-10.199 2.61-2.612 6.218-4.227 10.201-4.227s7.59 1.615 10.201 4.225 4.225 6.218 4.225 10.201c0 1.926-0.381 3.769-1.070 5.455-0.715 1.75-1.765 3.329-3.066 4.653-0.217 0.22-0.573 0.224-0.794 0.006s-0.224-0.573-0.006-0.794c1.201-1.223 2.17-2.677 2.828-4.287 0.633-1.548 0.982-3.249 0.982-5.034 0-3.673-1.489-6.999-3.895-9.405s-5.732-3.895-9.405-3.895c-3.673 0-6.999 1.489-9.405 3.895s-3.895 5.732-3.895 9.405c0 3.625 1.449 6.912 3.797 9.308 2.356 2.405 5.618 3.92 9.232 3.992z"></path>
<path d="M14.075 17.097c0-0.311 0.252-0.563 0.563-0.563s0.563 0.252 0.563 0.563v1.586c0 0.311-0.252 0.563-0.563 0.563s-0.563-0.252-0.563-0.563v-1.586z"></path>
<path d="M11.093 25.539c-0.22-0.22-0.22-0.576 0-0.796s0.576-0.22 0.796 0l3.148 3.148c0.22 0.22 0.22 0.576 0 0.796l-3.148 3.148c-0.22 0.22-0.576 0.22-0.796 0s-0.22-0.576 0-0.796l2.75-2.75-2.75-2.75z"></path>
</symbol>
<symbol id="icon-logo_onix" viewBox="0 0 38 32">
<title>logo_onix</title>
<path d="M3.877 32.003c2.187 0 3.876-1.487 3.876-3.664s-1.689-3.664-3.876-3.664c-2.188 0-3.877 1.487-3.877 3.664s1.689 3.664 3.877 3.664zM3.877 30.113c-1.030 0-1.7-0.786-1.7-1.773s0.669-1.773 1.7-1.773c1.030 0 1.699 0.786 1.699 1.773s-0.669 1.773-1.699 1.773zM15.347 31.876v-7.085h-2.145v2.506h-2.538v-2.506h-2.145v7.085h2.145v-2.708h2.538v2.708h2.145zM18.554 31.876l2.613-4.015v4.015h2.145v-7.085h-2.209l-2.465 3.782v-3.782h-2.145v7.085h2.061zM31.204 31.876l-2.794-3.792 2.677-3.292h-2.623l-1.859 2.656v-2.656h-2.145v7.085h2.145v-1.965l0.393-0.531 1.593 2.496h2.613zM34.676 32.003c1.859 0 2.805-1.126 3.219-2.072l-1.848-0.849c-0.18 0.553-0.733 1.030-1.371 1.030-1.029 0-1.72-0.786-1.72-1.773s0.69-1.773 1.72-1.773c0.638 0 1.19 0.477 1.371 1.029l1.848-0.86c-0.425-0.977-1.36-2.060-3.219-2.060-2.219 0-3.897 1.476-3.897 3.664 0 2.177 1.678 3.664 3.897 3.664z"></path>
<path d="M21.42 20.921c-5.095 1.366-10.333-1.658-11.699-6.753s1.658-10.333 6.754-11.699l9.226-2.473c0.632 2.357-0.79 4.765-3.147 5.397l-4.941 1.324c-2.749 0.737-4.38 3.563-3.644 6.312s3.563 4.381 6.312 3.644c2.749-0.737 4.381-3.563 3.644-6.312-0.424-1.581-1.537-2.791-2.929-3.395l1.848-0.495c1.086-0.291 2.010-0.892 2.704-1.682 1.224 1.169 2.154 2.678 2.625 4.434 1.366 5.095-1.658 10.332-6.753 11.698v0z"></path>
</symbol>
<symbol id="icon-medical" viewBox="0 0 32 32">
<title>medical</title>
<path d="M9.867 22.131h-8.518c-0.366 0-0.708-0.155-0.953-0.398-0.243-0.243-0.396-0.583-0.396-0.953v-9.562c0-0.372 0.153-0.711 0.396-0.955 0.243-0.243 0.582-0.396 0.953-0.396h8.518v-8.52c0-0.37 0.153-0.709 0.396-0.952 0.248-0.244 0.585-0.396 0.955-0.396h9.562c0.371 0 0.711 0.153 0.954 0.396s0.397 0.582 0.397 0.952v8.52h8.521c0.368 0 0.706 0.153 0.949 0.398 0.245 0.244 0.398 0.586 0.398 0.953v9.562c0 0.37-0.153 0.71-0.396 0.953-0.245 0.244-0.583 0.398-0.952 0.398h-8.521v8.52c0 0.367-0.155 0.705-0.398 0.949-0.245 0.246-0.587 0.4-0.953 0.4h-9.562c-0.366 0-0.704-0.152-0.948-0.395-0.251-0.253-0.403-0.59-0.403-0.954v-8.52zM1.349 20.892h9.757v9.759l0.030 0.072 0.083 0.039h9.562l0.078-0.035 0.034-0.075v-9.759h9.76l0.075-0.034 0.034-0.078v-9.562l-0.035-0.078-0.074-0.035h-9.76v-9.758l-0.033-0.075-0.079-0.034h-9.562l-0.079 0.034-0.034 0.075v9.758h-9.757l-0.077 0.034-0.034 0.079v9.562l0.034 0.078 0.077 0.034z"></path>
</symbol>
<symbol id="icon-pantry" viewBox="0 0 27 32">
<title>pantry</title>
<path d="M0.096 32v-32h26.717v32h-1.213v-30.787h-24.29v30.787z"></path>
<path d="M0.703 13.78h25.503v1.213h-25.503z"></path>
<path d="M4.233 5.678h8.9v9.315h-9.507v-9.315h0.607zM11.92 6.892h-7.080v6.888h7.080v-6.888z"></path>
<path d="M6.686 5.678h3.995v3.69h-4.602v-3.69h0.607zM9.468 6.892h-2.175v1.263h2.175v-1.263z"></path>
<path d="M22.068 9.369h-8.935v4.412h8.935v-4.412zM12.526 8.155h10.755v6.839h-11.362v-6.839h0.607z"></path>
<path d="M14.348 10.578h1.649v1.213h-1.649z"></path>
<path d="M17.31 10.578h3.388v1.213h-3.388z"></path>
<path d="M22.068 23.898h-7.079v6.888h7.079v-6.888zM14.383 22.685h8.899v9.315h-9.506v-9.315h0.607z"></path>
<path d="M19.616 23.898h-2.175v1.263h2.175v-1.263zM16.835 22.685h3.995v3.69h-4.602v-3.69h0.607z"></path>
<path d="M4.233 25.161h10.756v6.839h-11.363v-6.839h0.607zM13.776 26.374h-8.936v4.412h8.936v-4.412z"></path>
<path d="M12.561 28.798h-1.649v-1.213h1.649z"></path>
<path d="M9.599 28.798h-3.388v-1.213h3.388z"></path>
</symbol>
<symbol id="icon-pay" viewBox="0 0 32 32">
<title>pay</title>
<path fill="#207bbb" style="fill: var(--color1, #207bbb)" d="M5.96 28.802h-5.96v-1.52h6.096c0.091 0.002 0.181 0.020 0.262 0.052l8.466 3.147h2.289l8.666-7.571-0.764-0.794-7.592 5.576c-0.221 0.162-0.514 0.191-0.762 0.077l-5.916-2.721c-0.332-0.16-0.501-0.534-0.403-0.889s0.44-0.59 0.806-0.555l2.839 0.301 1.748-0.217v-0.895h-2.018l-4.329-0.443-2.981 1.304c-0.096 0.041-0.199 0.061-0.302 0.061h-6.103v-1.52h5.944l3.016-1.292c0.12-0.053 0.251-0.074 0.381-0.061l4.477 0.458h2.654c0.42 0 0.76 0.34 0.76 0.76v2.303c0 0.385-0.285 0.712-0.669 0.758l-1.65 0.183 1.938 0.912 7.766-5.721c0.302-0.223 0.727-0.185 0.989 0.083l1.808 1.839c0.293 0.298 0.295 0.777-0.002 1.073-0.012 0.012-0.024 0.024-0.037 0.035l-9.479 8.285c-0.139 0.122-0.317 0.19-0.501 0.19h-2.709c-0.091 0-0.181-0.015-0.266-0.046l-8.46-3.153z"></path>
<path fill="#ffcf00" style="fill: var(--color2, #ffcf00)" d="M16.198 9.83c0 2.229-1.807 4.035-4.035 4.035s-4.035-1.807-4.035-4.035c0-2.229 1.807-4.035 4.035-4.035s4.035 1.807 4.035 4.035z"></path>
<path fill="#207bbb" style="fill: var(--color1, #207bbb)" d="M27.91 13.34h3.676v1.52h-4.002c-0.207 0-0.405-0.086-0.548-0.235l-2.778-2.908-5.418-0.492h-2.709c-0.42 0-0.76-0.339-0.761-0.759 0-0.016 0-0.032 0.001-0.048l0.171-2.597c0.023-0.346 0.275-0.633 0.613-0.698l2.591-0.532c0.106-0.026 0.216-0.026 0.322 0l2.893 0.641 2.926-0.313 0.181 1.514-3.051 0.362c-0.083 0.014-0.168 0.013-0.252-0.001l-0.005-0.001-2.869-0.641-1.867 0.377-0.079 1.184h1.965l5.768 0.534c0.186 0.017 0.358 0.1 0.484 0.234l2.748 2.858z"></path>
<path fill="#207bbb" style="fill: var(--color1, #207bbb)" d="M26.225 3.605l-8.562-2.012-5.767 4.193-0.896-1.231 6.046-4.397c0.175-0.135 0.403-0.187 0.62-0.142l0.005 0.001 9.057 2.131c0.11 0.023 0.213 0.072 0.296 0.139l4.975 3.87-0.925 1.221-4.85-3.773z"></path>
<path fill="#207bbb" style="fill: var(--color1, #207bbb)" d="M18.316 3.287l2.872 1.149-0.563 1.415-2.558-1.045-3.096 1.542-0.685-1.354 3.411-1.705c0.197-0.088 0.422-0.089 0.619-0.002v0z"></path>
<path fill="#207bbb" style="fill: var(--color1, #207bbb)" d="M16.199 10.14l1.516 0.205-0.030 0.224c-0.368 2.766-2.73 4.827-5.52 4.825-3.069-0.003-5.558-2.488-5.558-5.558s2.489-5.558 5.559-5.558c2.168 0 4.138 1.261 5.047 3.23l0.095 0.206-1.377 0.639-0.095-0.207c-0.449-0.977-1.259-1.728-2.267-2.101-1.005-0.372-2.115-0.33-3.088 0.117-0.977 0.449-1.728 1.259-2.101 2.267-0.372 1.005-0.33 2.114 0.117 3.088 0.449 0.977 1.259 1.728 2.267 2.101 1.005 0.372 2.114 0.33 3.088-0.117 1.258-0.578 2.133-1.761 2.317-3.135l0.030-0.225z"></path>
<path fill="#207bbb" style="fill: var(--color1, #207bbb)" d="M11.995 8.641v0.725h0.544c0.2 0 0.363-0.162 0.363-0.362s-0.163-0.363-0.363-0.363h-0.544zM10.575 11.218v-0.663h0.605c0-0.921 0-1.842 0-2.763h1.359c0.669 0 1.211 0.542 1.211 1.211s-0.542 1.211-1.211 1.211h-0.544v0.341h1.442v0.663h-1.442v0.648h-0.815v-0.648h-0.605z"></path>
</symbol>
<symbol id="icon-pergola" viewBox="0 0 36 32">
<title>pergola</title>
<path d="M3.533 9.844v22.109h-1.278v-22.109z"></path>
<path d="M33.448 9.844v22.109h-1.278v-22.109z"></path>
<path d="M7.174 22.076h21.356c0.207 0 0.391 0.082 0.529 0.219 0.134 0.134 0.22 0.324 0.22 0.53v5.519c0 0.209-0.086 0.395-0.22 0.529s-0.32 0.22-0.529 0.22h-21.356c-0.207 0-0.396-0.086-0.53-0.22-0.138-0.138-0.219-0.323-0.219-0.529v-5.519c0-0.203 0.082-0.392 0.219-0.53s0.327-0.219 0.53-0.219zM28.002 23.354h-20.3v4.462h20.3v-4.462z"></path>
<path d="M7.063 26.225c-0.353 0-0.639-0.286-0.639-0.639s0.286-0.639 0.639-0.639h15.731c0.352 0 0.639 0.286 0.639 0.639s-0.286 0.639-0.639 0.639h-15.731z"></path>
<path d="M26.258 25.586c0 0.353-0.286 0.639-0.639 0.639s-0.639-0.286-0.639-0.639c0-0.353 0.286-0.639 0.639-0.639s0.639 0.286 0.639 0.639z"></path>
<path d="M10.021 28.455v3.497h-1.278v-3.497z"></path>
<path d="M12.809 28.455v3.497h-1.278v-3.497z"></path>
<path d="M24.172 28.455v3.497h-1.278v-3.497z"></path>
<path d="M26.959 28.455v3.497h-1.278v-3.497z"></path>
<path d="M0.768 10.611c-0.124 0-0.238-0.028-0.349-0.083-0.15-0.075-0.266-0.193-0.337-0.343l-0.009-0.020c-0.048-0.106-0.073-0.218-0.073-0.329 0-0.123 0.031-0.263 0.094-0.398l4.126-9.016c0.107-0.233 0.338-0.372 0.579-0.372l26.211-0.003c0.276 0 0.511 0.176 0.601 0.42l4.104 8.97c0.063 0.136 0.095 0.273 0.095 0.399 0 0.122-0.031 0.251-0.092 0.368-0.072 0.138-0.183 0.25-0.328 0.323-0.111 0.055-0.225 0.083-0.349 0.083h-34.273zM5.207 1.325l-3.664 8.007h32.723l-3.664-8.007h-25.395z"></path>
<path d="M2.43 18.991l8.888-9.457 0.928 0.874-8.888 9.457z"></path>
<path d="M2.43 14.45l4.62-4.915 0.928 0.874-4.621 4.915z"></path>
<path d="M32.346 19.865l-8.888-9.457 0.928-0.874 8.888 9.457z"></path>
<path d="M32.346 15.323l-4.62-4.915 0.928-0.874 4.62 4.915z"></path>
<path d="M7.76 0.419l4.316 9.285-1.158 0.535-4.316-9.285z"></path>
<path d="M13.471 0.419c1.439 3.095 2.878 6.19 4.316 9.285-0.386 0.179-0.772 0.357-1.158 0.535-1.438-3.095-2.877-6.19-4.316-9.285 0.386-0.178 0.772-0.356 1.158-0.535z"></path>
<path d="M19.181 0.419c1.439 3.095 2.878 6.19 4.316 9.285-0.386 0.179-0.772 0.357-1.158 0.535-1.438-3.095-2.877-6.19-4.316-9.285 0.386-0.178 0.772-0.356 1.158-0.535z"></path>
<path d="M24.892 0.419l4.316 9.285-1.158 0.535-4.316-9.285z"></path>
<path d="M28.050 0.419l-4.316 9.285 1.158 0.535 4.316-9.285z"></path>
<path d="M22.339 0.419c-1.439 3.095-2.878 6.19-4.316 9.285 0.386 0.179 0.772 0.357 1.158 0.535 1.438-3.095 2.877-6.19 4.316-9.285-0.386-0.178-0.772-0.356-1.158-0.535z"></path>
<path d="M16.628 0.419c-1.439 3.095-2.877 6.19-4.316 9.285 0.386 0.179 0.772 0.357 1.158 0.535 1.438-3.095 2.877-6.19 4.316-9.285-0.386-0.178-0.772-0.356-1.158-0.535z"></path>
<path d="M10.918 0.419l-4.316 9.285 1.158 0.535 4.316-9.285z"></path>
</symbol>
<symbol id="icon-plan" viewBox="0 0 29 32">
<title>plan</title>
<path d="M18.449 0h10.278v32h-28.822v-32h10.185l6.565 4.822-0.8 1.092-6.203-4.556h-8.39v29.286h26.108v-29.286h-8.92z"></path>
<path d="M13.505 16.768v14.553h-1.357v-14.553z"></path>
<path d="M7.269 16.528h11.115v1.357h-11.115z"></path>
<path d="M28.048 17.885h-5.517v-1.357h5.517z"></path>
</symbol>
<symbol id="icon-scholl" viewBox="0 0 22 32">
<title>scholl</title>
<path d="M20.238 16.379v12.407c0 0.883-0.362 1.688-0.944 2.27-0.582 0.579-1.385 0.944-2.27 0.944h-11.892c-0.884 0-1.688-0.362-2.27-0.944-0.581-0.584-0.944-1.388-0.944-2.27v-12.407h1.092v12.407c0 0.584 0.239 1.117 0.623 1.499 0.384 0.384 0.918 0.624 1.5 0.624h11.892c0.584 0 1.117-0.24 1.501-0.624 0.383-0.383 0.623-0.918 0.623-1.499v-12.407h1.090z"></path>
<path d="M2.497 13.257h17.162c0.504 0 0.963 0.206 1.292 0.539 0.334 0.331 0.54 0.79 0.54 1.294s-0.205 0.965-0.539 1.295c-0.33 0.331-0.79 0.54-1.294 0.54h-17.162c-0.504 0-0.963-0.209-1.294-0.539-0.331-0.331-0.537-0.793-0.537-1.295s0.206-0.965 0.539-1.295c0.33-0.331 0.789-0.539 1.292-0.539zM19.659 14.348h-17.162c-0.202 0-0.39 0.086-0.522 0.217-0.136 0.133-0.219 0.32-0.219 0.523 0 0.206 0.083 0.393 0.218 0.526 0.133 0.132 0.321 0.217 0.523 0.217h17.162c0.203 0 0.39-0.086 0.523-0.217 0.135-0.133 0.218-0.32 0.218-0.525s-0.083-0.391-0.216-0.525c-0.135-0.135-0.321-0.217-0.525-0.217z"></path>
<path d="M8.032 13.803v-12.526c0-0.188 0.080-0.362 0.201-0.483 0.123-0.123 0.293-0.199 0.481-0.199h4.729c0.192 0 0.361 0.080 0.481 0.201s0.201 0.289 0.201 0.481v12.526h-1.090v-12.117h-3.912v12.117h-1.090z"></path>
<path d="M11.648 4.277c-0.302 0-0.546-0.244-0.546-0.546s0.244-0.546 0.546-0.546h1.931c0.302 0 0.546 0.244 0.546 0.546s-0.244 0.546-0.546 0.546h-1.931z"></path>
<path d="M11.648 6.77c-0.302 0-0.546-0.246-0.546-0.546 0-0.302 0.244-0.546 0.546-0.546h1.931c0.302 0 0.546 0.244 0.546 0.546 0 0.3-0.244 0.546-0.546 0.546h-1.931z"></path>
<path d="M11.648 9.265c-0.302 0-0.546-0.246-0.546-0.546 0-0.302 0.244-0.546 0.546-0.546h1.931c0.302 0 0.546 0.244 0.546 0.546 0 0.3-0.244 0.546-0.546 0.546h-1.931z"></path>
<path d="M11.648 11.757c-0.302 0-0.546-0.244-0.546-0.544 0-0.302 0.244-0.546 0.546-0.546h1.931c0.302 0 0.546 0.244 0.546 0.546 0 0.3-0.244 0.544-0.546 0.544h-1.931z"></path>
<path d="M4.968 6.165c-0.076-0.289 0.1-0.588 0.389-0.664s0.589 0.098 0.665 0.387l2.056 7.72c0.076 0.289-0.1 0.589-0.389 0.665s-0.589-0.1-0.665-0.389l-2.056-7.72zM2.933 13.738c0.076 0.29-0.098 0.589-0.389 0.665-0.289 0.076-0.589-0.098-0.665-0.389l-1.746-6.561c-0.074-0.289 0.1-0.589 0.389-0.665 0.29-0.076 0.589 0.1 0.665 0.389l1.746 6.561z"></path>
<path d="M1.283 6.927c0.546 0.098 1.201 0.045 1.833-0.122 0.627-0.167 1.222-0.449 1.644-0.805l-2.725-3.238-0.752 4.166zM3.392 7.858c-1.013 0.269-2.107 0.288-2.928-0.035-0.237-0.094-0.384-0.342-0.338-0.603l1.047-5.789c0.022-0.121 0.086-0.236 0.185-0.32 0.229-0.192 0.574-0.161 0.766 0.067l3.762 4.473c0.187 0.195 0.206 0.502 0.032 0.718-0.553 0.69-1.514 1.219-2.526 1.489z"></path>
<path d="M15.699 5.009c0.257-1.325 1.382-2.331 2.416-3.254l0.035-0.028c0.577-0.515 1.12-1.003 1.381-1.455 0.15-0.26 0.487-0.348 0.745-0.198 0.074 0.043 0.136 0.101 0.18 0.168 0.599 0.892 1.117 2.095 1.384 3.286 0.244 1.087 0.283 2.186 0.001 3.066-0.384 1.194-1.278 1.788-2.273 1.921-0.466 0.059-0.943 0.020-1.393-0.101-0.449-0.121-0.885-0.326-1.264-0.601l-0.018-0.014c-0.866-0.636-1.42-1.626-1.193-2.791zM18.839 2.571c-0.902 0.804-1.884 1.681-2.070 2.642-0.136 0.697 0.216 1.308 0.759 1.708l0.021 0.015c0.264 0.192 0.579 0.338 0.906 0.427 0.319 0.086 0.652 0.116 0.963 0.074 0.608-0.081 1.152-0.443 1.386-1.173 0.218-0.682 0.177-1.581-0.028-2.496-0.175-0.787-0.47-1.576-0.829-2.253-0.311 0.342-0.685 0.676-1.072 1.022l-0.036 0.035z"></path>
<path d="M17.649 7.463c-0.497 1.031-0.956 2.089-1.381 3.161-0.434 1.108-0.829 2.204-1.19 3.285l-1.030-0.347c0.386-1.155 0.789-2.277 1.208-3.338 0.438-1.096 0.906-2.178 1.412-3.23l0.981 0.469zM18.595 13.608c0.174-0.949 0.331-1.901 0.455-2.848 0.123-0.934 0.224-1.884 0.293-2.841l1.087 0.074c-0.067 0.956-0.171 1.928-0.302 2.907-0.126 0.967-0.285 1.938-0.463 2.903l-1.071-0.195z"></path>
</symbol>
<symbol id="icon-shop" viewBox="0 0 37 32">
<title>shop</title>
<path d="M14.155 25.596c0.9 0 1.722 0.368 2.312 0.958s0.959 1.409 0.959 2.31c0 0.901-0.369 1.722-0.959 2.312s-1.409 0.959-2.312 0.959c-0.901 0-1.72-0.369-2.31-0.959s-0.959-1.411-0.959-2.312c0-0.901 0.369-1.72 0.959-2.31s1.409-0.958 2.31-0.958zM15.411 27.612c-0.319-0.319-0.767-0.521-1.256-0.521s-0.935 0.202-1.254 0.521c-0.319 0.318-0.521 0.764-0.521 1.253s0.202 0.937 0.521 1.256c0.319 0.319 0.766 0.521 1.254 0.521 0.49 0 0.937-0.202 1.256-0.521 0.318-0.319 0.519-0.767 0.519-1.256s-0.202-0.935-0.519-1.253z"></path>
<path d="M29.582 25.596c0.901 0 1.722 0.368 2.312 0.958s0.959 1.409 0.959 2.31c0 0.901-0.369 1.722-0.959 2.312s-1.409 0.959-2.312 0.959c-0.901 0-1.72-0.369-2.31-0.959s-0.958-1.411-0.958-2.312c0-0.901 0.368-1.72 0.958-2.31s1.409-0.958 2.31-0.958zM30.838 27.612c-0.319-0.319-0.767-0.521-1.256-0.521s-0.935 0.202-1.253 0.521c-0.319 0.318-0.521 0.764-0.521 1.253s0.202 0.937 0.521 1.256c0.318 0.319 0.764 0.521 1.253 0.521 0.49 0 0.937-0.202 1.256-0.521s0.521-0.767 0.521-1.256c0-0.488-0.202-0.935-0.521-1.253z"></path>
<path d="M11.085 19.253l-3.036-14.45c-0.082-0.403 0.174-0.8 0.577-0.882l27.131-0.018c0.208 0 0.368 0 0.55 0.048 0.721 0.19 0.898 0.558 0.616 1.622l-4.024 14.502c-0.092 0.329-0.393 0.543-0.719 0.547l-20.204 0.002c-0.485 0-0.932 0.202-1.251 0.519-0.321 0.322-0.522 0.767-0.522 1.254s0.202 0.935 0.521 1.254c0.321 0.321 0.767 0.522 1.253 0.522h20.13c0.411 0 0.746 0.334 0.746 0.746s-0.335 0.748-0.746 0.748h-20.13c-0.898 0-1.717-0.369-2.31-0.961-0.588-0.59-0.958-1.411-0.958-2.31 0-0.888 0.363-1.702 0.946-2.293l0.016-0.016c0.389-0.389 0.871-0.68 1.414-0.835zM9.697 5.398l2.884 13.729h19.033l3.81-13.729h-25.727z"></path>
<path d="M12.707 19.723c0.082 0.403-0.176 0.8-0.579 0.882-0.401 0.081-0.798-0.176-0.88-0.579l-3.922-18.667h-6.578c-0.413 0-0.748-0.334-0.748-0.746s0.335-0.748 0.748-0.748h7.181c0.347 0.003 0.658 0.245 0.73 0.597l4.048 19.262z"></path>
</symbol>
<symbol id="icon-slide" viewBox="0 0 35 32">
<title>slide</title>
<path d="M3.311 14.742c0 0.3-0.244 0.544-0.544 0.544s-0.544-0.244-0.544-0.544v-9.907c0-0.222 0.134-0.413 0.324-0.497l4.952-2.757c0.17-0.094 0.368-0.087 0.526 0l4.995 2.781c0.178 0.099 0.278 0.283 0.278 0.474l0.002 9.907c0 0.3-0.244 0.544-0.544 0.544s-0.544-0.244-0.544-0.544v-9.59l-4.451-2.478-4.451 2.478v9.59z"></path>
<path d="M0.612 14.275h14.301c0.168 0 0.322 0.070 0.432 0.18 0.11 0.108 0.18 0.261 0.18 0.432v2.085c0 0.168-0.070 0.322-0.18 0.432s-0.264 0.18-0.432 0.18h-14.301c-0.17 0-0.324-0.070-0.432-0.18-0.11-0.109-0.18-0.263-0.18-0.431v-2.085c0-0.17 0.070-0.322 0.179-0.431 0.111-0.111 0.263-0.181 0.433-0.181zM14.437 15.363h-13.349v1.133h13.349v-1.133z"></path>
<path d="M3.341 14.819c0-0.3 0.244-0.544 0.544-0.544s0.544 0.244 0.544 0.544v16.578c0 0.168-0.070 0.322-0.18 0.432s-0.264 0.18-0.432 0.18h-2.085c-0.17 0-0.324-0.070-0.432-0.18-0.11-0.109-0.18-0.263-0.18-0.431v-14.357c0-0.3 0.244-0.544 0.544-0.544s0.544 0.244 0.544 0.544v13.881h1.133v-16.102z"></path>
<path d="M1.664 28.745c-0.3 0-0.544-0.244-0.544-0.544s0.244-0.544 0.544-0.544h2.221c0.3 0 0.544 0.244 0.544 0.544s-0.244 0.544-0.544 0.544h-2.221z"></path>
<path d="M5.547 32.009v-14.969h1.103v14.969z"></path>
<path d="M7.762 6.511c-0.637 0-1.215 0.258-1.631 0.675s-0.675 0.994-0.675 1.631v5.458h4.613v-5.458c0-0.638-0.259-1.216-0.674-1.632-0.417-0.416-0.995-0.674-1.632-0.674zM5.362 6.417c0.614-0.614 1.462-0.994 2.4-0.994 0.936 0 1.786 0.38 2.4 0.994 0.613 0.616 0.994 1.464 0.994 2.4v6.546h-6.788v-6.546c0-0.937 0.38-1.786 0.994-2.4z"></path>
<path d="M11.096 14.819c0-0.3 0.244-0.544 0.544-0.544s0.544 0.244 0.544 0.544v16.102h1.133v-13.881c0-0.3 0.244-0.544 0.544-0.544s0.544 0.244 0.544 0.544v14.357c0 0.168-0.070 0.322-0.18 0.432s-0.264 0.18-0.432 0.18h-2.085c-0.148 0-0.283-0.052-0.386-0.139l-0.045-0.041c-0.11-0.11-0.18-0.264-0.18-0.432v-16.578z"></path>
<path d="M14.509 15.155c-0.147-0.26-0.056-0.592 0.204-0.739s0.592-0.056 0.739 0.204l9.299 16.302h8.774v-2.262h-6.33c-0.212 0-0.396-0.121-0.485-0.298l-8.75-15.264h-5.209c-0.3 0-0.544-0.244-0.544-0.544s0.244-0.544 0.544-0.544h5.524c0.188 0.001 0.371 0.1 0.471 0.274l8.764 15.288h6.491c0.168 0 0.322 0.070 0.432 0.18s0.18 0.264 0.18 0.432v3.213c0 0.168-0.070 0.322-0.18 0.432s-0.264 0.18-0.432 0.18h-9.564c-0.189-0.002-0.372-0.101-0.471-0.276l-9.456-16.578z"></path>
<path d="M13.861 27.658c0.3 0 0.544 0.244 0.544 0.544s-0.244 0.544-0.544 0.544h-2.221c-0.3 0-0.544-0.244-0.544-0.544s0.244-0.544 0.544-0.544h2.221z"></path>
<path d="M8.874 32.009v-14.969h1.103v14.969z"></path>
<path d="M6.098 29.259h3.328v1.092h-3.328z"></path>
<path d="M6.098 25.833c1.109 0 2.218 0 3.328 0 0 0.364 0 0.728 0 1.092-1.109 0-2.218 0-3.328 0 0-0.364 0-0.728 0-1.092z"></path>
<path d="M6.098 22.408c1.109 0 2.218 0 3.328 0 0 0.364 0 0.728 0 1.092-1.109 0-2.218 0-3.328 0 0-0.364 0-0.728 0-1.092z"></path>
<path d="M6.098 18.982h3.328v1.092h-3.328z"></path>
<path d="M15.547 30.923h1.088v1.086h-1.088v-1.086z"></path>
<path d="M20.531 30.923h1.088v1.086h-1.088v-1.086z"></path>
<path d="M17.757 28.716h1.088v1.086h-1.088v-1.086z"></path>
<path d="M17.139 8.15c-0.706-0.032-1.131 0.1-1.354 0.349l-0.017 0.018c-0.146 0.175-0.221 0.427-0.246 0.734l8.912-0.003c-0.026-0.349-0.096-0.608-0.248-0.766l-0.016-0.018c-0.22-0.214-0.656-0.319-1.415-0.319-0.265 0-0.485-0.189-0.534-0.44-0.097-0.393-0.361-0.691-0.711-0.894-0.391-0.226-0.887-0.342-1.394-0.349-0.519-0.007-1.045 0.097-1.483 0.307-0.457 0.218-0.818 0.556-0.952 0.997-0.073 0.242-0.3 0.394-0.541 0.384zM14.977 7.773c0.384-0.428 0.967-0.684 1.822-0.71 0.285-0.564 0.776-0.989 1.365-1.27s1.286-0.423 1.963-0.413c0.689 0.009 1.373 0.173 1.926 0.492 0.484 0.28 0.873 0.678 1.095 1.196 0.849 0.048 1.411 0.258 1.789 0.633l0.030 0.029c0.444 0.462 0.566 1.089 0.566 1.908 0 0.715-0.67 0.694-0.677 0.694l-9.778 0.001c-0.301 0.012-0.623 0.019-0.645-0.605l-0.001-0.011c-0.034-0.762 0.098-1.42 0.512-1.907l0.032-0.039z"></path>
<path d="M26.217 2.763c-0.707-0.032-1.131 0.1-1.355 0.349l-0.017 0.018c-0.146 0.175-0.221 0.427-0.246 0.734l8.912-0.003c-0.026-0.349-0.096-0.608-0.248-0.766l-0.016-0.018c-0.22-0.214-0.656-0.319-1.415-0.319-0.265 0-0.485-0.189-0.534-0.44-0.097-0.393-0.361-0.691-0.711-0.894-0.391-0.226-0.887-0.342-1.394-0.349-0.519-0.007-1.045 0.097-1.483 0.307-0.457 0.218-0.818 0.556-0.952 0.997-0.073 0.241-0.3 0.394-0.541 0.384zM24.055 2.386c0.384-0.428 0.967-0.684 1.822-0.71 0.285-0.564 0.776-0.989 1.365-1.27s1.286-0.423 1.963-0.413c0.689 0.009 1.373 0.173 1.926 0.492 0.484 0.28 0.873 0.678 1.095 1.196 0.849 0.048 1.411 0.258 1.789 0.633l0.030 0.029c0.444 0.462 0.566 1.089 0.566 1.908 0 0.715-0.669 0.694-0.677 0.694l-9.778 0.002c-0.301 0.012-0.623 0.019-0.645-0.605l-0.001-0.011c-0.034-0.762 0.098-1.42 0.512-1.908l0.032-0.039z"></path>
</symbol>
<symbol id="icon-sofa" viewBox="0 0 53 32">
<title>sofa</title>
<path d="M1.275 9.349h7.691c0.566 0 1.026 0.46 1.026 1.026v8.468h32.939v-8.468c0-0.566 0.46-1.026 1.026-1.026h7.691c0.355 0 0.669 0.143 0.901 0.374s0.374 0.546 0.374 0.901v16.8c0 0.346-0.143 0.669-0.374 0.901s-0.546 0.374-0.901 0.374h-50.374c-0.346 0-0.669-0.143-0.901-0.374s-0.374-0.554-0.374-0.901v-16.8c0-0.355 0.143-0.669 0.374-0.901s0.554-0.374 0.901-0.374zM7.94 11.401h-5.889v15.246h48.82v-15.246h-5.889v8.22c0 0.346-0.143 0.669-0.374 0.901s-0.554 0.374-0.901 0.374h-34.493c-0.346 0-0.669-0.143-0.901-0.374s-0.374-0.554-0.374-0.901v-8.22z"></path>
<path d="M3.888 10.375v-8.903c0-0.355 0.143-0.669 0.374-0.901s0.554-0.374 0.901-0.374h42.579c0.345 0 0.669 0.144 0.898 0.375 0.236 0.233 0.377 0.554 0.377 0.899v8.903h-2.052v-8.126h-41.025v8.126h-2.052z"></path>
<path d="M4.051 27.672c0-0.566 0.46-1.026 1.026-1.026s1.026 0.46 1.026 1.026v3.105c0 0.566-0.46 1.026-1.026 1.026s-1.026-0.46-1.026-1.026v-3.105z"></path>
<path d="M46.822 27.672c0-0.566 0.46-1.026 1.026-1.026s1.026 0.46 1.026 1.026v3.105c0 0.566-0.46 1.026-1.026 1.026s-1.026-0.46-1.026-1.026v-3.105z"></path>
</symbol>
<symbol id="icon-stadium" viewBox="0 0 26 32">
<title>stadium</title>
<path d="M1.454 0h23.273c0.503 0 0.959 0.207 1.29 0.536 0.329 0.331 0.536 0.788 0.536 1.29v28.349c0 0.502-0.207 0.959-0.536 1.288-0.331 0.331-0.787 0.537-1.29 0.537h-23.273c-0.502 0-0.959-0.207-1.29-0.537-0.329-0.329-0.536-0.787-0.536-1.288v-28.349c0-0.502 0.207-0.959 0.536-1.29 0.331-0.329 0.788-0.536 1.29-0.536zM24.727 1.314h-23.273c-0.139 0-0.268 0.058-0.361 0.151s-0.151 0.222-0.151 0.361v28.349c0 0.139 0.058 0.268 0.151 0.361 0.093 0.092 0.222 0.149 0.361 0.149h23.273c0.141 0 0.268-0.058 0.361-0.149 0.093-0.093 0.151-0.222 0.151-0.361v-28.349c0-0.139-0.058-0.268-0.151-0.361s-0.22-0.151-0.361-0.151z"></path>
<path d="M3.546 0.658v30.685h-1.314v-30.685z"></path>
<path d="M23.29 16.657h-20.398v-1.315h20.398z"></path>
<path d="M23.948 0.658v30.685h-1.314v-30.685z"></path>
<path d="M23.29 8.174h-20.398v-1.314h20.398z"></path>
<path d="M23.29 25.138h-20.398v-1.315h20.398z"></path>
<path d="M13.090 10.446c1.532 0 2.921 0.624 3.926 1.626 1.004 1.007 1.627 2.397 1.627 3.928s-0.624 2.921-1.626 3.924c-1.007 1.005-2.395 1.629-3.928 1.629-1.529 0-2.921-0.624-3.924-1.627-1.005-1.005-1.629-2.395-1.629-3.926s0.624-2.921 1.626-3.926c1.007-1.004 2.399-1.627 3.928-1.627zM16.089 13c-0.766-0.765-1.826-1.241-2.999-1.241-1.17 0-2.233 0.476-2.999 1.241-0.763 0.766-1.241 1.827-1.241 2.999s0.478 2.233 1.241 2.999c0.766 0.763 1.829 1.239 2.999 1.239 1.173 0 2.233-0.476 2.999-1.239 0.763-0.766 1.241-1.827 1.241-2.999s-0.478-2.233-1.241-2.999z"></path>
<path d="M17.945 0.658v0.197c0 0.778-0.32 1.492-0.834 2.005-0.512 0.514-1.226 0.834-2.004 0.834h-4.033c-0.778 0-1.49-0.32-2.004-0.834s-0.834-1.227-0.834-2.005v-0.197h1.314v0.197c0 0.417 0.173 0.802 0.449 1.076 0.275 0.275 0.658 0.449 1.075 0.449h4.033c0.417 0 0.8-0.175 1.076-0.449 0.275-0.275 0.448-0.659 0.448-1.076v-0.197h1.314z"></path>
<path d="M16.631 31.342v-0.198c0-0.415-0.173-0.8-0.448-1.075-0.276-0.276-0.659-0.449-1.076-0.449h-4.033c-0.417 0-0.8 0.173-1.075 0.449-0.276 0.275-0.449 0.658-0.449 1.075v0.198h-1.314v-0.198c0-0.778 0.32-1.49 0.834-2.004s1.226-0.834 2.004-0.834h4.033c0.778 0 1.49 0.322 2.002 0.834 0.515 0.514 0.836 1.226 0.836 2.004v0.198h-1.314z"></path>
</symbol>
<symbol id="icon-star" viewBox="0 0 33 32">
<title>star</title>
<path d="M31.944 13.191c0.099-0.095 0.166-0.215 0.196-0.337 0.031-0.127 0.026-0.265-0.016-0.395-0.042-0.128-0.117-0.241-0.215-0.324-0.097-0.080-0.222-0.14-0.36-0.159l-8.357-1.213c-0.461-0.067-0.898-0.248-1.267-0.517-0.367-0.265-0.674-0.625-0.882-1.047l-3.736-7.574c-0.058-0.124-0.152-0.226-0.258-0.291-0.108-0.068-0.242-0.105-0.381-0.105-0.138 0-0.27 0.039-0.377 0.105-0.109 0.066-0.2 0.167-0.262 0.291l-3.738 7.574c-0.209 0.421-0.517 0.782-0.883 1.047-0.368 0.268-0.806 0.45-1.268 0.517l-8.357 1.213c-0.136 0.019-0.259 0.077-0.356 0.157-0.099 0.082-0.175 0.198-0.218 0.33-0.042 0.131-0.047 0.268-0.018 0.392 0.031 0.123 0.097 0.242 0.196 0.337l6.047 5.894c0.337 0.325 0.584 0.728 0.725 1.163 0.141 0.432 0.177 0.903 0.099 1.364l-1.429 8.323c-0.022 0.136-0.005 0.271 0.042 0.39 0.050 0.12 0.132 0.23 0.244 0.31 0.108 0.079 0.236 0.126 0.362 0.134 0.13 0.010 0.266-0.018 0.388-0.082l7.474-3.93c0.417-0.219 0.875-0.331 1.328-0.331s0.911 0.112 1.328 0.331l7.475 3.93 0.162 0.064 0.171 0.020 0.217-0.034 0.199-0.101c0.111-0.080 0.196-0.192 0.244-0.31 0.047-0.118 0.062-0.254 0.041-0.39l-1.429-8.321c-0.078-0.461-0.042-0.932 0.1-1.364 0.141-0.431 0.389-0.837 0.723-1.164l6.047-5.895zM33.279 13.137c-0.083 0.331-0.259 0.645-0.517 0.896l-6.046 5.895c-0.197 0.191-0.343 0.43-0.426 0.686-0.083 0.254-0.103 0.531-0.058 0.802l1.429 8.322c0.061 0.356 0.019 0.712-0.109 1.029-0.129 0.314-0.35 0.601-0.639 0.814-0.161 0.116-0.339 0.21-0.526 0.27-0.187 0.060-0.384 0.093-0.584 0.093-0.149 0-0.304-0.020-0.458-0.059-0.145-0.036-0.289-0.091-0.42-0.161l-7.476-3.931c-0.241-0.127-0.512-0.193-0.782-0.193-0.27 0-0.541 0.066-0.783 0.193l-7.474 3.931c-0.322 0.169-0.671 0.24-1.013 0.216-0.342-0.022-0.679-0.146-0.972-0.359-0.29-0.211-0.511-0.497-0.642-0.813-0.13-0.319-0.172-0.674-0.111-1.030l1.428-8.323c0.046-0.271 0.025-0.55-0.058-0.804-0.083-0.256-0.229-0.495-0.426-0.686l-6.047-5.893c-0.257-0.251-0.435-0.566-0.516-0.899-0.082-0.335-0.069-0.692 0.038-1.031 0.112-0.347 0.315-0.642 0.575-0.863 0.263-0.224 0.592-0.374 0.95-0.427l8.356-1.213c0.271-0.039 0.529-0.146 0.744-0.302 0.218-0.158 0.4-0.372 0.522-0.619l3.738-7.572c0.16-0.322 0.402-0.587 0.693-0.766 0.29-0.184 0.638-0.286 0.996-0.286 0.359 0 0.702 0.102 0.995 0.284 0.292 0.181 0.535 0.446 0.693 0.769l3.739 7.572c0.122 0.246 0.303 0.461 0.521 0.619 0.216 0.157 0.472 0.263 0.743 0.302l8.357 1.213c0.359 0.053 0.683 0.201 0.947 0.423 0.263 0.226 0.469 0.523 0.578 0.867 0.109 0.342 0.12 0.698 0.038 1.035z"></path>
</symbol>
<symbol id="icon-sun" viewBox="0 0 32 32">
<title>sun</title>
<path d="M15.294 0.706c0-0.389 0.317-0.706 0.706-0.706s0.706 0.317 0.706 0.706v4.163c0 0.389-0.317 0.706-0.706 0.706s-0.706-0.317-0.706-0.706v-4.163z"></path>
<path d="M26.315 4.686c0.275-0.275 0.723-0.275 0.998 0s0.275 0.723 0 0.998l-2.944 2.944c-0.275 0.275-0.723 0.275-0.998 0s-0.275-0.723 0-0.998l2.944-2.944z"></path>
<path d="M31.294 15.294c0.389 0 0.706 0.317 0.706 0.706s-0.317 0.706-0.706 0.706h-4.163c-0.389 0-0.707-0.317-0.707-0.706s0.317-0.706 0.707-0.706h4.163z"></path>
<path d="M27.314 26.315c0.275 0.275 0.275 0.723 0 0.998s-0.723 0.275-0.998 0l-2.944-2.944c-0.275-0.275-0.275-0.723 0-0.998s0.723-0.275 0.998 0l2.944 2.944z"></path>
<path d="M16.706 31.294c0 0.389-0.317 0.706-0.706 0.706s-0.706-0.317-0.706-0.706v-4.163c0-0.389 0.317-0.707 0.706-0.707s0.706 0.317 0.706 0.707v4.163z"></path>
<path d="M4.686 5.685c-0.275-0.275-0.275-0.723 0-0.998s0.723-0.275 0.998 0l2.944 2.944c0.275 0.275 0.275 0.723 0 0.998s-0.723 0.275-0.998 0l-2.944-2.944z"></path>
<path d="M0.706 16.706c-0.389 0-0.706-0.317-0.706-0.706s0.317-0.706 0.706-0.706h4.163c0.389 0 0.706 0.317 0.706 0.706s-0.317 0.706-0.706 0.706h-4.163z"></path>
<path d="M5.685 27.314c-0.275 0.275-0.723 0.275-0.998 0s-0.275-0.723 0-0.998l2.944-2.944c0.275-0.275 0.723-0.275 0.998 0s0.275 0.723 0 0.998l-2.944 2.944z"></path>
<path d="M16 9.771c-1.72 0-3.279 0.698-4.406 1.823-1.125 1.127-1.823 2.686-1.823 4.406s0.698 3.279 1.824 4.405c1.126 1.126 2.685 1.824 4.405 1.824s3.279-0.698 4.405-1.824c1.126-1.126 1.824-2.685 1.824-4.405s-0.698-3.279-1.823-4.406c-1.127-1.125-2.686-1.823-4.406-1.823zM10.598 10.598c1.385-1.383 3.296-2.239 5.402-2.239 2.11 0 4.022 0.857 5.403 2.238 1.382 1.386 2.238 3.297 2.238 5.403 0 2.11-0.857 4.022-2.238 5.403s-3.293 2.238-5.403 2.238c-2.106 0-4.018-0.856-5.401-2.238s-2.24-3.293-2.24-5.403c0-2.106 0.856-4.018 2.239-5.402z"></path>
</symbol>
<symbol id="icon-tick-sign" viewBox="0 0 42 32">
<title>tick-sign</title>
<path d="M37.479 0.16l-23.438 23.435-9.918-9.916-4.124 4.124 14.042 14.037 27.558-27.558z"></path>
</symbol>
<symbol id="icon-wardrobe" viewBox="0 0 26 32">
<title>wardrobe</title>
<path d="M0.642 0h24.317c0.353 0 0.641 0.289 0.641 0.641v31.359h-25.598v-31.359c0-0.353 0.287-0.641 0.64-0.641zM20.93 24.278v-1.206h3.426v-3.283h-3.426c0-0.402 0-0.803 0-1.205h3.426v-3.283h-3.426c0-0.403 0-0.804 0-1.206h3.426v-3.283h-3.426c0-0.403 0-0.804 0-1.206h3.426v-3.283h-3.426v-1.205h3.426v-3.914h-4.872v29.589h4.872v-6.516l-3.426 0.001zM16.771 16.729h-0.001c-0.332 0-0.603-0.27-0.603-0.602v-1.622c0-0.331 0.27-0.603 0.603-0.603h0.001c0.332 0 0.602 0.271 0.602 0.603v1.622c0 0.332-0.27 0.602-0.602 0.602zM10.611 16.729h-0.001c-0.332 0-0.602-0.27-0.602-0.602v-1.622c0-0.331 0.27-0.603 0.602-0.603h0.001c0.332 0 0.602 0.271 0.602 0.603v1.622c0 0.332-0.27 0.602-0.602 0.602zM18.279 30.794v-29.589h-4.876v29.589h4.876zM12.198 30.794v-29.589h-10.956v29.589h10.956z"></path>
</symbol>
<symbol id="icon-washing-machine" viewBox="0 0 27 32">
<title>washing-machine</title>
<path d="M9.333 15.178c-0.228 0.272-0.636 0.309-0.908 0.081s-0.309-0.636-0.081-0.908l0.083-0.099c0.228-0.273 0.635-0.309 0.908-0.081s0.309 0.636 0.081 0.908l-0.083 0.099zM10.956 13.849c-0.315 0.165-0.706 0.044-0.87-0.271s-0.044-0.706 0.271-0.87c0.471-0.25 0.979-0.447 1.509-0.579l0.030-0.006c0.511-0.124 1.040-0.193 1.579-0.193 1.833 0 3.494 0.745 4.697 1.947 1.205 1.202 1.95 2.865 1.95 4.7 0 1.833-0.745 3.494-1.947 4.698l-0.012 0.012c-1.202 1.197-2.861 1.938-4.689 1.938-1.835 0-3.498-0.745-4.7-1.947l-0.033-0.037c-1.182-1.2-1.914-2.848-1.914-4.664 0-0.369 0.033-0.743 0.095-1.112s0.156-0.731 0.278-1.081c0.117-0.335 0.485-0.512 0.82-0.396s0.512 0.485 0.396 0.82c-0.095 0.275-0.172 0.568-0.223 0.871-0.047 0.283-0.073 0.585-0.073 0.898 0 1.462 0.583 2.788 1.532 3.753l0.037 0.034c0.967 0.967 2.307 1.568 3.786 1.568 1.472 0 2.807-0.594 3.775-1.553l0.012-0.012c0.969-0.971 1.568-2.311 1.568-3.79s-0.601-2.819-1.568-3.786c-0.966-0.969-2.307-1.568-3.786-1.568-0.439 0-0.864 0.052-1.263 0.148l-0.032 0.009c-0.431 0.108-0.842 0.268-1.223 0.469z"></path>
<path d="M1.332 0h24.283c0.332 0 0.636 0.137 0.852 0.353 0.219 0.219 0.353 0.52 0.353 0.852v29.59c0 0.329-0.135 0.632-0.353 0.849-0.22 0.221-0.523 0.356-0.852 0.356h-24.283c-0.332 0-0.633-0.134-0.852-0.353-0.216-0.216-0.353-0.52-0.353-0.852v-29.59c0-0.33 0.137-0.631 0.353-0.849 0.221-0.219 0.522-0.356 0.852-0.356zM25.528 1.293h-24.108v29.414h24.108v-29.414z"></path>
<path d="M0.773 5.311h25.401v1.293h-25.401z"></path>
<path d="M5.3 0.646v5.311h-1.293v-5.311z"></path>
<path d="M8.143 3.288c0 0.349-0.289 0.633-0.646 0.633s-0.646-0.283-0.646-0.633c0-0.349 0.289-0.633 0.646-0.633s0.646 0.283 0.646 0.633z"></path>
<path d="M10.382 3.935c-0.356 0-0.646-0.29-0.646-0.646s0.29-0.646 0.646-0.646h12.861c0.356 0 0.646 0.29 0.646 0.646s-0.29 0.646-0.646 0.646h-12.861z"></path>
<path d="M13.475 9.158c2.597 0 4.954 1.056 6.659 2.762 1.705 1.702 2.761 4.058 2.761 6.659 0 2.596-1.055 4.951-2.759 6.657-1.708 1.707-4.063 2.762-6.66 2.762-2.6 0-4.956-1.055-6.66-2.759-1.703-1.705-2.759-4.062-2.759-6.659 0-2.601 1.055-4.956 2.759-6.661s4.060-2.759 6.66-2.759zM19.22 12.829c-1.467-1.469-3.5-2.378-5.746-2.378-2.244 0-4.277 0.911-5.746 2.38s-2.38 3.502-2.38 5.747c0 2.246 0.909 4.278 2.377 5.745 1.473 1.47 3.505 2.38 5.75 2.38 2.246 0 4.278-0.909 5.746-2.377 1.472-1.471 2.38-3.503 2.38-5.749 0-2.244-0.911-4.277-2.38-5.749z"></path>
</symbol>
<symbol id="icon-width" viewBox="0 0 42 32">
<title>width</title>
<path d="M1.615 0.108v31.784h-1.615v-31.784z"></path>
<path d="M41.697 0.108v31.784h-1.615v-31.784z"></path>
<path d="M2.695 15.193h35.89v1.615h-35.89z"></path>
<path d="M14.308 5.588l-10.412 10.412 10.412 10.412-1.141 1.141-11.553-11.553 11.553-11.553z"></path>
<path d="M28.529 4.447l11.553 11.553-11.553 11.553-1.141-1.141 10.412-10.412-10.412-10.412z"></path>
</symbol>
</defs>
</svg>
