<?xml version="1.0" encoding="utf-8"?>
<!-- Generator: Adobe Illustrator 21.1.0, SVG Export Plug-In . SVG Version: 6.00 Build 0)  -->
<svg version="1.1" xmlns="http://www.w3.org/2000/svg" xmlns:xlink="http://www.w3.org/1999/xlink" x="0px" y="0px"
	 viewBox="0 0 50 40" style="enable-background:new 0 0 50 40;" xml:space="preserve">
<style type="text/css">
	.st0{fill:#B5BDC7;}
</style>
<g id="Слой_1">
</g>
<g id="Слой_2">
	<path class="st0" d="M44.748,0H5.251C2.363,0,0.001,2.362,0.001,5.25v29.5c0,2.888,2.362,5.25,5.251,5.25h39.497
		c2.889,0,5.251-2.362,5.251-5.25V5.25C49.999,2.362,47.637,0,44.748,0z M41.305,28.318c-0.938,0.898-2.473,0.911-3.426,0.027
		L25,16.473L12.122,28.345c-0.953,0.883-2.489,0.87-3.426-0.027c-0.938-0.899-0.925-2.343,0.03-3.225l14.577-13.438
		c0.945-0.874,2.456-0.87,3.397,0l14.576,13.438C42.229,25.975,42.242,27.419,41.305,28.318z"/>
</g>
</svg>
