<?xml version="1.0" encoding="utf-8"?>
<!-- Generator: Adobe Illustrator 21.1.0, SVG Export Plug-In . SVG Version: 6.00 Build 0)  -->
<svg version="1.1" id="Слой_1" xmlns="http://www.w3.org/2000/svg" xmlns:xlink="http://www.w3.org/1999/xlink" x="0px" y="0px"
	 viewBox="0 0 32 32" style="enable-background:new 0 0 32 32;" xml:space="preserve">
<style type="text/css">
	.st0{fill:#207BBB;}
</style>
<g id="Слой_x0020_1">
	<g id="_658163072">
		<path class="st0" d="M16,0C7.163,0,0,7.163,0,16c0,8.837,7.163,16,16,16c8.837,0,16-7.163,16-16C32,7.163,24.837,0,16,0z
			 M16,30.934C7.752,30.934,1.066,24.248,1.066,16S7.752,1.066,16,1.066S30.934,7.752,30.934,16S24.248,30.934,16,30.934z"/>
		<path class="st0" d="M15.816,20.828h1.021c0,0,0.307-0.034,0.465-0.204c0.145-0.156,0.141-0.448,0.141-0.448
			s-0.02-1.368,0.615-1.57c0.626-0.199,1.431,1.323,2.283,1.907c0.645,0.443,1.135,0.346,1.135,0.346l2.279-0.031
			c0,0,1.192-0.074,0.626-1.012c-0.047-0.077-0.329-0.693-1.695-1.96c-1.429-1.327-1.237-1.113,0.484-3.407
			c1.048-1.397,1.468-2.25,1.337-2.615c-0.125-0.348-0.896-0.256-0.896-0.256l-2.566,0.015c0,0-0.19-0.025-0.331,0.059
			c-0.139,0.082-0.227,0.275-0.227,0.275s-0.406,1.081-0.947,2.001c-1.143,1.94-1.6,2.043-1.786,1.923
			c-0.435-0.281-0.326-1.128-0.326-1.73c0-1.88,0.285-2.665-0.556-2.867c-0.278-0.067-0.484-0.112-1.198-0.119
			c-0.915-0.01-1.691,0.003-2.129,0.218c-0.292,0.142-0.516,0.461-0.379,0.479c0.169,0.023,0.553,0.105,0.757,0.382
			c0.262,0.358,0.253,1.16,0.253,1.16s0.151,2.214-0.353,2.488c-0.345,0.189-0.82-0.195-1.839-1.956
			c-0.522-0.901-0.916-1.899-0.916-1.899s-0.076-0.185-0.212-0.286c-0.164-0.12-0.394-0.159-0.394-0.159l-2.438,0.016
			c0,0-0.367,0.01-0.501,0.169c-0.12,0.142-0.009,0.435-0.009,0.435s1.909,4.466,4.071,6.717
			C13.566,20.962,15.816,20.828,15.816,20.828z"/>
	</g>
</g>
</svg>
