<?xml version="1.0" encoding="UTF-8"?>
<!DOCTYPE svg PUBLIC "-//W3C//DTD SVG 1.0//EN" "http://www.w3.org/TR/2001/REC-SVG-20010904/DTD/svg10.dtd">
<!-- Creator: CorelDRAW X7 -->
<svg xmlns="http://www.w3.org/2000/svg" xml:space="preserve" width="32px" height="40px" version="1.0" style="shape-rendering:geometricPrecision; text-rendering:geometricPrecision; image-rendering:optimizeQuality; fill-rule:evenodd; clip-rule:evenodd"
viewBox="0 0 79491 99372"
 xmlns:xlink="http://www.w3.org/1999/xlink">
 <defs>
  <style type="text/css">
   <![CDATA[
    .fil0 {fill:black}
   ]]>
  </style>
 </defs>
 <g id="Слой_x0020_1">
  <metadata id="CorelCorpID_0Corel-Layer"/>
  <path class="fil0" d="M1989 0l35887 0 3744 0 15140 0 3744 0 16997 0c1095,0 1990,898 1990,1992l0 97380 -18987 0 -3744 0 -15143 0 -3741 0 -37876 0 0 -97380c0,-1097 892,-1992 1989,-1992zm63004 75392l0 -3744 10639 0 0 -10196 -10639 0c0,-1247 0,-2494 0,-3741l10639 0 0 -10196 -10639 0c0,-1250 0,-2497 0,-3744l10639 0 0 -10196 -10639 0c0,-1250 0,-2497 0,-3744l10639 0 0 -10196 -10639 0 0 -3741 10639 0 0 -12153 -15128 0 0 91884 15128 0 0 -20236 -10639 0 0 3zm-12916 -23441l-2 0c-1030,0 -1872,-839 -1872,-1869l0 -5038c0,-1029 839,-1872 1872,-1872l2 0c1030,0 1869,843 1869,1872l0 5038c0,1030 -839,1869 -1869,1869zm-19130 0l-3 0c-1030,0 -1869,-839 -1869,-1869l0 -5038c0,-1029 839,-1872 1869,-1872l3 0c1030,0 1869,843 1869,1872l0 5038c0,1030 -839,1869 -1869,1869zm23813 43677l0 -91884 -15143 0 0 91884 15143 0zm-18884 0l0 -91884 -34021 0 0 91884 34021 0z"/>
 </g>
</svg>
