<?xml version="1.0" encoding="utf-8"?>
<!-- Generator: Adobe Illustrator 21.1.0, SVG Export Plug-In . SVG Version: 6.00 Build 0)  -->
<svg version="1.1" id="Слой_1" xmlns="http://www.w3.org/2000/svg" xmlns:xlink="http://www.w3.org/1999/xlink" x="0px" y="0px"
	 viewBox="0 0 36 45" style="enable-background:new 0 0 36 45;" xml:space="preserve">
<g id="Слой_x0020_1">
	<path d="M0.901,0h16.252h1.695h6.857H27.4h7.697C35.594,0,36,0.406,36,0.902L35.999,45H27.4h-1.695h-6.857h-1.695H0V0.902
		C0,0.405,0.405,0,0.901,0z M29.434,34.141v-1.695h4.818v-4.617h-4.818c0-0.566,0-1.13,0-1.695h4.818v-4.617h-4.818
		c0-0.566,0-1.13,0-1.695h4.818v-4.618h-4.818c0-0.566,0-1.13,0-1.695h4.818V8.893h-4.818V7.198h4.818V1.695H27.4v41.61h6.852
		v-9.164H29.434z M23.584,23.526h-0.001c-0.467,0-0.847-0.38-0.847-0.847v-2.282c0-0.467,0.38-0.847,0.847-0.847h0.001
		c0.467,0,0.847,0.38,0.847,0.847v2.282C24.431,23.146,24.051,23.526,23.584,23.526z M14.921,23.526H14.92
		c-0.467,0-0.847-0.38-0.847-0.847v-2.282c0-0.467,0.38-0.847,0.847-0.847h0.001c0.467,0,0.847,0.38,0.847,0.847v2.282
		C15.768,23.146,15.388,23.526,14.921,23.526z M25.705,43.305V1.695h-6.857v41.61H25.705z M17.153,43.305V1.695H1.747v41.61H17.153z
		"/>
</g>
</svg>
