<?xml version="1.0" encoding="UTF-8"?>
<!DOCTYPE svg PUBLIC "-//W3C//DTD SVG 1.0//EN" "http://www.w3.org/TR/2001/REC-SVG-20010904/DTD/svg10.dtd">
<!-- Creator: CorelDRAW X7 -->
<svg xmlns="http://www.w3.org/2000/svg" xml:space="preserve" width="32px" height="38px" version="1.0" style="shape-rendering:geometricPrecision; text-rendering:geometricPrecision; image-rendering:optimizeQuality; fill-rule:evenodd; clip-rule:evenodd"
viewBox="0 0 77435 92829"
 xmlns:xlink="http://www.w3.org/1999/xlink">
 <defs>
  <style type="text/css">
   <![CDATA[
    .fil0 {fill:black}
   ]]>
  </style>
 </defs>
 <g id="Слой_x0020_1">
  <metadata id="CorelCorpID_0Corel-Layer"/>
  <g id="_1452159216">
   <path class="fil0" d="M26705 44031c-661,790 -1844,896 -2634,235 -790,-662 -896,-1844 -235,-2634l241 -286c661,-791 1843,-896 2634,-235 790,661 896,1844 234,2634l-240 286zm4709 -3856c-913,478 -2047,129 -2525,-785 -478,-913 -129,-2047 785,-2525 1365,-724 2840,-1297 4377,-1680l86 -17c1483,-361 3017,-559 4581,-559 5316,0 10137,2162 13627,5649 3495,3487 5657,8311 5657,13633 0,5316 -2162,10137 -5649,13627l-34 34c-3487,3473 -8299,5623 -13601,5623 -5323,0 -10147,-2161 -13634,-5648l-97 -106c-3430,-3482 -5551,-8263 -5551,-13530 0,-1071 95,-2156 275,-3227 180,-1070 452,-2121 807,-3135 338,-973 1406,-1485 2379,-1148 974,338 1486,1406 1148,2379 -277,799 -498,1649 -647,2526 -137,821 -212,1697 -212,2605 0,4240 1692,8087 4444,10887l106 98c2805,2805 6693,4549 10982,4549 4271,0 8144,-1724 10950,-4506l34 -35c2812,-2817 4549,-6705 4549,-10993 0,-4289 -1743,-8177 -4549,-10982 -2802,-2812 -6693,-4549 -10984,-4549 -1274,0 -2506,151 -3665,429l-92 26c-1251,312 -2444,776 -3547,1360z"/>
   <path class="fil0" d="M3496 0l70443 0c962,0 1844,398 2471,1025 636,635 1025,1509 1025,2471l0 85837c0,953 -392,1832 -1025,2462 -638,641 -1517,1034 -2471,1034l-70443 0c-962,0 -1836,-390 -2471,-1025 -627,-627 -1025,-1509 -1025,-2471l0 -85837c0,-957 398,-1830 1025,-2463 641,-635 1514,-1033 2471,-1033zm70189 3750l-69935 0 0 85328 69935 0 0 -85328z"/>
   <polygon class="fil0" points="1875,15408 75560,15408 75560,19158 1875,19158 "/>
   <polygon class="fil0" points="15007,1875 15007,17283 11257,17283 11257,1875 "/>
   <ellipse class="fil0" cx="21380" cy="9539" rx="1875" ry="1835"/>
   <path class="fil0" d="M29748 11414c-1033,0 -1875,-841 -1875,-1875 0,-1033 842,-1875 1875,-1875l37309 0c1034,0 1875,842 1875,1875 0,1034 -841,1875 -1875,1875l-37309 0z"/>
   <path class="fil0" d="M38720 26567c7535,0 14372,3064 19316,8011 4947,4938 8008,11772 8008,19316 0,7532 -3061,14363 -8005,19310 -4956,4952 -11786,8013 -19319,8013 -7543,0 -14377,-3061 -19321,-8005 -4941,-4947 -8005,-11783 -8005,-19318 0,-7544 3061,-14378 8005,-19322 4944,-4944 11778,-8005 19321,-8005zm16668 10650c-4257,-4262 -10152,-6899 -16668,-6899 -6510,0 -12407,2642 -16670,6905 -4263,4263 -6905,10160 -6905,16671 0,6515 2636,12410 6896,16667 4272,4263 10169,6905 16679,6905 6516,0 12411,-2636 16668,-6896 4269,-4266 6905,-10161 6905,-16676 0,-6511 -2642,-12408 -6905,-16677z"/>
  </g>
 </g>
</svg>
