<?xml version="1.0" encoding="UTF-8"?>
<!DOCTYPE svg PUBLIC "-//W3C//DTD SVG 1.0//EN" "http://www.w3.org/TR/2001/REC-SVG-20010904/DTD/svg10.dtd">
<!-- Creator: CorelDRAW X7 -->
<svg xmlns="http://www.w3.org/2000/svg" xml:space="preserve" width="75px" height="75px" version="1.0" style="shape-rendering:geometricPrecision; text-rendering:geometricPrecision; image-rendering:optimizeQuality; fill-rule:evenodd; clip-rule:evenodd"
viewBox="0 0 279334 279334"
 xmlns:xlink="http://www.w3.org/1999/xlink">
 <defs>
  <style type="text/css">
   <![CDATA[
    .fil1 {fill:#207BBB}
    .fil0 {fill:#207BBB;fill-rule:nonzero}
   ]]>
  </style>
 </defs>
 <g id="Слой_x0020_1">
  <metadata id="CorelCorpID_0Corel-Layer"/>
  <g id="_935692624">
   <path class="fil0" d="M139667 13170c-34928,0 -66559,14163 -89449,37048 -22885,22890 -37048,54521 -37048,89449 0,34932 14163,66558 37048,89448 22890,22886 54521,37049 89449,37049 34932,0 66558,-14163 89448,-37049 22886,-22890 37049,-54516 37049,-89448 0,-34928 -14163,-66559 -37049,-89449 -22890,-22885 -54516,-37048 -89448,-37048zm-98764 27733c25273,-25270 60197,-40903 98764,-40903 38571,0 73490,15633 98764,40903 25270,25273 40903,60197 40903,98764 0,38571 -15633,73490 -40903,98764 -25274,25270 -60193,40903 -98764,40903 -38567,0 -73491,-15633 -98764,-40903 -25270,-25274 -40903,-60193 -40903,-98764 0,-38567 15633,-73491 40903,-98764z"/>
   <path class="fil1" d="M82288 105068l0 0 0 14 0 48 0 0 0 19075 0 30924 0 19123 0 13 0 0c0,6629 5374,12007 12007,12007 6634,0 12011,-5378 12011,-12007l0 -19136 0 -30924 0 -19075 -4 0 4 -62c0,-6629 -5377,-12006 -12011,-12006 -6633,0 -12007,5377 -12007,12006zm102733 -21160l10580 0 -44278 111518 -10581 0 44279 -111518zm-56303 42751l0 -24598c0,-9258 7507,-16770 16770,-16770 9259,0 16770,7512 16770,16770l0 24598c0,9263 -7511,16770 -16770,16770 -9263,0 -16770,-7507 -16770,-16770zm22956 -24598c0,-3415 -2770,-6185 -6186,-6185 -3420,0 -6190,2770 -6190,6185l0 9009 0 6585 0 9004c0,3420 2770,6190 6190,6190 3416,0 6186,-2770 6186,-6190l0 -9004 0 -6585 0 -9009zm22411 75212l0 -24598c0,-9263 7512,-16770 16775,-16770 9259,0 16770,7507 16770,16770l0 24598c0,9258 -7511,16770 -16770,16770 -9263,0 -16775,-7512 -16775,-16770zm22961 -24598c0,-3420 -2771,-6190 -6186,-6190 -3420,0 -6190,2770 -6190,6190l0 9004 0 6585 0 9009c0,3415 2770,6185 6190,6185 3415,0 6186,-2770 6186,-6185l0 -9009 0 -6585 0 -9004zm-125342 21590l0 -69197c0,-12476 10114,-22587 22591,-22587 12477,0 22592,10111 22592,22587l0 0 0 69197 0 0c0,12477 -10115,22587 -22592,22587 -12477,0 -22591,-10110 -22591,-22587z"/>
  </g>
 </g>
</svg>
