<?xml version="1.0" encoding="utf-8"?>
<!-- Generator: Adobe Illustrator 21.1.0, SVG Export Plug-In . SVG Version: 6.00 Build 0)  -->
<svg version="1.1" id="Слой_1" xmlns="http://www.w3.org/2000/svg" xmlns:xlink="http://www.w3.org/1999/xlink" x="0px" y="0px"
	 viewBox="0 0 38 38" style="enable-background:new 0 0 38 38;" xml:space="preserve">
<style type="text/css">
	.st0{fill:#207BBB;}
	.st1{fill:#FFFFFF;}
</style>
<g id="Слой_x0020_1">
	<circle class="st0" cx="19" cy="19" r="19"/>
	<path class="st1" d="M28.504,15.894h-6.398l0.031-6.367h-6.274l0.031,5.513v0.854l-6.367-0.031v6.274l5.513-0.031h0.854
		l-0.031,6.367h6.274l-0.031-5.513v-0.854l6.367,0.031L28.504,15.894z M28.504,15.04H22.96V9.496c0-0.435-0.349-0.792-0.792-0.792
		h-6.336c-0.443,0-0.792,0.357-0.792,0.792v5.544H9.496c-0.435,0-0.792,0.349-0.792,0.792v6.336c0,0.443,0.357,0.792,0.792,0.792
		h5.544v5.544c0,0.435,0.349,0.792,0.792,0.792h6.336c0.443,0,0.792-0.357,0.792-0.792V22.96h5.544c0.435,0,0.792-0.349,0.792-0.792
		v-6.336C29.249,15.389,28.892,15.04,28.504,15.04z"/>
</g>
</svg>
