<?xml version="1.0" encoding="utf-8"?>
<!-- Generator: Adobe Illustrator 21.1.0, SVG Export Plug-In . SVG Version: 6.00 Build 0)  -->
<svg version="1.1" id="Слой_1" xmlns="http://www.w3.org/2000/svg" xmlns:xlink="http://www.w3.org/1999/xlink" x="0px" y="0px"
	 viewBox="0 0 38 38" style="enable-background:new 0 0 38 38;" xml:space="preserve">
<style type="text/css">
	.st0{fill:#207BBB;}
	.st1{fill:#FFFFFF;}
</style>
<g id="Слой_x0020_1">
	<circle class="st0" cx="19" cy="19" r="19"/>
	<g id="_806041664">
		<g>
			<g>
				<path class="st1" d="M24.846,15.131l-2.845-7.269c-0.156-0.391-0.594-0.578-0.985-0.43l-7.269,2.845
					c-0.391,0.156-0.578,0.602-0.422,0.993l2.861,7.261c0.156,0.399,0.602,0.586,0.993,0.43l7.245-2.845
					C24.815,15.96,25.002,15.522,24.846,15.131z M16.952,18.132l-2.782-7.073l7.073-2.782l2.775,7.073L16.952,18.132z"/>
			</g>
		</g>
		<g>
			<g>
				<path class="st1" d="M17.828,19.688h-7.784c-0.414,0-0.758,0.344-0.758,0.758v7.792c0,0.422,0.344,0.758,0.758,0.758h7.784
					c0.422,0,0.766-0.336,0.766-0.758v-7.792C18.594,20.032,18.25,19.688,17.828,19.688z M17.734,28.137h-7.589v-7.589h7.589V28.137
					z"/>
			</g>
		</g>
		<g>
			<g>
				<path class="st1" d="M29.325,19.649l-7.527-2.001c-0.406-0.102-0.821,0.148-0.93,0.555l-2.001,7.519
					c-0.109,0.406,0.133,0.828,0.539,0.938l0,0l7.527,1.993c0.406,0.109,0.821-0.125,0.93-0.531l0,0l1.985-7.542
					C29.958,20.18,29.723,19.766,29.325,19.649z M27.066,27.769l-7.347-1.93l1.954-7.339l7.339,1.954L27.066,27.769z"/>
			</g>
		</g>
		<g>
			<g>
				<path class="st1" d="M21.642,14.045c-0.078-0.148-0.18-0.281-0.305-0.399l-2.142-2.251l-0.25-0.274
					c-0.063-0.063-0.133-0.125-0.211-0.172c-0.07-0.055-0.164-0.086-0.25-0.102c-0.219-0.016-0.438,0.07-0.586,0.234
					c-0.055,0.07-0.102,0.156-0.117,0.242c-0.023,0.109-0.031,0.219-0.031,0.328c0,0.125,0,0.234,0,0.32v3.111
					c0.008,0.133,0.016,0.227,0.023,0.297c0,0.063,0.016,0.125,0.039,0.188c0.039,0.102,0.125,0.18,0.227,0.211
					c0.102,0.047,0.219,0.047,0.32,0c0.109-0.031,0.195-0.109,0.227-0.211c0.031-0.164,0.047-0.336,0.039-0.5v-0.61l1.688-0.664
					l0.399,0.43l0.188,0.18c0.047,0.055,0.109,0.109,0.172,0.148c0.047,0.023,0.102,0.047,0.156,0.047
					c0.063,0.008,0.125,0,0.188-0.023c0.102-0.047,0.18-0.125,0.227-0.219C21.681,14.256,21.681,14.146,21.642,14.045z
					 M18.586,13.732l-0.063-1.938l1.297,1.446L18.586,13.732z"/>
			</g>
		</g>
		<g>
			<g>
				<path class="st1" d="M15.006,24.01c0.406-0.148,0.672-0.547,0.664-0.977c0-0.125-0.023-0.25-0.063-0.367
					c-0.039-0.117-0.102-0.227-0.188-0.32c-0.07-0.094-0.172-0.18-0.274-0.242c-0.133-0.078-0.274-0.133-0.43-0.148
					c-0.18-0.031-0.367-0.047-0.547-0.039h-1.422c-0.156-0.023-0.305,0.023-0.422,0.125c-0.102,0.117-0.148,0.274-0.133,0.43v3.345
					c-0.016,0.156,0.031,0.313,0.125,0.43c0.117,0.102,0.274,0.148,0.43,0.133h1.368c0.195-0.008,0.399-0.023,0.594-0.055
					c0.156-0.023,0.32-0.063,0.469-0.117c0.211-0.094,0.391-0.242,0.516-0.43c0.125-0.203,0.195-0.438,0.195-0.672
					C15.897,24.573,15.522,24.111,15.006,24.01z M13.107,22.603h0.711c0.25-0.016,0.5,0.023,0.727,0.109
					c0.164,0.078,0.258,0.25,0.242,0.43c0,0.094-0.023,0.195-0.078,0.281c-0.055,0.117-0.156,0.203-0.281,0.242
					c-0.172,0.055-0.344,0.07-0.524,0.07h-0.821L13.107,22.603z M14.967,25.042c0,0.438-0.305,0.657-0.914,0.657h-0.969l0.023-1.297
					h0.922c0.25-0.016,0.492,0.039,0.711,0.156C14.897,24.666,14.983,24.846,14.967,25.042z"/>
			</g>
		</g>
		<g>
			<g>
				<path class="st1" d="M26.511,21.884c-0.109-0.266-0.289-0.508-0.508-0.688c-0.25-0.211-0.547-0.36-0.86-0.43
					c-0.274-0.078-0.571-0.102-0.852-0.063c-0.281,0.031-0.539,0.125-0.782,0.266c-0.242,0.156-0.453,0.352-0.617,0.594
					c-0.18,0.266-0.32,0.571-0.399,0.883c-0.055,0.203-0.086,0.414-0.102,0.625c-0.008,0.195,0,0.391,0.039,0.586
					c0.031,0.18,0.094,0.36,0.172,0.524c0.078,0.18,0.188,0.336,0.32,0.477c0.133,0.133,0.289,0.25,0.453,0.336
					c0.195,0.102,0.399,0.172,0.602,0.227c0.274,0.078,0.555,0.102,0.828,0.07c0.234-0.039,0.453-0.125,0.657-0.25
					c0.164-0.102,0.305-0.234,0.422-0.383c0.102-0.125,0.18-0.274,0.219-0.43c0.031-0.102,0.016-0.211-0.039-0.297
					c-0.047-0.094-0.133-0.156-0.234-0.18c-0.102-0.039-0.211-0.023-0.297,0.039c-0.086,0.063-0.156,0.148-0.211,0.234
					c-0.133,0.195-0.32,0.344-0.539,0.43c-0.219,0.07-0.461,0.07-0.68,0c-0.203-0.039-0.391-0.133-0.547-0.274
					c-0.148-0.164-0.242-0.375-0.266-0.602c-0.023-0.281,0-0.578,0.086-0.852c0.078-0.43,0.297-0.821,0.625-1.11
					c0.274-0.211,0.633-0.274,0.961-0.18c0.203,0.047,0.391,0.156,0.531,0.313c0.133,0.172,0.227,0.367,0.266,0.586
					c0.023,0.109,0.063,0.219,0.117,0.32c0.055,0.078,0.141,0.133,0.234,0.148c0.094,0.023,0.203,0.008,0.281-0.047
					c0.094-0.055,0.156-0.141,0.18-0.234C26.62,22.306,26.597,22.087,26.511,21.884z"/>
			</g>
		</g>
	</g>
</g>
</svg>
