<?xml version="1.0" encoding="utf-8"?>
<!-- Generator: Adobe Illustrator 21.1.0, SVG Export Plug-In . SVG Version: 6.00 Build 0)  -->
<svg version="1.1" id="Layer_1" xmlns="http://www.w3.org/2000/svg" xmlns:xlink="http://www.w3.org/1999/xlink" x="0px" y="0px"
	 viewBox="0 0 469.456 511.998" style="enable-background:new 0 0 469.456 511.998;" xml:space="preserve">
<g>
	<g>
		<path d="M73.682,394.318c-24.261,0-43.998,19.738-43.998,43.998c0,24.26,19.738,43.998,43.998,43.998s43.998-19.738,43.998-43.998
			S97.942,394.318,73.682,394.318z M73.682,464.322c-14.34,0-26.005-11.666-26.005-26.005s11.666-26.005,26.005-26.005
			s26.005,11.666,26.005,26.005S88.021,464.322,73.682,464.322z"/>
	</g>
</g>
<g>
	<g>
		<path d="M329.843,394.319c-24.26,0-43.998,19.738-43.998,43.998s19.737,43.998,43.998,43.998s43.998-19.738,43.998-43.998
			C373.841,414.057,354.103,394.319,329.843,394.319z M329.843,464.321c-14.339,0-26.005-11.666-26.005-26.005
			c0-14.339,11.665-26.005,26.005-26.005s26.005,11.666,26.005,26.005C355.848,452.655,344.182,464.321,329.843,464.321z"/>
	</g>
</g>
<g>
	<g>
		<path d="M460.459,103.297h-29.704c-2.922,0-5.662,1.419-7.348,3.806l-34.779,49.238H206.043l50.782-144.359
			c0.968-2.753,0.541-5.804-1.146-8.185C253.993,1.415,251.255,0,248.337,0H142.22C65.226,0,2.587,62.639,2.587,139.634v44.354
			c0,68.874,48.942,126.528,113.873,140.02l65.102,30.534l-59.639,28.149c-12.937-11.235-29.802-18.059-48.24-18.059
			C33.053,364.632,0,397.687,0,438.315c0,40.63,33.055,73.683,73.683,73.683s73.683-33.055,73.683-73.683
			c0-5.808-0.697-11.454-1.973-16.879h112.741c-1.276,5.424-1.973,11.07-1.973,16.879c0,40.63,33.055,73.683,73.683,73.683
			s73.683-33.055,73.683-73.683c0-40.63-33.055-73.683-73.683-73.683c-18.048,0-34.592,6.534-47.417,17.345l-58.602-27.487
			l64.592-30.487c64.925-13.497,113.863-71.148,113.863-140.018v-15.784l33.136-46.912h25.044c4.968,0,8.996-4.028,8.996-8.996
			S465.428,103.297,460.459,103.297z M202.335,17.992h33.302l-33.302,94.667V17.992z M20.579,139.634
			c0-67.074,54.568-121.641,121.641-121.641h42.122v138.348H20.579V139.634z M73.682,494.008c-30.708,0-55.69-24.983-55.69-55.69
			c0-30.708,24.983-55.69,55.69-55.69s55.69,24.983,55.69,55.69C129.373,469.024,104.39,494.008,73.682,494.008z M329.843,382.625
			c30.708,0,55.69,24.983,55.69,55.69c0,30.708-24.983,55.69-55.69,55.69s-55.69-24.983-55.69-55.69
			S299.135,382.625,329.843,382.625z M269.671,395.869c-1.715,2.425-3.301,4.948-4.719,7.576H138.573
			c-1.26-2.334-2.645-4.588-4.14-6.763l68.271-32.222L269.671,395.869z M202.68,344.575l-37.482-17.58h74.73L202.68,344.575z
			 M259.272,309.002H145.594c-68.933,0-125.014-56.081-125.014-125.014v-9.655h163.766v4.869c0,20.114,16.365,36.479,36.479,36.479
			h159.387C366.145,269.317,317.257,309.002,259.272,309.002z M383.532,197.687H220.823c-10.193,0-18.487-8.293-18.487-18.487
			v-4.869h181.949v9.655h0.001C384.286,188.617,384.025,193.187,383.532,197.687z"/>
	</g>
</g>
</svg>
