<?xml version="1.0" encoding="UTF-8"?>
<!DOCTYPE svg PUBLIC "-//W3C//DTD SVG 1.0//EN" "http://www.w3.org/TR/2001/REC-SVG-20010904/DTD/svg10.dtd">
<!-- Creator: CorelDRAW X7 -->
<svg xmlns="http://www.w3.org/2000/svg" xml:space="preserve" width="38px" height="38px" version="1.0" style="shape-rendering:geometricPrecision; text-rendering:geometricPrecision; image-rendering:optimizeQuality; fill-rule:evenodd; clip-rule:evenodd"
viewBox="0 0 211716 211716"
 xmlns:xlink="http://www.w3.org/1999/xlink">
 <defs>
  <style type="text/css">
   <![CDATA[
    .fil0 {fill:#207BBB}
    .fil1 {fill:white}
   ]]>
  </style>
 </defs>
 <g id="Слой_x0020_1">
  <metadata id="CorelCorpID_0Corel-Layer"/>
  <g id="_996496544">
   <circle class="fil0" cx="105858" cy="105858" r="105855"/>
   <g>
    <g id="_1227008304">
     <path class="fil1" d="M87913 123954c4172,0 7949,1698 10680,4415 2731,2731 4422,6508 4416,10667 6,4172 -1685,7956 -4416,10686 -2724,2725 -6508,4416 -10673,4422 -4165,-6 -7949,-1697 -10680,-4422 -2724,-2730 -4422,-6521 -4422,-10686 13,-4152 1698,-7943 4429,-10667 2737,-2724 6514,-4415 10666,-4415zm13 4020c-3066,0 -5830,1244 -7837,3238 -2000,2007 -3250,4784 -3250,7831 0,3053 1250,5836 3244,7837 2007,2007 4784,3257 7837,3257 3047,0 5830,-1250 7830,-3257 2007,-1994 3245,-4778 3245,-7831 6,-3047 -1238,-5823 -3245,-7830 -1993,-1994 -4764,-3245 -7824,-3245z"/>
     <path class="fil1" d="M76385 155783c-672,882 -1928,1053 -2810,375 -882,-671 -1047,-1928 -375,-2803l4402 -5778c665,-882 1928,-1046 2803,-381 882,671 1046,1934 382,2816l-4402 5771zm20333 -26716c-566,947 -1803,1263 -2751,691 -947,-566 -1257,-1803 -691,-2751 1777,-2974 3646,-5751 5501,-8508l73 -99c1809,-2698 3639,-5422 5297,-8193l36422 -53340c948,-1388 1994,-1915 3119,-1665l204 60c1033,329 1665,1283 1889,2770l20 171c737,4850 796,9772 -198,14957 -987,5218 -3020,10746 -6429,16754l-16714 24268c-605,888 -1823,1125 -2731,553 -2500,-1586 -4876,-2738 -7172,-2718l-99 0c-2178,53 -4508,1158 -7186,3961l-3158 4765c-1869,2763 -3738,5547 -5396,8324zm45463 -67442l-31842 46622c731,-152 1468,-231 2185,-237 2685,-20 5198,921 7712,2342l15497 -22498c3145,-5554 5027,-10640 5929,-15431 697,-3724 829,-7304 519,-10798l0 0z"/>
     <path class="fil1" d="M123789 127974c-3060,0 -5836,1244 -7837,3245 -2007,1993 -3244,4764 -3244,7824 0,3059 1244,5836 3244,7837 2001,2000 4777,3250 7837,3250 3060,0 5830,-1243 7831,-3244 1994,-2000 3237,-4784 3237,-7843 0,-3047 -1243,-5824 -3237,-7824 -2001,-2007 -4771,-3245 -7831,-3245zm-10673 402c2724,-2731 6508,-4422 10673,-4422 4159,0 7936,1691 10667,4422 2731,2724 4422,6514 4422,10667 0,4165 -1691,7949 -4422,10679 -2731,2731 -6508,4422 -10667,4422 -4165,0 -7949,-1697 -10680,-4422 -2724,-2730 -4422,-6514 -4422,-10679 0,-4159 1698,-7930 4429,-10667z"/>
     <path class="fil1" d="M138510 153355c664,875 500,2132 -376,2803 -881,678 -2145,507 -2809,-375l-4403 -5771c-671,-882 -506,-2145 375,-2816 882,-665 2139,-501 2810,381l4403 5778zm-20084 -26348c573,948 264,2185 -684,2751 -954,572 -2185,256 -2751,-691 -1664,-2784 -3533,-5561 -5395,-8324l-3159 -4765c-2672,-2803 -5014,-3908 -7186,-3961l-92 0c-2310,-20 -4679,1132 -7179,2724 -908,566 -2125,329 -2731,-559l-16714 -24268c-3402,-6008 -5448,-11536 -6429,-16754 -994,-5211 -934,-10160 -184,-15029l13 -112c237,-1487 855,-2428 1882,-2757l204 -60c1132,-250 2171,277 3119,1665l36422 53340c1658,2771 3488,5495 5304,8193l66 99c1855,2757 3724,5534 5501,8508l-7 0zm-17062 -18760l-31836 -46622c-309,3494 -184,7074 520,10792 901,4797 2790,9883 5929,15437l15496 22498c2514,-1421 5034,-2369 7699,-2342 731,0 1468,79 2192,237l0 0z"/>
    </g>
   </g>
  </g>
 </g>
</svg>
