<?xml version="1.0" encoding="UTF-8"?>
<!DOCTYPE svg PUBLIC "-//W3C//DTD SVG 1.0//EN" "http://www.w3.org/TR/2001/REC-SVG-20010904/DTD/svg10.dtd">
<!-- Creator: CorelDRAW X7 -->
<svg xmlns="http://www.w3.org/2000/svg" xml:space="preserve" width="18px" height="22px" version="1.0" style="shape-rendering:geometricPrecision; text-rendering:geometricPrecision; image-rendering:optimizeQuality; fill-rule:evenodd; clip-rule:evenodd"
viewBox="0 0 15612 19551"
 xmlns:xlink="http://www.w3.org/1999/xlink">
 <defs>
  <style type="text/css">
   <![CDATA[
    .fil0 {fill:black}
   ]]>
  </style>
 </defs>
 <g id="Слой_x0020_1">
  <metadata id="CorelCorpID_0Corel-Layer"/>
  <g id="_1227008304">
   <path class="fil0" d="M4348 13263c804,0 1532,327 2058,852 527,526 853,1254 852,2056 1,803 -325,1533 -851,2059 -526,526 -1255,852 -2058,853 -802,-1 -1532,-327 -2058,-853 -526,-526 -852,-1257 -852,-2059 2,-801 327,-1531 853,-2057 528,-525 1256,-851 2056,-851zm2 775c-591,0 -1124,240 -1510,624 -386,387 -627,922 -627,1509 1,589 241,1126 626,1511 387,387 922,628 1510,628 588,0 1124,-241 1510,-628 386,-385 625,-921 625,-1509 1,-588 -238,-1123 -625,-1510 -385,-384 -919,-625 -1509,-625z"/>
   <path class="fil0" d="M2126 19399c-129,169 -372,202 -542,72 -169,-129 -201,-372 -72,-541l848 -1113c129,-170 372,-202 541,-73 170,129 202,372 73,542l-848 1113zm3919 -5150c-109,183 -347,243 -530,133 -183,-109 -243,-347 -133,-530 342,-573 702,-1109 1060,-1640l14 -19c349,-520 701,-1045 1021,-1579l7020 -10281c183,-268 385,-370 602,-321l39 11c199,63 321,247 364,534l4 33c142,935 153,1883 -38,2883 -190,1006 -583,2071 -1240,3229l-3221 4678c-117,171 -351,217 -526,106 -482,-306 -940,-527 -1383,-523l-19 0c-419,9 -868,222 -1385,763l-609 918c-360,533 -720,1069 -1040,1605zm8763 -13000l-6137 8987c140,-30 282,-45 421,-46 517,-4 1002,178 1486,452l2987 -4337c606,-1071 969,-2051 1143,-2975 135,-717 160,-1407 100,-2081z"/>
   <path class="fil0" d="M11263 14038c-589,0 -1125,240 -1510,625 -387,385 -626,919 -626,1509 0,589 240,1125 626,1510 385,386 921,626 1510,626 590,0 1124,-239 1509,-625 385,-386 625,-922 625,-1511 0,-588 -240,-1123 -625,-1509 -385,-386 -919,-625 -1509,-625zm-2057 78c525,-527 1255,-853 2057,-853 802,0 1530,326 2057,853 526,525 852,1255 852,2056 0,802 -326,1532 -852,2058 -527,527 -1255,853 -2057,853 -802,0 -1532,-327 -2058,-853 -526,-526 -853,-1256 -853,-2058 0,-802 327,-1529 854,-2056z"/>
   <path class="fil0" d="M14100 18930c129,169 97,412 -72,541 -170,130 -413,97 -542,-72l-848 -1113c-129,-170 -97,-413 73,-542 169,-129 412,-97 541,73l848 1113zm-3870 -5078c110,183 50,421 -133,530 -183,110 -421,50 -530,-133 -320,-536 -680,-1072 -1040,-1605l-609 -918c-515,-540 -966,-754 -1385,-763l-17 0c-445,-4 -902,217 -1385,524 -175,110 -409,64 -526,-107l-3221 -4678c-656,-1158 -1050,-2223 -1240,-3229 -191,-1004 -180,-1958 -35,-2897l3 -22c45,-287 164,-468 362,-531l39 -11c219,-49 419,53 602,321l7020 10281c320,534 673,1059 1022,1579l13 19c358,531 718,1067 1060,1640zm-3289 -3616l-6137 -8987c-59,674 -35,1364 100,2081 174,924 538,1904 1143,2975l2987 4337c485,-274 970,-456 1484,-452 141,1 283,16 423,46z"/>
  </g>
 </g>
</svg>
