<?xml version="1.0" encoding="utf-8"?>
<!-- Generator: Adobe Illustrator 21.1.0, SVG Export Plug-In . SVG Version: 6.00 Build 0)  -->
<svg version="1.1" id="Capa_1" xmlns="http://www.w3.org/2000/svg" xmlns:xlink="http://www.w3.org/1999/xlink" x="0px" y="0px"
	 viewBox="0 0 512 312.263" style="enable-background:new 0 0 512 312.263;" xml:space="preserve">
<path d="M503.738,136.894c-2.485-1.029-9.086-2.599-16.708,5.024l-11.091,11.091c-14.568-10.687-32.528-17.01-51.939-17.01
	c-10.753,0-21.061,1.942-30.594,5.489l-8.923-18.657l8.26-8.26c1.385,3.19,4.563,5.429,8.257,5.429h46c4.962,0,9-4.037,9-9V64
	c0-4.418-3.582-8-8-8h-48c-4.418,0-8,3.582-8,8v28.686l-14.838,14.838L347.331,45.15C354.865,41.097,360,33.138,360,24
	c0-13.233-10.766-24-24-24h-32c-4.418,0-8,3.582-8,8s3.582,8,8,8h32c4.411,0,8,3.589,8,8s-3.589,8-8,8
	c-0.041,0-0.08,0.005-0.121,0.006c-0.182,0.003-0.363,0.012-0.545,0.028c-0.092,0.008-0.183,0.016-0.273,0.026
	c-0.16,0.019-0.32,0.044-0.479,0.073c-0.114,0.02-0.227,0.042-0.339,0.067c-0.129,0.029-0.258,0.063-0.387,0.1
	c-0.139,0.039-0.276,0.079-0.412,0.125c-0.102,0.035-0.204,0.073-0.306,0.112c-0.156,0.06-0.309,0.124-0.461,0.193
	c-0.043,0.02-0.087,0.034-0.129,0.054c-0.047,0.023-0.09,0.051-0.136,0.074c-0.146,0.074-0.29,0.151-0.431,0.234
	c-0.098,0.057-0.195,0.115-0.289,0.176c-0.117,0.075-0.23,0.153-0.343,0.233c-0.109,0.078-0.217,0.158-0.322,0.24
	c-0.09,0.072-0.177,0.146-0.264,0.222c-0.113,0.098-0.225,0.198-0.331,0.301c-0.075,0.073-0.147,0.149-0.219,0.224
	c-0.105,0.111-0.209,0.222-0.307,0.338c-0.071,0.083-0.138,0.17-0.205,0.256c-0.088,0.113-0.175,0.225-0.256,0.342
	c-0.072,0.103-0.139,0.209-0.206,0.315s-0.133,0.211-0.195,0.32c-0.07,0.124-0.135,0.251-0.199,0.379
	c-0.049,0.098-0.098,0.195-0.142,0.295c-0.062,0.139-0.118,0.281-0.173,0.424c-0.037,0.097-0.074,0.194-0.107,0.292
	c-0.048,0.142-0.09,0.286-0.129,0.431c-0.03,0.11-0.06,0.22-0.085,0.332c-0.03,0.131-0.055,0.263-0.079,0.396
	c-0.024,0.135-0.045,0.271-0.062,0.408c-0.014,0.112-0.025,0.225-0.034,0.338c-0.013,0.162-0.021,0.324-0.025,0.488
	c-0.001,0.053-0.008,0.104-0.008,0.156c0,0.047,0.006,0.093,0.007,0.14c0.003,0.168,0.012,0.337,0.026,0.505
	c0.008,0.103,0.017,0.206,0.029,0.309c0.018,0.15,0.042,0.299,0.069,0.449c0.022,0.122,0.044,0.243,0.072,0.363
	c0.028,0.123,0.06,0.245,0.095,0.368c0.04,0.144,0.082,0.286,0.129,0.426c0.034,0.1,0.071,0.199,0.109,0.299
	c0.06,0.156,0.123,0.309,0.192,0.46c0.02,0.044,0.034,0.089,0.055,0.132l22.937,47.958l-84.998,46.477
	c-0.091,0.05-0.181,0.102-0.271,0.155c-6.604,3.953-12.323,5.958-16.996,5.958H202.7l-46.372-104H176c4.418,0,8-3.582,8-8
	s-3.582-8-8-8h-32.156c-0.001,0-0.002,0-0.003,0H128c-3.637,0-8.477-3.748-10.224-5.535c-3.057-3.19-8.121-3.297-11.311-0.241
	c-3.19,3.058-3.298,8.121-0.241,11.312c1.026,1.071,10.358,10.465,21.776,10.465h10.808l22.817,51.173
	c-0.143,0.189-0.282,0.382-0.409,0.587l-33.56,53.697c-11.924-6.045-25.398-9.456-39.656-9.456c-48.523,0-88,39.477-88,88
	s39.477,88,88,88c45.826,0,83.577-35.212,87.633-80h9.38c2.901,11.228,11.759,20.087,22.987,22.987v9.013c0,8.822,7.178,16,16,16h16
	c4.418,0,8-3.582,8-8s-3.582-8-8-8h-16v-9.013c11.228-2.901,20.087-11.759,22.987-22.987h15.072c8.547,0,16.583-3.328,22.627-9.372
	l87.799-87.799l6.498,13.586C353.262,163.792,336,191.916,336,224c0,19.412,6.323,37.372,17.01,51.939l-11.354,11.354
	c-7.623,7.623-6.053,14.224-5.024,16.708c1.029,2.484,4.586,8.262,15.368,8.262h136c13.234,0,24-10.767,24-24v-136
	C512,141.481,506.222,137.923,503.738,136.894z M408,96.002c0-0.001,0-0.002,0-0.003h8v8h-8V96.002z M432,104v-8h8v8H432z M440,80
	h-8v-8h8V80z M408,72h8v8h-8V72z M169.464,108.752l26.418,59.247H192c-4.418,0-8,3.582-8,8s3.582,8,8,8h11.016l4.127,9.257
	c-10.819,3.122-19.304,11.803-22.13,22.743h-9.38c-2.287-25.261-15.292-47.472-34.423-62.041L169.464,108.752z M159.545,216h-57.111
	l30.247-48.396C147.337,179.24,157.372,196.445,159.545,216z M119.136,159.087l-32.59,52.144L43.095,167.78
	C55.417,157.918,71.027,152,88.001,152C99.146,152,109.708,154.547,119.136,159.087z M88,296c-39.701,0-72-32.299-72-72
	c0-16.974,5.918-32.583,15.78-44.906l50.563,50.563c0.017,0.017,0.036,0.031,0.053,0.048c0.103,0.101,0.212,0.196,0.321,0.292
	c0.071,0.062,0.138,0.129,0.211,0.189c0.03,0.025,0.062,0.047,0.092,0.071c0.088,0.07,0.18,0.134,0.272,0.2
	c0.089,0.065,0.174,0.134,0.266,0.195c0.046,0.031,0.093,0.059,0.14,0.088c0.021,0.014,0.041,0.03,0.062,0.043
	c0.036,0.022,0.074,0.037,0.11,0.058c0.013,0.008,0.027,0.016,0.04,0.023c0.106,0.063,0.21,0.13,0.319,0.189
	c0.119,0.064,0.242,0.118,0.364,0.175c0.028,0.013,0.055,0.027,0.083,0.04c0.046,0.021,0.091,0.046,0.137,0.066
	c0.042,0.018,0.083,0.037,0.126,0.054c0.117,0.049,0.237,0.088,0.356,0.131c0.127,0.046,0.253,0.094,0.383,0.134
	c0.034,0.01,0.068,0.02,0.103,0.03c0.067,0.019,0.135,0.032,0.202,0.049c0.019,0.005,0.037,0.009,0.056,0.014
	c0.133,0.033,0.264,0.071,0.399,0.097c0.1,0.02,0.202,0.031,0.303,0.047c0.096,0.015,0.191,0.031,0.287,0.043
	c0.062,0.008,0.121,0.019,0.183,0.025c0.238,0.023,0.477,0.034,0.716,0.036c0.022,0,0.044,0.005,0.066,0.005
	c0.005,0,0.01-0.001,0.016-0.001h71.537C155.551,267.948,124.996,296,88,296z M216,240c-8.822,0-16-7.178-16-16
	c0-5.906,3.226-11.063,8-13.835V224c0,4.418,3.582,8,8,8s8-3.582,8-8v-13.835c4.774,2.772,8,7.928,8,13.835
	C232,232.822,224.822,240,216,240z M273.373,211.313c-3.022,3.022-7.04,4.687-11.313,4.687h-15.072
	c-2.846-11.015-11.428-19.741-22.354-22.807l-0.633-1.42V184c0-6.734-4.187-12.497-10.089-14.855L209.834,160h39.622
	c7.57,0,16.006-2.741,25.077-8.147l84.101-45.987l6.531,13.656L273.373,211.313z M420.434,231.142
	c1.105,0.551,2.324,0.859,3.572,0.859c1.157,0,2.333-0.252,3.446-0.785c3.986-1.906,5.672-6.683,3.766-10.668l-0.061-0.128
	l45.478-45.478C488.635,187.81,496,205.057,496,224c0,39.701-32.299,72-72,72c-18.943,0-36.189-7.365-49.057-19.367L420.434,231.142
	z M424,152c14.992,0,28.925,4.611,40.466,12.483l-40.631,40.631L400.35,156.01C407.763,153.423,415.717,152,424,152z M352,224
	c0-25.728,13.573-48.333,33.925-61.069l25.912,54.18l-47.355,47.355C356.611,252.925,352,238.992,352,224z M363.62,287.956
	c3.191,3.014,6.608,5.791,10.221,8.307h-18.528L363.62,287.956z M496,288.262c0,4.411-3.589,8-8,8h-13.841
	c8.487-5.909,15.889-13.271,21.841-21.725V288.262z M487.956,163.62l8.044-8.044v17.886
	C493.555,169.989,490.865,166.7,487.956,163.62z"/>
</svg>
