<?xml version="1.0" encoding="utf-8"?>
<!-- Generator: Adobe Illustrator 21.1.0, SVG Export Plug-In . SVG Version: 6.00 Build 0)  -->
<svg version="1.1" id="Слой_1" xmlns="http://www.w3.org/2000/svg" xmlns:xlink="http://www.w3.org/1999/xlink" x="0px" y="0px"
	 viewBox="0 0 38 38" style="enable-background:new 0 0 38 38;" xml:space="preserve">
<style type="text/css">
	.st0{fill:#207BBB;}
	.st1{fill:#FFFFFF;}
</style>
<g id="Слой_x0020_1">
	<circle class="st0" cx="19" cy="19" r="19"/>
	<path class="st1" d="M27.647,12.674c-4.323,0-8.647,0-12.978,0h-4.316c-1.176,0-2.158,0.872-2.329,2.002
		C8.008,14.723,8,14.778,8,14.825v8.616c0,0.234,0.187,0.428,0.428,0.428h2.462h0.771h0.023h1.223
		c0.203,0.834,0.95,1.449,1.846,1.449c0.888,0,1.636-0.615,1.838-1.449h1.052h0.023h0.982h5.547c0.203,0.834,0.95,1.449,1.838,1.449
		c0.896,0,1.644-0.615,1.838-1.449h1.698c0.234,0,0.428-0.195,0.428-0.428v-8.413C30,13.734,28.94,12.674,27.647,12.674z
		 M14.443,14.396h-2.407c-0.234,0-0.428,0.195-0.428,0.428v2.407c0,0.241,0.195,0.428,0.428,0.428h2.407
		c0.241,0,0.428-0.187,0.428-0.428v-2.407C14.871,14.591,14.684,14.396,14.443,14.396z M14.014,16.803h-1.55v-1.55h1.55V16.803z
		 M18.572,14.396h-2.407c-0.241,0-0.428,0.195-0.428,0.428v2.407c0,0.241,0.187,0.428,0.428,0.428h2.407
		c0.234,0,0.428-0.187,0.428-0.428v-2.407C19,14.591,18.805,14.396,18.572,14.396z M18.143,16.803h-1.55v-1.55h1.55V16.803z
		 M12.908,23.012h-1.223h-0.023h-0.771H8.857V17.66h1.465c0.234,0,0.428-0.187,0.428-0.428v-2.407c0-0.234-0.195-0.428-0.428-0.428
		H8.998c0.241-0.506,0.756-0.857,1.355-0.857c5.765,0,11.529,0,17.294,0c0.686,0,1.27,0.467,1.441,1.098h-3.646
		c-0.234,0-0.428,0.195-0.428,0.428v3.864c0,0.234,0.195,0.428,0.428,0.428h3.7v3.654h-1.262c-0.195-0.841-0.95-1.472-1.846-1.472
		s-1.651,0.631-1.838,1.472h-0.039v-7.946c0-0.234-0.195-0.428-0.428-0.428h-3.443c-0.234,0-0.428,0.195-0.428,0.428v3.451v0.865
		v3.63h-1.207h-0.982h-0.023h-1.052c-0.187-0.841-0.943-1.472-1.838-1.472C13.851,21.54,13.095,22.171,12.908,23.012z
		 M14.754,24.461c-0.569,0-1.036-0.46-1.036-1.028s0.467-1.036,1.036-1.036c0.561,0,1.028,0.467,1.028,1.036
		S15.315,24.461,14.754,24.461z M9.893,15.253v1.55H8.857v-1.55H9.893z M23.292,18.829h-0.265c-0.241,0-0.436,0.187-0.436,0.428
		c0,0.234,0.195,0.428,0.436,0.428h0.265v3.326h-2.579v-7.517h2.579V18.829z M26.034,24.461c-0.569,0-1.028-0.46-1.028-1.028
		s0.46-1.036,1.028-1.036s1.036,0.467,1.036,1.036S26.603,24.461,26.034,24.461z M29.143,18.501h-3.272v-3.007h3.272V18.501z"/>
</g>
</svg>
