<?xml version="1.0" encoding="utf-8"?>
<!-- Generator: Adobe Illustrator 21.1.0, SVG Export Plug-In . SVG Version: 6.00 Build 0)  -->
<svg version="1.1" id="Слой_1" xmlns="http://www.w3.org/2000/svg" xmlns:xlink="http://www.w3.org/1999/xlink" x="0px" y="0px"
	 viewBox="0 0 24 14" style="enable-background:new 0 0 24 14;" xml:space="preserve">
<g id="Слой_x0020_1">
	<path d="M21.434,0.101c-4.714,0-9.44,0-14.154,0H2.566c-1.289,0-2.357,0.945-2.541,2.185C0.012,2.335,0,2.384,0,2.446v9.391
		c0,0.258,0.209,0.466,0.466,0.466h2.688h0.847h0.025h1.326c0.221,0.908,1.043,1.596,2.013,1.596s1.792-0.687,2.013-1.596h1.142
		h0.025h1.08h6.04c0.221,0.908,1.031,1.596,2.013,1.596c0.97,0,1.792-0.687,2.001-1.596h1.854c0.258,0,0.466-0.209,0.466-0.466
		v-9.17C24,1.255,22.846,0.101,21.434,0.101z M7.034,1.979H4.407c-0.258,0-0.466,0.209-0.466,0.466v2.627
		c0,0.258,0.209,0.466,0.466,0.466h2.627c0.258,0,0.466-0.209,0.466-0.466V2.446C7.501,2.188,7.292,1.979,7.034,1.979z M6.555,4.606
		H4.874V2.912h1.682V4.606z M11.527,1.979H8.9c-0.258,0-0.466,0.209-0.466,0.466v2.627c0,0.258,0.209,0.466,0.466,0.466h2.627
		c0.258,0,0.466-0.209,0.466-0.466V2.446C11.994,2.188,11.785,1.979,11.527,1.979z M11.061,4.606H9.379V2.912h1.682V4.606z
		 M5.352,11.37H4.027H4.002H3.155H0.933V5.539h1.596c0.258,0,0.466-0.209,0.466-0.466V2.446c0-0.258-0.209-0.466-0.466-0.466H1.093
		C1.35,1.427,1.915,1.034,2.566,1.034c6.285,0,12.583,0,18.869,0c0.749,0,1.375,0.516,1.571,1.203h-3.977
		c-0.258,0-0.466,0.209-0.466,0.466v4.223c0,0.258,0.209,0.466,0.466,0.466h4.039v3.977h-1.375
		c-0.221-0.921-1.031-1.608-2.013-1.608s-1.805,0.687-2.013,1.608h-0.037V2.716c0-0.258-0.209-0.479-0.479-0.479h-3.744
		c-0.258,0-0.466,0.221-0.466,0.479v3.757v0.945v3.953h-1.314h-1.08h-0.025H9.379C9.17,10.45,8.348,9.762,7.366,9.762
		S5.561,10.45,5.352,11.37z M7.366,12.954c-0.626,0-1.129-0.503-1.129-1.129c0-0.614,0.503-1.117,1.129-1.117
		c0.614,0,1.129,0.503,1.129,1.117C8.495,12.451,7.98,12.954,7.366,12.954z M2.062,2.912v1.694H0.933V2.912H2.062z M16.683,6.804
		h-0.295c-0.258,0-0.466,0.209-0.466,0.479c0,0.258,0.209,0.466,0.466,0.466h0.295v3.621h-2.811V3.182h2.811V6.804z M19.679,12.954
		c-0.626,0-1.129-0.503-1.129-1.129c0-0.614,0.503-1.117,1.129-1.117c0.614,0,1.117,0.503,1.117,1.117
		C20.796,12.451,20.293,12.954,19.679,12.954z M23.067,6.448h-3.572V3.17h3.572V6.448z"/>
</g>
</svg>
