<?xml version="1.0" encoding="UTF-8"?>
<!DOCTYPE svg PUBLIC "-//W3C//DTD SVG 1.0//EN" "http://www.w3.org/TR/2001/REC-SVG-20010904/DTD/svg10.dtd">
<!-- Creator: CorelDRAW X7 -->
<svg xmlns="http://www.w3.org/2000/svg" xml:space="preserve" width="38px" height="38px" version="1.0" style="shape-rendering:geometricPrecision; text-rendering:geometricPrecision; image-rendering:optimizeQuality; fill-rule:evenodd; clip-rule:evenodd"
viewBox="0 0 132539 132539"
 xmlns:xlink="http://www.w3.org/1999/xlink">
 <defs>
  <style type="text/css">
   <![CDATA[
    .fil0 {fill:#207BBB}
    .fil1 {fill:white}
   ]]>
  </style>
 </defs>
 <g id="Слой_x0020_1">
  <metadata id="CorelCorpID_0Corel-Layer"/>
  <g id="_997145264">
   <circle class="fil0" cx="66270" cy="66270" r="66267"/>
   <g>
    <g id="_998550704">
     <path class="fil1" d="M44951 84028l-16926 0c-507,0 -973,-210 -1306,-543 -334,-330 -540,-808 -540,-1302l0 -30554c0,-2323 952,-4441 2480,-5969 1528,-1528 3646,-2480 5969,-2480l63287 0c2319,0 4437,952 5965,2480 1533,1532 2484,3650 2484,5969l0 30554c0,494 -218,972 -548,1298 -325,333 -791,547 -1297,547l-6991 0 0 -2545 6294 0 0 -29854c0,-1623 -671,-3102 -1730,-4173 -1075,-1063 -2554,-1734 -4177,-1734l-63287 0c-1623,0 -3106,671 -4169,1734 -1075,1071 -1738,2554 -1738,4173l0 29854 16230 0 0 2545zm41240 0l-29903 0 0 -2545 29903 0 0 2545z"/>
     <path class="fil1" d="M50624 75456c1915,0 3658,778 4914,2035 1257,1252 2035,2999 2035,4914 0,1916 -778,3658 -2035,4915 -1256,1256 -2999,2039 -4914,2039 -1916,0 -3662,-783 -4915,-2039 -1256,-1257 -2043,-2999 -2043,-4915 0,-1915 787,-3662 2043,-4914 1253,-1257 2999,-2035 4915,-2035zm3118 3831c-795,-795 -1903,-1289 -3118,-1289 -1215,0 -2323,494 -3119,1289 -795,795 -1293,1903 -1293,3118 0,1216 498,2324 1293,3119 796,795 1904,1293 3119,1293 1215,0 2323,-498 3118,-1293 791,-795 1290,-1903 1290,-3119 0,-1215 -499,-2323 -1290,-3118z"/>
     <path class="fil1" d="M91864 75456c1919,0 3662,778 4918,2035 1253,1252 2035,2999 2035,4914 0,1916 -782,3658 -2035,4915 -1256,1256 -2999,2039 -4918,2039 -1916,0 -3663,-783 -4915,-2039 -1256,-1257 -2039,-2999 -2039,-4915 0,-1915 783,-3662 2039,-4914 1252,-1257 2999,-2035 4915,-2035zm3118 3831c-795,-795 -1903,-1289 -3118,-1289 -1216,0 -2324,494 -3119,1289 -795,795 -1289,1903 -1289,3118 0,1216 498,2324 1289,3119 795,795 1903,1293 3119,1293 1215,0 2323,-498 3118,-1293 795,-795 1289,-1903 1289,-3119 0,-1215 -494,-2323 -1289,-3118z"/>
     <path class="fil1" d="M69388 82405l0 -30253c0,-506 206,-960 535,-1289 359,-354 824,-556 1315,-556l11971 0c502,0 960,206 1289,531 350,354 556,808 556,1314l0 30253 -2541 0 0 -29557 -10575 0 0 29557 -2546 0 -4 0z"/>
     <path class="fil1" d="M80688 68511c-705,0 -1273,-573 -1273,-1273 0,-701 568,-1273 1273,-1273l3093 0c701,0 1273,572 1273,1273 0,700 -572,1273 -1273,1273l-3093 0z"/>
     <path class="fil1" d="M56877 50307l8334 0c507,0 960,206 1289,531 350,354 556,808 556,1314l0 8334c0,490 -206,960 -531,1289 -354,350 -807,560 -1314,560l-8334 0c-490,0 -956,-206 -1289,-535 -354,-354 -560,-824 -560,-1314l0 -8334c0,-506 206,-960 535,-1289 358,-354 824,-556 1314,-556zm7634 2541l-6938 0 0 6942 6938 0 0 -6942z"/>
     <path class="fil1" d="M27448 50307l6640 0c499,0 977,210 1302,543 334,334 544,796 544,1302l0 8334c0,507 -210,972 -544,1306 -334,329 -795,539 -1302,539l-6640 0 0 -2541 5940 0 0 -6942 -5940 0 0 -2541z"/>
     <path class="fil1" d="M41314 50307l8334 0c506,0 964,206 1289,531 354,354 560,808 560,1314l0 8334c0,490 -206,960 -535,1289 -350,350 -808,560 -1314,560l-8334 0c-486,0 -956,-206 -1289,-535 -351,-354 -557,-824 -557,-1314l0 -8334c0,-506 206,-960 532,-1289 358,-354 828,-556 1314,-556zm7637 2541l-6937 0 0 6942 6937 0 0 -6942z"/>
     <path class="fil1" d="M105095 67542l-14962 0c-510,0 -972,-214 -1293,-539 -330,-326 -540,-787 -540,-1294l0 -13569c0,-503 215,-972 540,-1298 330,-333 791,-535 1293,-535l14962 0 0 2541 -14249 0 0 12153 14249 0 0 2541z"/>
    </g>
   </g>
  </g>
 </g>
</svg>
