<?xml version="1.0" encoding="utf-8"?>
<!-- Generator: Adobe Illustrator 21.1.0, SVG Export Plug-In . SVG Version: 6.00 Build 0)  -->
<svg version="1.1" id="Слой_1" xmlns="http://www.w3.org/2000/svg" xmlns:xlink="http://www.w3.org/1999/xlink" x="0px" y="0px"
	 viewBox="0 0 16 22" style="enable-background:new 0 0 16 22;" xml:space="preserve">
<g id="Слой_x0020_1">
	<g id="_806267184">
		<g>
			<path d="M0.597,12.91h0.018C0.29,12.475-0.018,11.896,0,11.19c0.018-0.959,0.579-1.882,1.683-2.769
				C1.557,8.005,1.52,7.606,1.611,7.208c0.308-1.593,2.027-2.226,3.62-2.57C5.158,4.439,5.14,4.24,5.14,4.041
				c0-0.778,0.434-1.448,1.068-1.792c-0.633-1.285-1.484-1.43-1.81-1.43C3.964,0.819,3.692,0.91,3.529,1
				c-0.127,0.054-0.271,0.054-0.38-0.036C2.95,0.819,2.968,0.493,3.204,0.367C3.457,0.24,3.837,0.113,4.398,0.113
				c0.67,0,1.303,0.308,1.828,0.905c0.181,0.199,0.434,0.525,0.652,0.995c0.109-0.018,0.199-0.018,0.308-0.018
				c0.76,0,1.43,0.416,1.792,1.05C9.104,2.9,9.249,2.719,9.339,2.502C9.376,2.43,9.466,2.357,9.557,2.321
				c0.09-0.018,0.181-0.018,0.271,0.036c1.05,0.579,1.828,1.376,2.299,2.335c0.398,0.833,0.471,1.593,0.471,2.027
				c0.018,0.018,0.054,0.018,0.072,0.036c0.923,0.398,1.448,1.14,1.538,2.154c0.018,0.398-0.018,0.778-0.072,1.032
				c0.724,0.253,1.231,0.76,1.412,1.412c0.145,0.507,0.072,1.068-0.181,1.557h0.29c0.109,0,0.199,0.054,0.271,0.127
				c0.072,0.09,0.09,0.199,0.072,0.308l-1.756,7.692c-0.109,0.507-0.561,0.851-1.068,0.851h-10.1c-0.525,0-0.959-0.344-1.068-0.851
				l-1.756-7.692c-0.018-0.109,0-0.217,0.072-0.308C0.38,12.964,0.489,12.91,0.597,12.91z M7.186,2.701
				c-0.742,0-1.339,0.597-1.339,1.339S6.443,5.38,7.186,5.38s1.339-0.597,1.339-1.339S7.928,2.701,7.186,2.701z M13.176,21.181
				c0.181,0,0.344-0.127,0.38-0.308l1.647-7.258h-1.14l-1.267,7.403c0,0.054-0.018,0.109-0.036,0.163H13.176z M11.91,21.181
				c0.054,0,0.163-0.09,0.199-0.29l1.249-7.276h-1.158L11.367,21c-0.018,0.054-0.018,0.127-0.036,0.181H11.91z M10.588,21.181
				c0.018-0.036,0.054-0.127,0.072-0.271l0.833-7.294h-1.158l-0.416,7.348c0,0.09,0,0.163-0.018,0.217H10.588z M8.471,21.181h0.724
				c0-0.054,0.018-0.145,0.018-0.253l0.416-7.312H8.507l0,0c0,0,0,0-0.018,0H8.471V21.181z M7.023,20.928
				c0.018,0.109,0.018,0.199,0.036,0.253h0.706v-7.566H6.606L7.023,20.928z M5.665,21.181h0.688
				c-0.018-0.054-0.018-0.127-0.018-0.217L5.9,13.615H4.76l0.833,7.294C5.593,21.054,5.647,21.145,5.665,21.181z M4.344,21.181
				h0.579C4.905,21.127,4.887,21.054,4.887,21l-0.833-7.385H2.896l1.249,7.276C4.163,21.09,4.271,21.181,4.344,21.181z
				 M2.697,20.873c0.036,0.181,0.199,0.308,0.38,0.308h0.416c-0.018-0.054-0.036-0.109-0.054-0.163L2.19,13.615H1.43l0,0l0,0H1.032
				L2.697,20.873z M1.575,12.91h5.394c-0.778-0.416-1.81-0.995-2.787-1.683c-0.145-0.109-0.199-0.326-0.072-0.489
				c0.109-0.163,0.326-0.199,0.489-0.09c1.683,1.195,3.602,2.081,3.982,2.262h5.937c0.344-0.38,0.489-0.905,0.362-1.376
				c-0.145-0.525-0.615-0.887-1.339-1.032c-0.67-0.127-2.443-0.507-4.416-1.068C8.941,9.38,8.833,9.181,8.887,9
				c0.054-0.199,0.235-0.308,0.434-0.253c1.756,0.507,3.348,0.869,4.127,1.032c0.109-0.597,0.181-1.846-1.05-2.371
				c-0.471-0.199-1.448-0.38-2.462-0.561L9.593,6.774c-0.199-0.036-0.326-0.217-0.29-0.416C9.339,6.176,9.538,6.05,9.719,6.086
				l0.344,0.054c0.652,0.127,1.303,0.235,1.81,0.362c-0.036-0.814-0.398-2.262-2.081-3.348C9.665,3.335,9.52,3.498,9.412,3.606
				C9.339,3.679,9.267,3.751,9.213,3.805C9.231,3.878,9.231,3.95,9.231,4.041c0,1.122-0.923,2.045-2.045,2.045
				c-0.67,0-1.249-0.308-1.629-0.814C4.869,5.434,4.29,5.597,3.819,5.796c-0.09,0.145-0.072,0.235-0.054,0.308
				c0.09,0.271,0.633,1.032,3.819,2.1c0.181,0.072,0.271,0.271,0.217,0.452C7.747,8.801,7.602,8.891,7.457,8.891
				c-0.036,0-0.072,0-0.109-0.018c-1.14-0.38-2.063-0.76-2.751-1.14C3.747,7.262,3.24,6.792,3.095,6.321
				C3.077,6.285,3.077,6.249,3.059,6.213C2.643,6.52,2.389,6.9,2.299,7.335C2.172,7.986,2.462,8.692,3.167,9.452
				c0.127,0.127,0.109,0.362-0.018,0.489c-0.072,0.072-0.163,0.09-0.253,0.09S2.715,9.995,2.643,9.923
				C2.389,9.652,2.172,9.362,1.991,9.09c-0.833,0.706-1.267,1.412-1.285,2.1C0.688,11.968,1.195,12.566,1.575,12.91z"/>
		</g>
	</g>
</g>
</svg>
