<?xml version="1.0" encoding="UTF-8"?>
<!DOCTYPE svg PUBLIC "-//W3C//DTD SVG 1.0//EN" "http://www.w3.org/TR/2001/REC-SVG-20010904/DTD/svg10.dtd">
<!-- Creator: CorelDRAW X7 -->
<svg xmlns="http://www.w3.org/2000/svg" xml:space="preserve" width="20px" height="27px" version="1.0" style="shape-rendering:geometricPrecision; text-rendering:geometricPrecision; image-rendering:optimizeQuality; fill-rule:evenodd; clip-rule:evenodd"
viewBox="0 0 19438 26441"
 xmlns:xlink="http://www.w3.org/1999/xlink">
 <defs>
  <style type="text/css">
   <![CDATA[
    .fil0 {fill:black}
   ]]>
  </style>
 </defs>
 <g id="Слой_x0020_1">
  <metadata id="CorelCorpID_0Corel-Layer"/>
  <g id="_1391983296">
   <g id="_806267184">
    <g>
     <path class="fil0" d="M725 15538l23 0c-396,-527 -769,-1230 -747,-2087 22,-1165 703,-2285 2043,-3363 -153,-505 -197,-988 -87,-1473 373,-1933 2461,-2703 4396,-3120 -89,-242 -111,-484 -111,-725 0,-945 528,-1759 1298,-2177 -770,-1560 -1803,-1736 -2199,-1736 -527,0 -857,110 -1055,220 -154,66 -329,66 -461,-44 -242,-176 -221,-572 65,-725 308,-154 769,-308 1451,-308 814,0 1583,374 2220,1100 220,241 527,637 791,1208 132,-21 242,-21 374,-21 923,0 1736,505 2176,1274 154,-176 329,-395 439,-659 44,-88 154,-176 264,-220 111,-22 220,-22 330,44 1275,703 2220,1671 2792,2836 483,1010 570,1933 570,2461 23,22 67,22 88,43 1121,485 1759,1385 1869,2616 22,484 -23,945 -88,1253 879,308 1494,923 1714,1714 175,616 88,1297 -220,1890l352 0c132,0 242,66 329,154 89,109 109,241 89,373l-2132 9342c-132,615 -682,1033 -1297,1033l-12263 0c-637,0 -1166,-418 -1298,-1033l-2131 -9342c-22,-132 0,-264 88,-373 67,-88 198,-154 330,-154l-2 -1zm8000 -12395c-901,0 -1626,725 -1626,1627 0,901 725,1626 1626,1626 901,0 1627,-725 1627,-1626 0,-902 -726,-1627 -1627,-1627zm7275 22439c220,0 417,-153 462,-373l2000 -8813 -1384 0 -1539 8989c0,67 -23,132 -44,197l505 0zm-1539 0c67,0 199,-109 243,-351l1516 -8835 -1406 0 -1011 8967c-22,66 -22,154 -45,219l703 0 0 0zm-1603 0c22,-43 65,-153 87,-329l1011 -8857 -1406 0 -505 8924c0,109 0,197 -23,264l836 0 0 -2zm-2572 0l880 0c0,-65 22,-175 22,-307l505 -8879 -1363 0c0,0 0,0 0,0 0,0 0,0 -22,0l-22 0 0 9186zm-1758 -307c22,132 22,242 43,307l858 0 0 -9186 -1406 0 505 8879zm-1649 307l835 0c-22,-65 -22,-153 -22,-264l-527 -8922 -1384 0 1010 8857c0,176 67,286 88,329l0 0zm-1603 0l702 0c-21,-65 -43,-153 -43,-219l-1012 -8967 -1406 0 1515 8835c23,242 154,351 243,351l1 0zm-2001 -373c45,220 242,373 461,373l507 0c-23,-65 -45,-130 -67,-197l-1516 -8989 -923 0c0,0 0,0 0,0 0,0 0,0 0,0l-483 0 2021 8813zm-1363 -9671l6550 0c-944,-505 -2198,-1209 -3385,-2043 -175,-132 -241,-396 -88,-594 132,-198 396,-242 593,-110 2045,1451 4374,2528 4835,2747l7209 0c418,-461 594,-1098 440,-1670 -176,-637 -747,-1077 -1627,-1252 -812,-154 -2967,-616 -5363,-1298 -219,-65 -351,-307 -286,-526 67,-243 286,-375 528,-308 2132,615 4065,1055 5011,1252 132,-724 220,-2242 -1275,-2879 -571,-241 -1758,-461 -2988,-680l-418 -89c-242,-43 -396,-264 -351,-505 43,-220 285,-374 505,-329l416 65c792,154 1583,286 2199,440 -44,-989 -484,-2747 -2528,-4066 -153,220 -330,418 -462,550 -88,88 -175,175 -241,242 22,87 22,176 22,286 0,1362 -1121,2483 -2484,2483 -813,0 -1515,-373 -1978,-990 -834,199 -1538,396 -2110,638 -109,176 -87,286 -65,373 109,330 769,1254 4636,2550 221,88 330,329 264,550 -65,175 -241,286 -417,286 -44,0 -88,0 -131,-22 -1385,-463 -2506,-923 -3341,-1386 -1033,-570 -1648,-1142 -1825,-1713 -22,-44 -22,-89 -43,-133 -506,375 -813,836 -923,1363 -154,792 197,1650 1055,2573 153,153 132,439 -22,593 -89,87 -198,109 -308,109 -109,0 -219,-44 -308,-132 -307,-329 -570,-681 -790,-1010 -1012,856 -1539,1714 -1561,2549 -21,945 594,1671 1055,2087l0 -1z"/>
    </g>
   </g>
  </g>
 </g>
</svg>
