<?xml version="1.0" encoding="utf-8"?>
<!-- Generator: Adobe Illustrator 21.1.0, SVG Export Plug-In . SVG Version: 6.00 Build 0)  -->
<svg version="1.1" id="Слой_1" xmlns="http://www.w3.org/2000/svg" xmlns:xlink="http://www.w3.org/1999/xlink" x="0px" y="0px"
	 viewBox="0 0 38 38" style="enable-background:new 0 0 38 38;" xml:space="preserve">
<style type="text/css">
	.st0{fill:#207BBB;}
	.st1{fill:#FFFFFF;}
</style>
<g id="Слой_x0020_1">
	<circle class="st0" cx="19" cy="19" r="19"/>
	<g id="_807251104">
		<g>
			<path class="st1" d="M12.2,19.234h0.016c-0.305-0.399-0.578-0.938-0.563-1.579c0.016-0.875,0.531-1.727,1.548-2.54
				c-0.125-0.375-0.156-0.758-0.078-1.125c0.297-1.454,1.876-2.032,3.322-2.36c-0.047-0.164-0.078-0.352-0.078-0.539
				c0-0.711,0.399-1.329,0.985-1.649c-0.586-1.18-1.36-1.305-1.665-1.305c-0.399,0-0.649,0.086-0.797,0.156
				c-0.109,0.063-0.242,0.055-0.344-0.023c-0.188-0.141-0.164-0.43,0.039-0.547c0.234-0.117,0.586-0.234,1.102-0.234
				c0.617,0,1.204,0.281,1.68,0.828c0.164,0.18,0.399,0.485,0.602,0.922c0.094-0.016,0.188-0.023,0.281-0.023
				c0.703,0,1.321,0.391,1.641,0.961c0.117-0.125,0.242-0.297,0.336-0.492c0.039-0.078,0.109-0.141,0.195-0.164
				c0.086-0.031,0.18-0.023,0.258,0.023c0.969,0.539,1.673,1.266,2.102,2.149c0.36,0.758,0.43,1.454,0.43,1.86
				c0.031,0.008,0.055,0.023,0.078,0.031c0.844,0.36,1.329,1.047,1.399,1.977c0.031,0.375-0.008,0.719-0.055,0.954
				c0.664,0.234,1.133,0.696,1.297,1.29c0.133,0.477,0.063,0.985-0.172,1.43h0.266c0.094,0,0.188,0.047,0.25,0.125
				c0.063,0.07,0.086,0.172,0.063,0.274l-1.602,7.065c-0.109,0.461-0.516,0.782-0.993,0.782h-9.262c-0.477,0-0.891-0.32-0.993-0.782
				l-1.602-7.065c-0.023-0.102,0-0.203,0.063-0.274C12.005,19.281,12.099,19.234,12.2,19.234z M18.25,9.863
				c-0.68,0-1.235,0.547-1.235,1.227s0.555,1.235,1.235,1.235c0.68,0,1.227-0.555,1.227-1.235S18.93,9.863,18.25,9.863z
				 M23.744,26.839c0.172,0,0.32-0.117,0.36-0.289l1.516-6.667h-1.055l-1.157,6.792c-0.008,0.055-0.023,0.109-0.039,0.164H23.744z
				 M22.587,26.839c0.055,0,0.156-0.094,0.188-0.274l1.133-6.682h-1.055l-0.766,6.776c-0.008,0.063-0.016,0.117-0.031,0.18H22.587z
				 M21.368,26.839c0.023-0.039,0.063-0.117,0.07-0.25l0.766-6.706h-1.063l-0.383,6.761c0,0.063-0.008,0.133-0.016,0.195H21.368z
				 M19.438,26.839h0.649c0.008-0.055,0.023-0.133,0.031-0.234l0.375-6.722h-1.032c0,0,0,0-0.008,0l0,0h-0.016V26.839z
				 M18.109,26.605c0.008,0.102,0.016,0.18,0.023,0.234h0.657v-6.956h-1.063L18.109,26.605z M16.851,26.839h0.625
				c-0.008-0.063-0.008-0.133-0.016-0.195l-0.383-6.761h-1.063l0.766,6.706C16.796,26.722,16.827,26.8,16.851,26.839z
				 M15.639,26.839h0.531c-0.016-0.063-0.023-0.117-0.031-0.18l-0.774-6.776h-1.055l1.141,6.682
				C15.483,26.745,15.577,26.839,15.639,26.839z M14.123,26.55c0.039,0.172,0.188,0.289,0.36,0.289h0.367
				c-0.016-0.055-0.031-0.109-0.039-0.164l-1.157-6.792h-0.688l0,0l0,0h-0.36L14.123,26.55z M13.091,19.234h4.963
				c-0.727-0.383-1.673-0.914-2.556-1.54c-0.148-0.102-0.188-0.305-0.078-0.453c0.102-0.141,0.305-0.18,0.445-0.078
				c1.548,1.086,3.314,1.915,3.658,2.071h5.455c0.32-0.344,0.453-0.828,0.328-1.251c-0.133-0.485-0.571-0.821-1.219-0.954
				c-0.617-0.125-2.243-0.469-4.064-0.985c-0.172-0.055-0.266-0.234-0.219-0.406c0.047-0.172,0.227-0.266,0.399-0.219
				c1.618,0.461,3.087,0.789,3.806,0.93c0.094-0.531,0.164-1.688-0.969-2.173c-0.438-0.188-1.329-0.344-2.267-0.516l-0.313-0.063
				c-0.18-0.031-0.289-0.195-0.258-0.375c0.031-0.172,0.195-0.289,0.375-0.258l0.313,0.055c0.602,0.109,1.188,0.219,1.665,0.336
				c-0.039-0.758-0.36-2.087-1.923-3.087c-0.117,0.18-0.242,0.32-0.344,0.422c-0.063,0.078-0.125,0.133-0.18,0.18
				c0.008,0.07,0.016,0.148,0.016,0.219c0,1.039-0.844,1.884-1.876,1.884c-0.61,0-1.157-0.297-1.501-0.742
				c-0.633,0.133-1.165,0.289-1.594,0.477c-0.078,0.117-0.063,0.211-0.047,0.281c0.086,0.25,0.586,0.946,3.501,1.93
				c0.164,0.063,0.258,0.242,0.203,0.414c-0.047,0.133-0.172,0.219-0.305,0.219c-0.039,0-0.07-0.008-0.109-0.016
				c-1.039-0.36-1.891-0.711-2.517-1.055c-0.797-0.438-1.251-0.86-1.391-1.297c-0.008-0.031-0.016-0.063-0.023-0.102
				c-0.399,0.289-0.625,0.633-0.711,1.039c-0.117,0.586,0.148,1.235,0.797,1.93c0.125,0.133,0.117,0.336-0.016,0.461
				c-0.063,0.055-0.141,0.086-0.219,0.086c-0.086,0-0.172-0.039-0.242-0.102c-0.242-0.258-0.438-0.524-0.594-0.774
				c-0.774,0.649-1.172,1.305-1.18,1.938C12.286,18.367,12.755,18.93,13.091,19.234z"/>
		</g>
	</g>
</g>
</svg>
