<?xml version="1.0" encoding="UTF-8"?>
<!DOCTYPE svg PUBLIC "-//W3C//DTD SVG 1.0//EN" "http://www.w3.org/TR/2001/REC-SVG-20010904/DTD/svg10.dtd">
<!-- Creator: CorelDRAW X7 -->
<svg xmlns="http://www.w3.org/2000/svg" xml:space="preserve" width="22px" height="25px" version="1.0" style="shape-rendering:geometricPrecision; text-rendering:geometricPrecision; image-rendering:optimizeQuality; fill-rule:evenodd; clip-rule:evenodd"
viewBox="0 0 23559 27218"
 xmlns:xlink="http://www.w3.org/1999/xlink">
 <defs>
  <style type="text/css">
   <![CDATA[
    .fil0 {fill:black}
   ]]>
  </style>
 </defs>
 <g id="Слой_x0020_1">
  <metadata id="CorelCorpID_0Corel-Layer"/>
  <g id="_1447121552">
   <path class="fil0" d="M21576 21735l0 4149c0,364 -151,701 -392,942 -242,238 -577,392 -942,392l-18908 0c-364,0 -701,-152 -941,-392 -241,-241 -393,-578 -393,-942l0 -12241c0,-367 152,-702 392,-941 241,-241 578,-394 942,-394l18908 0c365,0 702,151 942,392 241,241 392,576 392,943l0 4149 -951 0 0 -4149c0,-104 -44,-202 -113,-271 -67,-68 -165,-112 -270,-112l-18908 0c-105,0 -203,44 -270,111 -69,69 -113,166 -113,272l0 12241c0,105 44,203 112,270 68,68 166,113 271,113l18908 0c105,0 203,-45 271,-113 68,-69 112,-166 112,-270l0 -4149 951 0z"/>
   <path class="fil0" d="M0 13643l0 -2349c0,-366 152,-701 392,-941 241,-241 578,-393 942,-393l6242 0 0 951 -6242 0c-105,0 -203,44 -270,112 -69,68 -113,166 -113,271l0 2349 -951 0z"/>
   <path class="fil0" d="M21054 22210l-2513 0c-433,0 -829,-179 -1113,-463 -284,-284 -463,-680 -463,-1113l0 -1741c0,-434 179,-830 463,-1114 285,-286 681,-463 1113,-463l2513 0 0 951 -2513 0c-172,0 -329,71 -441,183 -113,114 -184,271 -184,443l0 1741c0,171 71,328 184,441 113,113 270,184 441,184l2513 0 0 951z"/>
   <path class="fil0" d="M21054 17316l1090 0c185,0 363,82 483,202 122,122 202,294 202,483l0 3524c0,189 -80,362 -202,483 -121,122 -294,202 -483,202l-1090 0 0 -951 824 0 0 -2992 -824 0 0 -951z"/>
   <path class="fil0" d="M19282 12560l3224 -5976c111,-209 129,-450 65,-664 -63,-213 -210,-407 -418,-519l-8100 -4369c-199,-92 -423,-104 -622,-44 -215,63 -406,210 -518,418l-6258 11603 -837 -449 6290 -11663c249,-411 628,-693 1051,-820 446,-133 944,-96 1385,140l8058 4347c441,238 747,638 880,1084 133,445 96,944 -139,1385l-3224 5976 -837 -449z"/>
   <polygon class="fil0" points="15916,1496 9706,13009 8869,12560 15079,1047 "/>
   <polygon class="fil0" points="17966,2601 12352,13010 11515,12561 17129,2152 "/>
   <path class="fil0" d="M17992 6801l198 -366c199,-371 533,-624 906,-736 374,-110 791,-80 1157,118l132 72c371,199 624,533 736,903 111,374 81,790 -117,1158l-198 370c-198,365 -531,620 -904,732 -333,98 -702,85 -1039,-61l-256 -129c-364,-198 -620,-532 -730,-904 -102,-334 -88,-700 58,-1037l57 -120zm1035 82l-198 368c-73,138 -85,294 -43,435 41,140 138,264 275,339l137 72c136,75 294,85 433,46 138,-42 263,-140 338,-277l198 -365c74,-137 85,-294 43,-435 -42,-139 -138,-268 -274,-340l-134 -72c-138,-75 -298,-85 -435,-46 -141,43 -268,140 -340,275z"/>
  </g>
 </g>
</svg>
