<?xml version="1.0" encoding="UTF-8"?>
<!DOCTYPE svg PUBLIC "-//W3C//DTD SVG 1.0//EN" "http://www.w3.org/TR/2001/REC-SVG-20010904/DTD/svg10.dtd">
<!-- Creator: CorelDRAW X7 -->
<svg xmlns="http://www.w3.org/2000/svg" xml:space="preserve" width="38px" height="38px" version="1.0" style="shape-rendering:geometricPrecision; text-rendering:geometricPrecision; image-rendering:optimizeQuality; fill-rule:evenodd; clip-rule:evenodd"
viewBox="0 0 163022 163022"
 xmlns:xlink="http://www.w3.org/1999/xlink">
 <defs>
  <style type="text/css">
   <![CDATA[
    .fil0 {fill:#207BBB}
    .fil1 {fill:white}
   ]]>
  </style>
 </defs>
 <g id="Слой_x0020_1">
  <metadata id="CorelCorpID_0Corel-Layer"/>
  <g id="_996495808">
   <circle class="fil0" cx="81511" cy="81511" r="81509"/>
   <g>
    <g id="_1447121552">
     <path class="fil1" d="M113458 102671l0 13528c0,1191 -492,2290 -1277,3076 -790,775 -1880,1277 -3070,1277l-61660 0c-1185,0 -2285,-497 -3065,-1277 -790,-791 -1282,-1885 -1282,-3076l0 -39912c0,-1196 492,-2290 1277,-3070 785,-786 1885,-1282 3070,-1282l61660 0c1190,0 2290,491 3070,1277 785,785 1277,1879 1277,3075l0 13529 -3101 0 0 -13529c0,-339 -142,-659 -370,-887 -218,-217 -537,-364 -876,-364l-61660 0c-339,0 -658,147 -881,364 -223,223 -365,543 -365,887l0 39912c0,345 142,664 365,882 218,223 537,370 881,370l61660 0c339,0 658,-147 881,-370 223,-223 365,-542 365,-882l0 -13528 3101 0z"/>
     <path class="fil1" d="M43104 76287l0 -7661c0,-1191 492,-2285 1277,-3070 785,-786 1885,-1277 3070,-1277l20354 0 0 3096 -20354 0c-339,0 -658,146 -881,369 -223,218 -365,537 -365,882l0 7661 -3101 0z"/>
     <path class="fil1" d="M111755 104221l-8193 0c-1413,0 -2705,-583 -3628,-1510 -927,-927 -1510,-2219 -1510,-3628l0 -5680c0,-1413 583,-2706 1510,-3633 928,-932 2220,-1505 3628,-1505l8193 0 0 3101 -8193 0c-562,0 -1074,228 -1439,593 -370,375 -598,887 -598,1449l0 5675c0,558 233,1069 598,1439 370,370 882,598 1439,598l8193 0 0 3101 0 0z"/>
     <path class="fil1" d="M111755 88265l3557 0c603,0 1181,264 1576,659 395,395 659,958 659,1571l0 11491c0,619 -264,1181 -659,1576 -395,401 -957,659 -1576,659l-3557 0 0 -3101 2691 0 0 -9754 -2691 0 0 -3101 0 0z"/>
     <path class="fil1" d="M105979 72756l10514 -19488c360,-684 421,-1469 213,-2163 -208,-700 -684,-1328 -1363,-1693l-26414 -14248c-654,-299 -1383,-339 -2032,-142 -699,203 -1322,684 -1687,1363l-20409 37835 -2726 -1464 20510 -38033c811,-1342 2047,-2259 3426,-2675 1454,-431 3080,-309 4519,456l26272 14177c1439,776 2437,2078 2873,3532 431,1454 314,3081 -456,4520l-10509 19482 -2731 -1459 0 0z"/>
     <polygon class="fil1" points="95004,36679 74752,74220 72021,72756 92273,35215 "/>
     <polygon class="fil1" points="101688,40282 83381,74220 80650,72756 98956,38817 "/>
     <path class="fil1" d="M101774 53978l643 -1196c649,-1211 1738,-2032 2954,-2402 1221,-355 2579,-258 3775,385l431 238c1211,649 2032,1738 2401,2944 360,1216 264,2574 -385,3775l-643 1206c-644,1191 -1733,2022 -2949,2387 -1084,319 -2290,278 -3385,-198l-836 -421c-1185,-643 -2022,-1733 -2381,-2949 -335,-1089 -289,-2280 187,-3379l188 -390 0 0zm3374 263l-648 1201c-238,451 -274,958 -137,1419 132,456 451,861 897,1104l446 233c445,249 957,279 1408,152 451,-136 862,-456 1105,-902l643 -1190c243,-446 279,-958 142,-1419 -137,-451 -451,-871 -897,-1110l-435 -233c-451,-243 -973,-278 -1419,-152 -461,142 -872,456 -1110,897l5 0z"/>
    </g>
   </g>
  </g>
 </g>
</svg>
