<?xml version="1.0" encoding="utf-8"?>
<!-- Generator: Adobe Illustrator 21.1.0, SVG Export Plug-In . SVG Version: 6.00 Build 0)  -->
<svg version="1.1" id="Слой_1" xmlns="http://www.w3.org/2000/svg" xmlns:xlink="http://www.w3.org/1999/xlink" x="0px" y="0px"
	 viewBox="0 0 510.999 436.624" style="enable-background:new 0 0 510.999 436.624;" xml:space="preserve">
<path d="M504.884,139.927L128.756,0.578C123.945-1.2,118.6,1.26,116.826,6.075c-0.004,0.004-0.004,0.008-0.008,0.012L75.181,119.424
	c-1.77,4.815,0.698,10.156,5.513,11.926h0.008l43.598,16.008l-9.606,26.171c-1.766,4.815,0.702,10.148,5.517,11.918l87.212,32.019
	l-6.409,17.446c-5.825,15.626-0.39,33.216,13.24,42.826v47.407H89.255c-6.051-13.832-18.433-23.875-33.22-26.94v-19.509
	c0-5.131-4.156-9.29-9.29-9.29H9.29c-5.131,0-9.29,4.16-9.29,9.29v148.635c0,5.134,4.16,9.29,9.29,9.29h37.454
	c5.134,0,9.29-4.156,9.29-9.29v-19.505c14.787-3.068,27.17-13.107,33.22-26.943h124.998v9.29c0,15.392,12.476,27.871,27.867,27.871
	s27.871-12.479,27.871-27.871V287.263c8.444-4.187,14.967-11.45,18.218-20.3l6.409-17.446l78.487,28.799
	c1.025,0.378,2.105,0.569,3.197,0.569c3.895,0,7.38-2.429,8.725-6.086l3.481-9.485c30.23,5.688,59.345-14.207,65.029-44.433
	c2.101-11.17,0.737-22.713-3.91-33.084l56.316-28.916c4.565-2.339,6.37-7.938,4.031-12.503c-1.06-2.074-2.862-3.673-5.045-4.48
	L504.884,139.927z M232.83,286.203l7.692,2.788c3.501,1.255,7.173,1.977,10.889,2.136v34.019H232.83V286.203z M37.458,418.047
	H18.581V287.989h18.877V418.047z M74.616,362.308c-0.016,11.805-7.454,22.327-18.581,26.281v-71.142
	c11.127,3.949,18.565,14.472,18.581,26.281V362.308z M93.485,343.727h157.926v18.581H93.485V343.727z M242.12,399.466
	c-5.131,0-9.29-4.16-9.29-9.29v-9.29h18.581v9.29C251.411,395.306,247.251,399.466,242.12,399.466z M277.181,243.119l-6.409,17.446
	c-3.54,9.622-14.21,14.557-23.84,11.025l-17.474-6.402c-9.63-3.536-14.573-14.21-11.037-23.844c0,0,0,0,0-0.004l6.413-17.435
	l47.088,17.286L277.181,243.119z M370.794,257.704L135.333,171.24l6.413-17.446L281.27,205.03c3.302,1.201,7.006,0.448,9.575-1.953
	l26.07-24.542l73.091,26.846L370.794,257.704z M433.605,221.396c-5.887,15.871-21.719,25.789-38.565,24.156l14.355-39.103
	l23.446-12.074C436.51,202.96,436.783,212.62,433.605,221.396z M402.249,189.275c-0.491,0.043-0.979,0.129-1.458,0.257
	l-82.826-30.413c-3.302-1.212-7.006-0.46-9.571,1.949l-26.101,24.546L95.824,117.139l35.22-95.898L478.63,150.016L402.249,189.275z"
	/>
<path d="M171.992,125.311l6.402-17.442l17.442,6.405l-6.405,17.442L171.992,125.311z"/>
<path d="M206.873,138.118l6.402-17.442l17.442,6.405l-6.405,17.439L206.873,138.118z"/>
<path d="M241.754,150.932l6.405-17.442l17.439,6.405l-6.405,17.442L241.754,150.932z"/>
</svg>
