<?xml version="1.0" encoding="UTF-8"?>
<!DOCTYPE svg PUBLIC "-//W3C//DTD SVG 1.0//EN" "http://www.w3.org/TR/2001/REC-SVG-20010904/DTD/svg10.dtd">
<!-- Creator: CorelDRAW X7 -->
<svg xmlns="http://www.w3.org/2000/svg" xml:space="preserve" width="38px" height="38px" version="1.0" style="shape-rendering:geometricPrecision; text-rendering:geometricPrecision; image-rendering:optimizeQuality; fill-rule:evenodd; clip-rule:evenodd"
viewBox="0 0 121207 121207"
 xmlns:xlink="http://www.w3.org/1999/xlink">
 <defs>
  <style type="text/css">
   <![CDATA[
    .fil0 {fill:#207BBB}
    .fil1 {fill:white}
   ]]>
  </style>
 </defs>
 <g id="Слой_x0020_1">
  <metadata id="CorelCorpID_0Corel-Layer"/>
  <g id="_996449728">
   <circle class="fil0" cx="60603" cy="60603" r="60602"/>
   <g>
    <g id="_1456122256">
     <path class="fil1" d="M46262 78554c1360,-501 2245,-1782 2207,-3213 0,-426 -75,-818 -230,-1202 -120,-388 -308,-738 -584,-1047 -271,-351 -580,-580 -926,-818 -430,-229 -893,-422 -1394,-497 -584,-79 -1206,-120 -1820,-120l-4656 0c-505,-76 -1006,79 -1394,425 -350,388 -505,893 -426,1398l0 11008c-79,501 76,1006 388,1431 388,313 927,464 1432,426l4494 0c622,-38 1281,-75 1940,-192 543,-38 1048,-192 1549,-384 697,-272 1281,-776 1706,-1398 426,-659 622,-1435 622,-2208 38,-1744 -1206,-3258 -2908,-3609l0 0zm-6239 -4648l2324 0c852,-38 1666,79 2442,384 501,233 813,817 772,1397 0,351 -75,660 -271,931 -192,388 -501,655 -927,814 -546,154 -1123,230 -1707,196l-2712 0 79 -3722 0 0zm6122 8020c0,1473 -1006,2174 -3025,2174l-3176 0 79 -4265 3059 0c818,-41 1590,117 2324,505 505,347 777,968 739,1586l0 0z"/>
     <path class="fil1" d="M30127 64371l25289 0c720,0 1379,297 1850,761 478,486 780,1145 780,1864l0 25290c0,723 -302,1382 -773,1857 -471,471 -1134,769 -1857,769l-25289 0c-709,0 -1372,-294 -1846,-765 -486,-486 -780,-1149 -780,-1861l0 -25290c0,-723 301,-1382 772,-1857 471,-467 1134,-768 1857,-768l-3 0zm25289 2305l-25289 0c-83,0 -170,38 -223,94 -60,57 -94,144 -94,226l0 25290c0,90 34,169 83,218 68,68 147,102 237,102l25290 0c83,0 169,-38 226,-94 56,-57 94,-139 94,-226l0 -25290c0,-82 -38,-169 -94,-226 -57,-52 -143,-94 -226,-94l-4 0z"/>
     <path class="fil1" d="M88055 72304c-101,-949 -456,-1853 -1002,-2644 -603,-885 -1416,-1590 -2324,-2083 -825,-505 -1703,-829 -2667,-969 -889,-124 -1835,-60 -2701,185 -923,271 -1767,723 -2457,1337 -832,697 -1510,1556 -2049,2494 -358,584 -644,1191 -867,1850 -214,625 -346,1273 -399,1899 -41,591 -19,1243 102,1834 105,633 309,1210 599,1775 335,531 719,1039 1171,1443 505,501 1078,896 1703,1269 784,494 1673,780 2562,900 780,95 1560,27 2313,-210 565,-166 1164,-445 1669,-829 414,-328 799,-705 1055,-1198 192,-268 248,-614 143,-965 -68,-339 -320,-606 -595,-764 -305,-204 -652,-260 -965,-144 -324,155 -621,355 -878,562 -587,523 -1307,810 -2102,915 -768,30 -1514,-177 -2162,-595 -599,-320 -1126,-746 -1488,-1326 -305,-648 -422,-1402 -301,-2132 143,-965 501,-1835 1009,-2660 592,-1285 1639,-2324 2901,-2984 1081,-425 2268,-342 3217,283 633,331 1104,817 1420,1428 294,685 419,1401 347,2106 -19,357 -8,757 98,1107 113,317 339,539 614,693 279,155 625,211 938,98 313,-117 610,-316 765,-595 331,-633 452,-1364 328,-2080l0 4 3 -4z"/>
     <path class="fil1" d="M77368 54282l21774 12869c626,373 1040,961 1206,1605 169,651 83,1371 -283,1989l-12869 21774c-365,615 -953,1036 -1601,1202 -531,143 -1115,109 -1654,-117 -199,0 -20022,-11817 -22113,-13034 -622,-366 -1036,-961 -1202,-1594 -139,-550 -109,-1134 121,-1672 0,-219 11814,-20004 13034,-22099 362,-618 953,-1036 1598,-1202 535,-143 1118,-109 1657,117l335 162 -3 0zm20599 14847l-21767 -12865c-72,-46 -162,-53 -238,-34l-192 132 -12884 21793c-45,72 -52,162 -33,241l131 185 21786 12880c76,41 162,53 241,30l192 -132 12881 -21786 34 -245c-23,-79 -80,-154 -151,-199l0 0z"/>
     <path class="fil1" d="M71310 38916c-381,-355 -874,-664 -1394,-841l-9177 -4449 -1092 -584c-283,-98 -569,-195 -856,-297 -308,-49 -602,-60 -907,11 -664,211 -1221,712 -1504,1398 -101,286 -150,591 -75,896 53,354 139,694 260,1017 151,404 275,731 384,1018l3613 9572c188,384 332,663 414,882 68,181 185,384 328,538 256,238 607,392 972,377 332,0 693,-132 980,-369 282,-230 440,-580 440,-908 -83,-550 -252,-1108 -478,-1605l-712 -1880 4419 -3993 1763 829 761 377c249,109 486,184 708,226 185,52 384,22 539,3 218,-79 384,-188 539,-324 286,-237 406,-572 440,-915 23,-384 -101,-708 -365,-979l0 0 0 0zm-9746 2603l-2441 -5915 5673 2957 -3232 2958 0 0 0 0z"/>
     <path class="fil1" d="M42630 35740l18983 -16715c550,-479 1240,-690 1891,-652 660,41 1289,328 1760,832l16764 19036c478,550 693,1236 651,1903 -45,666 -346,1322 -889,1797l-18975 16715c-550,478 -1243,693 -1899,652 -674,-42 -1330,-351 -1808,-882l-16712 -18987c-482,-554 -689,-1235 -655,-1895 45,-648 328,-1281 829,-1752l60 -56 0 4zm20516 -14990l-18990 16719c-68,56 -110,139 -113,215l71 222 16719 18991c57,60 140,105 219,109 83,4 173,-19 237,-72l18979 -16715c64,-53 106,-136 110,-219l-76 -233 -16715 -18979c-56,-68 -143,-110 -218,-113l-223 75z"/>
    </g>
   </g>
  </g>
 </g>
</svg>
