<?xml version="1.0" encoding="utf-8"?>
<!-- Generator: Adobe Illustrator 21.1.0, SVG Export Plug-In . SVG Version: 6.00 Build 0)  -->
<svg version="1.1" id="Слой_1" xmlns="http://www.w3.org/2000/svg" xmlns:xlink="http://www.w3.org/1999/xlink" x="0px" y="0px"
	 viewBox="0 0 23 24" style="enable-background:new 0 0 23 24;" xml:space="preserve">
<g id="Слой_x0020_1">
	<g id="_806271760">
		<g>
			<g>
				<path d="M17.356,8.598l-3.167-8.061c-0.17-0.432-0.667-0.641-1.099-0.484L5.029,3.219c-0.445,0.17-0.654,0.667-0.484,1.099
					l3.193,8.061c0.17,0.432,0.654,0.654,1.099,0.484l8.035-3.167C17.317,9.527,17.526,9.029,17.356,8.598z M8.575,11.935L5.5,4.083
					l7.852-3.088l3.075,7.852L8.575,11.935z"/>
			</g>
		</g>
		<g>
			<g>
				<path d="M9.557,13.662H0.92c-0.471,0-0.851,0.379-0.851,0.851v8.65C0.069,23.621,0.449,24,0.92,24h8.637
					c0.471,0,0.851-0.379,0.851-0.838v-8.65C10.407,14.041,10.028,13.662,9.557,13.662z M9.452,23.045H1.025v-8.427h8.427V23.045z"
					/>
			</g>
		</g>
		<g>
			<g>
				<path d="M22.316,13.623l-8.349-2.225c-0.458-0.118-0.916,0.157-1.034,0.615l-2.225,8.349c-0.118,0.458,0.144,0.916,0.602,1.047
					l0,0l8.349,2.212c0.458,0.131,0.916-0.144,1.034-0.589l0,0l2.212-8.375C23.022,14.212,22.761,13.74,22.316,13.623z
					 M19.816,22.639l-8.166-2.146l2.172-8.153l8.153,2.172L19.816,22.639z"/>
			</g>
		</g>
		<g>
			<g>
				<path d="M13.784,7.394c-0.079-0.157-0.196-0.314-0.34-0.432l-2.369-2.499L10.8,4.148c-0.079-0.065-0.157-0.131-0.236-0.196
					C10.473,3.9,10.381,3.86,10.276,3.847c-0.236-0.013-0.471,0.079-0.641,0.262C9.57,4.188,9.517,4.279,9.504,4.384
					C9.478,4.502,9.465,4.619,9.465,4.737c0,0.144,0,0.262,0,0.366v3.455c0.013,0.144,0.026,0.249,0.026,0.327
					c0,0.065,0.013,0.144,0.039,0.209C9.583,9.2,9.674,9.291,9.792,9.33c0.105,0.039,0.236,0.039,0.353,0
					c0.118-0.039,0.209-0.131,0.249-0.236c0.039-0.183,0.052-0.379,0.039-0.563v-0.68l1.871-0.733l0.458,0.471l0.196,0.209
					c0.065,0.065,0.131,0.118,0.196,0.157c0.052,0.039,0.118,0.052,0.17,0.065c0.079,0,0.144-0.013,0.209-0.039
					c0.118-0.039,0.196-0.131,0.249-0.236C13.836,7.629,13.836,7.511,13.784,7.394z M10.394,7.053l-0.065-2.159l1.439,1.61
					L10.394,7.053z"/>
			</g>
		</g>
		<g>
			<g>
				<path d="M6.416,18.465c0.458-0.17,0.759-0.602,0.746-1.086c0-0.144-0.026-0.275-0.079-0.406
					c-0.039-0.131-0.105-0.249-0.196-0.353c-0.092-0.118-0.196-0.196-0.314-0.275c-0.144-0.079-0.301-0.144-0.471-0.17
					c-0.196-0.026-0.406-0.039-0.615-0.039h-1.57c-0.17-0.026-0.34,0.026-0.471,0.144c-0.118,0.131-0.17,0.301-0.144,0.471v3.716
					c-0.026,0.17,0.026,0.34,0.131,0.484c0.131,0.105,0.314,0.157,0.484,0.144h1.518c0.209-0.013,0.432-0.026,0.654-0.065
					c0.183-0.013,0.353-0.065,0.523-0.131c0.236-0.092,0.432-0.262,0.576-0.471c0.144-0.222,0.209-0.484,0.209-0.746
					C7.411,19.093,6.992,18.582,6.416,18.465z M4.309,16.894h0.785c0.288-0.013,0.563,0.026,0.824,0.131
					c0.17,0.079,0.275,0.275,0.262,0.471c0,0.118-0.026,0.222-0.092,0.314c-0.065,0.131-0.17,0.222-0.314,0.275
					c-0.183,0.052-0.379,0.079-0.576,0.065H4.283L4.309,16.894z M6.377,19.603c0,0.497-0.34,0.733-1.021,0.733H4.283l0.026-1.439
					h1.034c0.275-0.013,0.537,0.039,0.785,0.17C6.298,19.184,6.39,19.394,6.377,19.603z"/>
			</g>
		</g>
		<g>
			<g>
				<path d="M19.188,16.109c-0.118-0.301-0.314-0.563-0.563-0.772c-0.275-0.236-0.602-0.393-0.942-0.471
					c-0.314-0.092-0.628-0.118-0.955-0.079c-0.301,0.039-0.602,0.144-0.864,0.301c-0.275,0.17-0.51,0.393-0.68,0.654
					c-0.209,0.301-0.353,0.641-0.445,0.995c-0.065,0.222-0.105,0.445-0.118,0.68c-0.013,0.222,0,0.445,0.039,0.654
					c0.039,0.196,0.105,0.406,0.196,0.589c0.092,0.196,0.209,0.366,0.353,0.523c0.157,0.144,0.327,0.275,0.51,0.366
					c0.209,0.118,0.432,0.196,0.667,0.262c0.301,0.092,0.615,0.105,0.916,0.065c0.262-0.039,0.51-0.131,0.733-0.275
					c0.17-0.105,0.34-0.249,0.471-0.419c0.105-0.144,0.196-0.301,0.236-0.484c0.039-0.105,0.026-0.222-0.039-0.327
					c-0.052-0.105-0.157-0.17-0.262-0.196c-0.118-0.039-0.236-0.026-0.327,0.039c-0.092,0.079-0.17,0.17-0.236,0.262
					c-0.144,0.222-0.353,0.379-0.602,0.484c-0.249,0.079-0.51,0.079-0.759,0c-0.222-0.052-0.432-0.144-0.602-0.301
					c-0.157-0.183-0.262-0.419-0.288-0.667c-0.039-0.327,0-0.641,0.092-0.955c0.079-0.471,0.327-0.903,0.68-1.23
					c0.314-0.236,0.707-0.314,1.073-0.196c0.236,0.052,0.432,0.17,0.589,0.34c0.157,0.196,0.262,0.419,0.301,0.654
					c0.026,0.118,0.065,0.249,0.131,0.353c0.065,0.092,0.157,0.144,0.262,0.17c0.105,0.026,0.222,0.013,0.314-0.052
					c0.092-0.065,0.17-0.157,0.196-0.262C19.319,16.58,19.293,16.332,19.188,16.109z"/>
			</g>
		</g>
	</g>
</g>
</svg>
