<?xml version="1.0" encoding="UTF-8"?>
<!DOCTYPE svg PUBLIC "-//W3C//DTD SVG 1.0//EN" "http://www.w3.org/TR/2001/REC-SVG-20010904/DTD/svg10.dtd">
<!-- Creator: CorelDRAW X7 -->
<svg xmlns="http://www.w3.org/2000/svg" xml:space="preserve" width="28px" height="29px" version="1.0" style="shape-rendering:geometricPrecision; text-rendering:geometricPrecision; image-rendering:optimizeQuality; fill-rule:evenodd; clip-rule:evenodd"
viewBox="0 0 38309 40209"
 xmlns:xlink="http://www.w3.org/1999/xlink">
 <defs>
  <style type="text/css">
   <![CDATA[
    .fil0 {fill:black}
   ]]>
  </style>
 </defs>
 <g id="Слой_x0020_1">
  <metadata id="CorelCorpID_0Corel-Layer"/>
  <g id="_1456122256">
   <path class="fil0" d="M9855 31616c713,-263 1180,-936 1160,-1689 0,-224 -40,-428 -122,-631 -62,-204 -162,-387 -306,-550 -142,-184 -304,-305 -488,-428 -224,-121 -468,-223 -732,-263 -305,-41 -632,-62 -956,-62l-2444 0c-265,-40 -530,41 -733,223 -183,204 -264,469 -223,734l0 5781c-41,264 40,529 203,753 204,164 488,244 753,223l2361 0c327,-19 672,-40 1018,-100 285,-21 550,-102 815,-203 366,-143 672,-408 895,-734 224,-346 326,-753 326,-1160 20,-916 -632,-1710 -1527,-1894zm-3278 -2443l1221 0c448,-20 876,42 1283,203 264,123 427,429 406,734 0,183 -41,346 -142,488 -102,204 -264,346 -488,428 -286,81 -590,121 -896,102l-1425 0 41 -1955 0 0zm3217 4214c0,774 -530,1141 -1589,1141l-1669 0 41 -2240 1607 0c429,-21 836,62 1222,265 265,183 407,509 388,834l0 0z"/>
   <path class="fil0" d="M1380 24165l13284 0c378,0 724,157 971,401 252,255 409,601 409,979l0 13284c0,380 -157,727 -404,975 -249,248 -596,405 -976,405l-13284 0c-373,0 -721,-155 -970,-402 -255,-257 -410,-604 -410,-978l0 -13284c0,-380 157,-727 406,-976 247,-247 594,-404 974,-404zm13284 1212l-13284 0c-45,0 -89,20 -118,49 -31,30 -50,74 -50,119l0 13284c0,47 18,89 45,115 34,36 76,53 123,53l13284 0c45,0 89,-19 120,-50 29,-29 48,-73 48,-118l0 -13284c0,-45 -19,-90 -48,-119 -30,-29 -75,-49 -120,-49z"/>
   <path class="fil0" d="M31808 28333c-53,-500 -240,-973 -526,-1390 -317,-465 -744,-835 -1222,-1094 -433,-265 -894,-435 -1401,-509 -467,-65 -963,-31 -1419,97 -483,142 -927,380 -1289,703 -438,365 -794,817 -1076,1309 -189,307 -340,625 -456,972 -112,328 -183,668 -210,997 -21,312 -10,653 53,965 57,331 163,635 315,931 176,279 378,546 616,759 265,262 567,471 894,666 413,260 880,409 1347,473 409,49 819,13 1214,-111 297,-87 612,-233 877,-435 217,-173 419,-371 553,-630 102,-140 131,-323 76,-507 -36,-178 -167,-319 -312,-401 -162,-108 -343,-136 -508,-76 -169,81 -326,186 -460,296 -309,274 -687,425 -1104,480 -404,16 -796,-92 -1137,-312 -314,-170 -590,-393 -781,-698 -160,-340 -221,-735 -158,-1120 76,-507 263,-963 530,-1396 310,-676 861,-1222 1525,-1568 567,-224 1190,-180 1690,148 332,174 579,431 745,751 154,359 220,735 183,1105 -10,188 -5,399 50,583 61,165 178,282 323,364 147,81 328,110 493,50 165,-61 320,-166 402,-312 175,-333 238,-716 172,-1092l1 2z"/>
   <path class="fil0" d="M26195 18865l11437 6761c328,196 546,504 633,843 88,341 44,720 -148,1044l-6761 11437c-191,324 -501,545 -840,632 -280,75 -587,57 -870,-61 -103,0 -10517,-6208 -11615,-6847 -326,-192 -544,-504 -631,-838 -73,-289 -57,-596 63,-879 0,-113 6206,-10508 6846,-11607 191,-325 501,-545 840,-632 281,-74 587,-56 870,62l176 85zm10820 7800l-11434 -6759c-39,-23 -86,-28 -125,-18l-101 70 -6768 11448c-22,36 -26,84 -16,126l68 97 11445 6766c39,22 84,27 125,17l101 -69 6766 -11444 18 -129c-12,-42 -42,-82 -79,-105z"/>
   <path class="fil0" d="M23013 10794c-202,-186 -459,-349 -733,-441l-4821 -2337 -572 -307c-150,-51 -300,-103 -450,-155 -162,-26 -317,-32 -477,5 -349,110 -642,373 -790,734 -52,150 -78,311 -39,471 27,186 73,364 137,535 79,210 144,382 201,534l1898 5028c99,202 175,348 218,462 36,96 97,202 172,283 134,124 318,207 510,199 175,0 364,-71 514,-194 150,-121 233,-306 233,-478 -44,-290 -133,-582 -252,-842l-373 -989 2320 -2096 926 435 401 197c130,58 255,98 371,119 97,29 201,12 283,2 115,-42 202,-99 283,-171 150,-123 215,-299 232,-480 12,-201 -53,-372 -193,-514l1 0zm-5121 1367l-1281 -3107 2980 1553 -1699 1554 0 0z"/>
   <path class="fil0" d="M7947 9125l9971 -8779c290,-252 652,-362 994,-343 346,23 677,173 924,437l8807 10000c250,289 363,650 341,999 -23,350 -181,695 -466,945l-9969 8781c-288,250 -652,363 -997,341 -353,-21 -699,-183 -949,-463l-8779 -9973c-252,-291 -362,-649 -343,-995 23,-341 172,-674 435,-921l31 -29zm10778 -7874l-9977 8782c-35,31 -56,74 -58,113l37 118 8783 9975c30,32 72,56 113,58 45,1 92,-11 126,-39l9970 -8781c33,-27 54,-71 56,-113l-39 -124 -8780 -9970c-29,-34 -75,-56 -115,-58l-116 39z"/>
  </g>
 </g>
</svg>
