<?xml version="1.0" encoding="utf-8"?>
<!-- Generator: Adobe Illustrator 21.1.0, SVG Export Plug-In . SVG Version: 6.00 Build 0)  -->
<svg version="1.1" id="Слой_1" xmlns="http://www.w3.org/2000/svg" xmlns:xlink="http://www.w3.org/1999/xlink" x="0px" y="0px"
	 viewBox="0 0 1944 2133" style="enable-background:new 0 0 1944 2133;" xml:space="preserve">
<g id="Слой_x0020_1">
	<path d="M478.416,1799.683h985.085h149.906v83.354H328.509v-83.354H478.416z M1697.72,1799.683h34.167
		c22.902,0,41.638-18.739,41.638-41.643v-0.002c0-22.904-18.736-41.643-41.638-41.643h-34.167h-84.313h-107.22v-284.48v-83.288
		V451.056v-83.288V41.66c0-23.011-19.691-41.66-42.686-41.66H478.416c-22.995,0-40.602,18.65-40.602,41.66v326.107v83.288v897.572
		v83.288v284.48H328.509h-82.23h-34.166c-22.902,0-41.638,18.739-41.638,41.643v0.002c0,22.904,18.736,41.643,41.638,41.643h34.166
		v83.354h-88.055h-82.23H41.83c-22.897,0-41.64,18.739-41.64,41.643v0.002c0,22.904,18.744,41.643,41.64,41.643h34.164v125.014
		c0,23.01,17.607,41.661,40.602,41.661h261.851h1187.105h259.768c22.995,0,42.686-18.649,42.686-41.661v-125.015h34.164
		c22.896,0,41.64-18.739,41.64-41.643v-0.002c0-22.904-18.745-41.643-41.64-41.643h-34.164h-84.313h-85.973L1697.72,1799.683
		L1697.72,1799.683z M285.306,1966.325c0.523,0.02,1.047,0.033,1.575,0.033h1368.153c0.528,0,1.053-0.013,1.579-0.033h127.08v83.354
		H158.224v-83.354H285.306L285.306,1966.325z M1248.711,1017.245v0.002c0,22.904,18.739,41.643,41.643,41.643h131.52v289.737
		h-901.83V451.056h901.83v524.547h-131.52C1267.449,975.602,1248.711,994.341,1248.711,1017.245z M1421.873,367.768h-901.83V83.321
		h901.83V367.768z M520.043,1431.915h901.83v284.447h-901.83V1431.915z"/>
</g>
</svg>
