<?xml version="1.0" encoding="UTF-8"?>
<!DOCTYPE svg PUBLIC "-//W3C//DTD SVG 1.0//EN" "http://www.w3.org/TR/2001/REC-SVG-20010904/DTD/svg10.dtd">
<!-- Creator: CorelDRAW X7 -->
<svg xmlns="http://www.w3.org/2000/svg" xml:space="preserve" width="35px" height="47px" version="1.0" style="shape-rendering:geometricPrecision; text-rendering:geometricPrecision; image-rendering:optimizeQuality; fill-rule:evenodd; clip-rule:evenodd"
viewBox="0 0 237904 317200"
 xmlns:xlink="http://www.w3.org/1999/xlink">
 <defs>
  <style type="text/css">
   <![CDATA[
    .fil0 {fill:black}
   ]]>
  </style>
 </defs>
 <g id="Слой_x0020_1">
  <metadata id="CorelCorpID_0Corel-Layer"/>
  <g id="_1242220512">
   <path class="fil0" d="M10806 311586l0 -243295c0,-2134 876,-4093 2277,-5494 1402,-1402 3361,-2278 5495,-2278l172113 0c2134,0 4093,876 5495,2278 1409,1457 2277,3368 2277,5494l0 243295 -11228 0 0 -239839 -165201 0 0 239839 -11228 0z"/>
   <path class="fil0" d="M5614 317200c-3098,0 -5614,-2516 -5614,-5614 0,-3097 2516,-5614 5614,-5614l198049 0c3098,0 5614,2517 5614,5614 0,3098 -2516,5614 -5614,5614l-198049 0z"/>
   <polygon class="fil0" points="110248,60519 110248,311586 99021,311586 99021,60519 "/>
   <path class="fil0" d="M104634 0c12240,0 23324,4969 31343,12988 8019,8019 12988,19103 12988,31342 0,3098 -2517,5614 -5614,5614l-77433 0c-3097,0 -5614,-2516 -5614,-5614l0 -143c40,-12183 5001,-23212 12988,-31199 8019,-8019 19119,-12988 31342,-12988zm23412 20919c-5980,-5980 -14270,-9691 -23412,-9691 -9141,0 -17431,3711 -23411,9691 -4730,4730 -8035,10901 -9213,17797l65249 0c-1178,-6896 -4483,-13067 -9213,-17797z"/>
   <path class="fil0" d="M110248 44330c0,3098 -2516,5614 -5614,5614 -3097,0 -5613,-2516 -5613,-5614l0 -17877c0,-3097 2516,-5614 5613,-5614 3098,0 5614,2517 5614,5614l0 17877z"/>
   <path class="fil0" d="M218124 177695c-2190,2174 -5741,2174 -7915,-15 -2174,-2190 -2174,-5742 16,-7916l9062 -9054c2189,-2174 5733,-2174 7907,8l9062 9046c2190,2190 2190,5742 0,7931 -2190,2190 -5742,2190 -7931,0l-5097 -5096 -5104 5096z"/>
   <path class="fil0" d="M210209 207947c-2190,-2190 -2190,-5741 0,-7931 2189,-2190 5741,-2190 7931,0l5096 5096 5105 -5096c2189,-2174 5741,-2174 7915,16 2174,2190 2174,5741 -16,7915l-9046 9054c-2190,2190 -5742,2190 -7931,0l-9054 -9054z"/>
  </g>
 </g>
</svg>
