<?xml version="1.0" encoding="UTF-8"?>
<!DOCTYPE svg PUBLIC "-//W3C//DTD SVG 1.0//EN" "http://www.w3.org/TR/2001/REC-SVG-20010904/DTD/svg10.dtd">
<!-- Creator: CorelDRAW X7 -->
<svg xmlns="http://www.w3.org/2000/svg" xml:space="preserve" width="34px" height="45px" version="1.0" style="shape-rendering:geometricPrecision; text-rendering:geometricPrecision; image-rendering:optimizeQuality; fill-rule:evenodd; clip-rule:evenodd"
viewBox="0 0 101910 135226"
 xmlns:xlink="http://www.w3.org/1999/xlink">
 <defs>
  <style type="text/css">
   <![CDATA[
    .fil0 {fill:black}
   ]]>
  </style>
 </defs>
 <g id="Слой_x0020_1">
  <metadata id="CorelCorpID_0Corel-Layer"/>
  <path class="fil0" d="M75607 16543c0,1522 -436,2145 -1161,3179 -390,552 -832,1183 -1204,1976 -563,1200 -50,2626 1151,3189 329,152 676,227 1016,227 899,0 1763,-510 2170,-1377 198,-422 470,-811 789,-1264 857,-1222 2032,-2896 2032,-5930 0,-3030 -1175,-4705 -2032,-5926 -726,-1034 -1161,-1657 -1161,-3176 0,-1518 435,-2145 1161,-3175 124,-177 244,-351 365,-531 740,-1098 449,-2584 -648,-3324 -1098,-740 -2584,-450 -3324,648 -103,152 -209,300 -315,453 -857,1221 -2032,2895 -2032,5929 0,3031 1175,4705 2032,5927 725,1033 1161,1656 1161,3175z"/>
  <path class="fil0" d="M46163 16543c0,1522 -435,2145 -1161,3179 -389,552 -832,1183 -1203,1976 -563,1200 -46,2626 1150,3189 329,152 676,227 1016,227 899,0 1763,-510 2170,-1377 199,-422 471,-811 790,-1264 856,-1222 2032,-2896 2032,-5926 0,-3034 -1176,-4709 -2032,-5930 -726,-1034 -1161,-1657 -1161,-3176 0,-1518 435,-2145 1161,-3175 124,-177 244,-351 364,-531 740,-1098 450,-2584 -647,-3324 -1098,-740 -2588,-450 -3325,648 -106,152 -209,304 -315,453 -856,1221 -2032,2895 -2032,5929 0,3031 1176,4705 2032,5927 726,1033 1161,1656 1161,3175l0 0z"/>
  <path class="fil0" d="M16720 16543c0,1522 -435,2145 -1161,3179 -390,552 -832,1183 -1204,1976 -563,1200 -46,2626 1151,3189 329,152 676,227 1016,227 899,0 1763,-510 2170,-1377 198,-422 471,-811 789,-1264 857,-1222 2032,-2896 2032,-5926 0,-3034 -1175,-4709 -2032,-5930 -725,-1034 -1161,-1657 -1161,-3176 0,-1518 436,-2145 1161,-3175 124,-177 245,-351 365,-531 740,-1098 450,-2584 -648,-3324 -1097,-740 -2584,-450 -3324,648 -103,152 -209,300 -315,453 -857,1221 -2032,2895 -2032,5929 0,3031 1175,4705 2032,5927 726,1033 1161,1656 1161,3175l0 0z"/>
  <path class="fil0" d="M95524 36032c-2677,0 -4971,1656 -5920,3993l-3826 0c-1324,0 -2397,1072 -2397,2396 0,1325 1073,2397 2397,2397l3826 0c949,2337 3243,3993 5920,3993 3522,0 6386,-2867 6386,-6390 0,-3522 -2864,-6389 -6386,-6389l0 0zm0 7986c-882,0 -1601,-715 -1601,-1597 0,-881 719,-1596 1601,-1596 878,0 1596,715 1596,1596 0,882 -718,1597 -1596,1597z"/>
  <path class="fil0" d="M93923 122917l0 -3823c0,-1324 -1072,-2397 -2393,-2397 -1324,0 -2396,1073 -2396,2397l0 3823c-2340,949 -3994,3243 -3994,5919 0,3523 2864,6390 6390,6390 3523,0 6387,-2867 6387,-6390 0,-2676 -1654,-4970 -3994,-5919zm-2393 7516c-881,0 -1600,-715 -1600,-1597 0,-881 719,-1596 1600,-1596 878,0 1597,715 1597,1596 0,882 -719,1597 -1597,1597z"/>
  <path class="fil0" d="M64236 44818l11537 0c1324,0 2397,-1072 2397,-2397 0,-1324 -1073,-2396 -2397,-2396l-11537 0c-1324,0 -2397,1072 -2397,2396 0,1325 1073,2397 2397,2397z"/>
  <path class="fil0" d="M41374 81236l-11538 0c-1324,0 -2396,1072 -2396,2396 0,1324 1072,2397 2396,2397l11538 0c1324,0 2396,-1073 2396,-2397 0,-1324 -1072,-2396 -2396,-2396z"/>
  <path class="fil0" d="M43692 63029c0,1320 1073,2393 2397,2393l11537 0c1324,0 2397,-1073 2397,-2393 0,-1324 -1073,-2397 -2397,-2397l-11537 0c-1324,0 -2397,1073 -2397,2397z"/>
  <path class="fil0" d="M62848 81236l-11537 0c-1324,0 -2397,1072 -2397,2396 0,1324 1073,2397 2397,2397l11537 0c1324,0 2397,-1073 2397,-2397 0,-1324 -1073,-2396 -2397,-2396z"/>
  <path class="fil0" d="M90330 78722c241,78 482,113 722,113 1016,0 1962,-651 2284,-1674 389,-1236 587,-2524 587,-3831 0,-3472 -1444,-6836 -3968,-9222 -959,-909 -2478,-870 -3388,92 -910,960 -867,2479 92,3388 1597,1508 2475,3548 2475,5742 0,815 -124,1618 -369,2387 -396,1260 301,2609 1565,3005l0 0z"/>
  <path class="fil0" d="M67564 60632c-1324,0 -2397,1073 -2397,2397 0,1320 1073,2393 2397,2393l11537 0c1324,0 2397,-1073 2397,-2393 0,-1324 -1073,-2397 -2397,-2397l-11537 0z"/>
  <path class="fil0" d="M83565 80885c-754,234 -1540,351 -2340,351l-8440 0c-1324,0 -2396,1072 -2396,2396 0,1324 1072,2397 2396,2397l8440 0c1282,0 2545,-191 3756,-566 1267,-390 1975,-1732 1583,-2999 -390,-1264 -1735,-1972 -2999,-1579l0 0z"/>
  <path class="fil0" d="M88079 110594c446,768 1249,1200 2078,1200 407,0 818,-106 1196,-322 1147,-662 1537,-2128 878,-3275 -2265,-3919 -6482,-6354 -11006,-6354l-736 0c-1324,0 -2397,1072 -2397,2393 0,1324 1073,2397 2397,2397l736 0c2818,0 5445,1518 6854,3961z"/>
  <path class="fil0" d="M18894 42421c0,1325 1072,2397 2396,2397l11538 0c1324,0 2396,-1072 2396,-2397 0,-1324 -1072,-2396 -2396,-2396l-11538 0c-1324,0 -2396,1072 -2396,2396z"/>
  <path class="fil0" d="M22296 83632c0,-1324 -1073,-2396 -2393,-2396l-7201 0c-1809,0 -3554,371 -5190,1108 -1211,541 -1749,1957 -1207,3165 396,888 1271,1416 2188,1416 325,0 658,-68 977,-209 1019,-457 2103,-687 3232,-687l7197 0c1324,0 2397,-1073 2397,-2397z"/>
  <path class="fil0" d="M7997 100292c-2035,-1511 -3204,-3827 -3204,-6358 0,-492 46,-984 135,-1462 244,-1303 -613,-2552 -1915,-2797 -1303,-244 -2553,616 -2794,1916 -145,768 -219,1557 -219,2343 0,4004 1922,7820 5144,10206 428,319 927,471 1423,471 733,0 1458,-333 1926,-966 789,-1066 566,-2567 -496,-3353l0 0z"/>
  <path class="fil0" d="M2167 51750c247,85 502,124 754,124 1005,0 1940,-638 2272,-1643 949,-2860 3491,-4960 6472,-5346 1313,-173 2241,-1373 2067,-2687 -170,-1309 -1373,-2237 -2683,-2067 -4797,627 -8879,3997 -10405,8592 -414,1257 266,2613 1523,3027l0 0z"/>
  <path class="fil0" d="M27606 101843l-11537 0c-1324,0 -2397,1072 -2397,2393 0,1324 1073,2397 2397,2397l11537 0c1324,0 2397,-1073 2397,-2397 0,-1321 -1073,-2393 -2397,-2393z"/>
  <path class="fil0" d="M49081 101843l-11538 0c-1324,0 -2396,1072 -2396,2393 0,1324 1072,2397 2396,2397l11538 0c1324,0 2396,-1073 2396,-2397 0,-1321 -1072,-2393 -2396,-2393z"/>
  <path class="fil0" d="M42761 44818l11538 0c1324,0 2396,-1072 2396,-2397 0,-1324 -1072,-2396 -2396,-2396l-11538 0c-1324,0 -2396,1072 -2396,2396 0,1325 1072,2397 2396,2397z"/>
  <path class="fil0" d="M22221 63029c0,1320 1073,2393 2394,2393l11540 0c1321,0 2394,-1073 2394,-2393 0,-1324 -1073,-2397 -2394,-2397l-11540 0c-1321,0 -2394,1073 -2394,2397z"/>
  <path class="fil0" d="M14681 60632l-1979 0c-2510,0 -4818,-1154 -6330,-3165 -793,-1058 -2294,-1271 -3352,-478 -1059,797 -1271,2298 -478,3356 2425,3225 6128,5077 10160,5077l1979 0c1324,0 2397,-1073 2397,-2393 0,-1324 -1073,-2397 -2397,-2397z"/>
  <path class="fil0" d="M70551 101843l-11537 0c-1324,0 -2397,1072 -2397,2393 0,1324 1073,2397 2397,2397l11537 0c1324,0 2397,-1073 2397,-2397 0,-1321 -1073,-2393 -2397,-2393z"/>
 </g>
</svg>
