<?xml version="1.0" encoding="UTF-8"?>
<!DOCTYPE svg PUBLIC "-//W3C//DTD SVG 1.0//EN" "http://www.w3.org/TR/2001/REC-SVG-20010904/DTD/svg10.dtd">
<!-- Creator: CorelDRAW X7 -->
<svg xmlns="http://www.w3.org/2000/svg" xml:space="preserve" width="57px" height="38px" version="1.0" style="shape-rendering:geometricPrecision; text-rendering:geometricPrecision; image-rendering:optimizeQuality; fill-rule:evenodd; clip-rule:evenodd"
viewBox="0 0 406291 272744"
 xmlns:xlink="http://www.w3.org/1999/xlink">
 <defs>
  <style type="text/css">
   <![CDATA[
    .fil0 {fill:black}
   ]]>
  </style>
 </defs>
 <g id="Слой_x0020_1">
  <metadata id="CorelCorpID_0Corel-Layer"/>
  <g id="_935785168">
   <path class="fil0" d="M209131 56852c0,3309 -2685,5986 -5985,5986 -3300,0 -5986,-2677 -5986,-5986 0,-3300 2686,-5986 5986,-5986 3300,0 5985,2686 5985,5986zm0 0z"/>
   <path class="fil0" d="M180053 18328c14245,-8554 31941,-8554 46185,0 960,581 2013,850 3056,850 2021,0 3991,-1027 5111,-2888 1692,-2811 783,-6474 -2038,-8166 -18024,-10826 -40418,-10826 -58443,0 -2820,1692 -3730,5355 -2037,8166 1692,2821 5346,3730 8166,2038zm0 0z"/>
   <path class="fil0" d="M221305 38137c1684,-2820 775,-6482 -2046,-8174 -9942,-5961 -22284,-5961 -32227,0 -2820,1692 -3729,5354 -2037,8174 1692,2812 5346,3730 8166,2038 6163,-3696 13815,-3696 19969,0 969,572 2021,850 3065,850 2020,0 3990,-1036 5110,-2888l0 0zm0 0z"/>
   <path class="fil0" d="M393983 19119l-12729 0c-6786,0 -12308,5523 -12308,12317l0 19489 -13546 0 0 -13133c0,-1970 -977,-3822 -2610,-4925 -1633,-1103 -3713,-1330 -5548,-598l-127225 50892c-2256,901 -3738,3090 -3738,5523l0 178116c0,1970 977,3814 2610,4925 1002,674 2163,1019 3342,1019 749,0 1499,-135 2206,-421l127225 -50892c2256,-909 3738,-3089 3738,-5522l0 -13134 13546 0 0 25854c0,3284 2660,5952 5952,5952l25441 0c3284,0 5952,-2668 5952,-5952l0 -197193c0,-6794 -5522,-12317 -12308,-12317l0 0zm-13133 12317c0,-228 185,-413 404,-413l12729 0c219,0 404,185 404,413l0 19489 -13537 0 0 -19489zm-101784 40924l13546 -5422 0 165295 -13546 5413 0 -165286zm-11904 170051l-13537 5413 0 -165286 13537 -5422 0 165295zm-38979 -149695l13538 -5421 0 165294 -13538 5414 0 -165287zm115313 119160l-13538 5422 0 -115894c0,-3283 -2660,-5952 -5952,-5952 -3283,0 -5952,2669 -5952,5952l0 120650 -13538 5414 0 -165287 13538 -5421 0 19203c0,3283 2669,5952 5952,5952 3292,0 5952,-2669 5952,-5952l0 -23960 13538 -5413 0 165286zm11904 -21005l0 -128041 13546 0 0 128041 -13546 0zm25450 31806l0 -159847 13537 0 0 159847 -13537 0zm0 0z"/>
   <path class="fil0" d="M186274 83161l-127225 -50892c-1826,-732 -3914,-513 -5548,598 -1633,1103 -2609,2955 -2609,4925l0 13133 -13546 0 0 -19489c0,-6794 -5523,-12317 -12308,-12317l-12730 0c-6785,0 -12308,5523 -12308,12317l0 197193c0,3284 2669,5952 5952,5952l25442 0c3291,0 5952,-2668 5952,-5952l0 -25854 13546 0 0 13134c0,2433 1481,4622 3738,5522l127225 50892c707,286 1456,421 2205,421 1179,0 2341,-345 3343,-1019 1633,-1111 2609,-2955 2609,-4933l0 -178108c0,-2433 -1481,-4622 -3738,-5523zm-47145 -6045l13538 5422 0 165286 -13538 -5413 0 -165295zm-11904 160530l-13546 -5413 0 -165295 13546 5422 0 165286zm-114917 -206623l12730 0c218,0 404,185 404,413l0 19489 -13538 0 0 -19489c0,-228 185,-413 404,-413zm13134 191654l-13538 0 0 -159847 13538 0 0 159847zm11904 -31806l0 -128041 13546 0 0 128041 -13546 0zm25450 -144281l13537 5413 0 119379c0,3283 2661,5952 5952,5952 3284,0 5952,-2669 5952,-5952l0 -114622 13538 5421 0 165287 -13538 -5414 0 -25231c0,-3292 -2668,-5952 -5952,-5952 -3291,0 -5952,2660 -5952,5952l0 20475 -13537 -5422 0 -165286zm115312 211413l-13537 -5414 0 -165294 13537 5421 0 165287zm0 0z"/>
  </g>
 </g>
</svg>
