<?xml version="1.0" encoding="UTF-8"?>
<!DOCTYPE svg PUBLIC "-//W3C//DTD SVG 1.0//EN" "http://www.w3.org/TR/2001/REC-SVG-20010904/DTD/svg10.dtd">
<!-- Creator: CorelDRAW X7 -->
<svg xmlns="http://www.w3.org/2000/svg" xml:space="preserve" width="40px" height="30px" version="1.0" style="shape-rendering:geometricPrecision; text-rendering:geometricPrecision; image-rendering:optimizeQuality; fill-rule:evenodd; clip-rule:evenodd"
viewBox="0 0 124058 92903"
 xmlns:xlink="http://www.w3.org/1999/xlink">
 <defs>
  <style type="text/css">
   <![CDATA[
    .fil0 {fill:black}
   ]]>
  </style>
 </defs>
 <g id="Слой_x0020_1">
  <metadata id="CorelCorpID_0Corel-Layer"/>
  <g id="_1392009168">
   <path class="fil0" d="M2509 2143l100424 0 1410 601 605 1410 0 86735 -605 1410 -1410 604 -100922 0 -1410 -604 -601 -1410 0 -86735 601 -1410 1410 -601 498 0zm97494 4945l-95058 0 0 80870 95058 0 0 -80870z"/>
   <polygon class="fil0" points="19231,4616 19231,90431 14286,90431 14286,4616 "/>
   <polygon class="fil0" points="3333,17085 101614,17085 101614,22030 3333,22030 "/>
   <path class="fil0" d="M121586 8564c1362,0 2472,1110 2472,2473 0,1363 -1110,2473 -2472,2473l-18440 0c-1363,0 -2473,-1110 -2473,-2473 0,-1363 1110,-2473 2473,-2473l18440 0z"/>
   <path class="fil0" d="M121586 81537c1362,0 2472,1110 2472,2472 0,1363 -1110,2473 -2472,2473l-17957 0c-1363,0 -2473,-1110 -2473,-2473 0,-1362 1110,-2472 2473,-2472l17957 0z"/>
   <path class="fil0" d="M118274 0c1363,0 2473,1110 2473,2473 0,1362 -1110,2472 -2473,2472l-7407 0c-1362,0 -2472,-1110 -2472,-2472 0,-1363 1110,-2473 2472,-2473l7407 0z"/>
   <path class="fil0" d="M112098 2473c0,-1363 1110,-2473 2473,-2473 1362,0 2472,1110 2472,2473l0 7278c0,1363 -1110,2473 -2472,2473 -1363,0 -2473,-1110 -2473,-2473l0 -7278z"/>
   <polygon class="fil0" points="33517,4616 33517,90431 28572,90431 28572,4616 "/>
   <polygon class="fil0" points="47803,4616 47803,90431 42858,90431 42858,4616 "/>
   <polygon class="fil0" points="62090,4616 62090,90431 57144,90431 57144,4616 "/>
   <polygon class="fil0" points="76376,4616 76376,90431 71430,90431 71430,4616 "/>
   <polygon class="fil0" points="90662,4616 90662,90431 85716,90431 85716,4616 "/>
  </g>
 </g>
</svg>
