<?xml version="1.0" encoding="utf-8"?>
<!-- Generator: Adobe Illustrator 21.1.0, SVG Export Plug-In . SVG Version: 6.00 Build 0)  -->
<svg version="1.1" id="Слой_1" xmlns="http://www.w3.org/2000/svg" xmlns:xlink="http://www.w3.org/1999/xlink" x="0px" y="0px"
	 viewBox="0 0 51 39" style="enable-background:new 0 0 51 39;" xml:space="preserve">
<g id="Слой_x0020_1">
	<path d="M0.075,38.152C0.075,38.621,0.454,39,0.922,39h40.677c0.469,0,0.848-0.379,0.848-0.848v-0.861h7.631
		c0.469,0,0.847-0.379,0.847-0.848c0-0.469-0.378-0.848-0.847-0.848h-7.631V34.75h7.631c0.469,0,0.847-0.379,0.847-0.848
		c0-0.469-0.378-0.847-0.847-0.847h-7.631V6.788l0,0h7.631c0.469,0,0.847-0.379,0.847-0.848c0-0.469-0.378-0.848-0.847-0.848h-0.846
		V4.247h0.846c0.469,0,0.847-0.379,0.847-0.848c0-0.468-0.378-0.847-0.847-0.847h-2.543V1.695h0.849
		c0.469,0,0.848-0.379,0.848-0.847C49.232,0.379,48.853,0,48.384,0h-3.392c-0.469,0-0.847,0.379-0.847,0.848
		c0,0.468,0.378,0.847,0.847,0.847h0.848v0.857h-3.393V2.551c0-0.469-0.379-0.848-0.848-0.848h-5.056
		c-0.008,0-0.014-0.003-0.021-0.003c-0.006,0-0.013,0.003-0.02,0.003h-5.045c-0.007,0-0.013-0.003-0.02-0.003
		c-0.007,0-0.014,0.003-0.02,0.003h-5.046c-0.007,0-0.013-0.003-0.02-0.003c-0.007,0-0.013,0.003-0.02,0.003h-5.045
		c-0.008,0-0.014-0.003-0.021-0.003c-0.006,0-0.013,0.003-0.02,0.003h-5.045c-0.007,0-0.013-0.003-0.02-0.003
		c-0.007,0-0.014,0.003-0.02,0.003h-5.046c-0.007,0-0.013-0.003-0.02-0.003c-0.007,0-0.013,0.003-0.02,0.003H6.03
		C6.022,1.703,6.016,1.7,6.009,1.7c-0.006,0-0.013,0.003-0.02,0.003H0.922c-0.468,0-0.847,0.379-0.847,0.848v0.001V38.152z
		 M45.841,4.247h1.695v0.845h-1.695V4.247z M42.447,4.247h1.7v0.845h-1.7V4.247z M37.37,3.399h3.381v33.906H37.37V3.399z
		 M32.284,3.399h3.391v33.906h-3.391V3.399z M27.199,3.399h3.39v33.906h-3.39V3.399z M22.113,3.399h3.39v33.906h-3.39V3.399z
		 M17.027,3.399h3.391v33.906h-3.391V3.399z M11.943,3.399h3.39v33.906h-3.39V3.399z M6.857,3.399h3.391v33.906H6.857V3.399z
		 M1.77,3.399h3.392v33.906H1.77V3.399z"/>
</g>
</svg>
