<?xml version="1.0" encoding="UTF-8"?>
<!DOCTYPE svg PUBLIC "-//W3C//DTD SVG 1.0//EN" "http://www.w3.org/TR/2001/REC-SVG-20010904/DTD/svg10.dtd">
<!-- Creator: CorelDRAW X7 -->
<svg xmlns="http://www.w3.org/2000/svg" xml:space="preserve" width="56px" height="73px" version="1.0" style="shape-rendering:geometricPrecision; text-rendering:geometricPrecision; image-rendering:optimizeQuality; fill-rule:evenodd; clip-rule:evenodd"
viewBox="0 0 191355 248064"
 xmlns:xlink="http://www.w3.org/1999/xlink">
 <defs>
  <style type="text/css">
   <![CDATA[
    .fil2 {fill:#207BBB}
    .fil0 {fill:#FFCF00}
    .fil1 {fill:#207BBB;fill-rule:nonzero}
   ]]>
  </style>
 </defs>
 <g id="Слой_x0020_1">
  <metadata id="CorelCorpID_0Corel-Layer"/>
  <g id="_1391976096">
   <path class="fil0" d="M95805 242421c-23021,-7617 -43860,-27836 -43744,-49828l137 -26108c16101,-7089 29940,-16032 43192,-25607 13251,9575 27791,18518 43892,25607l137 26108c113,21992 -20594,42211 -43614,49828z"/>
   <path class="fil1" d="M94039 247777c-12912,-4272 -25216,-12267 -34038,-22315 -8339,-9495 -13622,-20900 -13562,-32890l137 -26107c4,-2289 1391,-4252 3362,-5122 7895,-3490 15161,-7383 22016,-11534 6936,-4200 13606,-8766 20151,-13493 2055,-1479 4768,-1371 6686,84 6400,4623 13175,9129 20340,13364 7101,4196 14569,8109 22420,11563 2212,971 3482,3204 3353,5485l137 25760c56,11998 -5207,23412 -13529,32919 -8778,10035 -21042,18018 -33942,22286 -1193,391 -2422,363 -3531,0zm-25575 -29722c7089,8076 16907,14609 27345,18398 10422,-3781 20187,-10309 27239,-18370 6610,-7552 10793,-16410 10749,-25470l-117 -22472c-7037,-3249 -13799,-6848 -20280,-10680 -6206,-3668 -12211,-7597 -18002,-11676 -5667,4014 -11494,7920 -17624,11631 -6388,3869 -13010,7484 -19974,10721l-117 22476c-48,9043 4156,17898 10781,25442z"/>
   <path class="fil1" d="M56982 205082c3103,193 5461,2874 5268,5977 -194,3103 -2874,5461 -5977,5267 -4740,-310 -8717,3027 -12377,6098 -5847,4904 -11183,9378 -19792,6363 -5461,-1910 -8491,-5444 -9035,-11381 -347,-3812 580,-8588 2776,-14702 -1587,-2458 -3058,-4913 -4392,-7339 -11321,-20574 -16113,-43481 -11990,-65433 4135,-22021 17193,-42945 41523,-59437 3506,-2373 7153,-4614 10929,-6690 2725,-1495 6154,-499 7650,2225 1495,2724 499,6154 -2225,7649 -3655,2011 -7009,4054 -10051,6118 -21602,14641 -33152,33003 -36759,52206 -3619,19277 693,39572 10796,57938 1629,2966 3362,5807 5167,8507 1249,1532 1657,3676 883,5647 -2306,5843 -3333,9825 -3112,12296 81,890 601,1446 1540,1773 2563,895 5574,-1624 8862,-4381 5312,-4461 11091,-9306 20316,-8701z"/>
   <path class="fil1" d="M135082 216326c-3103,194 -5783,-2164 -5976,-5267 -194,-3103 2164,-5784 5267,-5977 9229,-605 15004,4240 20316,8701 3289,2757 6295,5280 8862,4381 939,-327 1459,-883 1540,-1773 222,-2471 -806,-6453 -3111,-12296 -774,-1971 -367,-4115 882,-5647 1806,-2700 3539,-5541 5167,-8507 10103,-18366 14416,-38661 10797,-57938 -3607,-19203 -15158,-37565 -36759,-52206 -3043,-2064 -6396,-4107 -10052,-6118 -2724,-1495 -3719,-4925 -2224,-7649 1495,-2724 4925,-3720 7649,-2225 3776,2076 7424,4317 10930,6690 24330,16492 37387,37416 41522,59437 4123,21952 -669,44859 -11989,65433 -1334,2426 -2805,4881 -4393,7339 2196,6114 3123,10890 2777,14702 -544,5937 -3571,9471 -9036,11381 -8604,3015 -13944,-1459 -19792,-6363 -3659,-3071 -7637,-6408 -12377,-6098z"/>
   <path class="fil1" d="M72664 40813c3091,-375 5908,1822 6283,4913 374,3091 -1822,5908 -4913,6283 -4768,588 -9197,1390 -13046,2374 -2083,532 -3978,1112 -5634,1737l0 2881c7512,5917 21307,9117 36767,9117 15210,0 31737,-3180 45384,-9983l0 -2007c-1943,-750 -4083,-1407 -6425,-1991 -3804,-947 -8140,-1685 -13049,-2237 -3091,-338 -5320,-3123 -4981,-6214 338,-3091 3123,-5320 6214,-4982 5384,605 10200,1431 14509,2503 4207,1048 7963,2358 11324,3958 2152,798 3692,2865 3692,5295l0 9064c-20,1975 -1064,3889 -2910,4917 -15951,8850 -35759,12961 -53758,12961 -19228,0 -36779,-4772 -46016,-13541 -1245,-1036 -2035,-2592 -2035,-4337l0 -9064c16,-2039 1128,-4006 3063,-5001 3038,-1576 6810,-2918 11074,-4006 4313,-1100 9213,-1991 14457,-2640z"/>
   <path class="fil1" d="M102902 25599c-10680,-3417 -16375,-1801 -21441,-358 -6182,1757 -11703,3329 -20457,-141 2402,6126 5771,10651 10168,13734 6376,4470 15238,6211 26740,5643l1608 -5610c1201,-4115 2302,-7859 3382,-13268zm-24528 -11199c7363,-2096 15742,-4478 32636,2172 2624,838 4305,3494 3837,6291 -1451,8612 -2894,13557 -4526,19131 -749,2583 -1551,5308 -2531,9173 -576,2261 -2527,4022 -4981,4231 -16100,1435 -28670,-765 -38069,-7351 -9511,-6665 -15399,-17462 -18006,-33107 -295,-1439 -33,-2999 862,-4308 1753,-2568 5259,-3229 7827,-1476 12130,8323 17108,6904 22951,5244z"/>
   <path class="fil1" d="M101673 55491c-3080,411 -5917,-1749 -6328,-4828 -411,-3079 1749,-5916 4828,-6327 12304,-1681 19760,-5062 24596,-10144 3293,-3466 5578,-7919 7476,-13304 -3804,-645 -7798,-2374 -12135,-4248 -10567,-4570 -23975,-10365 -38508,5228 -2115,2273 -5686,2402 -7959,286 -2273,-2116 -2402,-5687 -286,-7960 19933,-21388 37424,-13831 51203,-7871 5505,2382 10168,4393 12243,3043 1338,-1040 3124,-1467 4889,-1003 3006,789 4804,3868 4014,6875 -2930,10990 -6231,19828 -12780,26716 -6609,6944 -16124,11474 -31253,13537z"/>
   <path class="fil1" d="M119147 95228c-399,3079 -3224,5252 -6303,4853 -3079,-399 -5251,-3225 -4852,-6304 580,-4400 2289,-8918 4554,-13202 2700,-5111 6255,-10027 9559,-14029 1971,-2394 5518,-2741 7912,-770l108 93c3652,3151 6972,8814 10052,16068 2833,6662 5609,14948 8346,23935 899,2966 -778,6110 -3744,7008 -2966,899 -6110,-777 -7008,-3744 -2600,-8536 -5244,-16418 -7952,-22790 -1136,-2676 -2253,-5030 -3349,-6976 -1431,2059 -2793,4239 -3962,6452 -1704,3228 -2978,6484 -3361,9406z"/>
   <path class="fil2" d="M89643 194011l17635 -17636c2277,-2216 5905,-2212 8182,0 2321,2257 2373,5973 112,8294l-21782 21783c-2290,2289 -6005,2289 -8294,0l-9588 -9587c-2213,-2277 -2213,-5905 4,-8182 2257,-2321 5972,-2369 8290,-112l5441 5440 0 0z"/>
   <path class="fil1" d="M50486 52638c12803,4380 26977,6367 41853,6375 16148,17 33192,-2289 50256,-6347l1112 4699c-17370,4131 -34784,6481 -51368,6460 -15416,-12 -30114,-2071 -43401,-6617l1548 -4570z"/>
  </g>
 </g>
</svg>
