<?xml version="1.0" encoding="UTF-8"?>
<!DOCTYPE svg PUBLIC "-//W3C//DTD SVG 1.0//EN" "http://www.w3.org/TR/2001/REC-SVG-20010904/DTD/svg10.dtd">
<!-- Creator: CorelDRAW X7 -->
<svg xmlns="http://www.w3.org/2000/svg" xml:space="preserve" width="23px" height="23px" version="1.0" style="shape-rendering:geometricPrecision; text-rendering:geometricPrecision; image-rendering:optimizeQuality; fill-rule:evenodd; clip-rule:evenodd"
viewBox="0 0 25458 25458"
 xmlns:xlink="http://www.w3.org/1999/xlink">
 <defs>
  <style type="text/css">
   <![CDATA[
    .fil0 {fill:black}
   ]]>
  </style>
 </defs>
 <g id="Слой_x0020_1">
  <metadata id="CorelCorpID_0Corel-Layer"/>
  <path class="fil0" d="M7850 17607l-6777 0c-291,0 -563,-123 -758,-317 -193,-193 -315,-464 -315,-758l0 -7607c0,-296 122,-566 315,-760 193,-193 463,-315 758,-315l6777 0 0 -6778c0,-294 122,-564 315,-757 197,-194 465,-315 760,-315l7607 0c295,0 566,122 759,315 193,193 316,463 316,757l0 6778 6779 0c293,0 562,122 755,317 195,194 317,466 317,758l0 7607c0,294 -122,565 -315,758 -195,194 -464,317 -757,317l-6779 0 0 6778c0,292 -123,561 -317,755 -195,196 -467,318 -758,318l-7607 0c-291,0 -560,-121 -754,-314 -200,-201 -321,-469 -321,-759l0 -6778zm-6777 -986l7762 0 0 7764 24 57 66 31 7607 0 62 -28 27 -60 0 -7764 7765 0 60 -27 27 -62 0 -7607 -28 -62 -59 -28 -7765 0 0 -7763 -26 -60 -63 -27 -7607 0 -63 27 -27 60 0 7763 -7762 0 -61 27 -27 63 0 7607 27 62 61 27z"/>
 </g>
</svg>
