<?xml version="1.0" encoding="UTF-8"?>
<!DOCTYPE svg PUBLIC "-//W3C//DTD SVG 1.0//EN" "http://www.w3.org/TR/2001/REC-SVG-20010904/DTD/svg10.dtd">
<!-- Creator: CorelDRAW X7 -->
<svg xmlns="http://www.w3.org/2000/svg" xml:space="preserve" width="75px" height="75px" version="1.0" style="shape-rendering:geometricPrecision; text-rendering:geometricPrecision; image-rendering:optimizeQuality; fill-rule:evenodd; clip-rule:evenodd"
viewBox="0 0 316554 316559"
 xmlns:xlink="http://www.w3.org/1999/xlink">
 <defs>
  <style type="text/css">
   <![CDATA[
    .fil0 {fill:#207BBB}
    .fil1 {fill:#FFCF00}
   ]]>
  </style>
 </defs>
 <g id="Слой_x0020_1">
  <metadata id="CorelCorpID_0Corel-Layer"/>
  <g id="_935783600">
   <g id="_1421061584">
    <path class="fil0" d="M58954 284918l-58959 0 0 -15040 60300 0c902,15 1794,195 2592,514l83745 31132 22642 0 85724 -74896 -7553 -7857 -75100 55165c-2189,1605 -5080,1889 -7543,758l-58525 -26915c-3285,-1580 -4960,-5284 -3988,-8793 972,-3505 4352,-5838 7971,-5489l28086 2981 17289 -2148 0 -8849 -19966 0 -42827 -4382 -29486 12901c-948,404 -1965,604 -2991,604l-60370 0 0 -15040 58799 0 29831 -12782c1182,-524 2483,-733 3769,-603l44292 4526 26257 0c4152,0 7522,3365 7522,7518l0 22787c0,3813 -2821,7043 -6620,7502l-16321 1815 19173 9018 76825 -56591c2991,-2204 7189,-1830 9786,817l17881 18196c2902,2951 2917,7687 -20,10618 -119,120 -239,235 -369,344l-93774 81960c-1371,1202 -3131,1875 -4955,1875l-26795 0c-898,0 -1790,-145 -2627,-459l-83695 -31187 0 0z"/>
    <g>
     <circle class="fil1" cx="120316" cy="97242" r="39920"/>
     <path class="fil0" d="M276095 131970l36361 0 0 15036 -39587 0c-2049,0 -4003,-848 -5418,-2328l-27478 -28769 -53595 -4871 -26795 0c-4153,0 -7523,-3355 -7528,-7507 0,-160 0,-320 10,-474l1690 -25688c225,-3420 2722,-6262 6062,-6905l25634 -5264c1046,-259 2138,-254 3185,5l28615 6346 28948 -3096 1795 14981 -30185 3584c-823,134 -1665,129 -2493,-10l-54 -10 -28386 -6341 -18469 3729 -783 11715 19437 0 57059 5284c1835,169 3540,992 4791,2313l27184 28270 0 0z"/>
     <path class="fil0" d="M259429 35658l-84696 -19905 -57045 41481 -8868 -12174 59806 -43495c1735,-1336 3983,-1854 6132,-1400l54 9 89598 21082c1086,225 2103,708 2931,1376l49218 38281 -9148 12074 -47982 -37329 0 0z"/>
     <path class="fil0" d="M181183 32518l28410 11366 -5568 13993 -25309 -10334 -30624 15259 -6774 -13395 33704 -16849 40 -20c1949,-873 4172,-883 6121,-20l0 0z"/>
     <path class="fil0" d="M160241 100305l14995 2029 -294 2218c-3644,27364 -27009,47753 -54602,47728 -30359,-25 -54985,-24612 -54985,-54986 0,-30369 24621,-54985 54990,-54985 21446,0 40938,12472 49926,31949l937 2034 -13624 6321 -937 -2049c-4442,-9661 -12458,-17094 -22428,-20783 -9941,-3679 -20918,-3265 -30549,1162 -9666,4442 -17094,12458 -20788,22428 -3679,9940 -3260,20917 1162,30548 4441,9662 12458,17094 22428,20783 9940,3679 20917,3266 30553,-1161 12448,-5718 21102,-17423 22917,-31008l299 -2228z"/>
     <path class="fil0" d="M118660 85484l0 7174 5379 0c1979,0 3589,-1605 3589,-3584 0,-1979 -1610,-3590 -3589,-3590l-5379 0zm-14048 25494l0 -6555 5987 0c0,-9113 0,-18221 0,-27328l13440 0c6615,0 11979,5364 11979,11979 0,6615 -5364,11979 -11979,11979l-5379 0 0 3370 14268 0 0 6555 -14268 0 0 6411 -8061 0 0 -6411 -5987 0 0 0z"/>
    </g>
   </g>
  </g>
 </g>
</svg>
