<?xml version="1.0" encoding="UTF-8"?>
<!DOCTYPE svg PUBLIC "-//W3C//DTD SVG 1.0//EN" "http://www.w3.org/TR/2001/REC-SVG-20010904/DTD/svg10.dtd">
<!-- Creator: CorelDRAW X7 -->
<svg xmlns="http://www.w3.org/2000/svg" xml:space="preserve" width="47px" height="42px" version="1.0" style="shape-rendering:geometricPrecision; text-rendering:geometricPrecision; image-rendering:optimizeQuality; fill-rule:evenodd; clip-rule:evenodd"
viewBox="0 0 277020 246815"
 xmlns:xlink="http://www.w3.org/1999/xlink">
 <defs>
  <style type="text/css">
   <![CDATA[
    .fil0 {fill:black}
   ]]>
  </style>
 </defs>
 <g id="Слой_x0020_1">
  <metadata id="CorelCorpID_0Corel-Layer"/>
  <g id="_1339815504">
   <polygon class="fil0" points="27330,75784 27330,246815 17444,246815 17444,75784 "/>
   <polygon class="fil0" points="258755,75784 258755,246815 248870,246815 248870,75784 "/>
   <path class="fil0" d="M55494 170414l165212 0c1598,0 3028,631 4094,1697 1038,1038 1704,2503 1704,4101l0 42692c0,1619 -666,3057 -1704,4094 -1038,1038 -2475,1704 -4094,1704l-165212 0c-1599,0 -3064,-666 -4102,-1704 -1066,-1065 -1697,-2496 -1697,-4094l0 -42692c0,-1570 631,-3035 1697,-4101 1066,-1066 2531,-1697 4102,-1697zm161124 9886l-157037 0 0 34516 157037 0 0 -34516z"/>
   <path class="fil0" d="M54638 202504c-2727,0 -4943,-2215 -4943,-4942 0,-2728 2216,-4943 4943,-4943l121694 0c2727,0 4943,2215 4943,4943 0,2727 -2216,4942 -4943,4942l-121694 0z"/>
   <circle class="fil0" cx="198186" cy="197562" r="4943"/>
   <polygon class="fil0" points="77523,219759 77523,246815 67637,246815 67637,219759 "/>
   <polygon class="fil0" points="99089,219759 99089,246815 89203,246815 89203,219759 "/>
   <polygon class="fil0" points="186989,219759 186989,246815 177103,246815 177103,219759 "/>
   <polygon class="fil0" points="208555,219759 208555,246815 198669,246815 198669,219759 "/>
   <path class="fil0" d="M5938 81716c-960,0 -1843,-218 -2699,-645 -1164,-582 -2061,-1494 -2608,-2651l-70 -154c-372,-820 -561,-1690 -561,-2545 0,-954 238,-2033 729,-3078l31915 -69747c827,-1802 2615,-2875 4480,-2875l202764 -21c2132,0 3955,1360 4649,3253l31746 69390c491,1052 737,2110 737,3085 0,946 -239,1942 -709,2847 -553,1065 -1416,1935 -2538,2496 -855,427 -1738,645 -2699,645l-265136 0zm34341 -71830l-28346 61944 253146 0 -28346 -61944 -196454 0z"/>
   <polygon class="fil0" points="18797,146548 87556,73393 94735,80152 25976,153307 "/>
   <polygon class="fil0" points="18797,111415 54540,73393 61720,80152 25976,118174 "/>
   <polygon class="fil0" points="250223,153307 181464,80152 188643,73393 257402,146548 "/>
   <polygon class="fil0" points="250223,118174 214480,80152 221659,73393 257402,111415 "/>
   <g>
    <polygon class="fil0" points="60030,2875 93417,74704 84457,78841 51070,7011 "/>
    <g>
     <path class="fil0" d="M104207 2875c11134,23943 22261,47886 33388,71829 -2987,1382 -5974,2763 -8961,4137 -11126,-23943 -22253,-47887 -33387,-71830 2987,-1374 5974,-2755 8960,-4136z"/>
     <path class="fil0" d="M148385 2875c11134,23943 22261,47886 33387,71829 -2986,1382 -5973,2763 -8960,4137 -11127,-23943 -22253,-47887 -33387,-71830 2986,-1374 5973,-2755 8960,-4136z"/>
    </g>
    <polygon class="fil0" points="192563,2875 225950,74704 216990,78841 183602,7011 "/>
   </g>
   <g>
    <polygon class="fil0" points="216990,2875 183602,74704 192563,78841 225950,7011 "/>
    <g>
     <path class="fil0" d="M172812 2875c-11134,23943 -22261,47886 -33387,71829 2986,1382 5973,2763 8960,4137 11127,-23943 22254,-47887 33387,-71830 -2986,-1374 -5973,-2755 -8960,-4136z"/>
     <path class="fil0" d="M128634 2875c-11133,23943 -22260,47886 -33387,71829 2987,1382 5974,2763 8960,4137 11127,-23943 22254,-47887 33388,-71830 -2987,-1374 -5974,-2755 -8961,-4136z"/>
    </g>
    <polygon class="fil0" points="84457,2875 51070,74704 60030,78841 93417,7011 "/>
   </g>
  </g>
 </g>
</svg>
