<?xml version="1.0" encoding="utf-8"?>
<!-- Generator: Adobe Illustrator 21.1.0, SVG Export Plug-In . SVG Version: 6.00 Build 0)  -->
<svg version="1.1" id="Слой_1" xmlns="http://www.w3.org/2000/svg" xmlns:xlink="http://www.w3.org/1999/xlink" x="0px" y="0px"
	 viewBox="0 0 45 45" style="enable-background:new 0 0 45 45;" xml:space="preserve">
<g id="Слой_x0020_1">
	<polygon points="0,0 12.99,0 15.894,0 24.995,6.853 23.943,8.249 15.311,1.748 1.748,1.748 1.748,43.252 19.217,43.252 
		19.217,25.442 11.448,25.442 11.448,23.694 28.733,23.694 28.733,25.442 20.964,25.442 20.964,43.252 43.252,43.252 43.252,25.442 
		35.179,25.442 35.179,23.694 43.252,23.694 43.252,1.748 28.734,1.748 28.734,0 45,0 45,23.694 45,25.442 45,45 0,45 	"/>
</g>
</svg>
