<?xml version="1.0" encoding="UTF-8"?>
<!DOCTYPE svg PUBLIC "-//W3C//DTD SVG 1.0//EN" "http://www.w3.org/TR/2001/REC-SVG-20010904/DTD/svg10.dtd">
<!-- Creator: CorelDRAW X7 -->
<svg xmlns="http://www.w3.org/2000/svg" xml:space="preserve" width="93px" height="134px" version="1.0" style="shape-rendering:geometricPrecision; text-rendering:geometricPrecision; image-rendering:optimizeQuality; fill-rule:evenodd; clip-rule:evenodd"
viewBox="0 0 436036 627418"
 xmlns:xlink="http://www.w3.org/1999/xlink">
 <defs>
  <style type="text/css">
   <![CDATA[
    .fil0 {fill:#1047A9}
    .fil1 {fill:white}
   ]]>
  </style>
 </defs>
 <g id="Слой_x0020_1">
  <metadata id="CorelCorpID_0Corel-Layer"/>
  <g id="_999265456">
   <path class="fil0" d="M218018 0c120406,0 218018,97613 218018,218024 0,41289 -11490,81171 -33348,115909l-184670 293485 -184670 -293485c-22550,-39057 -33348,-74604 -33348,-115909 0,-120411 97613,-218024 218018,-218024z"/>
   <g>
    <g id="_1340908272">
     <path class="fil1" d="M119198 315215c14343,0 25413,-9746 25413,-24022 0,-14276 -11070,-24028 -25413,-24028 -14348,0 -25423,9752 -25423,24028 0,14276 11070,24022 25423,24022zm0 -12393c-6761,0 -11147,-5156 -11147,-11629 0,-6479 4391,-11629 11147,-11629 6751,0 11137,5150 11137,11629 0,6473 -4386,11629 -11137,11629zm75213 11563l0 -46461 -14071 0 0 16441 -16641 0 0 -16441 -14071 0 0 46461 14071 0 0 -17765 16641 0 0 17765 14071 0zm21032 0l17134 -26332 0 26332 14065 0 0 -46461 -14481 0 -16164 24797 0 -24797 -14066 0 0 46461 13512 0 0 0 0 0zm82949 0l-18319 -24870 17549 -21591 -17200 0 -12188 17416 0 -17416 -14066 0 0 46461 14066 0 0 -12892 2575 -3483 10449 16369 17134 0 0 0 0 6zm22765 830c12189,0 18396,-7381 21104,-13584l-12116 -5570c-1180,3627 -4807,6761 -8988,6761 -6750,0 -11274,-5156 -11274,-11629 0,-6479 4524,-11629 11274,-11629 4181,0 7803,3129 8988,6750l12116 -5643c-2780,-6407 -8915,-13506 -21104,-13506 -14547,0 -25551,9680 -25551,24028 0,14276 11004,24022 25551,24022z"/>
     <path class="fil1" d="M234232 242550c-33414,8954 -67758,-10876 -76713,-44285 -8954,-33414 10871,-67759 44290,-76719l60499 -16208 0 0c4143,15455 -5177,31243 -20633,35385l-32401 8683c-18030,4829 -28724,23358 -23900,41389 4834,18025 23363,28729 41388,23895 18031,-4829 28730,-23363 23901,-41389 -2780,-10361 -10079,-18302 -19210,-22255l12116 -3251c7127,-1911 13185,-5853 17737,-11031 8030,7664 14127,17565 17211,29078 8955,33415 -10870,67754 -44285,76708l0 0 0 0z"/>
    </g>
   </g>
  </g>
 </g>
</svg>
