<?xml version="1.0" encoding="UTF-8"?>
<!DOCTYPE svg PUBLIC "-//W3C//DTD SVG 1.0//EN" "http://www.w3.org/TR/2001/REC-SVG-20010904/DTD/svg10.dtd">
<!-- Creator: CorelDRAW X7 -->
<svg xmlns="http://www.w3.org/2000/svg" xml:space="preserve" width="38px" height="38px" version="1.0" style="shape-rendering:geometricPrecision; text-rendering:geometricPrecision; image-rendering:optimizeQuality; fill-rule:evenodd; clip-rule:evenodd"
viewBox="0 0 111660 111660"
 xmlns:xlink="http://www.w3.org/1999/xlink">
 <defs>
  <style type="text/css">
   <![CDATA[
    .fil0 {fill:#207BBB}
    .fil1 {fill:white}
   ]]>
  </style>
 </defs>
 <g id="Слой_x0020_1">
  <metadata id="CorelCorpID_0Corel-Layer"/>
  <g id="_997135600">
   <circle class="fil0" cx="55830" cy="55830" r="55828"/>
   <g>
    <g id="_1452153104">
     <path class="fil1" d="M73929 56576l0 24512c0,1743 -715,3335 -1867,4488 -1153,1141 -2735,1863 -4488,1863l-23492 0c-1749,0 -3335,-715 -4487,-1863 -1149,-1156 -1867,-2742 -1867,-4488l0 -24512 2158 0 0 24512c0,1153 472,2208 1233,2961 756,760 1811,1232 2963,1232l23492 0c1156,0 2207,-472 2967,-1232 757,-757 1232,-1815 1232,-2961l0 -24512 2156 0z"/>
     <path class="fil1" d="M38877 50409l33906 0c993,0 1902,406 2551,1066 660,652 1069,1558 1069,2554 0,996 -406,1909 -1065,2558 -653,655 -1562,1068 -2555,1068l-33906 0c-996,0 -1902,-413 -2558,-1065 -653,-652 -1062,-1565 -1062,-2558 0,-992 409,-1909 1065,-2557 653,-656 1559,-1066 2555,-1066zm33906 2159l-33906 0c-400,0 -771,166 -1031,427 -271,263 -434,635 -434,1034 0,409 163,777 430,1041 264,260 635,430 1035,430l33906 0c400,0 771,-170 1035,-430 263,-264 426,-632 426,-1038 0,-402 -163,-774 -426,-1037 -264,-264 -635,-427 -1035,-427z"/>
     <path class="fil1" d="M49812 51488l0 -24748c0,-371 156,-715 396,-954 243,-243 579,-392 951,-392l9342 0c379,0 712,156 951,395 240,240 396,569 396,951l0 24748 -2155 0 0 -23939 -7729 0 0 23939 -2152 0 0 0z"/>
     <path class="fil1" d="M56954 32668c-593,0 -1075,-483 -1075,-1079 0,-597 482,-1076 1075,-1076l3818 0c597,0 1076,482 1076,1076 0,596 -483,1079 -1076,1079l-3818 0z"/>
     <path class="fil1" d="M56954 37592c-593,0 -1075,-485 -1075,-1075 0,-597 482,-1080 1075,-1080l3818 0c597,0 1076,483 1076,1080 0,593 -483,1075 -1076,1075l-3818 0z"/>
     <path class="fil1" d="M56954 42521c-593,0 -1075,-483 -1075,-1076 0,-597 482,-1080 1075,-1080l3818 0c597,0 1076,483 1076,1080 0,593 -483,1076 -1076,1076l-3818 0z"/>
     <path class="fil1" d="M56954 47445c-593,0 -1075,-482 -1075,-1076 0,-597 482,-1075 1075,-1075l3818 0c597,0 1076,482 1076,1075 0,594 -483,1076 -1076,1076l-3818 0z"/>
     <path class="fil1" d="M43756 36399c-149,-573 198,-1163 771,-1312 569,-149 1162,194 1315,767l4060 15249c150,573 -197,1166 -770,1315 -569,150 -1163,-197 -1312,-766l-4064 -15253zm-4019 14961c149,573 -194,1166 -767,1315 -572,150 -1166,-194 -1315,-770l-3450 -12962c-145,-570 198,-1163 771,-1312 572,-153 1162,194 1315,767l3446 12962z"/>
     <path class="fil1" d="M36478 37905c1076,194 2374,87 3620,-243 1239,-330 2416,-885 3249,-1590l-5383 -6399 -1486 8232 0 0zm4165 1836c-2002,534 -4165,569 -5785,-70 -469,-184 -760,-673 -667,-1190l2069 -11439c41,-236 166,-465 364,-631 451,-379 1135,-320 1513,131l7434 8840c368,385 406,992 63,1419 -1094,1364 -2992,2409 -4991,2940l0 0z"/>
     <path class="fil1" d="M64957 34115c511,-2617 2732,-4605 4776,-6427l69 -56c1139,-1020 2211,-1985 2728,-2877 295,-510 961,-687 1472,-389 145,87 270,198 354,334 1183,1763 2207,4136 2734,6489 483,2149 559,4321 4,6060 -760,2356 -2527,3529 -4495,3793 -919,118 -1860,38 -2752,-198 -885,-239 -1749,-645 -2495,-1187l-38 -27c-1711,-1257 -2804,-3214 -2357,-5515l0 0zm6206 -4820c-1781,1589 -3724,3324 -4089,5223 -267,1377 427,2582 1500,3373l41 28c521,381 1146,670 1791,843 632,170 1291,233 1902,149 1201,-163 2277,-878 2738,-2318 431,-1347 351,-3123 -55,-4932 -344,-1554 -927,-3113 -1638,-4452 -615,676 -1350,1336 -2117,2020l-73 66z"/>
     <path class="fil1" d="M68813 38963c-982,2038 -1888,4127 -2728,6244 -857,2190 -1638,4355 -2353,6490l-2033 -684c763,-2280 1558,-4501 2387,-6594 864,-2166 1791,-4303 2787,-6382l1940 926 0 0zm1867 12140c344,-1874 656,-3758 899,-5629 243,-1846 444,-3724 580,-5612l2148 146c-132,1888 -340,3811 -597,5744 -250,1908 -562,3828 -913,5736l-2117 -385 0 0z"/>
    </g>
   </g>
  </g>
 </g>
</svg>
