<?xml version="1.0" encoding="utf-8"?>
<!-- Generator: Adobe Illustrator 21.1.0, SVG Export Plug-In . SVG Version: 6.00 Build 0)  -->
<svg version="1.1" id="Слой_1" xmlns="http://www.w3.org/2000/svg" xmlns:xlink="http://www.w3.org/1999/xlink" x="0px" y="0px"
	 viewBox="0 0 315 188.152" style="enable-background:new 0 0 315 188.152;" xml:space="preserve">
<path d="M308,54.249h-16.408V7c0-3.866-3.134-7-7-7H30.408c-3.866,0-7,3.134-7,7v47.249H7c-3.866,0-7,3.134-7,7V162.53
	c0,3.866,3.134,7,7,7h16.408v11.622c0,3.866,3.134,7,7,7s7-3.134,7-7V169.53h240.184v11.622c0,3.866,3.134,7,7,7s7-3.134,7-7V169.53
	H308c3.866,0,7-3.134,7-7V61.249C315,57.383,311.866,54.249,308,54.249z M37.408,14h240.184v40.249h-16.406c-3.866,0-7,3.134-7,7
	v47.83H60.814v-47.83c0-3.866-3.134-7-7-7H37.408V14z M301,155.53H14V68.249h32.814v47.83c0,3.866,3.134,7,7,7h207.371
	c3.866,0,7-3.134,7-7v-47.83H301V155.53z"/>
</svg>
