<?xml version="1.0" encoding="UTF-8"?>
<!DOCTYPE svg PUBLIC "-//W3C//DTD SVG 1.0//EN" "http://www.w3.org/TR/2001/REC-SVG-20010904/DTD/svg10.dtd">
<!-- Creator: CorelDRAW X7 -->
<svg xmlns="http://www.w3.org/2000/svg" xml:space="preserve" width="43px" height="26px" version="1.0" style="shape-rendering:geometricPrecision; text-rendering:geometricPrecision; image-rendering:optimizeQuality; fill-rule:evenodd; clip-rule:evenodd"
viewBox="0 0 463439 276774"
 xmlns:xlink="http://www.w3.org/1999/xlink">
 <defs>
  <style type="text/css">
   <![CDATA[
    .fil0 {fill:black}
   ]]>
  </style>
 </defs>
 <g id="Слой_x0020_1">
  <metadata id="CorelCorpID_0Corel-Layer"/>
  <g id="_992363968">
   <path class="fil0" d="M11162 80145l67352 0c4957,0 8983,4026 8983,8983l0 74156 288445 0 0 -74156c0,-4957 4027,-8983 8983,-8983l67352 0c3109,0 5862,1249 7888,3275 2025,2025 3274,4778 3274,7887l0 147115c0,3032 -1249,5861 -3274,7887 -2026,2026 -4779,3274 -7888,3274l-441115 0c-3033,0 -5861,-1248 -7887,-3274 -2026,-2026 -3275,-4855 -3275,-7887l0 -147115c0,-3109 1249,-5862 3275,-7887 2026,-2026 4854,-3275 7887,-3275zm58369 17966l-51565 0 0 133507 427507 0 0 -133507 -51565 0 0 71977c0,3033 -1249,5861 -3275,7887 -2026,2026 -4854,3275 -7887,3275l-302053 0c-3033,0 -5861,-1249 -7887,-3275 -2026,-2026 -3275,-4854 -3275,-7887l0 -71977z"/>
   <path class="fil0" d="M34046 89128l0 -77966c0,-3109 1248,-5861 3274,-7887 2026,-2026 4855,-3275 7887,-3275l372859 0c3020,0 5861,1261 7862,3287 2064,2039 3300,4855 3300,7875l0 77966 -17966 0 0 -71162 -359251 0 0 71162 -17965 0z"/>
   <path class="fil0" d="M35473 240601c0,-4957 4026,-8983 8983,-8983 4956,0 8982,4026 8982,8983l0 27190c0,4957 -4026,8983 -8982,8983 -4957,0 -8983,-4026 -8983,-8983l0 -27190z"/>
   <path class="fil0" d="M410013 240601c0,-4957 4027,-8983 8983,-8983 4957,0 8983,4026 8983,8983l0 27190c0,4957 -4026,8983 -8983,8983 -4956,0 -8983,-4026 -8983,-8983l0 -27190z"/>
  </g>
 </g>
</svg>
