<?xml version="1.0" encoding="UTF-8"?>
<!DOCTYPE svg PUBLIC "-//W3C//DTD SVG 1.0//EN" "http://www.w3.org/TR/2001/REC-SVG-20010904/DTD/svg10.dtd">
<!-- Creator: CorelDRAW X7 -->
<svg xmlns="http://www.w3.org/2000/svg" xml:space="preserve" width="18px" height="22px" version="1.0" style="shape-rendering:geometricPrecision; text-rendering:geometricPrecision; image-rendering:optimizeQuality; fill-rule:evenodd; clip-rule:evenodd"
viewBox="0 0 15883 18877"
 xmlns:xlink="http://www.w3.org/1999/xlink">
 <defs>
  <style type="text/css">
   <![CDATA[
    .fil0 {fill:black}
   ]]>
  </style>
 </defs>
 <g id="Слой_x0020_1">
  <metadata id="CorelCorpID_0Corel-Layer"/>
  <g id="_1227053968">
   <path class="fil0" d="M1077 0l13729 0c297,0 566,122 761,316 194,195 316,465 316,761l0 16723c0,296 -122,566 -316,760 -195,195 -464,317 -761,317l-13729 0c-296,0 -566,-122 -761,-317 -194,-194 -316,-464 -316,-760l0 -16723c0,-296 122,-566 316,-761 195,-194 465,-316 761,-316zm13729 775l-13729 0c-82,0 -158,34 -213,89 -55,55 -89,131 -89,213l0 16723c0,82 34,158 89,213 55,54 131,88 213,88l13729 0c83,0 158,-34 213,-88 55,-55 89,-131 89,-213l0 -16723c0,-82 -34,-158 -89,-213 -55,-55 -130,-89 -213,-89z"/>
   <polygon class="fil0" points="2311,388 2311,18489 1536,18489 1536,388 "/>
   <polygon class="fil0" points="13958,9826 1925,9826 1925,9050 13958,9050 "/>
   <polygon class="fil0" points="14346,388 14346,18489 13571,18489 13571,388 "/>
   <polygon class="fil0" points="13958,4822 1925,4822 1925,4047 13958,4047 "/>
   <polygon class="fil0" points="13958,14829 1925,14829 1925,14053 13958,14053 "/>
   <path class="fil0" d="M7941 6162c904,0 1723,368 2316,959 592,594 960,1414 960,2317 0,903 -368,1723 -959,2315 -594,593 -1413,961 -2317,961 -902,0 -1723,-368 -2315,-960 -593,-593 -961,-1413 -961,-2316 0,-903 368,-1723 959,-2316 594,-592 1415,-960 2317,-960zm1769 1507c-452,-451 -1077,-732 -1769,-732 -690,0 -1317,281 -1769,732 -450,452 -732,1078 -732,1769 0,691 282,1317 732,1769 452,450 1079,731 1769,731 692,0 1317,-281 1769,-731 450,-452 732,-1078 732,-1769 0,-691 -282,-1317 -732,-1769z"/>
   <path class="fil0" d="M10805 388l0 116c0,459 -189,880 -492,1183 -302,303 -723,492 -1182,492l-2379 0c-459,0 -879,-189 -1182,-492 -303,-303 -492,-724 -492,-1183l0 -116 775 0 0 116c0,246 102,473 265,635 162,162 388,265 634,265l2379 0c246,0 472,-103 635,-265 162,-162 264,-389 264,-635l0 -116 775 0z"/>
   <path class="fil0" d="M10030 18489l0 -117c0,-245 -102,-472 -264,-634 -163,-163 -389,-265 -635,-265l-2379 0c-246,0 -472,102 -634,265 -163,162 -265,388 -265,634l0 117 -775 0 0 -117c0,-459 189,-879 492,-1182 303,-303 723,-492 1182,-492l2379 0c459,0 879,190 1181,492 304,303 493,723 493,1182l0 117 -775 0z"/>
  </g>
 </g>
</svg>
