<?xml version="1.0" encoding="UTF-8"?>
<!DOCTYPE svg PUBLIC "-//W3C//DTD SVG 1.0//EN" "http://www.w3.org/TR/2001/REC-SVG-20010904/DTD/svg10.dtd">
<!-- Creator: CorelDRAW X7 -->
<svg xmlns="http://www.w3.org/2000/svg" xml:space="preserve" width="38px" height="38px" version="1.0" style="shape-rendering:geometricPrecision; text-rendering:geometricPrecision; image-rendering:optimizeQuality; fill-rule:evenodd; clip-rule:evenodd"
viewBox="0 0 248886 248886"
 xmlns:xlink="http://www.w3.org/1999/xlink">
 <defs>
  <style type="text/css">
   <![CDATA[
    .fil0 {fill:#207BBB}
    .fil1 {fill:white}
   ]]>
  </style>
 </defs>
 <g id="Слой_x0020_1">
  <metadata id="CorelCorpID_0Corel-Layer"/>
  <g id="_991462784">
   <circle class="fil0" cx="124443" cy="124443" r="124439"/>
   <g>
    <g id="_1227053968">
     <path class="fil1" d="M82276 66464l84326 0c1826,0 3481,751 4680,1942 1191,1199 1942,2855 1942,4680l0 102714c0,1825 -751,3481 -1942,4672 -1199,1199 -2854,1949 -4680,1949l-84326 0c-1826,0 -3481,-750 -4680,-1949 -1191,-1191 -1942,-2847 -1942,-4672l0 -102714c0,-1825 751,-3481 1942,-4680 1199,-1191 2854,-1942 4680,-1942zm84326 4766l-84326 0c-510,0 -975,208 -1315,541 -333,340 -541,805 -541,1315l0 102714c0,510 208,974 541,1315 340,332 805,541 1315,541l84326 0c511,0 975,-209 1307,-541 341,-341 550,-805 550,-1315l0 -102714c0,-510 -209,-975 -550,-1315 -332,-333 -796,-541 -1307,-541z"/>
     <polygon class="fil1" points="89849,68847 89849,180031 85092,180031 85092,68847 "/>
     <polygon class="fil1" points="161396,126818 87482,126818 87482,122053 161396,122053 "/>
     <polygon class="fil1" points="163779,68847 163779,180031 159021,180031 159021,68847 "/>
     <polygon class="fil1" points="161396,96084 87482,96084 87482,91327 161396,91327 "/>
     <polygon class="fil1" points="161396,157551 87482,157551 87482,152786 161396,152786 "/>
     <path class="fil1" d="M124435 104315c5554,0 10583,2259 14226,5894 3636,3644 5902,8680 5902,14226 0,5547 -2259,10583 -5894,14226 -3651,3636 -8680,5902 -14234,5902 -5539,0 -10582,-2259 -14218,-5902 -3643,-3636 -5902,-8679 -5902,-14226 0,-5546 2259,-10582 5887,-14226 3651,-3635 8694,-5894 14233,-5894l0 0zm10869 9259c-2777,-2769 -6614,-4502 -10869,-4502 -4239,0 -8091,1733 -10861,4502 -2769,2770 -4502,6622 -4502,10861 0,4247 1733,8092 4502,10869 2770,2761 6622,4486 10861,4486 4255,0 8092,-1725 10869,-4486 2761,-2777 4494,-6622 4494,-10869 0,-4239 -1733,-8091 -4494,-10861z"/>
     <path class="fil1" d="M142026 68847l0 712c0,2823 -1160,5407 -3017,7271 -1856,1857 -4448,3017 -7264,3017l-14612 0c-2816,0 -5400,-1160 -7256,-3017 -1865,-1864 -3025,-4448 -3025,-7271l0 -712 4758 0 0 712c0,1516 626,2908 1632,3906 998,990 2382,1625 3891,1625l14612 0c1517,0 2901,-635 3907,-1625 990,-998 1617,-2390 1617,-3906l0 -712 4765 0 -8 0z"/>
     <path class="fil1" d="M137269 180031l0 -719c0,-1501 -627,-2893 -1625,-3891 -1006,-1006 -2390,-1633 -3899,-1633l-14612 0c-1516,0 -2901,627 -3899,1633 -998,998 -1624,2382 -1624,3891l0 719 -4766 0 0 -719c0,-2816 1168,-5400 3025,-7256 1864,-1865 4440,-3025 7264,-3025l14612 0c2816,0 5400,1168 7249,3025 1872,1864 3032,4440 3032,7256l0 719 -4765 0 8 0z"/>
    </g>
   </g>
  </g>
 </g>
</svg>
