<?xml version="1.0" encoding="utf-8"?>
<!-- Generator: Adobe Illustrator 21.1.0, SVG Export Plug-In . SVG Version: 6.00 Build 0)  -->
<svg version="1.1" id="Слой_1" xmlns="http://www.w3.org/2000/svg" xmlns:xlink="http://www.w3.org/1999/xlink" x="0px" y="0px"
	 viewBox="0 0 19 22" style="enable-background:new 0 0 19 22;" xml:space="preserve">
<g id="Слой_x0020_1">
	<path d="M17.501,0H1.499C0.835,0,0.293,0.541,0.293,1.206v19.588C0.293,21.459,0.835,22,1.499,22h16.001
		c0.665,0,1.206-0.541,1.206-1.206V1.206C18.707,0.541,18.165,0,17.501,0L17.501,0z M16.094,4.715v-3.71
		c0-0.077-0.077-0.139-0.155-0.139h-3.061c-0.186,0.959-1.036,1.67-2.056,1.67H8.178c-1.005,0-1.855-0.711-2.056-1.67H3.061
		c-0.077,0-0.139,0.062-0.139,0.139v3.71C7.312,4.715,11.703,4.715,16.094,4.715z M2.922,5.566v5.009h2.783
		c0.201-1.917,1.824-3.401,3.803-3.401c1.963,0,3.587,1.484,3.803,3.401h2.783V5.566C11.703,5.566,7.312,5.566,2.922,5.566z
		 M2.922,11.441h2.783c0.201,1.902,1.824,3.401,3.803,3.401c1.963,0,3.587-1.5,3.803-3.401h2.783v4.916H2.922V11.441z
		 M12.445,11.441c-0.216,1.422-1.453,2.535-2.937,2.535c-1.5,0-2.736-1.113-2.937-2.535H12.445z M6.57,10.575
		c0.201-1.438,1.438-2.535,2.937-2.535c1.484,0,2.721,1.098,2.937,2.535H6.57z M11.997,0.866c-0.186,0.479-0.634,0.819-1.175,0.819
		H8.178c-0.526,0-0.989-0.34-1.16-0.819H11.997z M1.159,20.794V1.206c0-0.186,0.155-0.34,0.34-0.34h0.572
		C2.056,0.912,2.056,0.959,2.056,1.005v20.006c0,0.046,0,0.093,0.015,0.139H1.499C1.314,21.15,1.159,20.995,1.159,20.794
		L1.159,20.794z M7.019,21.15c0.17-0.479,0.634-0.819,1.16-0.819h2.644c0.541,0,0.989,0.34,1.175,0.819H7.019z M12.878,21.15
		c-0.186-0.959-1.036-1.685-2.056-1.685H8.178c-1.005,0-1.855,0.727-2.056,1.685H3.061c-0.077,0-0.139-0.062-0.139-0.139v-3.788
		h13.172v3.788c0,0.077-0.077,0.139-0.155,0.139H12.878z M17.856,20.794c0,0.201-0.155,0.356-0.356,0.356h-0.572
		c0.015-0.046,0.015-0.093,0.015-0.139V1.005c0-0.046,0-0.093-0.015-0.139h0.572c0.201,0,0.356,0.155,0.356,0.34V20.794z"/>
</g>
</svg>
