<?xml version="1.0" encoding="UTF-8"?>
<!DOCTYPE svg PUBLIC "-//W3C//DTD SVG 1.0//EN" "http://www.w3.org/TR/2001/REC-SVG-20010904/DTD/svg10.dtd">
<!-- Creator: CorelDRAW X7 -->
<svg xmlns="http://www.w3.org/2000/svg" xml:space="preserve" width="36px" height="36px" version="1.0" style="shape-rendering:geometricPrecision; text-rendering:geometricPrecision; image-rendering:optimizeQuality; fill-rule:evenodd; clip-rule:evenodd"
viewBox="0 0 100954 100954"
 xmlns:xlink="http://www.w3.org/1999/xlink">
 <defs>
  <style type="text/css">
   <![CDATA[
    .fil0 {fill:black}
   ]]>
  </style>
 </defs>
 <g id="Слой_x0020_1">
  <metadata id="CorelCorpID_0Corel-Layer"/>
  <g id="_1404267600">
   <path class="fil0" d="M48249 2228c0,-1228 1000,-2228 2228,-2228 1228,0 2228,1000 2228,2228l0 13134c0,1228 -1000,2228 -2228,2228 -1228,0 -2228,-1000 -2228,-2228l0 -13134z"/>
   <path class="fil0" d="M83020 14785c868,-869 2281,-869 3149,0 868,868 868,2280 0,3149l-9288 9288c-869,868 -2281,868 -3149,0 -869,-868 -869,-2281 0,-3149l9288 -9288z"/>
   <path class="fil0" d="M98726 48249c1228,0 2228,1000 2228,2228 0,1228 -1000,2228 -2228,2228l-13134 0c-1228,0 -2229,-1000 -2229,-2228 0,-1228 1001,-2228 2229,-2228l13134 0z"/>
   <path class="fil0" d="M86169 83020c868,868 868,2281 0,3149 -868,868 -2281,868 -3149,0l-9288 -9288c-869,-869 -869,-2281 0,-3149 868,-869 2280,-869 3149,0l9288 9288z"/>
   <path class="fil0" d="M52705 98726c0,1228 -1000,2228 -2228,2228 -1228,0 -2228,-1000 -2228,-2228l0 -13134c0,-1228 1000,-2229 2228,-2229 1228,0 2228,1001 2228,2229l0 13134z"/>
   <path class="fil0" d="M14785 17934c-869,-869 -869,-2281 0,-3149 868,-869 2280,-869 3149,0l9288 9288c868,868 868,2281 0,3149 -868,868 -2281,868 -3149,0l-9288 -9288z"/>
   <path class="fil0" d="M2228 52705c-1228,0 -2228,-1000 -2228,-2228 0,-1228 1000,-2228 2228,-2228l13134 0c1228,0 2228,1000 2228,2228 0,1228 -1000,2228 -2228,2228l-13134 0z"/>
   <path class="fil0" d="M17934 86169c-869,868 -2281,868 -3149,0 -869,-868 -869,-2281 0,-3149l9288 -9288c868,-869 2281,-869 3149,0 868,868 868,2280 0,3149l-9288 9288z"/>
   <path class="fil0" d="M50477 30827c-5427,0 -10345,2201 -13900,5750 -3549,3555 -5750,8473 -5750,13900 0,5427 2201,10345 5753,13897 3552,3551 8470,5753 13897,5753 5427,0 10345,-2202 13897,-5753 3551,-3552 5753,-8470 5753,-13897 0,-5427 -2202,-10345 -5750,-13900 -3555,-3549 -8473,-5750 -13900,-5750zm-17043 2607c4368,-4363 10398,-7063 17043,-7063 6658,0 12688,2703 17046,7060 4360,4371 7060,10401 7060,17046 0,6658 -2703,12688 -7060,17046 -4358,4357 -10388,7060 -17046,7060 -6645,0 -12675,-2700 -17039,-7060 -4364,-4358 -7067,-10388 -7067,-17046 0,-6645 2700,-12675 7063,-17043z"/>
  </g>
 </g>
</svg>
