<?xml version="1.0" encoding="utf-8"?>
<!-- Generator: Adobe Illustrator 21.1.0, SVG Export Plug-In . SVG Version: 6.00 Build 0)  -->
<svg version="1.1" id="Слой_1" xmlns="http://www.w3.org/2000/svg" xmlns:xlink="http://www.w3.org/1999/xlink" x="0px" y="0px"
	 viewBox="0 0 38 45" style="enable-background:new 0 0 38 45;" xml:space="preserve">
<g id="Слой_x0020_1">
	<path d="M35.876,0H2.124C1.091,0,0.25,0.841,0.25,1.874v41.25C0.25,44.159,1.091,45,2.124,45h33.751
		c1.032,0,1.874-0.841,1.874-1.874V1.876C37.75,0.841,36.908,0,35.876,0L35.876,0z M19,13.124c-7.248,0-13.124,5.876-13.124,13.124
		S11.752,39.373,19,39.373c7.249,0,13.125-5.876,13.125-13.124S26.249,13.124,19,13.124z M11.978,20.143
		c0.313-0.365,0.864-0.409,1.229-0.096c0.365,0.313,0.409,0.864,0.096,1.229l-0.118,0.138c-0.313,0.365-0.864,0.409-1.229,0.096
		c-0.365-0.313-0.409-0.864-0.096-1.229L11.978,20.143z M10.254,23.069c0.162-0.452,0.661-0.687,1.114-0.526
		c0.452,0.162,0.687,0.662,0.526,1.114c-0.149,0.416-0.263,0.84-0.339,1.276c-0.075,0.424-0.113,0.864-0.113,1.316
		c0,2.088,0.847,3.979,2.213,5.346c1.366,1.366,3.257,2.213,5.346,2.213s3.979-0.846,5.347-2.212
		c1.365-1.368,2.212-3.259,2.212-5.347s-0.846-3.979-2.212-5.347C22.979,19.535,21.088,18.69,19,18.69
		c-0.557,0-1.102,0.061-1.62,0.174c-0.542,0.117-1.058,0.293-1.538,0.513l-0.36,0.178c-0.429,0.216-0.954,0.043-1.17-0.386
		c-0.216-0.429-0.042-0.954,0.386-1.17l0.422-0.207c0.602-0.276,1.238-0.494,1.892-0.636c0.64-0.138,1.307-0.214,1.989-0.214
		c2.565,0,4.893,1.043,6.578,2.726c1.687,1.688,2.729,4.016,2.729,6.581c0,2.57-1.043,4.898-2.726,6.581
		c-1.688,1.683-4.016,2.726-6.581,2.726c-2.57,0-4.898-1.043-6.581-2.726c-1.683-1.683-2.726-4.011-2.726-6.581
		c0-0.547,0.049-1.085,0.142-1.616C9.926,24.112,10.066,23.593,10.254,23.069z M19,14.873c-6.283,0-11.376,5.093-11.376,11.376
		S12.716,37.625,19,37.625c6.284,0,11.376-5.093,11.376-11.376S25.284,14.873,19,14.873z M10.561,3.819h0.001
		c0.489,0,0.887,0.398,0.887,0.887v0.001c0,0.489-0.398,0.887-0.887,0.887h-0.001c-0.489,0-0.887-0.398-0.887-0.887V4.706
		C9.674,4.217,10.072,3.819,10.561,3.819z M13.637,4.692L13.637,4.692c0-0.481,0.39-0.874,0.874-0.874h18.539
		c0.484,0,0.874,0.393,0.874,0.874l0,0c0,0.481-0.39,0.874-0.874,0.874H14.511C14.026,5.567,13.637,5.173,13.637,4.692z M1.998,7.5
		h3.877V2.029H1.998V7.5z M7.624,7.5h28.378V2.029H7.624V7.5z M36.002,9.248H1.998v33.723h34.004V9.248z"/>
</g>
</svg>
